<svg xmlns="http://www.w3.org/2000/svg" width="610" height="250" viewBox="0 0 610 250">
  <g id="Grupo_1103016" data-name="Grupo 1103016" transform="translate(-285.051 -2980)">
    <path id="Trazado_913236" data-name="Trazado 913236" d="M-4697.559-8457.574v22.5" transform="translate(5077.609 11542.074)" fill="none" stroke="#4aafe3" stroke-width="2"/>
    <g id="Rectángulo_403320" data-name="Rectángulo 403320" transform="translate(442.051 2980)" fill="#4aafe3" stroke="#32799d" stroke-width="1">
      <rect width="296" height="82" rx="12" stroke="none"/>
      <rect x="0.5" y="0.5" width="295" height="81" rx="11.5" fill="none"/>
    </g>
    <g id="Rectángulo_403321" data-name="Rectángulo 403321" transform="translate(285.051 3107)" fill="#facba8" stroke="#f37e29" stroke-width="1" opacity="0.6">
      <rect width="190" height="123" rx="12" stroke="none"/>
      <rect x="0.5" y="0.5" width="189" height="122" rx="11.5" fill="none"/>
    </g>
    <g id="Rectángulo_403322" data-name="Rectángulo 403322" transform="translate(495.051 3107)" fill="#facba8" stroke="#f37e29" stroke-width="1" opacity="0.6">
      <rect width="190" height="123" rx="12" stroke="none"/>
      <rect x="0.5" y="0.5" width="189" height="122" rx="11.5" fill="none"/>
    </g>
    <g id="Rectángulo_403323" data-name="Rectángulo 403323" transform="translate(705.051 3107)" fill="#facba8" stroke="#f37e29" stroke-width="1" opacity="0.6">
      <rect width="190" height="123" rx="12" stroke="none"/>
      <rect x="0.5" y="0.5" width="189" height="122" rx="11.5" fill="none"/>
    </g>
    <path id="Trazado_914350" data-name="Trazado 914350" d="M-53.235-17.773-48.108-4.15l5.115-13.623H-39V0h-3.076V-5.859l.305-7.837L-47.021,0h-2.209l-5.237-13.684.305,7.825V0h-3.076V-17.773ZM-32.483,0h-2.966V-13.208h2.966Zm-3.149-16.638a1.574,1.574,0,0,1,.433-1.135,1.637,1.637,0,0,1,1.239-.452,1.658,1.658,0,0,1,1.245.452,1.562,1.562,0,0,1,.439,1.135,1.526,1.526,0,0,1-.439,1.117,1.671,1.671,0,0,1-1.245.446,1.65,1.65,0,0,1-1.239-.446A1.538,1.538,0,0,1-35.632-16.638Zm9.131,3.43.085,1.526a4.749,4.749,0,0,1,3.845-1.77q4.126,0,4.2,4.724V0h-2.966V-8.557a2.72,2.72,0,0,0-.543-1.862,2.285,2.285,0,0,0-1.776-.6A2.858,2.858,0,0,0-26.331-9.4V0H-29.3V-13.208ZM-12.195,0h-2.966V-13.208h2.966Zm-3.149-16.638a1.574,1.574,0,0,1,.433-1.135,1.637,1.637,0,0,1,1.239-.452,1.658,1.658,0,0,1,1.245.452,1.562,1.562,0,0,1,.439,1.135,1.526,1.526,0,0,1-.439,1.117,1.671,1.671,0,0,1-1.245.446,1.65,1.65,0,0,1-1.239-.446A1.538,1.538,0,0,1-15.344-16.638ZM-1.562-3.589A1.345,1.345,0,0,0-2.216-4.8,6.946,6.946,0,0,0-4.382-5.53a11.138,11.138,0,0,1-2.527-.806A3.372,3.372,0,0,1-9.131-9.448,3.516,3.516,0,0,1-7.69-12.3a5.694,5.694,0,0,1,3.662-1.147A5.925,5.925,0,0,1-.2-12.28a3.719,3.719,0,0,1,1.459,3.04H-1.709a1.828,1.828,0,0,0-.635-1.422,2.433,2.433,0,0,0-1.685-.568,2.629,2.629,0,0,0-1.593.452A1.424,1.424,0,0,0-6.238-9.57a1.2,1.2,0,0,0,.574,1.062,7.89,7.89,0,0,0,2.319.763A10.979,10.979,0,0,1-.6-6.83,3.881,3.881,0,0,1,.873-5.554a3.253,3.253,0,0,1,.482,1.807A3.441,3.441,0,0,1-.122-.861a6.3,6.3,0,0,1-3.87,1.1A6.83,6.83,0,0,1-6.885-.342,4.761,4.761,0,0,1-8.862-1.953,3.814,3.814,0,0,1-9.57-4.163h2.881A2.09,2.09,0,0,0-5.9-2.545a3.083,3.083,0,0,0,1.941.568,3,3,0,0,0,1.782-.446A1.379,1.379,0,0,0-1.562-3.589Zm9.216-12.83v3.21H9.985v2.2H7.654v7.373a1.624,1.624,0,0,0,.3,1.093,1.387,1.387,0,0,0,1.068.336,4.57,4.57,0,0,0,1.038-.122V-.037A7.306,7.306,0,0,1,8.105.244q-3.418,0-3.418-3.772v-7.483H2.515v-2.2H4.688v-3.21ZM18.066.244a6.137,6.137,0,0,1-4.572-1.776,6.443,6.443,0,0,1-1.752-4.73v-.366a7.925,7.925,0,0,1,.763-3.534,5.807,5.807,0,0,1,2.142-2.423,5.664,5.664,0,0,1,3.076-.867,5.184,5.184,0,0,1,4.169,1.721A7.278,7.278,0,0,1,23.364-6.86v1.2h-8.63a3.966,3.966,0,0,0,1.093,2.588,3.28,3.28,0,0,0,2.411.952,4.017,4.017,0,0,0,3.32-1.648l1.6,1.526A5.34,5.34,0,0,1,21.039-.409,6.631,6.631,0,0,1,18.066.244Zm-.354-11.316a2.5,2.5,0,0,0-1.971.854,4.429,4.429,0,0,0-.958,2.38h5.652v-.22a3.605,3.605,0,0,0-.793-2.252A2.479,2.479,0,0,0,17.712-11.072Zm14.868.574a7.34,7.34,0,0,0-1.208-.1,2.721,2.721,0,0,0-2.747,1.563V0H25.659V-13.208h2.832l.073,1.477a3.342,3.342,0,0,1,2.979-1.721,2.777,2.777,0,0,1,1.05.171ZM37.61,0H34.644V-13.208H37.61ZM34.46-16.638a1.574,1.574,0,0,1,.433-1.135,1.637,1.637,0,0,1,1.239-.452,1.658,1.658,0,0,1,1.245.452,1.562,1.562,0,0,1,.439,1.135,1.526,1.526,0,0,1-.439,1.117,1.671,1.671,0,0,1-1.245.446,1.65,1.65,0,0,1-1.239-.446A1.538,1.538,0,0,1,34.46-16.638Zm5.823,9.912a7.788,7.788,0,0,1,.769-3.5,5.617,5.617,0,0,1,2.161-2.393,6.088,6.088,0,0,1,3.2-.836,5.769,5.769,0,0,1,4.34,1.721,6.77,6.77,0,0,1,1.8,4.565l.012.7a7.858,7.858,0,0,1-.751,3.491A5.549,5.549,0,0,1,49.664-.6a6.132,6.132,0,0,1-3.229.842,5.729,5.729,0,0,1-4.474-1.862A7.13,7.13,0,0,1,40.283-6.58Zm2.966.256a5.322,5.322,0,0,0,.842,3.192,2.738,2.738,0,0,0,2.344,1.154A2.708,2.708,0,0,0,48.773-3.3a5.878,5.878,0,0,0,.836-3.43A5.253,5.253,0,0,0,48.749-9.9a2.748,2.748,0,0,0-2.338-1.172A2.723,2.723,0,0,0,44.1-9.918,5.767,5.767,0,0,0,43.25-6.47ZM55.493,4l-1.6-.952a8.626,8.626,0,0,0,.97-1.935,5.773,5.773,0,0,0,.275-1.678V-2.869h2.673L57.8-.732a5.954,5.954,0,0,1-.653,2.594A6.444,6.444,0,0,1,55.493,4ZM-72.681,27.24l2.8-9.448h3.064L-71.4,31h-2.576l-4.614-13.208h3.076ZM-61.816,31h-2.966V17.792h2.966Zm-3.149-16.638a1.574,1.574,0,0,1,.433-1.135,1.637,1.637,0,0,1,1.239-.452,1.658,1.658,0,0,1,1.245.452,1.562,1.562,0,0,1,.439,1.135,1.526,1.526,0,0,1-.439,1.117,1.671,1.671,0,0,1-1.245.446,1.65,1.65,0,0,1-1.239-.446A1.538,1.538,0,0,1-64.966,14.362Zm11.8,14.514a2.682,2.682,0,0,0,1.843-.647,2.21,2.21,0,0,0,.781-1.6h2.8a4.357,4.357,0,0,1-.769,2.3,5.044,5.044,0,0,1-1.953,1.691,5.82,5.82,0,0,1-2.661.623A5.631,5.631,0,0,1-57.52,29.45a7.117,7.117,0,0,1-1.624-4.956v-.305a7,7,0,0,1,1.611-4.828,5.58,5.58,0,0,1,4.395-1.813A5.427,5.427,0,0,1-49.3,18.921a4.919,4.919,0,0,1,1.556,3.607h-2.8a2.716,2.716,0,0,0-.775-1.868,2.494,2.494,0,0,0-1.849-.732,2.61,2.61,0,0,0-2.222,1.044,5.326,5.326,0,0,0-.793,3.168v.476a5.414,5.414,0,0,0,.775,3.2A2.608,2.608,0,0,0-53.162,28.876Zm13.477,2.368a6.137,6.137,0,0,1-4.572-1.776,6.443,6.443,0,0,1-1.752-4.73v-.366a7.925,7.925,0,0,1,.763-3.534A5.807,5.807,0,0,1-43.1,18.415a5.664,5.664,0,0,1,3.076-.867,5.184,5.184,0,0,1,4.169,1.721,7.278,7.278,0,0,1,1.471,4.871v1.2h-8.63a3.966,3.966,0,0,0,1.093,2.588,3.28,3.28,0,0,0,2.411.952,4.017,4.017,0,0,0,3.32-1.648l1.6,1.526a5.34,5.34,0,0,1-2.118,1.837A6.631,6.631,0,0,1-39.685,31.244Zm-.354-11.316a2.5,2.5,0,0,0-1.971.854,4.429,4.429,0,0,0-.958,2.38h5.652v-.22a3.605,3.605,0,0,0-.793-2.252A2.479,2.479,0,0,0-40.039,19.928ZM-29.3,17.792l.085,1.379A4.753,4.753,0,0,1-25.4,17.548a3.651,3.651,0,0,1,3.625,2.026,4.685,4.685,0,0,1,4.053-2.026,4.118,4.118,0,0,1,3.253,1.208,5.321,5.321,0,0,1,1.093,3.564V31h-2.966V22.406a2.627,2.627,0,0,0-.549-1.843,2.4,2.4,0,0,0-1.819-.586,2.47,2.47,0,0,0-1.654.543,2.865,2.865,0,0,0-.9,1.422L-21.252,31h-2.966V22.309a2.116,2.116,0,0,0-2.38-2.332,2.611,2.611,0,0,0-2.527,1.453V31h-2.966V17.792ZM-7.178,31h-2.966V17.792h2.966Zm-3.149-16.638a1.574,1.574,0,0,1,.433-1.135,1.637,1.637,0,0,1,1.239-.452,1.658,1.658,0,0,1,1.245.452,1.562,1.562,0,0,1,.439,1.135,1.526,1.526,0,0,1-.439,1.117,1.671,1.671,0,0,1-1.245.446,1.65,1.65,0,0,1-1.239-.446A1.538,1.538,0,0,1-10.327,14.362Zm9.131,3.43.085,1.526a4.749,4.749,0,0,1,3.845-1.77q4.126,0,4.2,4.724V31H3.967V22.443a2.72,2.72,0,0,0-.543-1.862,2.285,2.285,0,0,0-1.776-.6A2.858,2.858,0,0,0-1.025,21.6V31H-3.992V17.792ZM13.11,31H10.144V17.792H13.11ZM9.961,14.362a1.574,1.574,0,0,1,.433-1.135,1.637,1.637,0,0,1,1.239-.452,1.658,1.658,0,0,1,1.245.452,1.562,1.562,0,0,1,.439,1.135,1.526,1.526,0,0,1-.439,1.117,1.671,1.671,0,0,1-1.245.446,1.65,1.65,0,0,1-1.239-.446A1.538,1.538,0,0,1,9.961,14.362ZM23.743,27.411A1.345,1.345,0,0,0,23.09,26.2a6.946,6.946,0,0,0-2.167-.732,11.138,11.138,0,0,1-2.527-.806,3.372,3.372,0,0,1-2.222-3.113,3.516,3.516,0,0,1,1.44-2.856,5.694,5.694,0,0,1,3.662-1.147A5.925,5.925,0,0,1,25.1,18.72a3.719,3.719,0,0,1,1.459,3.04H23.6a1.828,1.828,0,0,0-.635-1.422,2.433,2.433,0,0,0-1.685-.568,2.629,2.629,0,0,0-1.593.452,1.424,1.424,0,0,0-.616,1.208,1.2,1.2,0,0,0,.574,1.062,7.89,7.89,0,0,0,2.319.763,10.979,10.979,0,0,1,2.74.916,3.881,3.881,0,0,1,1.477,1.276,3.253,3.253,0,0,1,.482,1.807,3.441,3.441,0,0,1-1.477,2.887,6.3,6.3,0,0,1-3.87,1.1,6.83,6.83,0,0,1-2.893-.586,4.761,4.761,0,0,1-1.978-1.611,3.814,3.814,0,0,1-.708-2.209h2.881a2.09,2.09,0,0,0,.793,1.617,3.083,3.083,0,0,0,1.941.568,3,3,0,0,0,1.782-.446A1.379,1.379,0,0,0,23.743,27.411Zm9.216-12.83v3.21h2.332v2.2H32.959v7.373a1.624,1.624,0,0,0,.3,1.093,1.387,1.387,0,0,0,1.068.336,4.569,4.569,0,0,0,1.038-.122v2.295a7.306,7.306,0,0,1-1.953.281q-3.418,0-3.418-3.772V19.989H27.82v-2.2h2.173v-3.21ZM43.372,31.244A6.137,6.137,0,0,1,38.8,29.468a6.443,6.443,0,0,1-1.752-4.73v-.366a7.925,7.925,0,0,1,.763-3.534,5.807,5.807,0,0,1,2.142-2.423,5.664,5.664,0,0,1,3.076-.867A5.184,5.184,0,0,1,47.2,19.269a7.278,7.278,0,0,1,1.471,4.871v1.2h-8.63a3.966,3.966,0,0,0,1.093,2.588,3.28,3.28,0,0,0,2.411.952,4.017,4.017,0,0,0,3.32-1.648l1.6,1.526a5.34,5.34,0,0,1-2.118,1.837A6.631,6.631,0,0,1,43.372,31.244Zm-.354-11.316a2.5,2.5,0,0,0-1.971.854,4.429,4.429,0,0,0-.958,2.38H45.74v-.22a3.605,3.605,0,0,0-.793-2.252A2.479,2.479,0,0,0,43.018,19.928Zm14.868.574a7.34,7.34,0,0,0-1.208-.1,2.721,2.721,0,0,0-2.747,1.563V31H50.964V17.792H53.8l.073,1.477a3.342,3.342,0,0,1,2.979-1.721,2.777,2.777,0,0,1,1.05.171ZM62.915,31H59.949V17.792h2.966ZM59.766,14.362a1.574,1.574,0,0,1,.433-1.135,1.637,1.637,0,0,1,1.239-.452,1.658,1.658,0,0,1,1.245.452,1.562,1.562,0,0,1,.439,1.135,1.526,1.526,0,0,1-.439,1.117,1.671,1.671,0,0,1-1.245.446,1.65,1.65,0,0,1-1.239-.446A1.538,1.538,0,0,1,59.766,14.362Zm5.823,9.912a7.788,7.788,0,0,1,.769-3.5,5.617,5.617,0,0,1,2.161-2.393,6.088,6.088,0,0,1,3.2-.836,5.769,5.769,0,0,1,4.34,1.721,6.77,6.77,0,0,1,1.8,4.565l.012.7a7.858,7.858,0,0,1-.751,3.491,5.549,5.549,0,0,1-2.148,2.38,6.132,6.132,0,0,1-3.229.842,5.729,5.729,0,0,1-4.474-1.862,7.13,7.13,0,0,1-1.678-4.962Zm2.966.256a5.322,5.322,0,0,0,.842,3.192,2.738,2.738,0,0,0,2.344,1.154A2.708,2.708,0,0,0,74.078,27.7a5.878,5.878,0,0,0,.836-3.43,5.253,5.253,0,0,0-.861-3.174,2.9,2.9,0,0,0-4.645-.018A5.767,5.767,0,0,0,68.555,24.53ZM-65.43,55.274a7.788,7.788,0,0,1,.769-3.5A5.617,5.617,0,0,1-62.5,49.384a6.088,6.088,0,0,1,3.2-.836,5.769,5.769,0,0,1,4.34,1.721,6.77,6.77,0,0,1,1.8,4.565l.012.7a7.858,7.858,0,0,1-.751,3.491,5.549,5.549,0,0,1-2.148,2.38,6.132,6.132,0,0,1-3.229.842,5.729,5.729,0,0,1-4.474-1.862A7.13,7.13,0,0,1-65.43,55.42Zm2.966.256a5.322,5.322,0,0,0,.842,3.192,2.738,2.738,0,0,0,2.344,1.154A2.708,2.708,0,0,0-56.94,58.7a5.878,5.878,0,0,0,.836-3.43,5.253,5.253,0,0,0-.861-3.174A2.748,2.748,0,0,0-59.3,50.928a2.723,2.723,0,0,0-2.307,1.154A5.767,5.767,0,0,0-62.463,55.53Zm25.452,2.881a1.345,1.345,0,0,0-.653-1.208,6.946,6.946,0,0,0-2.167-.732,11.139,11.139,0,0,1-2.527-.806,3.372,3.372,0,0,1-2.222-3.113A3.516,3.516,0,0,1-43.14,49.7a5.694,5.694,0,0,1,3.662-1.147,5.925,5.925,0,0,1,3.827,1.172,3.719,3.719,0,0,1,1.459,3.04h-2.966a1.828,1.828,0,0,0-.635-1.422,2.433,2.433,0,0,0-1.685-.568,2.629,2.629,0,0,0-1.593.452,1.424,1.424,0,0,0-.616,1.208,1.2,1.2,0,0,0,.574,1.062,7.89,7.89,0,0,0,2.319.763,10.979,10.979,0,0,1,2.74.916,3.881,3.881,0,0,1,1.477,1.276,3.253,3.253,0,0,1,.482,1.807,3.441,3.441,0,0,1-1.477,2.887,6.3,6.3,0,0,1-3.87,1.1,6.83,6.83,0,0,1-2.893-.586,4.761,4.761,0,0,1-1.978-1.611,3.814,3.814,0,0,1-.708-2.209h2.881a2.09,2.09,0,0,0,.793,1.617,3.083,3.083,0,0,0,1.941.568,3,3,0,0,0,1.782-.446A1.379,1.379,0,0,0-37.012,58.411ZM-25.7,62.244a6.137,6.137,0,0,1-4.572-1.776,6.443,6.443,0,0,1-1.752-4.73v-.366a7.925,7.925,0,0,1,.763-3.534,5.807,5.807,0,0,1,2.142-2.423,5.664,5.664,0,0,1,3.076-.867,5.184,5.184,0,0,1,4.169,1.721A7.278,7.278,0,0,1-20.4,55.14v1.2h-8.63a3.966,3.966,0,0,0,1.093,2.588,3.28,3.28,0,0,0,2.411.952,4.017,4.017,0,0,0,3.32-1.648l1.6,1.526a5.34,5.34,0,0,1-2.118,1.837A6.631,6.631,0,0,1-25.7,62.244Zm-.354-11.316a2.5,2.5,0,0,0-1.971.854,4.429,4.429,0,0,0-.958,2.38h5.652v-.22a3.605,3.605,0,0,0-.793-2.252A2.479,2.479,0,0,0-26.05,50.928Zm13.379,8.948a2.682,2.682,0,0,0,1.843-.647,2.21,2.21,0,0,0,.781-1.6h2.8a4.357,4.357,0,0,1-.769,2.3,5.044,5.044,0,0,1-1.953,1.691,5.82,5.82,0,0,1-2.661.623,5.631,5.631,0,0,1-4.395-1.794,7.117,7.117,0,0,1-1.624-4.956v-.305a7,7,0,0,1,1.611-4.828,5.58,5.58,0,0,1,4.395-1.813,5.427,5.427,0,0,1,3.839,1.373,4.919,4.919,0,0,1,1.556,3.607h-2.8a2.716,2.716,0,0,0-.775-1.868,2.494,2.494,0,0,0-1.849-.732,2.61,2.61,0,0,0-2.222,1.044,5.326,5.326,0,0,0-.793,3.168v.476a5.414,5.414,0,0,0,.775,3.2A2.608,2.608,0,0,0-12.671,59.876ZM1.9,51.5A7.34,7.34,0,0,0,.7,51.4a2.721,2.721,0,0,0-2.747,1.563V62H-5.017V48.792h2.832l.073,1.477A3.342,3.342,0,0,1,.867,48.548a2.777,2.777,0,0,1,1.05.171Zm7.69,10.742a6.137,6.137,0,0,1-4.572-1.776,6.443,6.443,0,0,1-1.752-4.73v-.366a7.925,7.925,0,0,1,.763-3.534,5.807,5.807,0,0,1,2.142-2.423,5.664,5.664,0,0,1,3.076-.867,5.184,5.184,0,0,1,4.169,1.721,7.278,7.278,0,0,1,1.471,4.871v1.2H6.262a3.966,3.966,0,0,0,1.093,2.588,3.28,3.28,0,0,0,2.411.952,4.017,4.017,0,0,0,3.32-1.648l1.6,1.526a5.34,5.34,0,0,1-2.118,1.837A6.631,6.631,0,0,1,9.595,62.244ZM9.241,50.928a2.5,2.5,0,0,0-1.971.854,4.429,4.429,0,0,0-.958,2.38h5.652v-.22a3.605,3.605,0,0,0-.793-2.252A2.479,2.479,0,0,0,9.241,50.928Zm11.67-5.347v3.21h2.332v2.2H20.911v7.373a1.624,1.624,0,0,0,.3,1.093,1.387,1.387,0,0,0,1.068.336,4.57,4.57,0,0,0,1.038-.122v2.295a7.306,7.306,0,0,1-1.953.281q-3.418,0-3.418-3.772V50.989H15.771v-2.2h2.173v-3.21ZM33.4,62a4.578,4.578,0,0,1-.342-1.233,4.99,4.99,0,0,1-6.714.342A3.632,3.632,0,0,1,25.085,58.3a3.75,3.75,0,0,1,1.569-3.241,7.6,7.6,0,0,1,4.486-1.129h1.819v-.867a2.314,2.314,0,0,0-.574-1.642,2.274,2.274,0,0,0-1.746-.616,2.613,2.613,0,0,0-1.66.507,1.568,1.568,0,0,0-.647,1.288H25.366a3.292,3.292,0,0,1,.72-2.032,4.8,4.8,0,0,1,1.959-1.483,6.882,6.882,0,0,1,2.765-.537,5.542,5.542,0,0,1,3.7,1.166,4.157,4.157,0,0,1,1.416,3.278v5.957a6.751,6.751,0,0,0,.5,2.844V62Zm-3.259-2.136a3.374,3.374,0,0,0,1.654-.427,2.854,2.854,0,0,0,1.166-1.147V55.8h-1.6a4.373,4.373,0,0,0-2.478.574A1.859,1.859,0,0,0,28.052,58a1.733,1.733,0,0,0,.568,1.361A2.2,2.2,0,0,0,30.139,59.864ZM45.947,51.5a7.34,7.34,0,0,0-1.208-.1,2.721,2.721,0,0,0-2.747,1.563V62H39.026V48.792h2.832l.073,1.477a3.342,3.342,0,0,1,2.979-1.721,2.777,2.777,0,0,1,1.05.171ZM51.013,62H48.047V48.792h2.966Zm-.562-18.665h3.381l-3.381,3.7h-2.38ZM62.28,62a4.578,4.578,0,0,1-.342-1.233,4.99,4.99,0,0,1-6.714.342A3.632,3.632,0,0,1,53.967,58.3a3.75,3.75,0,0,1,1.569-3.241,7.6,7.6,0,0,1,4.486-1.129h1.819v-.867a2.314,2.314,0,0,0-.574-1.642,2.274,2.274,0,0,0-1.746-.616,2.613,2.613,0,0,0-1.66.507,1.568,1.568,0,0,0-.647,1.288H54.248a3.292,3.292,0,0,1,.72-2.032,4.8,4.8,0,0,1,1.959-1.483,6.882,6.882,0,0,1,2.765-.537,5.542,5.542,0,0,1,3.7,1.166,4.157,4.157,0,0,1,1.416,3.278v5.957a6.751,6.751,0,0,0,.5,2.844V62Zm-3.259-2.136a3.374,3.374,0,0,0,1.654-.427,2.854,2.854,0,0,0,1.166-1.147V55.8h-1.6a4.373,4.373,0,0,0-2.478.574A1.859,1.859,0,0,0,56.934,58a1.733,1.733,0,0,0,.568,1.361A2.2,2.2,0,0,0,59.021,59.864Z" transform="translate(380.051 3147)" fill="#12263f"/>
    <path id="Trazado_914351" data-name="Trazado 914351" d="M-43.207-7.935h-7.3v5.469h8.533V0H-53.595V-17.773h11.536v2.49h-8.447v4.907h7.3Zm6.213-5.273.085,1.526a4.749,4.749,0,0,1,3.845-1.77q4.126,0,4.2,4.724V0H-31.83V-8.557a2.72,2.72,0,0,0-.543-1.862,2.285,2.285,0,0,0-1.776-.6A2.858,2.858,0,0,0-36.823-9.4V0h-2.966V-13.208Zm14.868-3.21v3.21h2.332v2.2h-2.332v7.373a1.624,1.624,0,0,0,.3,1.093,1.387,1.387,0,0,0,1.068.336,4.57,4.57,0,0,0,1.038-.122V-.037a7.306,7.306,0,0,1-1.953.281q-3.418,0-3.418-3.772v-7.483h-2.173v-2.2h2.173v-3.21ZM-14.374,0H-17.34V-13.208h2.966Zm-3.149-16.638a1.574,1.574,0,0,1,.433-1.135,1.637,1.637,0,0,1,1.239-.452,1.658,1.658,0,0,1,1.245.452,1.562,1.562,0,0,1,.439,1.135,1.526,1.526,0,0,1-.439,1.117,1.671,1.671,0,0,1-1.245.446,1.65,1.65,0,0,1-1.239-.446A1.538,1.538,0,0,1-17.523-16.638ZM-11.7-6.7a7.853,7.853,0,0,1,1.416-4.9,4.537,4.537,0,0,1,3.8-1.849,4.311,4.311,0,0,1,3.394,1.465V-18.75H-.128V0H-2.814L-2.96-1.367A4.373,4.373,0,0,1-6.512.244a4.512,4.512,0,0,1-3.754-1.868A8.14,8.14,0,0,1-11.7-6.7Zm2.966.256A5.5,5.5,0,0,0-7.959-3.3a2.515,2.515,0,0,0,2.2,1.129A2.8,2.8,0,0,0-3.094-3.8v-5.64a2.759,2.759,0,0,0-2.637-1.587A2.534,2.534,0,0,0-7.953-9.882,6.123,6.123,0,0,0-8.734-6.445ZM10.858,0a4.578,4.578,0,0,1-.342-1.233A4.617,4.617,0,0,1,7.05.244,4.66,4.66,0,0,1,3.8-.891,3.632,3.632,0,0,1,2.545-3.7,3.75,3.75,0,0,1,4.114-6.94,7.6,7.6,0,0,1,8.6-8.069h1.819v-.867a2.314,2.314,0,0,0-.574-1.642A2.274,2.274,0,0,0,8.1-11.194a2.613,2.613,0,0,0-1.66.507A1.568,1.568,0,0,0,5.792-9.4H2.826a3.292,3.292,0,0,1,.72-2.032,4.8,4.8,0,0,1,1.959-1.483,6.882,6.882,0,0,1,2.765-.537,5.542,5.542,0,0,1,3.7,1.166,4.157,4.157,0,0,1,1.416,3.278v5.957a6.751,6.751,0,0,0,.5,2.844V0ZM7.6-2.136a3.374,3.374,0,0,0,1.654-.427,2.854,2.854,0,0,0,1.166-1.147V-6.2H8.82a4.373,4.373,0,0,0-2.478.574A1.859,1.859,0,0,0,5.511-4a1.733,1.733,0,0,0,.568,1.361A2.2,2.2,0,0,0,7.6-2.136ZM15.936-6.7a7.853,7.853,0,0,1,1.416-4.9,4.537,4.537,0,0,1,3.8-1.849,4.311,4.311,0,0,1,3.394,1.465V-18.75h2.966V0H24.823l-.146-1.367A4.373,4.373,0,0,1,21.124.244a4.512,4.512,0,0,1-3.754-1.868A8.14,8.14,0,0,1,15.936-6.7Zm2.966.256A5.5,5.5,0,0,0,19.678-3.3a2.515,2.515,0,0,0,2.2,1.129A2.8,2.8,0,0,0,24.542-3.8v-5.64a2.759,2.759,0,0,0-2.637-1.587,2.534,2.534,0,0,0-2.222,1.141A6.123,6.123,0,0,0,18.9-6.445ZM36.42.244a6.137,6.137,0,0,1-4.572-1.776A6.443,6.443,0,0,1,30.1-6.262v-.366a7.925,7.925,0,0,1,.763-3.534A5.807,5.807,0,0,1,33-12.585a5.664,5.664,0,0,1,3.076-.867,5.184,5.184,0,0,1,4.169,1.721A7.278,7.278,0,0,1,41.718-6.86v1.2h-8.63A3.966,3.966,0,0,0,34.18-3.076a3.28,3.28,0,0,0,2.411.952,4.017,4.017,0,0,0,3.32-1.648l1.6,1.526A5.34,5.34,0,0,1,39.392-.409,6.631,6.631,0,0,1,36.42.244Zm-.354-11.316a2.5,2.5,0,0,0-1.971.854,4.429,4.429,0,0,0-.958,2.38h5.652v-.22a3.605,3.605,0,0,0-.793-2.252A2.479,2.479,0,0,0,36.066-11.072ZM51.422-3.589A1.345,1.345,0,0,0,50.769-4.8,6.946,6.946,0,0,0,48.6-5.53a11.138,11.138,0,0,1-2.527-.806,3.372,3.372,0,0,1-2.222-3.113,3.516,3.516,0,0,1,1.44-2.856,5.694,5.694,0,0,1,3.662-1.147,5.925,5.925,0,0,1,3.827,1.172,3.719,3.719,0,0,1,1.459,3.04H51.276a1.828,1.828,0,0,0-.635-1.422,2.433,2.433,0,0,0-1.685-.568,2.629,2.629,0,0,0-1.593.452,1.424,1.424,0,0,0-.616,1.208,1.2,1.2,0,0,0,.574,1.062,7.89,7.89,0,0,0,2.319.763,10.979,10.979,0,0,1,2.74.916,3.881,3.881,0,0,1,1.477,1.276,3.253,3.253,0,0,1,.482,1.807A3.441,3.441,0,0,1,52.863-.861a6.3,6.3,0,0,1-3.87,1.1A6.83,6.83,0,0,1,46.1-.342a4.761,4.761,0,0,1-1.978-1.611,3.814,3.814,0,0,1-.708-2.209H46.3a2.09,2.09,0,0,0,.793,1.617,3.083,3.083,0,0,0,1.941.568,3,3,0,0,0,1.782-.446A1.379,1.379,0,0,0,51.422-3.589ZM-59.4,14.582v3.21h2.332v2.2H-59.4v7.373a1.624,1.624,0,0,0,.3,1.093,1.387,1.387,0,0,0,1.068.336,4.569,4.569,0,0,0,1.038-.122v2.295a7.306,7.306,0,0,1-1.953.281q-3.418,0-3.418-3.772V19.989h-2.173v-2.2h2.173v-3.21Zm10.413,16.663a6.137,6.137,0,0,1-4.572-1.776,6.443,6.443,0,0,1-1.752-4.73v-.366a7.925,7.925,0,0,1,.763-3.534A5.807,5.807,0,0,1-52.4,18.415a5.664,5.664,0,0,1,3.076-.867,5.184,5.184,0,0,1,4.169,1.721,7.278,7.278,0,0,1,1.471,4.871v1.2h-8.63a3.966,3.966,0,0,0,1.093,2.588,3.28,3.28,0,0,0,2.411.952,4.017,4.017,0,0,0,3.32-1.648l1.6,1.526a5.34,5.34,0,0,1-2.118,1.837A6.631,6.631,0,0,1-48.987,31.244Zm-.354-11.316a2.5,2.5,0,0,0-1.971.854,4.429,4.429,0,0,0-.958,2.38h5.652v-.22a3.605,3.605,0,0,0-.793-2.252A2.479,2.479,0,0,0-49.341,19.928Zm14.868.574a7.34,7.34,0,0,0-1.208-.1,2.721,2.721,0,0,0-2.747,1.563V31h-2.966V17.792h2.832l.073,1.477a3.342,3.342,0,0,1,2.979-1.721,2.777,2.777,0,0,1,1.05.171Zm8.789,0a7.34,7.34,0,0,0-1.208-.1,2.721,2.721,0,0,0-2.747,1.563V31H-32.6V17.792h2.832l.073,1.477a3.342,3.342,0,0,1,2.979-1.721,2.777,2.777,0,0,1,1.05.171ZM-20.654,31h-2.966V17.792h2.966ZM-23.8,14.362a1.574,1.574,0,0,1,.433-1.135,1.637,1.637,0,0,1,1.239-.452,1.658,1.658,0,0,1,1.245.452,1.562,1.562,0,0,1,.439,1.135,1.526,1.526,0,0,1-.439,1.117,1.671,1.671,0,0,1-1.245.446,1.65,1.65,0,0,1-1.239-.446A1.538,1.538,0,0,1-23.8,14.362Zm10.1.22v3.21h2.332v2.2h-2.332v7.373a1.624,1.624,0,0,0,.3,1.093,1.387,1.387,0,0,0,1.068.336,4.569,4.569,0,0,0,1.038-.122v2.295a7.306,7.306,0,0,1-1.953.281q-3.418,0-3.418-3.772V19.989h-2.173v-2.2h2.173v-3.21Zm3.674,9.692a7.788,7.788,0,0,1,.769-3.5A5.617,5.617,0,0,1-7.1,18.384a6.088,6.088,0,0,1,3.2-.836,5.769,5.769,0,0,1,4.34,1.721,6.77,6.77,0,0,1,1.8,4.565l.012.7A7.858,7.858,0,0,1,1.5,28.021,5.549,5.549,0,0,1-.653,30.4a6.132,6.132,0,0,1-3.229.842,5.729,5.729,0,0,1-4.474-1.862,7.13,7.13,0,0,1-1.678-4.962Zm2.966.256a5.322,5.322,0,0,0,.842,3.192,2.738,2.738,0,0,0,2.344,1.154A2.708,2.708,0,0,0-1.544,27.7a5.878,5.878,0,0,0,.836-3.43A5.253,5.253,0,0,0-1.569,21.1a2.748,2.748,0,0,0-2.338-1.172,2.723,2.723,0,0,0-2.307,1.154A5.767,5.767,0,0,0-7.068,24.53ZM11.67,20.5a7.34,7.34,0,0,0-1.208-.1,2.721,2.721,0,0,0-2.747,1.563V31H4.749V17.792H7.581l.073,1.477a3.342,3.342,0,0,1,2.979-1.721,2.777,2.777,0,0,1,1.05.171ZM16.7,31H13.733V17.792H16.7ZM13.55,14.362a1.574,1.574,0,0,1,.433-1.135,1.637,1.637,0,0,1,1.239-.452,1.658,1.658,0,0,1,1.245.452,1.562,1.562,0,0,1,.439,1.135,1.526,1.526,0,0,1-.439,1.117,1.671,1.671,0,0,1-1.245.446,1.65,1.65,0,0,1-1.239-.446A1.538,1.538,0,0,1,13.55,14.362ZM27.82,31a4.578,4.578,0,0,1-.342-1.233,4.617,4.617,0,0,1-3.467,1.477,4.66,4.66,0,0,1-3.247-1.135A3.632,3.632,0,0,1,19.507,27.3a3.75,3.75,0,0,1,1.569-3.241,7.6,7.6,0,0,1,4.486-1.129H27.38v-.867a2.314,2.314,0,0,0-.574-1.642,2.274,2.274,0,0,0-1.746-.616,2.613,2.613,0,0,0-1.66.507,1.568,1.568,0,0,0-.647,1.288H19.788a3.292,3.292,0,0,1,.72-2.032,4.8,4.8,0,0,1,1.959-1.483,6.882,6.882,0,0,1,2.765-.537,5.542,5.542,0,0,1,3.7,1.166,4.157,4.157,0,0,1,1.416,3.278v5.957a6.751,6.751,0,0,0,.5,2.844V31Zm-3.259-2.136a3.374,3.374,0,0,0,1.654-.427,2.854,2.854,0,0,0,1.166-1.147V24.8h-1.6a4.373,4.373,0,0,0-2.478.574A1.859,1.859,0,0,0,22.473,27a1.733,1.733,0,0,0,.568,1.361A2.2,2.2,0,0,0,24.561,28.864ZM36.609,31H33.643V12.25h2.966Zm9.045.244a6.137,6.137,0,0,1-4.572-1.776,6.443,6.443,0,0,1-1.752-4.73v-.366a7.925,7.925,0,0,1,.763-3.534,5.807,5.807,0,0,1,2.142-2.423,5.664,5.664,0,0,1,3.076-.867,5.184,5.184,0,0,1,4.169,1.721,7.278,7.278,0,0,1,1.471,4.871v1.2h-8.63a3.966,3.966,0,0,0,1.093,2.588,3.28,3.28,0,0,0,2.411.952,4.017,4.017,0,0,0,3.32-1.648l1.6,1.526a5.34,5.34,0,0,1-2.118,1.837A6.631,6.631,0,0,1,45.654,31.244ZM45.3,19.928a2.5,2.5,0,0,0-1.971.854,4.429,4.429,0,0,0-.958,2.38h5.652v-.22a3.605,3.605,0,0,0-.793-2.252A2.479,2.479,0,0,0,45.3,19.928Zm15.356,7.483A1.345,1.345,0,0,0,60,26.2a6.946,6.946,0,0,0-2.167-.732,11.138,11.138,0,0,1-2.527-.806,3.372,3.372,0,0,1-2.222-3.113,3.516,3.516,0,0,1,1.44-2.856,5.694,5.694,0,0,1,3.662-1.147,5.925,5.925,0,0,1,3.827,1.172,3.719,3.719,0,0,1,1.459,3.04H60.51a1.828,1.828,0,0,0-.635-1.422,2.433,2.433,0,0,0-1.685-.568,2.629,2.629,0,0,0-1.593.452,1.424,1.424,0,0,0-.616,1.208,1.2,1.2,0,0,0,.574,1.062,7.89,7.89,0,0,0,2.319.763,10.979,10.979,0,0,1,2.74.916,3.881,3.881,0,0,1,1.477,1.276,3.253,3.253,0,0,1,.482,1.807A3.441,3.441,0,0,1,62.1,30.139a6.3,6.3,0,0,1-3.87,1.1,6.83,6.83,0,0,1-2.893-.586,4.761,4.761,0,0,1-1.978-1.611,3.814,3.814,0,0,1-.708-2.209H55.53a2.09,2.09,0,0,0,.793,1.617,3.083,3.083,0,0,0,1.941.568,3,3,0,0,0,1.782-.446A1.379,1.379,0,0,0,60.657,27.411Z" transform="translate(590.051 3163)" fill="#12263f"/>
    <path id="Trazado_914352" data-name="Trazado 914352" d="M-43.207-7.935h-7.3v5.469h8.533V0H-53.595V-17.773h11.536v2.49h-8.447v4.907h7.3Zm6.213-5.273.085,1.526a4.749,4.749,0,0,1,3.845-1.77q4.126,0,4.2,4.724V0H-31.83V-8.557a2.72,2.72,0,0,0-.543-1.862,2.285,2.285,0,0,0-1.776-.6A2.858,2.858,0,0,0-36.823-9.4V0h-2.966V-13.208Zm14.868-3.21v3.21h2.332v2.2h-2.332v7.373a1.624,1.624,0,0,0,.3,1.093,1.387,1.387,0,0,0,1.068.336,4.57,4.57,0,0,0,1.038-.122V-.037a7.306,7.306,0,0,1-1.953.281q-3.418,0-3.418-3.772v-7.483h-2.173v-2.2h2.173v-3.21ZM-14.374,0H-17.34V-13.208h2.966Zm-3.149-16.638a1.574,1.574,0,0,1,.433-1.135,1.637,1.637,0,0,1,1.239-.452,1.658,1.658,0,0,1,1.245.452,1.562,1.562,0,0,1,.439,1.135,1.526,1.526,0,0,1-.439,1.117,1.671,1.671,0,0,1-1.245.446,1.65,1.65,0,0,1-1.239-.446A1.538,1.538,0,0,1-17.523-16.638ZM-11.7-6.7a7.853,7.853,0,0,1,1.416-4.9,4.537,4.537,0,0,1,3.8-1.849,4.311,4.311,0,0,1,3.394,1.465V-18.75H-.128V0H-2.814L-2.96-1.367A4.373,4.373,0,0,1-6.512.244a4.512,4.512,0,0,1-3.754-1.868A8.14,8.14,0,0,1-11.7-6.7Zm2.966.256A5.5,5.5,0,0,0-7.959-3.3a2.515,2.515,0,0,0,2.2,1.129A2.8,2.8,0,0,0-3.094-3.8v-5.64a2.759,2.759,0,0,0-2.637-1.587A2.534,2.534,0,0,0-7.953-9.882,6.123,6.123,0,0,0-8.734-6.445ZM10.858,0a4.578,4.578,0,0,1-.342-1.233A4.617,4.617,0,0,1,7.05.244,4.66,4.66,0,0,1,3.8-.891,3.632,3.632,0,0,1,2.545-3.7,3.75,3.75,0,0,1,4.114-6.94,7.6,7.6,0,0,1,8.6-8.069h1.819v-.867a2.314,2.314,0,0,0-.574-1.642A2.274,2.274,0,0,0,8.1-11.194a2.613,2.613,0,0,0-1.66.507A1.568,1.568,0,0,0,5.792-9.4H2.826a3.292,3.292,0,0,1,.72-2.032,4.8,4.8,0,0,1,1.959-1.483,6.882,6.882,0,0,1,2.765-.537,5.542,5.542,0,0,1,3.7,1.166,4.157,4.157,0,0,1,1.416,3.278v5.957a6.751,6.751,0,0,0,.5,2.844V0ZM7.6-2.136a3.374,3.374,0,0,0,1.654-.427,2.854,2.854,0,0,0,1.166-1.147V-6.2H8.82a4.373,4.373,0,0,0-2.478.574A1.859,1.859,0,0,0,5.511-4a1.733,1.733,0,0,0,.568,1.361A2.2,2.2,0,0,0,7.6-2.136ZM15.936-6.7a7.853,7.853,0,0,1,1.416-4.9,4.537,4.537,0,0,1,3.8-1.849,4.311,4.311,0,0,1,3.394,1.465V-18.75h2.966V0H24.823l-.146-1.367A4.373,4.373,0,0,1,21.124.244a4.512,4.512,0,0,1-3.754-1.868A8.14,8.14,0,0,1,15.936-6.7Zm2.966.256A5.5,5.5,0,0,0,19.678-3.3a2.515,2.515,0,0,0,2.2,1.129A2.8,2.8,0,0,0,24.542-3.8v-5.64a2.759,2.759,0,0,0-2.637-1.587,2.534,2.534,0,0,0-2.222,1.141A6.123,6.123,0,0,0,18.9-6.445ZM36.42.244a6.137,6.137,0,0,1-4.572-1.776A6.443,6.443,0,0,1,30.1-6.262v-.366a7.925,7.925,0,0,1,.763-3.534A5.807,5.807,0,0,1,33-12.585a5.664,5.664,0,0,1,3.076-.867,5.184,5.184,0,0,1,4.169,1.721A7.278,7.278,0,0,1,41.718-6.86v1.2h-8.63A3.966,3.966,0,0,0,34.18-3.076a3.28,3.28,0,0,0,2.411.952,4.017,4.017,0,0,0,3.32-1.648l1.6,1.526A5.34,5.34,0,0,1,39.392-.409,6.631,6.631,0,0,1,36.42.244Zm-.354-11.316a2.5,2.5,0,0,0-1.971.854,4.429,4.429,0,0,0-.958,2.38h5.652v-.22a3.605,3.605,0,0,0-.793-2.252A2.479,2.479,0,0,0,36.066-11.072ZM51.422-3.589A1.345,1.345,0,0,0,50.769-4.8,6.946,6.946,0,0,0,48.6-5.53a11.138,11.138,0,0,1-2.527-.806,3.372,3.372,0,0,1-2.222-3.113,3.516,3.516,0,0,1,1.44-2.856,5.694,5.694,0,0,1,3.662-1.147,5.925,5.925,0,0,1,3.827,1.172,3.719,3.719,0,0,1,1.459,3.04H51.276a1.828,1.828,0,0,0-.635-1.422,2.433,2.433,0,0,0-1.685-.568,2.629,2.629,0,0,0-1.593.452,1.424,1.424,0,0,0-.616,1.208,1.2,1.2,0,0,0,.574,1.062,7.89,7.89,0,0,0,2.319.763,10.979,10.979,0,0,1,2.74.916,3.881,3.881,0,0,1,1.477,1.276,3.253,3.253,0,0,1,.482,1.807A3.441,3.441,0,0,1,52.863-.861a6.3,6.3,0,0,1-3.87,1.1A6.83,6.83,0,0,1,46.1-.342a4.761,4.761,0,0,1-1.978-1.611,3.814,3.814,0,0,1-.708-2.209H46.3a2.09,2.09,0,0,0,.793,1.617,3.083,3.083,0,0,0,1.941.568,3,3,0,0,0,1.782-.446A1.379,1.379,0,0,0,51.422-3.589ZM-51.556,31a4.578,4.578,0,0,1-.342-1.233,4.617,4.617,0,0,1-3.467,1.477,4.66,4.66,0,0,1-3.247-1.135A3.632,3.632,0,0,1-59.869,27.3,3.75,3.75,0,0,1-58.3,24.06a7.6,7.6,0,0,1,4.486-1.129H-52v-.867a2.314,2.314,0,0,0-.574-1.642,2.274,2.274,0,0,0-1.746-.616,2.613,2.613,0,0,0-1.66.507,1.568,1.568,0,0,0-.647,1.288h-2.966a3.292,3.292,0,0,1,.72-2.032,4.8,4.8,0,0,1,1.959-1.483,6.882,6.882,0,0,1,2.765-.537,5.542,5.542,0,0,1,3.7,1.166,4.157,4.157,0,0,1,1.416,3.278v5.957a6.751,6.751,0,0,0,.5,2.844V31Zm-3.259-2.136a3.374,3.374,0,0,0,1.654-.427A2.854,2.854,0,0,0-52,27.289V24.8h-1.6a4.373,4.373,0,0,0-2.478.574A1.859,1.859,0,0,0-56.9,27a1.733,1.733,0,0,0,.568,1.361A2.2,2.2,0,0,0-54.816,28.864Zm8.337-4.565a7.853,7.853,0,0,1,1.416-4.9,4.537,4.537,0,0,1,3.8-1.849,4.311,4.311,0,0,1,3.394,1.465V12.25h2.966V31h-2.686l-.146-1.367a4.373,4.373,0,0,1-3.552,1.611,4.512,4.512,0,0,1-3.754-1.868A8.14,8.14,0,0,1-46.478,24.3Zm2.966.256a5.5,5.5,0,0,0,.775,3.143,2.515,2.515,0,0,0,2.2,1.129A2.8,2.8,0,0,0-37.872,27.2v-5.64a2.759,2.759,0,0,0-2.637-1.587,2.534,2.534,0,0,0-2.222,1.141A6.123,6.123,0,0,0-43.512,24.555Zm19.1,2.856a1.345,1.345,0,0,0-.653-1.208,6.946,6.946,0,0,0-2.167-.732,11.138,11.138,0,0,1-2.527-.806,3.372,3.372,0,0,1-2.222-3.113,3.516,3.516,0,0,1,1.44-2.856,5.694,5.694,0,0,1,3.662-1.147,5.925,5.925,0,0,1,3.827,1.172,3.719,3.719,0,0,1,1.459,3.04h-2.966a1.828,1.828,0,0,0-.635-1.422,2.433,2.433,0,0,0-1.685-.568,2.629,2.629,0,0,0-1.593.452,1.424,1.424,0,0,0-.616,1.208,1.2,1.2,0,0,0,.574,1.062,7.89,7.89,0,0,0,2.319.763,10.979,10.979,0,0,1,2.74.916,3.881,3.881,0,0,1,1.477,1.276,3.253,3.253,0,0,1,.482,1.807,3.441,3.441,0,0,1-1.477,2.887,6.3,6.3,0,0,1-3.87,1.1,6.83,6.83,0,0,1-2.893-.586,4.761,4.761,0,0,1-1.978-1.611,3.814,3.814,0,0,1-.708-2.209h2.881a2.09,2.09,0,0,0,.793,1.617,3.083,3.083,0,0,0,1.941.568,3,3,0,0,0,1.782-.446A1.379,1.379,0,0,0-24.408,27.411Zm10.925,1.465a2.682,2.682,0,0,0,1.843-.647,2.21,2.21,0,0,0,.781-1.6h2.8a4.357,4.357,0,0,1-.769,2.3,5.044,5.044,0,0,1-1.953,1.691,5.82,5.82,0,0,1-2.661.623,5.631,5.631,0,0,1-4.395-1.794,7.117,7.117,0,0,1-1.624-4.956v-.305a7,7,0,0,1,1.611-4.828,5.58,5.58,0,0,1,4.395-1.813,5.427,5.427,0,0,1,3.839,1.373,4.919,4.919,0,0,1,1.556,3.607h-2.8a2.716,2.716,0,0,0-.775-1.868,2.494,2.494,0,0,0-1.849-.732A2.61,2.61,0,0,0-15.7,20.972,5.326,5.326,0,0,0-16.5,24.14v.476a5.414,5.414,0,0,0,.775,3.2A2.608,2.608,0,0,0-13.483,28.876ZM1.093,20.5a7.34,7.34,0,0,0-1.208-.1,2.721,2.721,0,0,0-2.747,1.563V31H-5.829V17.792H-3l.073,1.477A3.342,3.342,0,0,1,.055,17.548a2.777,2.777,0,0,1,1.05.171ZM6.122,31H3.156V17.792H6.122ZM2.972,14.362a1.574,1.574,0,0,1,.433-1.135,1.637,1.637,0,0,1,1.239-.452,1.658,1.658,0,0,1,1.245.452,1.562,1.562,0,0,1,.439,1.135,1.526,1.526,0,0,1-.439,1.117,1.671,1.671,0,0,1-1.245.446,1.65,1.65,0,0,1-1.239-.446A1.538,1.538,0,0,1,2.972,14.362Zm10.1.22v3.21H15.4v2.2H13.068v7.373a1.624,1.624,0,0,0,.3,1.093,1.387,1.387,0,0,0,1.068.336,4.569,4.569,0,0,0,1.038-.122v2.295a7.306,7.306,0,0,1-1.953.281q-3.418,0-3.418-3.772V19.989H7.928v-2.2H10.1v-3.21ZM25.555,31a4.578,4.578,0,0,1-.342-1.233,4.617,4.617,0,0,1-3.467,1.477A4.66,4.66,0,0,1,18.5,30.109,3.632,3.632,0,0,1,17.242,27.3a3.75,3.75,0,0,1,1.569-3.241A7.6,7.6,0,0,1,23.3,22.931h1.819v-.867a2.314,2.314,0,0,0-.574-1.642,2.274,2.274,0,0,0-1.746-.616,2.613,2.613,0,0,0-1.66.507A1.568,1.568,0,0,0,20.49,21.6H17.523a3.292,3.292,0,0,1,.72-2.032A4.8,4.8,0,0,1,20.2,18.085a6.882,6.882,0,0,1,2.765-.537,5.542,5.542,0,0,1,3.7,1.166,4.157,4.157,0,0,1,1.416,3.278v5.957a6.751,6.751,0,0,0,.5,2.844V31ZM22.3,28.864a3.374,3.374,0,0,0,1.654-.427,2.854,2.854,0,0,0,1.166-1.147V24.8h-1.6a4.373,4.373,0,0,0-2.478.574A1.859,1.859,0,0,0,20.209,27a1.733,1.733,0,0,0,.568,1.361A2.2,2.2,0,0,0,22.3,28.864Zm16.3-1.453a1.345,1.345,0,0,0-.653-1.208,6.946,6.946,0,0,0-2.167-.732,11.138,11.138,0,0,1-2.527-.806,3.372,3.372,0,0,1-2.222-3.113,3.516,3.516,0,0,1,1.44-2.856,5.694,5.694,0,0,1,3.662-1.147,5.925,5.925,0,0,1,3.827,1.172,3.719,3.719,0,0,1,1.459,3.04H38.446a1.828,1.828,0,0,0-.635-1.422,2.433,2.433,0,0,0-1.685-.568,2.629,2.629,0,0,0-1.593.452,1.424,1.424,0,0,0-.616,1.208,1.2,1.2,0,0,0,.574,1.062,7.89,7.89,0,0,0,2.319.763,10.979,10.979,0,0,1,2.74.916,3.881,3.881,0,0,1,1.477,1.276,3.253,3.253,0,0,1,.482,1.807,3.441,3.441,0,0,1-1.477,2.887,6.3,6.3,0,0,1-3.87,1.1,6.83,6.83,0,0,1-2.893-.586,4.761,4.761,0,0,1-1.978-1.611,3.814,3.814,0,0,1-.708-2.209h2.881a2.09,2.09,0,0,0,.793,1.617,3.083,3.083,0,0,0,1.941.568,3,3,0,0,0,1.782-.446A1.379,1.379,0,0,0,38.593,27.411Zm16.345-.659,2.686-8.96h3.162L55.536,33q-1.208,3.333-4.1,3.333a5.314,5.314,0,0,1-1.428-.22V33.82l.562.037a2.886,2.886,0,0,0,1.691-.409,2.711,2.711,0,0,0,.9-1.373l.427-1.135L48.944,17.792h3.2ZM-53.864,58.24l2.8-9.448H-48L-52.582,62h-2.576l-4.614-13.208H-56.7ZM-43,62h-2.966V48.792H-43Zm-3.149-16.638a1.574,1.574,0,0,1,.433-1.135,1.637,1.637,0,0,1,1.239-.452,1.658,1.658,0,0,1,1.245.452,1.562,1.562,0,0,1,.439,1.135,1.526,1.526,0,0,1-.439,1.117,1.671,1.671,0,0,1-1.245.446,1.65,1.65,0,0,1-1.239-.446A1.538,1.538,0,0,1-46.149,45.362Zm9.131,3.43.085,1.526a4.749,4.749,0,0,1,3.845-1.77q4.126,0,4.2,4.724V62h-2.966V53.443a2.72,2.72,0,0,0-.543-1.862,2.285,2.285,0,0,0-1.776-.6A2.858,2.858,0,0,0-36.847,52.6V62h-2.966V48.792Zm16.577,11.084a2.682,2.682,0,0,0,1.843-.647,2.21,2.21,0,0,0,.781-1.6h2.8a4.357,4.357,0,0,1-.769,2.3,5.044,5.044,0,0,1-1.953,1.691,5.82,5.82,0,0,1-2.661.623A5.631,5.631,0,0,1-24.8,60.45a7.117,7.117,0,0,1-1.624-4.956v-.305a7,7,0,0,1,1.611-4.828,5.58,5.58,0,0,1,4.395-1.813,5.427,5.427,0,0,1,3.839,1.373,4.919,4.919,0,0,1,1.556,3.607h-2.8a2.716,2.716,0,0,0-.775-1.868,2.494,2.494,0,0,0-1.849-.732,2.61,2.61,0,0,0-2.222,1.044,5.326,5.326,0,0,0-.793,3.168v.476a5.414,5.414,0,0,0,.775,3.2A2.608,2.608,0,0,0-20.441,59.876Zm15.662.83A4.6,4.6,0,0,1-8.49,62.244a4.1,4.1,0,0,1-3.253-1.257,5.349,5.349,0,0,1-1.1-3.638V48.792h2.966v8.521q0,2.515,2.087,2.515a2.932,2.932,0,0,0,2.917-1.55V48.792H-1.91V62h-2.8ZM4.266,62H1.3V43.25H4.266Zm11.121,0a4.578,4.578,0,0,1-.342-1.233,4.617,4.617,0,0,1-3.467,1.477,4.66,4.66,0,0,1-3.247-1.135A3.632,3.632,0,0,1,7.074,58.3,3.75,3.75,0,0,1,8.643,55.06a7.6,7.6,0,0,1,4.486-1.129h1.819v-.867a2.314,2.314,0,0,0-.574-1.642,2.274,2.274,0,0,0-1.746-.616,2.613,2.613,0,0,0-1.66.507,1.568,1.568,0,0,0-.647,1.288H7.355a3.292,3.292,0,0,1,.72-2.032,4.8,4.8,0,0,1,1.959-1.483,6.882,6.882,0,0,1,2.765-.537,5.542,5.542,0,0,1,3.7,1.166,4.157,4.157,0,0,1,1.416,3.278v5.957a6.751,6.751,0,0,0,.5,2.844V62Zm-3.259-2.136a3.374,3.374,0,0,0,1.654-.427,2.854,2.854,0,0,0,1.166-1.147V55.8h-1.6a4.373,4.373,0,0,0-2.478.574A1.859,1.859,0,0,0,10.04,58a1.733,1.733,0,0,0,.568,1.361A2.2,2.2,0,0,0,12.128,59.864ZM20.465,55.3a7.853,7.853,0,0,1,1.416-4.9,4.537,4.537,0,0,1,3.8-1.849,4.311,4.311,0,0,1,3.394,1.465V43.25h2.966V62H29.352l-.146-1.367a4.373,4.373,0,0,1-3.552,1.611A4.512,4.512,0,0,1,21.9,60.376,8.14,8.14,0,0,1,20.465,55.3Zm2.966.256a5.5,5.5,0,0,0,.775,3.143,2.515,2.515,0,0,0,2.2,1.129A2.8,2.8,0,0,0,29.071,58.2v-5.64a2.759,2.759,0,0,0-2.637-1.587,2.534,2.534,0,0,0-2.222,1.141A6.123,6.123,0,0,0,23.431,55.555ZM43.024,62a4.578,4.578,0,0,1-.342-1.233,4.99,4.99,0,0,1-6.714.342A3.632,3.632,0,0,1,34.711,58.3a3.75,3.75,0,0,1,1.569-3.241,7.6,7.6,0,0,1,4.486-1.129h1.819v-.867a2.314,2.314,0,0,0-.574-1.642,2.274,2.274,0,0,0-1.746-.616,2.613,2.613,0,0,0-1.66.507,1.568,1.568,0,0,0-.647,1.288H34.991a3.292,3.292,0,0,1,.72-2.032,4.8,4.8,0,0,1,1.959-1.483,6.882,6.882,0,0,1,2.765-.537,5.542,5.542,0,0,1,3.7,1.166,4.157,4.157,0,0,1,1.416,3.278v5.957a6.751,6.751,0,0,0,.5,2.844V62Zm-3.259-2.136a3.374,3.374,0,0,0,1.654-.427,2.854,2.854,0,0,0,1.166-1.147V55.8h-1.6a4.373,4.373,0,0,0-2.478.574A1.859,1.859,0,0,0,37.677,58a1.733,1.733,0,0,0,.568,1.361A2.2,2.2,0,0,0,39.764,59.864Zm16.3-1.453a1.345,1.345,0,0,0-.653-1.208,6.946,6.946,0,0,0-2.167-.732,11.139,11.139,0,0,1-2.527-.806,3.372,3.372,0,0,1-2.222-3.113,3.516,3.516,0,0,1,1.44-2.856,5.694,5.694,0,0,1,3.662-1.147,5.925,5.925,0,0,1,3.827,1.172,3.719,3.719,0,0,1,1.459,3.04H55.914a1.828,1.828,0,0,0-.635-1.422,2.433,2.433,0,0,0-1.685-.568A2.629,2.629,0,0,0,52,51.221a1.424,1.424,0,0,0-.616,1.208,1.2,1.2,0,0,0,.574,1.062,7.89,7.89,0,0,0,2.319.763,10.979,10.979,0,0,1,2.74.916A3.881,3.881,0,0,1,58.5,56.446a3.253,3.253,0,0,1,.482,1.807A3.441,3.441,0,0,1,57.5,61.139a6.3,6.3,0,0,1-3.87,1.1,6.83,6.83,0,0,1-2.893-.586,4.761,4.761,0,0,1-1.978-1.611,3.814,3.814,0,0,1-.708-2.209h2.881a2.09,2.09,0,0,0,.793,1.617,3.083,3.083,0,0,0,1.941.568,3,3,0,0,0,1.782-.446A1.379,1.379,0,0,0,56.061,58.411Z" transform="translate(800.051 3147)" fill="#12263f"/>
    <path id="Trazado_914349" data-name="Trazado 914349" d="M-83.765-6.155a2.481,2.481,0,0,0-.967-2.1A12.681,12.681,0,0,0-88.212-9.8a24.673,24.673,0,0,1-3.98-1.6q-4-2.159-4-5.817a5.665,5.665,0,0,1,1.072-3.392,6.99,6.99,0,0,1,3.078-2.328,11.584,11.584,0,0,1,4.5-.838,10.544,10.544,0,0,1,4.479.91A7.133,7.133,0,0,1-80-20.3a6.725,6.725,0,0,1,1.088,3.771h-4.834a3.164,3.164,0,0,0-1.015-2.506,4.173,4.173,0,0,0-2.852-.894,4.458,4.458,0,0,0-2.755.749,2.363,2.363,0,0,0-.983,1.974A2.263,2.263,0,0,0-90.2-15.292a13.016,13.016,0,0,0,3.392,1.45,14.655,14.655,0,0,1,6.01,3.078,6.129,6.129,0,0,1,1.885,4.576,5.646,5.646,0,0,1-2.3,4.778,10.087,10.087,0,0,1-6.2,1.732,11.979,11.979,0,0,1-4.931-.991,7.8,7.8,0,0,1-3.392-2.715,6.953,6.953,0,0,1-1.168-4h4.85q0,3.883,4.641,3.883a4.514,4.514,0,0,0,2.691-.7A2.28,2.28,0,0,0-83.765-6.155ZM-67.926.322A8.559,8.559,0,0,1-74.169-2.03,8.362,8.362,0,0,1-76.578-8.3V-8.75a10.532,10.532,0,0,1,1.015-4.7,7.45,7.45,0,0,1,2.876-3.19,8.073,8.073,0,0,1,4.246-1.12A7.236,7.236,0,0,1-62.81-15.5a9.167,9.167,0,0,1,2.054,6.4v1.9h-11.1A4.326,4.326,0,0,0-70.5-4.463a4.116,4.116,0,0,0,2.876,1.031,5.026,5.026,0,0,0,4.206-1.95l2.288,2.562A6.991,6.991,0,0,1-63.962-.508,9.3,9.3,0,0,1-67.926.322Zm-.532-14.309a2.916,2.916,0,0,0-2.248.935,4.828,4.828,0,0,0-1.1,2.675h6.478v-.371a3.442,3.442,0,0,0-.838-2.393A3.01,3.01,0,0,0-68.457-13.986Zm17.6,10.554a3.054,3.054,0,0,0,2.095-.709,2.484,2.484,0,0,0,.838-1.885h4.367a5.973,5.973,0,0,1-.967,3.247,6.379,6.379,0,0,1-2.6,2.288,8.144,8.144,0,0,1-3.65.814,7.569,7.569,0,0,1-5.9-2.377,9.4,9.4,0,0,1-2.159-6.566v-.306a9.3,9.3,0,0,1,2.143-6.429,7.481,7.481,0,0,1,5.881-2.4A7.333,7.333,0,0,1-45.568-15.9a6.589,6.589,0,0,1,2.006,4.955h-4.367a3.174,3.174,0,0,0-.838-2.2,2.8,2.8,0,0,0-2.127-.846A2.806,2.806,0,0,0-53.351-12.8a6.855,6.855,0,0,0-.83,3.843v.483a6.942,6.942,0,0,0,.822,3.867A2.841,2.841,0,0,0-50.862-3.432Zm15.533-18.289v4.286h2.981v3.416h-2.981v8.7a2.078,2.078,0,0,0,.371,1.386,1.861,1.861,0,0,0,1.418.419,7.426,7.426,0,0,0,1.37-.113V-.1a9.587,9.587,0,0,1-2.82.419q-4.9,0-5-4.947v-9.394h-2.546v-3.416h2.546v-4.286Zm4.367,12.842a10.34,10.34,0,0,1,1-4.625,7.313,7.313,0,0,1,2.876-3.142,8.391,8.391,0,0,1,4.359-1.112,7.939,7.939,0,0,1,5.76,2.159,8.666,8.666,0,0,1,2.49,5.865l.032,1.192A9.113,9.113,0,0,1-16.685-2.1,7.785,7.785,0,0,1-22.7.322a7.824,7.824,0,0,1-6.018-2.417,9.273,9.273,0,0,1-2.248-6.574Zm4.657.338a6.5,6.5,0,0,0,.935,3.795A3.085,3.085,0,0,0-22.7-3.432a3.092,3.092,0,0,0,2.643-1.3A7.112,7.112,0,0,0-19.1-8.878a6.434,6.434,0,0,0-.951-3.771,3.092,3.092,0,0,0-2.675-1.337,3.041,3.041,0,0,0-2.643,1.329A7.231,7.231,0,0,0-26.3-8.54Zm24.524-4.528A12.651,12.651,0,0,0-3.456-13.2q-2.643,0-3.464,1.789V0h-4.657V-17.435h4.4l.129,2.079a4.315,4.315,0,0,1,3.883-2.4,4.879,4.879,0,0,1,1.45.209ZM7.952-8.878a10.34,10.34,0,0,1,1-4.625,7.313,7.313,0,0,1,2.876-3.142,8.391,8.391,0,0,1,4.359-1.112,7.939,7.939,0,0,1,5.76,2.159,8.666,8.666,0,0,1,2.49,5.865l.032,1.192A9.113,9.113,0,0,1,22.228-2.1,7.785,7.785,0,0,1,16.218.322,7.824,7.824,0,0,1,10.2-2.095,9.273,9.273,0,0,1,7.952-8.669Zm4.657.338a6.5,6.5,0,0,0,.935,3.795,3.085,3.085,0,0,0,2.675,1.313,3.092,3.092,0,0,0,2.643-1.3,7.112,7.112,0,0,0,.951-4.149,6.434,6.434,0,0,0-.951-3.771,3.092,3.092,0,0,0-2.675-1.337,3.041,3.041,0,0,0-2.643,1.329A7.231,7.231,0,0,0,12.609-8.54ZM28.464,0V-14.019H25.87v-3.416h2.594v-.806a6.538,6.538,0,0,1,2.022-5.068A8.136,8.136,0,0,1,36.1-25.088a18.626,18.626,0,0,1,5.285.951l-.677,3.851a20.62,20.62,0,0,0-2.449-.6,12.034,12.034,0,0,0-1.869-.137q-3.255,0-3.255,2.884v.709h3.432v3.416H33.137V0Zm15.1,0H38.889V-17.435h4.673Zm11.1-3.432a3.054,3.054,0,0,0,2.095-.709A2.484,2.484,0,0,0,57.6-6.026h4.367A5.973,5.973,0,0,1,61-2.78a6.379,6.379,0,0,1-2.6,2.288,8.144,8.144,0,0,1-3.65.814,7.569,7.569,0,0,1-5.9-2.377,9.4,9.4,0,0,1-2.159-6.566v-.306a9.3,9.3,0,0,1,2.143-6.429,7.481,7.481,0,0,1,5.881-2.4A7.333,7.333,0,0,1,59.958-15.9a6.589,6.589,0,0,1,2.006,4.955H57.6a3.174,3.174,0,0,0-.838-2.2,2.8,2.8,0,0,0-2.127-.846A2.806,2.806,0,0,0,52.175-12.8a6.855,6.855,0,0,0-.83,3.843v.483a6.942,6.942,0,0,0,.822,3.867A2.841,2.841,0,0,0,54.664-3.432ZM69.537,0H64.864V-17.435h4.673ZM64.59-21.946a2.293,2.293,0,0,1,.7-1.724,2.633,2.633,0,0,1,1.909-.677,2.639,2.639,0,0,1,1.9.677,2.28,2.28,0,0,1,.709,1.724,2.286,2.286,0,0,1-.717,1.74,2.646,2.646,0,0,1-1.893.677,2.646,2.646,0,0,1-1.893-.677A2.286,2.286,0,0,1,64.59-21.946ZM83.475,0a5.171,5.171,0,0,1-.467-1.563,5.635,5.635,0,0,1-4.4,1.885A6.19,6.19,0,0,1,74.363-1.16,4.768,4.768,0,0,1,72.679-4.9a4.927,4.927,0,0,1,2.054-4.254,10.137,10.137,0,0,1,5.938-1.5h2.143v-1a2.873,2.873,0,0,0-.62-1.934,2.44,2.44,0,0,0-1.958-.725,2.775,2.775,0,0,0-1.845.564,1.916,1.916,0,0,0-.669,1.547H73.066A4.678,4.678,0,0,1,74-15a6.178,6.178,0,0,1,2.643-2.022,9.631,9.631,0,0,1,3.835-.733,7.609,7.609,0,0,1,5.116,1.619,5.665,5.665,0,0,1,1.893,4.552v7.557A8.335,8.335,0,0,0,88.18-.274V0ZM79.624-3.239a4.011,4.011,0,0,0,1.9-.459,3.016,3.016,0,0,0,1.289-1.233v-3h-1.74q-3.5,0-3.722,2.417l-.016.274A1.864,1.864,0,0,0,77.948-3.8,2.378,2.378,0,0,0,79.624-3.239ZM95.979,0H91.306V-24.75h4.673Z" transform="translate(590.051 3034)" fill="#fff"/>
    <path id="Trazado_913233" data-name="Trazado 913233" d="M-4697.559-8457.574v45" transform="translate(5282.051 11519.574)" fill="none" stroke="#4aafe3" stroke-width="2"/>
    <path id="Trazado_913234" data-name="Trazado 913234" d="M-4697.559-8457.574v22.5" transform="translate(5497.609 11542.074)" fill="none" stroke="#4aafe3" stroke-width="2"/>
    <path id="Trazado_913235" data-name="Trazado 913235" d="M-4697.559-8457.579v422" transform="translate(-7656.514 7782.059) rotate(90)" fill="none" stroke="#4aafe3" stroke-width="2"/>
  </g>
</svg>
