<svg xmlns="http://www.w3.org/2000/svg" width="1030.275" height="893.964" viewBox="0 0 1030.275 893.964">
  <g id="Grupo_1103530" data-name="Grupo 1103530" transform="translate(-284.425 -7513.061)">
    <g id="Grupo_1103529" data-name="Grupo 1103529">
      <g id="Grupo_1103528" data-name="Grupo 1103528">
        <g id="Grupo_1103527" data-name="Grupo 1103527">
          <path id="Trazado_912612" data-name="Trazado 912612" d="M274.469,93.744,173.106,271.027l72.671,42.111L372.3,93.744Z" transform="translate(935.952 7865.891)" fill="#d4e09d"/>
          <path id="Trazado_912613" data-name="Trazado 912613" d="M255.329,130.959,151.26,309.09l49.681,85.528,127.121-221.5Z" transform="translate(853.73 8005.957)" fill="#d4e09d"/>
          <path id="Trazado_912614" data-name="Trazado 912614" d="M106.671,169.964v83.928h261.32L320.3,168.349Z" transform="translate(685.909 8146.685)" fill="#d4e09d"/>
          <path id="Trazado_912615" data-name="Trazado 912615" d="M106.665,350.185V451.857H319.1L523.693,93.591H408.434L259.553,349.913Z" transform="translate(685.886 7865.312)" fill="#aac13c"/>
          <path id="Trazado_912616" data-name="Trazado 912616" d="M27.926,222.641l75.5,40L204.6,86.159l-49.61-84.8Z" transform="translate(389.533 7518.161)" fill="#f9f0b1"/>
          <path id="Trazado_912617" data-name="Trazado 912617" d="M99.182,268.364,1.354,267.049,127.941,47.808l73.943,39.167Z" transform="translate(289.521 7692.996)" fill="#f9f0b1"/>
          <path id="Trazado_912618" data-name="Trazado 912618" d="M137.992,376.2H21.89L227.321,19.158l57.508,102.254Z" transform="translate(366.813 7585.165)" fill="#c7c08e"/>
          <path id="Trazado_912619" data-name="Trazado 912619" d="M151.26,89.117,200.936,1.355l111.653,194.7-72,46.585Z" transform="translate(853.729 7518.161)" fill="#ffca66"/>
          <path id="Trazado_912620" data-name="Trazado 912620" d="M284.332,287.645h99.605L242.006,42.226,170.012,88.811Z" transform="translate(924.308 7671.99)" fill="#ffca66"/>
          <path id="Trazado_912621" data-name="Trazado 912621" d="M362.478,1.355H108.137V87.6H313.563Z" transform="translate(691.424 7518.162)" fill="#ffca66"/>
          <path id="Trazado_912622" data-name="Trazado 912622" d="M105.061,86.34,54.746,1.355H309.083V87.6Z" transform="translate(490.478 7518.162)" fill="#ffca66"/>
          <path id="Trazado_912623" data-name="Trazado 912623" d="M123.065,118.835,65.014,19.415H475.868L681.3,375.224H565.2L417.817,118.835Z" transform="translate(529.122 7586.135)" fill="#ffa700"/>
          <path id="Trazado_912624" data-name="Trazado 912624" d="M106.311,261.386v89.435H262.385l146.147-257.4L299.542,95.05l-95.232,166.9Z" transform="translate(684.553 7864.675)" fill="#778e09"/>
          <path id="Trazado_912625" data-name="Trazado 912625" d="M406.863,260.417,310.821,94.024H1.354L255.7,534.371H503.029V260.417Z" transform="translate(289.521 7866.945)" fill="#4aafe3"/>
          <path id="Trazado_912626" data-name="Trazado 912626" d="M261.053,40.285H106.665v88.687H202.95l96.2,167.7,109.28-1.129Z" transform="translate(685.885 7664.684)" fill="#f37e29"/>
          <path id="Trazado_912627" data-name="Trazado 912627" d="M46.262,295.546h96.714l94.865-166.76h96.17v-88.5H193.642Z" transform="translate(458.543 7664.685)" fill="#96906a"/>
          <path id="Trazado_912628" data-name="Trazado 912628" d="M66.317,225.031,162.492,58.453H354.838l96.175,166.579L354.838,391.61H162.492Z" transform="translate(534.025 7733.063)" fill="#fff"/>
          <path id="Trazado_912629" data-name="Trazado 912629" d="M171.286,390.661h184.9l92.45-160.128L356.181,70.409h-184.9L78.836,230.533Zm188.62,12.9H167.56a6.444,6.444,0,0,1-5.583-3.225L65.8,233.758a6.424,6.424,0,0,1,0-6.45L161.977,60.734a6.444,6.444,0,0,1,5.583-3.225H359.906a6.438,6.438,0,0,1,5.583,3.225l96.18,166.574a6.447,6.447,0,0,1,0,6.45l-96.18,166.579a6.438,6.438,0,0,1-5.583,3.225" transform="translate(528.82 7729.51)" fill="#fff"/>
          <path id="Trazado_912630" data-name="Trazado 912630" d="M646.459,297.417,499.079,42.156a6.452,6.452,0,0,0-5.588-3.225H198.744a6.452,6.452,0,0,0-5.588,3.225L45.775,297.417a6.424,6.424,0,0,0,0,6.45l1.248,2.158a21.782,21.782,0,0,1,7.87-1.272,20.605,20.605,0,0,1,5.192-.729c.243,0,.476.067.719.076l-2-3.458L202.464,51.831h287.3l143.66,248.81L489.765,549.457H332.4a19.05,19.05,0,0,1-.457,8.2,25.019,25.019,0,0,1-.276,4.7H493.491a6.452,6.452,0,0,0,5.588-3.225L646.459,303.867a6.447,6.447,0,0,0,0-6.45" transform="translate(453.443 7659.587)" fill="#fff"/>
          <path id="Trazado_912631" data-name="Trazado 912631" d="M854.288,377.1,648.857,21.287a6.452,6.452,0,0,0-5.588-3.225H232.42a6.452,6.452,0,0,0-5.588,3.225L21.4,377.1a6.447,6.447,0,0,0,0,6.45l1.139,1.967h14.9l-3-5.192L236.145,30.962h403.4L841.255,380.321,639.548,729.68H423.341a20.187,20.187,0,0,1-.4,8.417,24.741,24.741,0,0,1-.3,4.483H643.269a6.452,6.452,0,0,0,5.588-3.225L854.288,383.546a6.447,6.447,0,0,0,0-6.45" transform="translate(361.716 7581.042)" fill="#fff"/>
          <path id="Trazado_912632" data-name="Trazado 912632" d="M264.522,881.06H765.749L1016.37,446.983,765.749,12.9H264.522L13.9,446.983Zm504.952,12.9H260.8a6.452,6.452,0,0,1-5.588-3.225L.868,450.208a6.424,6.424,0,0,1,0-6.45L255.209,3.226A6.462,6.462,0,0,1,260.8,0H769.474a6.448,6.448,0,0,1,5.583,3.225L1029.4,443.758a6.425,6.425,0,0,1,0,6.45L775.057,890.735a6.439,6.439,0,0,1-5.583,3.225" transform="translate(284.425 7513.065)" fill="#fff"/>
          <path id="Trazado_912633" data-name="Trazado 912633" d="M320.362,105.377H6.45a6.45,6.45,0,0,1,0-12.9H320.362a6.45,6.45,0,0,1,0,12.9" transform="translate(284.426 7861.121)" fill="#fff"/>
          <path id="Trazado_912634" data-name="Trazado 912634" d="M475.483,105.377H152.139a6.45,6.45,0,1,1,0-12.9H475.483a6.45,6.45,0,0,1,0,12.9" transform="translate(832.762 7861.121)" fill="#fff"/>
          <path id="Trazado_912635" data-name="Trazado 912635" d="M111.762,140.332a6.452,6.452,0,0,1-6.45-6.45v-88.5a6.45,6.45,0,1,1,12.9,0v88.5a6.449,6.449,0,0,1-6.45,6.45" transform="translate(680.793 7659.587)" fill="#fff"/>
          <path id="Trazado_912636" data-name="Trazado 912636" d="M111.761,414.3a6.449,6.449,0,0,1-6.45-6.45V133.894a6.45,6.45,0,0,1,12.9,0V407.847a6.452,6.452,0,0,1-6.45,6.45" transform="translate(680.79 7992.728)" fill="#fff"/>
          <path id="Trazado_914418" data-name="Trazado 914418" d="M0,0H1030.274V893.964H0Z" transform="translate(284.426 7513.061)" fill="none"/>
          <path id="Trazado_914355" data-name="Trazado 914355" d="M.9-.9A6.785,6.785,0,0,0,4.838.246c3.239,0,5.945-1.927,5.945-5.9,0-2.747-1.8-4.551-4.1-6.027-1.968-1.353-2.46-2.091-2.46-3.444a2.43,2.43,0,0,1,2.583-2.5,4.664,4.664,0,0,1,2.624.861l.861-2.378a6.824,6.824,0,0,0-3.567-1.025,5.334,5.334,0,0,0-5.453,5.494c0,2.3,1.394,3.977,3.977,5.658C7.257-7.667,7.79-6.642,7.79-5.125a2.681,2.681,0,0,1-2.911,2.87,6.28,6.28,0,0,1-3.2-1.025ZM25.953-19.844H22.8V-6.765a8.193,8.193,0,0,1-.164,1.8A3.058,3.058,0,0,1,19.8-2.337c-2.173,0-2.665-2.3-2.665-5.412v-12.1H13.981V-7.3c0,4.92,1.353,7.626,4.838,7.626a5.222,5.222,0,0,0,4.264-2.419h.082L23.37,0h2.747c-.041-1.476-.164-3.2-.164-5.412ZM29.069-.9A6.785,6.785,0,0,0,33.005.246c3.239,0,5.945-1.927,5.945-5.9,0-2.747-1.8-4.551-4.1-6.027-1.968-1.353-2.46-2.091-2.46-3.444a2.43,2.43,0,0,1,2.583-2.5,4.664,4.664,0,0,1,2.624.861l.861-2.378a6.824,6.824,0,0,0-3.567-1.025,5.334,5.334,0,0,0-5.453,5.494c0,2.3,1.394,3.977,3.977,5.658,2.009,1.353,2.542,2.378,2.542,3.9a2.681,2.681,0,0,1-2.911,2.87,6.28,6.28,0,0,1-3.2-1.025Zm30.3.9a31.452,31.452,0,0,1-.205-4.51v-8.569c0-4.469-1.722-7.093-5.7-7.093a8.539,8.539,0,0,0-4.633,1.312l.7,2.214a5.976,5.976,0,0,1,3.28-1.025c2.5,0,3.157,1.845,3.157,4.51v.615c-4.469.041-8.446,2.255-8.446,7.216,0,3.4,2.05,5.658,4.715,5.658A4.454,4.454,0,0,0,56.17-2.091h.123L56.5,0ZM56.047-6.232a5.225,5.225,0,0,1-.082,1.107c-.369,1.968-1.558,2.993-2.952,2.993-1.107,0-2.419-.943-2.419-3.526,0-4.3,3.813-4.592,5.453-4.592ZM72.9-19.844l-.164,2.255h-.082a3.942,3.942,0,0,0-3.69-2.583c-2.911,0-6.232,3.034-6.232,10.332,0,5.822,2.3,9.8,5.822,9.8A4.034,4.034,0,0,0,72.365-2.46h.082V-.451c0,4.51-1.558,6.068-4.059,6.068a8.127,8.127,0,0,1-3.69-.861l-.738,2.46a9.456,9.456,0,0,0,4.346.984A6.9,6.9,0,0,0,73.6,6.068c1.312-1.435,1.968-3.4,1.968-8.61V-13.653c0-3.034.123-4.8.164-6.191ZM72.447-7.257a6.966,6.966,0,0,1-.205,1.8c-.656,2.378-1.886,2.829-2.829,2.829-1.927,0-3.526-2.3-3.526-7.38,0-4.387,1.23-7.462,3.526-7.462,1.8,0,2.5,1.681,2.87,3.034A5.306,5.306,0,0,1,72.447-13ZM91.389-9.635c.041-.492.041-1.025.041-1.763,0-4.51-1.6-8.774-5.658-8.774-3.977,0-6.683,4.018-6.683,10.455,0,6.068,2.46,9.963,7.216,9.963A9.568,9.568,0,0,0,90.651-.7l-.492-2.337a6.671,6.671,0,0,1-3.28.779c-2.3,0-4.674-1.312-4.715-7.38Zm-9.184-2.337c.123-2.706,1.189-5.74,3.239-5.74,1.517,0,3.034,1.763,2.952,5.74ZM94.833,0H97.99V-12.505a11.136,11.136,0,0,1,.123-1.763c.41-2.132,1.681-3.239,2.993-3.239,2.3,0,2.747,2.378,2.747,4.715V0h3.157V-13.325c0-4.8-2.05-6.847-4.8-6.847a5.036,5.036,0,0,0-4.551,2.706H97.58l-.164-2.378H94.669c.041,1.6.164,2.788.164,5.125Zm17.056-24.19v4.346H109.47v2.419h2.419v11.48c0,2.747.41,4.1,1.189,5A4.02,4.02,0,0,0,116.194.246a6.915,6.915,0,0,0,2.337-.328L118.408-2.5a5.807,5.807,0,0,1-1.271.123c-1.148,0-2.091-.7-2.091-3.28V-17.425h3.813v-2.419h-3.813v-5.248ZM132.758-9.635c.041-.492.041-1.025.041-1.763,0-4.51-1.6-8.774-5.658-8.774-3.977,0-6.683,4.018-6.683,10.455,0,6.068,2.46,9.963,7.216,9.963A9.568,9.568,0,0,0,132.02-.7l-.492-2.337a6.671,6.671,0,0,1-3.28.779c-2.3,0-4.674-1.312-4.715-7.38Zm-9.184-2.337c.123-2.706,1.189-5.74,3.239-5.74,1.517,0,3.034,1.763,2.952,5.74Z" transform="translate(840.114 8366.411)" fill="#161615"/>
          <path id="Trazado_914356" data-name="Trazado 914356" d="M.9-.9A6.785,6.785,0,0,0,4.838.246c3.239,0,5.945-1.927,5.945-5.9,0-2.747-1.8-4.551-4.1-6.027-1.968-1.353-2.46-2.091-2.46-3.444a2.43,2.43,0,0,1,2.583-2.5,4.664,4.664,0,0,1,2.624.861l.861-2.378a6.824,6.824,0,0,0-3.567-1.025,5.334,5.334,0,0,0-5.453,5.494c0,2.3,1.394,3.977,3.977,5.658C7.257-7.667,7.79-6.642,7.79-5.125a2.681,2.681,0,0,1-2.911,2.87,6.28,6.28,0,0,1-3.2-1.025Z" transform="translate(974.941 8366.411)" fill="#161615"/>
          <path id="Trazado_914357" data-name="Trazado 914357" d="M.9-.9A6.785,6.785,0,0,0,4.838.246c3.239,0,5.945-1.927,5.945-5.9,0-2.747-1.8-4.551-4.1-6.027-1.968-1.353-2.46-2.091-2.46-3.444a2.43,2.43,0,0,1,2.583-2.5,4.664,4.664,0,0,1,2.624.861l.861-2.378a6.824,6.824,0,0,0-3.567-1.025,5.334,5.334,0,0,0-5.453,5.494c0,2.3,1.394,3.977,3.977,5.658C7.257-7.667,7.79-6.642,7.79-5.125a2.681,2.681,0,0,1-2.911,2.87,6.28,6.28,0,0,1-3.2-1.025ZM25.953-19.844H22.8V-6.765a8.193,8.193,0,0,1-.164,1.8A3.058,3.058,0,0,1,19.8-2.337c-2.173,0-2.665-2.3-2.665-5.412v-12.1H13.981V-7.3c0,4.92,1.353,7.626,4.838,7.626a5.222,5.222,0,0,0,4.264-2.419h.082L23.37,0h2.747c-.041-1.476-.164-3.2-.164-5.412ZM46.084-2.911a5.4,5.4,0,0,1-2.3.533c-2.911,0-4.674-2.788-4.674-7.421,0-3.9,1.435-7.667,4.592-7.667a5.15,5.15,0,0,1,2.255.533l.615-2.583a6.382,6.382,0,0,0-2.788-.615c-4.961,0-7.831,4.633-7.831,10.332,0,6.56,2.911,10.045,7.257,10.045a6.8,6.8,0,0,0,3.28-.738Zm8.651-17.261c-3.4,0-6.642,3.034-6.642,10.291,0,6.97,2.87,10.209,6.437,10.209,3.034,0,6.6-2.583,6.6-10.25C61.131-16.851,58.261-20.172,54.735-20.172Zm-.123,2.542c2.788,0,3.321,4.674,3.321,7.708,0,3.075-.533,7.749-3.239,7.749-2.87,0-3.444-4.469-3.444-7.749C51.25-12.956,51.783-17.63,54.612-17.63ZM64.657,0h3.157V-12.505a11.136,11.136,0,0,1,.123-1.763c.41-2.132,1.681-3.239,2.993-3.239,2.3,0,2.747,2.378,2.747,4.715V0h3.157V-13.325c0-4.8-2.05-6.847-4.8-6.847a5.036,5.036,0,0,0-4.551,2.706H67.4l-.164-2.378H64.493c.041,1.6.164,2.788.164,5.125ZM90.528-2.911a5.4,5.4,0,0,1-2.3.533c-2.911,0-4.674-2.788-4.674-7.421,0-3.9,1.435-7.667,4.592-7.667a5.15,5.15,0,0,1,2.255.533l.615-2.583a6.382,6.382,0,0,0-2.788-.615C83.271-20.131,80.4-15.5,80.4-9.8,80.4-3.239,83.312.246,87.658.246a6.8,6.8,0,0,0,3.28-.738Zm14.309-6.724c.041-.492.041-1.025.041-1.763,0-4.51-1.6-8.774-5.658-8.774-3.977,0-6.683,4.018-6.683,10.455,0,6.068,2.46,9.963,7.216,9.963A9.568,9.568,0,0,0,104.1-.7l-.492-2.337a6.671,6.671,0,0,1-3.28.779c-2.3,0-4.674-1.312-4.715-7.38Zm-9.184-2.337c.123-2.706,1.189-5.74,3.239-5.74,1.517,0,3.034,1.763,2.952,5.74ZM108.24,7.872H111.4v-9.84h.082a3.751,3.751,0,0,0,3.444,2.3c3.116,0,6.15-2.952,6.15-10.291,0-6.519-2.3-10.209-5.74-10.209a4.544,4.544,0,0,0-4.182,2.87h-.082l-.164-2.542h-2.829c.041,1.394.164,3.157.164,6.191ZM111.4-12.341a9.161,9.161,0,0,1,.082-1.517c.2-1.8,1.476-3.608,2.911-3.608,2.5,0,3.485,3.444,3.485,7.544,0,4.018-.82,7.626-3.444,7.626-.861,0-2.3-.533-2.911-3.362A6.675,6.675,0,0,1,111.4-7.3Zm13.94-11.849v4.346h-2.419v2.419h2.419v11.48c0,2.747.41,4.1,1.189,5A4.02,4.02,0,0,0,129.642.246a6.915,6.915,0,0,0,2.337-.328L131.856-2.5a5.807,5.807,0,0,1-1.271.123c-1.148,0-2.091-.7-2.091-3.28V-17.425h3.813v-2.419h-3.813v-5.248Zm15.211,4.018c-3.4,0-6.642,3.034-6.642,10.291,0,6.97,2.87,10.209,6.437,10.209,3.034,0,6.6-2.583,6.6-10.25C146.944-16.851,144.074-20.172,140.548-20.172Zm-.123,2.542c2.788,0,3.321,4.674,3.321,7.708,0,3.075-.533,7.749-3.239,7.749-2.87,0-3.444-4.469-3.444-7.749C137.063-12.956,137.6-17.63,140.425-17.63Z" transform="translate(613.817 7573.754)" fill="#161615"/>
          <path id="Trazado_914358" data-name="Trazado 914358" d="M13.653-9.635c.041-.492.041-1.025.041-1.763,0-4.51-1.6-8.774-5.658-8.774-3.977,0-6.683,4.018-6.683,10.455,0,6.068,2.46,9.963,7.216,9.963A9.568,9.568,0,0,0,12.915-.7l-.492-2.337a6.671,6.671,0,0,1-3.28.779c-2.3,0-4.674-1.312-4.715-7.38ZM4.469-11.972c.123-2.706,1.189-5.74,3.239-5.74,1.517,0,3.034,1.763,2.952,5.74ZM17.1,0h3.157V-28.372H17.1ZM30.053-.9A6.785,6.785,0,0,0,33.989.246c3.239,0,5.945-1.927,5.945-5.9,0-2.747-1.8-4.551-4.1-6.027-1.968-1.353-2.46-2.091-2.46-3.444a2.43,2.43,0,0,1,2.583-2.5,4.664,4.664,0,0,1,2.624.861l.861-2.378a6.824,6.824,0,0,0-3.567-1.025,5.334,5.334,0,0,0-5.453,5.494c0,2.3,1.394,3.977,3.977,5.658,2.009,1.353,2.542,2.378,2.542,3.9a2.681,2.681,0,0,1-2.911,2.87,6.28,6.28,0,0,1-3.2-1.025ZM46.371,0V-19.844H43.214V0Zm-1.64-27.019a1.893,1.893,0,0,0-1.845,2.05,1.863,1.863,0,0,0,1.8,2.05,1.843,1.843,0,0,0,1.927-2.05A1.855,1.855,0,0,0,44.731-27.019ZM49.446-.9A6.785,6.785,0,0,0,53.382.246c3.239,0,5.945-1.927,5.945-5.9,0-2.747-1.8-4.551-4.1-6.027-1.968-1.353-2.46-2.091-2.46-3.444a2.43,2.43,0,0,1,2.583-2.5,4.664,4.664,0,0,1,2.624.861l.861-2.378a6.824,6.824,0,0,0-3.567-1.025,5.334,5.334,0,0,0-5.453,5.494c0,2.3,1.394,3.977,3.977,5.658,2.009,1.353,2.542,2.378,2.542,3.9a2.681,2.681,0,0,1-2.911,2.87,6.28,6.28,0,0,1-3.2-1.025ZM63.3-24.19v4.346H60.885v2.419H63.3v11.48c0,2.747.41,4.1,1.189,5A4.02,4.02,0,0,0,67.609.246a6.915,6.915,0,0,0,2.337-.328L69.823-2.5a5.807,5.807,0,0,1-1.271.123c-1.148,0-2.091-.7-2.091-3.28V-17.425h3.813v-2.419H66.461v-5.248ZM84.173-9.635c.041-.492.041-1.025.041-1.763,0-4.51-1.6-8.774-5.658-8.774-3.977,0-6.683,4.018-6.683,10.455,0,6.068,2.46,9.963,7.216,9.963A9.568,9.568,0,0,0,83.435-.7l-.492-2.337a6.671,6.671,0,0,1-3.28.779c-2.3,0-4.674-1.312-4.715-7.38Zm-9.184-2.337c.123-2.706,1.189-5.74,3.239-5.74,1.517,0,3.034,1.763,2.952,5.74ZM87.617,0h3.116V-12.587a11.341,11.341,0,0,1,.123-1.722c.369-2.091,1.681-3.2,2.952-3.2,2.337,0,2.747,2.3,2.747,4.51V0h3.116V-12.751a12.074,12.074,0,0,1,.123-1.8c.451-1.845,1.6-2.952,2.911-2.952,2.419,0,2.788,2.5,2.788,5.084V0h3.116V-13.161c0-5.043-2.091-7.011-4.756-7.011a4.793,4.793,0,0,0-2.747.779,6.316,6.316,0,0,0-1.968,2.255h-.082a4.137,4.137,0,0,0-4.141-3.034,4.98,4.98,0,0,0-4.469,2.788h-.082l-.164-2.46H87.453c.041,1.6.164,2.788.164,5.125Zm36.121,0a31.452,31.452,0,0,1-.205-4.51v-8.569c0-4.469-1.722-7.093-5.7-7.093A8.539,8.539,0,0,0,113.2-18.86l.7,2.214a5.976,5.976,0,0,1,3.28-1.025c2.5,0,3.157,1.845,3.157,4.51v.615c-4.469.041-8.446,2.255-8.446,7.216,0,3.4,2.05,5.658,4.715,5.658a4.454,4.454,0,0,0,3.936-2.419h.123L120.868,0Zm-3.321-6.232a5.225,5.225,0,0,1-.082,1.107c-.369,1.968-1.558,2.993-2.952,2.993-1.107,0-2.419-.943-2.419-3.526,0-4.3,3.813-4.592,5.453-4.592Z" transform="translate(842.919 7556.551)" fill="#161615"/>
          <path id="Trazado_914359" data-name="Trazado 914359" d="M2.911-24.19v4.346H.492v2.419H2.911v11.48c0,2.747.41,4.1,1.189,5A4.02,4.02,0,0,0,7.216.246,6.915,6.915,0,0,0,9.553-.082L9.43-2.5a5.807,5.807,0,0,1-1.271.123c-1.148,0-2.091-.7-2.091-3.28V-17.425H9.881v-2.419H6.068v-5.248Zm21.648,4.346H21.4V-6.765a8.193,8.193,0,0,1-.164,1.8,3.058,3.058,0,0,1-2.829,2.624c-2.173,0-2.665-2.3-2.665-5.412v-12.1H12.587V-7.3c0,4.92,1.353,7.626,4.838,7.626a5.222,5.222,0,0,0,4.264-2.419h.082L21.976,0h2.747c-.041-1.476-.164-3.2-.164-5.412ZM28.946,0H32.1V-10.988a12.074,12.074,0,0,1,.123-1.8c.328-2.3,1.8-4.141,3.813-4.141a3.314,3.314,0,0,1,.656.041v-3.239c-.2,0-.41-.041-.656-.041a4.833,4.833,0,0,0-4.182,3.444h-.082l-.164-3.116H28.782c.041,1.476.164,3.444.164,5.125ZM42.312,0V-19.844H39.155V0Zm0-27.962-3.157,5.535h2.091l4.305-5.535ZM45.387-.9A6.785,6.785,0,0,0,49.323.246c3.239,0,5.945-1.927,5.945-5.9,0-2.747-1.8-4.551-4.1-6.027-1.968-1.353-2.46-2.091-2.46-3.444a2.43,2.43,0,0,1,2.583-2.5,4.664,4.664,0,0,1,2.624.861l.861-2.378a6.824,6.824,0,0,0-3.567-1.025,5.334,5.334,0,0,0-5.453,5.494c0,2.3,1.394,3.977,3.977,5.658,2.009,1.353,2.542,2.378,2.542,3.9a2.681,2.681,0,0,1-2.911,2.87,6.28,6.28,0,0,1-3.2-1.025ZM59.245-24.19v4.346H56.826v2.419h2.419v11.48c0,2.747.41,4.1,1.189,5A4.02,4.02,0,0,0,63.55.246a6.915,6.915,0,0,0,2.337-.328L65.764-2.5a5.807,5.807,0,0,1-1.271.123c-1.148,0-2.091-.7-2.091-3.28V-17.425h3.813v-2.419H62.4v-5.248ZM72.16,0V-19.844H69V0ZM70.52-27.019a1.893,1.893,0,0,0-1.845,2.05,1.863,1.863,0,0,0,1.8,2.05,1.843,1.843,0,0,0,1.927-2.05A1.855,1.855,0,0,0,70.52-27.019ZM85.813-2.911a5.4,5.4,0,0,1-2.3.533c-2.911,0-4.674-2.788-4.674-7.421,0-3.9,1.435-7.667,4.592-7.667a5.15,5.15,0,0,1,2.255.533l.615-2.583a6.382,6.382,0,0,0-2.788-.615c-4.961,0-7.831,4.633-7.831,10.332C75.686-3.239,78.6.246,82.943.246a6.8,6.8,0,0,0,3.28-.738Zm8.651-17.261c-3.4,0-6.642,3.034-6.642,10.291,0,6.97,2.87,10.209,6.437,10.209,3.034,0,6.6-2.583,6.6-10.25C100.86-16.851,97.99-20.172,94.464-20.172Zm-.123,2.542c2.788,0,3.321,4.674,3.321,7.708,0,3.075-.533,7.749-3.239,7.749-2.87,0-3.444-4.469-3.444-7.749C90.979-12.956,91.512-17.63,94.341-17.63Z" transform="translate(855.154 7591.938)" fill="#161615"/>
          <path id="Trazado_914360" data-name="Trazado 914360" d="M2.34,0H12.753V-2.535H5.343V-26.286h-3ZM25.584,0a29.917,29.917,0,0,1-.2-4.29v-8.151c0-4.251-1.638-6.747-5.421-6.747a8.123,8.123,0,0,0-4.407,1.248l.663,2.106a5.685,5.685,0,0,1,3.12-.975c2.379,0,3,1.755,3,4.29v.585C18.1-11.9,14.313-9.789,14.313-5.07c0,3.237,1.95,5.382,4.485,5.382a4.237,4.237,0,0,0,3.744-2.3h.117L22.854,0ZM22.425-5.928a4.97,4.97,0,0,1-.078,1.053C22-3,20.865-2.028,19.539-2.028c-1.053,0-2.3-.9-2.3-3.354,0-4.095,3.627-4.368,5.187-4.368Z" transform="translate(584.571 7891.127) rotate(-59.603)" fill="#fff"/>
          <path id="Trazado_914361" data-name="Trazado 914361" transform="translate(571.59 8098.691) rotate(-59.603)" fill="#fff"/>
          <path id="Trazado_914362" data-name="Trazado 914362" d="M2.173,7.872H5.33v-9.84h.082A3.751,3.751,0,0,0,8.856.328c3.116,0,6.15-2.952,6.15-10.291,0-6.519-2.3-10.209-5.74-10.209A4.544,4.544,0,0,0,5.084-17.3H5l-.164-2.542H2.009c.041,1.394.164,3.157.164,6.191ZM5.33-12.341a9.161,9.161,0,0,1,.082-1.517c.205-1.8,1.476-3.608,2.911-3.608,2.5,0,3.485,3.444,3.485,7.544,0,4.018-.82,7.626-3.444,7.626-.861,0-2.3-.533-2.911-3.362A6.675,6.675,0,0,1,5.33-7.3Zm19.024-7.831c-3.4,0-6.642,3.034-6.642,10.291,0,6.97,2.87,10.209,6.437,10.209,3.034,0,6.6-2.583,6.6-10.25C30.75-16.851,27.88-20.172,24.354-20.172Zm-.123,2.542c2.788,0,3.321,4.674,3.321,7.708,0,3.075-.533,7.749-3.239,7.749-2.87,0-3.444-4.469-3.444-7.749C20.869-12.956,21.4-17.63,24.231-17.63Z" transform="translate(604.825 7860.552) rotate(-59.603)" fill="#fff"/>
          <path id="Trazado_914363" data-name="Trazado 914363" d="M2.214,0H5.371V-28.372H2.214Z" transform="translate(621.671 7831.921) rotate(-59.603)" fill="#fff"/>
          <path id="Trazado_914364" data-name="Trazado 914364" d="M5.371,0V-19.844H2.214V0Zm0-27.962L2.214-22.427H4.305L8.61-27.962Zm5.084,3.772v4.346H8.036v2.419h2.419v11.48c0,2.747.41,4.1,1.189,5A4.02,4.02,0,0,0,14.76.246,6.915,6.915,0,0,0,17.1-.082L16.974-2.5a5.807,5.807,0,0,1-1.271.123c-1.148,0-2.091-.7-2.091-3.28V-17.425h3.813v-2.419H13.612v-5.248Z" transform="translate(625.776 7824.922) rotate(-59.603)" fill="#fff"/>
          <path id="Trazado_914365" data-name="Trazado 914365" d="M5.24,0V-19.36H2.16V0ZM3.64-26.36a1.847,1.847,0,0,0-1.8,2,1.817,1.817,0,0,0,1.76,2,1.8,1.8,0,0,0,1.88-2A1.81,1.81,0,0,0,3.64-26.36Z" transform="translate(634.349 7808.328) rotate(-59.603)" fill="#fff"/>
          <path id="Trazado_914366" data-name="Trazado 914366" d="M11.48-2.911a5.4,5.4,0,0,1-2.3.533C6.273-2.378,4.51-5.166,4.51-9.8c0-3.9,1.435-7.667,4.592-7.667a5.15,5.15,0,0,1,2.255.533l.615-2.583a6.382,6.382,0,0,0-2.788-.615C4.223-20.131,1.353-15.5,1.353-9.8,1.353-3.239,4.264.246,8.61.246a6.8,6.8,0,0,0,3.28-.738ZM25.42,0a31.452,31.452,0,0,1-.205-4.51v-8.569c0-4.469-1.722-7.093-5.7-7.093a8.539,8.539,0,0,0-4.633,1.312l.7,2.214a5.976,5.976,0,0,1,3.28-1.025c2.5,0,3.157,1.845,3.157,4.51v.615c-4.469.041-8.446,2.255-8.446,7.216,0,3.4,2.05,5.658,4.715,5.658a4.454,4.454,0,0,0,3.936-2.419h.123L22.55,0ZM22.1-6.232a5.225,5.225,0,0,1-.082,1.107c-.369,1.968-1.558,2.993-2.952,2.993-1.107,0-2.419-.943-2.419-3.526,0-4.3,3.813-4.592,5.453-4.592Z" transform="translate(639.117 7802.016) rotate(-59.603)" fill="#fff"/>
          <path id="Trazado_914367" data-name="Trazado 914367" transform="translate(628.465 8018.528) rotate(-59.603)" fill="#fff"/>
          <path id="Trazado_914368" data-name="Trazado 914368" d="M.507-18.876,5.265-1.443a2.159,2.159,0,0,1,.078.7,2.638,2.638,0,0,1-.2.936A11.546,11.546,0,0,1,3.432,3.354,9.127,9.127,0,0,1,.78,5.733L1.872,8.307A10.373,10.373,0,0,0,5.265,5.421c2.223-2.847,3.51-7.41,4.68-12.168l3.081-12.129H10.062L7.839-8C7.527-6.63,7.215-5.187,7.02-4.134H6.942c-.234-1.17-.429-2.418-.78-3.9l-2.5-10.842Z" transform="translate(655.146 7770.738) rotate(-59.603)" fill="#fff"/>
          <path id="Trazado_914369" data-name="Trazado 914369" d="M2.214,0H5.371V-12.505a11.136,11.136,0,0,1,.123-1.763c.41-2.132,1.681-3.239,2.993-3.239,2.3,0,2.747,2.378,2.747,4.715V0h3.157V-13.325c0-4.8-2.05-6.847-4.8-6.847a5.036,5.036,0,0,0-4.551,2.706H4.961L4.8-19.844H2.05c.041,1.6.164,2.788.164,5.125ZM24.6-20.172c-3.4,0-6.642,3.034-6.642,10.291,0,6.97,2.87,10.209,6.437,10.209,3.034,0,6.6-2.583,6.6-10.25C31-16.851,28.126-20.172,24.6-20.172Zm-.123,2.542c2.788,0,3.321,4.674,3.321,7.708,0,3.075-.533,7.749-3.239,7.749-2.87,0-3.444-4.469-3.444-7.749C21.115-12.956,21.648-17.63,24.477-17.63ZM34.481,0h3.157V-10.988a12.075,12.075,0,0,1,.123-1.8c.328-2.3,1.8-4.141,3.813-4.141a3.314,3.314,0,0,1,.656.041v-3.239c-.2,0-.41-.041-.656-.041a4.833,4.833,0,0,0-4.182,3.444H37.31l-.164-3.116H34.317c.041,1.476.164,3.444.164,5.125ZM44.69,0h3.116V-12.587a11.341,11.341,0,0,1,.123-1.722c.369-2.091,1.681-3.2,2.952-3.2,2.337,0,2.747,2.3,2.747,4.51V0h3.116V-12.751a12.074,12.074,0,0,1,.123-1.8c.451-1.845,1.6-2.952,2.911-2.952,2.419,0,2.788,2.5,2.788,5.084V0h3.116V-13.161c0-5.043-2.091-7.011-4.756-7.011a4.793,4.793,0,0,0-2.747.779,6.316,6.316,0,0,0-1.968,2.255h-.082a4.137,4.137,0,0,0-4.141-3.034,4.98,4.98,0,0,0-4.469,2.788h-.082l-.164-2.46H44.526c.041,1.6.164,2.788.164,5.125ZM80.811,0a31.452,31.452,0,0,1-.205-4.51v-8.569c0-4.469-1.722-7.093-5.7-7.093a8.539,8.539,0,0,0-4.633,1.312l.7,2.214a5.976,5.976,0,0,1,3.28-1.025c2.5,0,3.157,1.845,3.157,4.51v.615c-4.469.041-8.446,2.255-8.446,7.216,0,3.4,2.05,5.658,4.715,5.658a4.454,4.454,0,0,0,3.936-2.419h.123L77.941,0ZM77.49-6.232a5.225,5.225,0,0,1-.082,1.107c-.369,1.968-1.558,2.993-2.952,2.993-1.107,0-2.419-.943-2.419-3.526,0-4.3,3.813-4.592,5.453-4.592ZM85.362-24.19v4.346H82.943v2.419h2.419v11.48c0,2.747.41,4.1,1.189,5A4.02,4.02,0,0,0,89.667.246,6.915,6.915,0,0,0,92-.082L91.881-2.5a5.807,5.807,0,0,1-1.271.123c-1.148,0-2.091-.7-2.091-3.28V-17.425h3.813v-2.419H88.519v-5.248ZM98.277,0V-19.844H95.12V0Zm-1.64-27.019a1.893,1.893,0,0,0-1.845,2.05,1.863,1.863,0,0,0,1.8,2.05,1.843,1.843,0,0,0,1.927-2.05A1.855,1.855,0,0,0,96.637-27.019Zm4.346,7.175L106.149,0h2.829l5.166-19.844h-3.116l-2.46,11.152c-.287,1.517-.615,3.2-.82,4.838h-.123c-.246-1.722-.574-3.485-.861-4.838l-2.5-11.152ZM120.048,0V-19.844h-3.157V0Zm-1.64-27.019a1.893,1.893,0,0,0-1.845,2.05,1.863,1.863,0,0,0,1.8,2.05,1.843,1.843,0,0,0,1.927-2.05A1.855,1.855,0,0,0,118.408-27.019Zm14.842-1.353v10.578h-.082a3.846,3.846,0,0,0-3.608-2.378c-3.075,0-5.986,3.28-5.986,10.332,0,6.519,2.419,10.168,5.781,10.168A4.567,4.567,0,0,0,133.5-2.5h.123l.205,2.5h2.706c-.041-1.148-.164-3.4-.164-4.756V-28.372Zm0,21.361a6.207,6.207,0,0,1-.123,1.312c-.7,2.87-2.05,3.4-3.034,3.4-2.3,0-3.362-3.362-3.362-7.544,0-3.977.9-7.626,3.526-7.626,1.517,0,2.747,1.8,2.952,3.854.041.451.041.9.041,1.312ZM151.495,0a31.452,31.452,0,0,1-.205-4.51v-8.569c0-4.469-1.722-7.093-5.7-7.093a8.539,8.539,0,0,0-4.633,1.312l.7,2.214a5.976,5.976,0,0,1,3.28-1.025c2.5,0,3.157,1.845,3.157,4.51v.615c-4.469.041-8.446,2.255-8.446,7.216,0,3.4,2.05,5.658,4.715,5.658A4.454,4.454,0,0,0,148.3-2.091h.123L148.625,0Zm-3.321-6.232a5.225,5.225,0,0,1-.082,1.107c-.369,1.968-1.558,2.993-2.952,2.993-1.107,0-2.419-.943-2.419-3.526,0-4.3,3.813-4.592,5.453-4.592Zm16.359-22.14v10.578h-.082a3.846,3.846,0,0,0-3.608-2.378c-3.075,0-5.986,3.28-5.986,10.332,0,6.519,2.419,10.168,5.781,10.168A4.567,4.567,0,0,0,164.779-2.5h.123l.205,2.5h2.706c-.041-1.148-.164-3.4-.164-4.756V-28.372Zm0,21.361A6.207,6.207,0,0,1,164.41-5.7c-.7,2.87-2.05,3.4-3.034,3.4-2.3,0-3.362-3.362-3.362-7.544,0-3.977.9-7.626,3.526-7.626,1.517,0,2.747,1.8,2.952,3.854.041.451.041.9.041,1.312Z" transform="translate(611.3 7919.364) rotate(-59.603)" fill="#fff"/>
          <path id="Trazado_914370" data-name="Trazado 914370" d="M12.987-9.165c.039-.468.039-.975.039-1.677,0-4.29-1.521-8.346-5.382-8.346-3.783,0-6.357,3.822-6.357,9.945,0,5.772,2.34,9.477,6.864,9.477a9.1,9.1,0,0,0,4.134-.9l-.468-2.223a6.346,6.346,0,0,1-3.12.741c-2.184,0-4.446-1.248-4.485-7.02ZM4.251-11.388c.117-2.574,1.131-5.46,3.081-5.46,1.443,0,2.886,1.677,2.808,5.46ZM14.43-18.876l4.368,9.4L14.313,0h3.042L19.11-4.251c.429-1.092.858-2.106,1.248-3.237h.078c.468,1.248.819,2.223,1.248,3.237L23.478,0h3.276L22.308-9.555l4.485-9.321H23.712L22-14.82c-.39,1.014-.819,2.106-1.248,3.315H20.67c-.429-1.131-.78-2.223-1.248-3.315l-1.755-4.056Z" transform="translate(493.942 7891.892) rotate(-59.603)" fill="#161615"/>
          <path id="Trazado_914371" data-name="Trazado 914371" d="M2.173,7.872H5.33v-9.84h.082A3.751,3.751,0,0,0,8.856.328c3.116,0,6.15-2.952,6.15-10.291,0-6.519-2.3-10.209-5.74-10.209A4.544,4.544,0,0,0,5.084-17.3H5l-.164-2.542H2.009c.041,1.394.164,3.157.164,6.191ZM5.33-12.341a9.161,9.161,0,0,1,.082-1.517c.205-1.8,1.476-3.608,2.911-3.608,2.5,0,3.485,3.444,3.485,7.544,0,4.018-.82,7.626-3.444,7.626-.861,0-2.3-.533-2.911-3.362A6.675,6.675,0,0,1,5.33-7.3Z" transform="translate(510.629 7867.397) rotate(-59.603)" fill="#161615"/>
          <path id="Trazado_914372" data-name="Trazado 914372" d="M2.214,0H5.371V-28.372H2.214Z" transform="translate(519.221 7852.839) rotate(-59.603)" fill="#161615"/>
          <path id="Trazado_914373" data-name="Trazado 914373" d="M5.24,0V-19.36H2.16V0ZM3.64-26.36a1.847,1.847,0,0,0-1.8,2,1.817,1.817,0,0,0,1.76,2,1.8,1.8,0,0,0,1.88-2A1.81,1.81,0,0,0,3.64-26.36Z" transform="translate(522.463 7845.334) rotate(-59.603)" fill="#161615"/>
          <path id="Trazado_914374" data-name="Trazado 914374" d="M11.48-2.911a5.4,5.4,0,0,1-2.3.533C6.273-2.378,4.51-5.166,4.51-9.8c0-3.9,1.435-7.667,4.592-7.667a5.15,5.15,0,0,1,2.255.533l.615-2.583a6.382,6.382,0,0,0-2.788-.615C4.223-20.131,1.353-15.5,1.353-9.8,1.353-3.239,4.264.246,8.61.246a6.8,6.8,0,0,0,3.28-.738ZM25.42,0a31.452,31.452,0,0,1-.205-4.51v-8.569c0-4.469-1.722-7.093-5.7-7.093a8.539,8.539,0,0,0-4.633,1.312l.7,2.214a5.976,5.976,0,0,1,3.28-1.025c2.5,0,3.157,1.845,3.157,4.51v.615c-4.469.041-8.446,2.255-8.446,7.216,0,3.4,2.05,5.658,4.715,5.658a4.454,4.454,0,0,0,3.936-2.419h.123L22.55,0ZM22.1-6.232a5.225,5.225,0,0,1-.082,1.107c-.369,1.968-1.558,2.993-2.952,2.993-1.107,0-2.419-.943-2.419-3.526,0-4.3,3.813-4.592,5.453-4.592Z" transform="translate(527.244 7839.074) rotate(-59.603)" fill="#161615"/>
          <path id="Trazado_914375" data-name="Trazado 914375" d="M11.029-28.372v10.578h-.082a3.846,3.846,0,0,0-3.608-2.378c-3.075,0-5.986,3.28-5.986,10.332C1.353-3.321,3.772.328,7.134.328A4.567,4.567,0,0,0,11.275-2.5H11.4L11.6,0h2.706c-.041-1.148-.164-3.4-.164-4.756V-28.372Zm0,21.361A6.207,6.207,0,0,1,10.906-5.7c-.7,2.87-2.05,3.4-3.034,3.4C5.576-2.3,4.51-5.658,4.51-9.84c0-3.977.9-7.626,3.526-7.626,1.517,0,2.747,1.8,2.952,3.854.041.451.041.9.041,1.312ZM29.274,0a31.452,31.452,0,0,1-.205-4.51v-8.569c0-4.469-1.722-7.093-5.7-7.093a8.539,8.539,0,0,0-4.633,1.312l.7,2.214a5.976,5.976,0,0,1,3.28-1.025c2.5,0,3.157,1.845,3.157,4.51v.615c-4.469.041-8.446,2.255-8.446,7.216,0,3.4,2.05,5.658,4.715,5.658a4.454,4.454,0,0,0,3.936-2.419H26.2L26.4,0ZM25.953-6.232a5.225,5.225,0,0,1-.082,1.107c-.369,1.968-1.558,2.993-2.952,2.993-1.107,0-2.419-.943-2.419-3.526,0-4.3,3.813-4.592,5.453-4.592Z" transform="translate(541.623 7814.565) rotate(-59.603)" fill="#161615"/>
          <path id="Trazado_914376" data-name="Trazado 914376" transform="translate(536.903 8019.289) rotate(-59.603)" fill="#161615"/>
          <path id="Trazado_914377" data-name="Trazado 914377" d="M2.173,7.872H5.33v-9.84h.082A3.751,3.751,0,0,0,8.856.328c3.116,0,6.15-2.952,6.15-10.291,0-6.519-2.3-10.209-5.74-10.209A4.544,4.544,0,0,0,5.084-17.3H5l-.164-2.542H2.009c.041,1.394.164,3.157.164,6.191ZM5.33-12.341a9.161,9.161,0,0,1,.082-1.517c.205-1.8,1.476-3.608,2.911-3.608,2.5,0,3.485,3.444,3.485,7.544,0,4.018-.82,7.626-3.444,7.626-.861,0-2.3-.533-2.911-3.362A6.675,6.675,0,0,1,5.33-7.3Zm19.024-7.831c-3.4,0-6.642,3.034-6.642,10.291,0,6.97,2.87,10.209,6.437,10.209,3.034,0,6.6-2.583,6.6-10.25C30.75-16.851,27.88-20.172,24.354-20.172Zm-.123,2.542c2.788,0,3.321,4.674,3.321,7.708,0,3.075-.533,7.749-3.239,7.749-2.87,0-3.444-4.469-3.444-7.749C20.869-12.956,21.4-17.63,24.231-17.63ZM34.235,0h3.157V-10.988a12.074,12.074,0,0,1,.123-1.8c.328-2.3,1.8-4.141,3.813-4.141a3.314,3.314,0,0,1,.656.041v-3.239c-.205,0-.41-.041-.656-.041a4.833,4.833,0,0,0-4.182,3.444h-.082L36.9-19.844H34.071c.041,1.476.164,3.444.164,5.125Z" transform="translate(561.436 7780.872) rotate(-59.603)" fill="#161615"/>
          <path id="Trazado_914378" data-name="Trazado 914378" d="M.9-.9A6.785,6.785,0,0,0,4.838.246c3.239,0,5.945-1.927,5.945-5.9,0-2.747-1.8-4.551-4.1-6.027-1.968-1.353-2.46-2.091-2.46-3.444a2.43,2.43,0,0,1,2.583-2.5,4.664,4.664,0,0,1,2.624.861l.861-2.378a6.824,6.824,0,0,0-3.567-1.025,5.334,5.334,0,0,0-5.453,5.494c0,2.3,1.394,3.977,3.977,5.658C7.257-7.667,7.79-6.642,7.79-5.125a2.681,2.681,0,0,1-2.911,2.87,6.28,6.28,0,0,1-3.2-1.025Z" transform="translate(383.752 7868.919) rotate(-59.603)" fill="#161615"/>
          <path id="Trazado_914379" data-name="Trazado 914379" d="M14.1-19.844H10.947V-6.765a8.193,8.193,0,0,1-.164,1.8A3.058,3.058,0,0,1,7.954-2.337c-2.173,0-2.665-2.3-2.665-5.412v-12.1H2.132V-7.3C2.132-2.378,3.485.328,6.97.328a5.222,5.222,0,0,0,4.264-2.419h.082L11.521,0h2.747c-.041-1.476-.164-3.2-.164-5.412Z" transform="translate(389.967 7858.328) rotate(-59.603)" fill="#161615"/>
          <path id="Trazado_914380" data-name="Trazado 914380" transform="translate(380.396 8060.406) rotate(-59.603)" fill="#161615"/>
          <path id="Trazado_914381" data-name="Trazado 914381" d="M2.214,0H5.371V-12.505a11.136,11.136,0,0,1,.123-1.763c.41-2.132,1.681-3.239,2.993-3.239,2.3,0,2.747,2.378,2.747,4.715V0h3.157V-13.325c0-4.8-2.05-6.847-4.8-6.847a5.036,5.036,0,0,0-4.551,2.706H4.961L4.8-19.844H2.05c.041,1.6.164,2.788.164,5.125ZM24.6-20.172c-3.4,0-6.642,3.034-6.642,10.291,0,6.97,2.87,10.209,6.437,10.209,3.034,0,6.6-2.583,6.6-10.25C31-16.851,28.126-20.172,24.6-20.172Zm-.123,2.542c2.788,0,3.321,4.674,3.321,7.708,0,3.075-.533,7.749-3.239,7.749-2.87,0-3.444-4.469-3.444-7.749C21.115-12.956,21.648-17.63,24.477-17.63ZM34.481,0h3.157V-10.988a12.075,12.075,0,0,1,.123-1.8c.328-2.3,1.8-4.141,3.813-4.141a3.314,3.314,0,0,1,.656.041v-3.239c-.2,0-.41-.041-.656-.041a4.833,4.833,0,0,0-4.182,3.444H37.31l-.164-3.116H34.317c.041,1.476.164,3.444.164,5.125ZM44.69,0h3.116V-12.587a11.341,11.341,0,0,1,.123-1.722c.369-2.091,1.681-3.2,2.952-3.2,2.337,0,2.747,2.3,2.747,4.51V0h3.116V-12.751a12.074,12.074,0,0,1,.123-1.8c.451-1.845,1.6-2.952,2.911-2.952,2.419,0,2.788,2.5,2.788,5.084V0h3.116V-13.161c0-5.043-2.091-7.011-4.756-7.011a4.793,4.793,0,0,0-2.747.779,6.316,6.316,0,0,0-1.968,2.255h-.082a4.137,4.137,0,0,0-4.141-3.034,4.98,4.98,0,0,0-4.469,2.788h-.082l-.164-2.46H44.526c.041,1.6.164,2.788.164,5.125ZM80.811,0a31.452,31.452,0,0,1-.205-4.51v-8.569c0-4.469-1.722-7.093-5.7-7.093a8.539,8.539,0,0,0-4.633,1.312l.7,2.214a5.976,5.976,0,0,1,3.28-1.025c2.5,0,3.157,1.845,3.157,4.51v.615c-4.469.041-8.446,2.255-8.446,7.216,0,3.4,2.05,5.658,4.715,5.658a4.454,4.454,0,0,0,3.936-2.419h.123L77.941,0ZM77.49-6.232a5.225,5.225,0,0,1-.082,1.107c-.369,1.968-1.558,2.993-2.952,2.993-1.107,0-2.419-.943-2.419-3.526,0-4.3,3.813-4.592,5.453-4.592ZM85.362-24.19v4.346H82.943v2.419h2.419v11.48c0,2.747.41,4.1,1.189,5A4.02,4.02,0,0,0,89.667.246,6.915,6.915,0,0,0,92-.082L91.881-2.5a5.807,5.807,0,0,1-1.271.123c-1.148,0-2.091-.7-2.091-3.28V-17.425h3.813v-2.419H88.519v-5.248ZM98.277,0V-19.844H95.12V0Zm-1.64-27.019a1.893,1.893,0,0,0-1.845,2.05,1.863,1.863,0,0,0,1.8,2.05,1.843,1.843,0,0,0,1.927-2.05A1.855,1.855,0,0,0,96.637-27.019Zm4.346,7.175L106.149,0h2.829l5.166-19.844h-3.116l-2.46,11.152c-.287,1.517-.615,3.2-.82,4.838h-.123c-.246-1.722-.574-3.485-.861-4.838l-2.5-11.152ZM120.048,0V-19.844h-3.157V0Zm-1.64-27.019a1.893,1.893,0,0,0-1.845,2.05,1.863,1.863,0,0,0,1.8,2.05,1.843,1.843,0,0,0,1.927-2.05A1.855,1.855,0,0,0,118.408-27.019Zm14.842-1.353v10.578h-.082a3.846,3.846,0,0,0-3.608-2.378c-3.075,0-5.986,3.28-5.986,10.332,0,6.519,2.419,10.168,5.781,10.168A4.567,4.567,0,0,0,133.5-2.5h.123l.205,2.5h2.706c-.041-1.148-.164-3.4-.164-4.756V-28.372Zm0,21.361a6.207,6.207,0,0,1-.123,1.312c-.7,2.87-2.05,3.4-3.034,3.4-2.3,0-3.362-3.362-3.362-7.544,0-3.977.9-7.626,3.526-7.626,1.517,0,2.747,1.8,2.952,3.854.041.451.041.9.041,1.312ZM151.495,0a31.452,31.452,0,0,1-.205-4.51v-8.569c0-4.469-1.722-7.093-5.7-7.093a8.539,8.539,0,0,0-4.633,1.312l.7,2.214a5.976,5.976,0,0,1,3.28-1.025c2.5,0,3.157,1.845,3.157,4.51v.615c-4.469.041-8.446,2.255-8.446,7.216,0,3.4,2.05,5.658,4.715,5.658A4.454,4.454,0,0,0,148.3-2.091h.123L148.625,0Zm-3.321-6.232a5.225,5.225,0,0,1-.082,1.107c-.369,1.968-1.558,2.993-2.952,2.993-1.107,0-2.419-.943-2.419-3.526,0-4.3,3.813-4.592,5.453-4.592Zm16.359-22.14v10.578h-.082a3.846,3.846,0,0,0-3.608-2.378c-3.075,0-5.986,3.28-5.986,10.332,0,6.519,2.419,10.168,5.781,10.168A4.567,4.567,0,0,0,164.779-2.5h.123l.205,2.5h2.706c-.041-1.148-.164-3.4-.164-4.756V-28.372Zm0,21.361A6.207,6.207,0,0,1,164.41-5.7c-.7,2.87-2.05,3.4-3.034,3.4-2.3,0-3.362-3.362-3.362-7.544,0-3.977.9-7.626,3.526-7.626,1.517,0,2.747,1.8,2.952,3.854.041.451.041.9.041,1.312Z" transform="translate(378.832 7947.247) rotate(-59.603)" fill="#161615"/>
          <path id="Trazado_914382" data-name="Trazado 914382" d="M.9-.9A6.785,6.785,0,0,0,4.838.246c3.239,0,5.945-1.927,5.945-5.9,0-2.747-1.8-4.551-4.1-6.027-1.968-1.353-2.46-2.091-2.46-3.444a2.43,2.43,0,0,1,2.583-2.5,4.664,4.664,0,0,1,2.624.861l.861-2.378a6.824,6.824,0,0,0-3.567-1.025,5.334,5.334,0,0,0-5.453,5.494c0,2.3,1.394,3.977,3.977,5.658C7.257-7.667,7.79-6.642,7.79-5.125a2.681,2.681,0,0,1-2.911,2.87,6.28,6.28,0,0,1-3.2-1.025ZM25.953-19.844H22.8V-6.765a8.193,8.193,0,0,1-.164,1.8A3.058,3.058,0,0,1,19.8-2.337c-2.173,0-2.665-2.3-2.665-5.412v-12.1H13.981V-7.3c0,4.92,1.353,7.626,4.838,7.626a5.222,5.222,0,0,0,4.264-2.419h.082L23.37,0h2.747c-.041-1.476-.164-3.2-.164-5.412ZM36.777,7.872h3.157v-9.84h.082A3.751,3.751,0,0,0,43.46.328c3.116,0,6.15-2.952,6.15-10.291,0-6.519-2.3-10.209-5.74-10.209a4.544,4.544,0,0,0-4.182,2.87h-.082l-.164-2.542H36.613c.041,1.394.164,3.157.164,6.191Zm3.157-20.213a9.162,9.162,0,0,1,.082-1.517c.205-1.8,1.476-3.608,2.911-3.608,2.5,0,3.485,3.444,3.485,7.544,0,4.018-.82,7.626-3.444,7.626-.861,0-2.3-.533-2.911-3.362a6.675,6.675,0,0,1-.123-1.64Zm19.024-7.831c-3.4,0-6.642,3.034-6.642,10.291,0,6.97,2.87,10.209,6.437,10.209,3.034,0,6.6-2.583,6.6-10.25C65.354-16.851,62.484-20.172,58.958-20.172Zm-.123,2.542c2.788,0,3.321,4.674,3.321,7.708,0,3.075-.533,7.749-3.239,7.749-2.87,0-3.444-4.469-3.444-7.749C55.473-12.956,56.006-17.63,58.835-17.63ZM68.88,0h3.157V-28.372H68.88ZM79.868,0V-19.844H76.711V0Zm0-27.962-3.157,5.535H78.8l4.305-5.535Zm5.084,3.772v4.346H82.533v2.419h2.419v11.48c0,2.747.41,4.1,1.189,5A4.02,4.02,0,0,0,89.257.246a6.915,6.915,0,0,0,2.337-.328L91.471-2.5a5.807,5.807,0,0,1-1.271.123c-1.148,0-2.091-.7-2.091-3.28V-17.425h3.813v-2.419H88.109v-5.248ZM97.867,0V-19.844H94.71V0Zm-1.64-27.019a1.893,1.893,0,0,0-1.845,2.05,1.863,1.863,0,0,0,1.8,2.05,1.843,1.843,0,0,0,1.927-2.05A1.855,1.855,0,0,0,96.227-27.019ZM111.52-2.911a5.4,5.4,0,0,1-2.3.533c-2.911,0-4.674-2.788-4.674-7.421,0-3.9,1.435-7.667,4.592-7.667a5.15,5.15,0,0,1,2.255.533l.615-2.583a6.382,6.382,0,0,0-2.788-.615c-4.961,0-7.831,4.633-7.831,10.332,0,6.56,2.911,10.045,7.257,10.045a6.8,6.8,0,0,0,3.28-.738ZM125.46,0a31.452,31.452,0,0,1-.205-4.51v-8.569c0-4.469-1.722-7.093-5.7-7.093a8.539,8.539,0,0,0-4.633,1.312l.7,2.214a5.976,5.976,0,0,1,3.28-1.025c2.5,0,3.157,1.845,3.157,4.51v.615c-4.469.041-8.446,2.255-8.446,7.216,0,3.4,2.05,5.658,4.715,5.658a4.454,4.454,0,0,0,3.936-2.419h.123L122.59,0Zm-3.321-6.232a5.225,5.225,0,0,1-.082,1.107c-.369,1.968-1.558,2.993-2.952,2.993-1.107,0-2.419-.943-2.419-3.526,0-4.3,3.813-4.592,5.453-4.592Z" transform="translate(484.646 7736.809) rotate(-59.603)" fill="#161615"/>
          <path id="Trazado_914383" data-name="Trazado 914383" transform="translate(487.342 7943.083) rotate(-59.603)" fill="#161615"/>
          <path id="Trazado_914384" data-name="Trazado 914384" d="M12.546-15.785H5.617v-9.1H13v-2.747H2.46V0H13.489V-2.747H5.617V-13.12h6.929ZM16.4,0h3.157V-28.372H16.4ZM39.483-28.372v10.578H39.4a3.846,3.846,0,0,0-3.608-2.378c-3.075,0-5.986,3.28-5.986,10.332,0,6.519,2.419,10.168,5.781,10.168A4.567,4.567,0,0,0,39.729-2.5h.123l.2,2.5h2.706c-.041-1.148-.164-3.4-.164-4.756V-28.372Zm0,21.361A6.207,6.207,0,0,1,39.36-5.7c-.7,2.87-2.05,3.4-3.034,3.4-2.3,0-3.362-3.362-3.362-7.544,0-3.977.9-7.626,3.526-7.626,1.517,0,2.747,1.8,2.952,3.854.041.451.041.9.041,1.312ZM58.466-9.635c.041-.492.041-1.025.041-1.763,0-4.51-1.6-8.774-5.658-8.774-3.977,0-6.683,4.018-6.683,10.455,0,6.068,2.46,9.963,7.216,9.963A9.568,9.568,0,0,0,57.728-.7l-.492-2.337a6.671,6.671,0,0,1-3.28.779c-2.3,0-4.674-1.312-4.715-7.38Zm-9.184-2.337c.123-2.706,1.189-5.74,3.239-5.74,1.517,0,3.034,1.763,2.952,5.74ZM60.6-.9A6.785,6.785,0,0,0,64.534.246c3.239,0,5.945-1.927,5.945-5.9,0-2.747-1.8-4.551-4.1-6.027-1.968-1.353-2.46-2.091-2.46-3.444a2.43,2.43,0,0,1,2.583-2.5,4.664,4.664,0,0,1,2.624.861l.861-2.378a6.824,6.824,0,0,0-3.567-1.025,5.334,5.334,0,0,0-5.453,5.494c0,2.3,1.394,3.977,3.977,5.658,2.009,1.353,2.542,2.378,2.542,3.9a2.681,2.681,0,0,1-2.911,2.87,6.28,6.28,0,0,1-3.2-1.025ZM74.456-24.19v4.346H72.037v2.419h2.419v11.48c0,2.747.41,4.1,1.189,5A4.02,4.02,0,0,0,78.761.246,6.915,6.915,0,0,0,81.1-.082L80.975-2.5a5.807,5.807,0,0,1-1.271.123c-1.148,0-2.091-.7-2.091-3.28V-17.425h3.813v-2.419H77.613v-5.248ZM87.371,0V-19.844H84.214V0Zm-1.64-27.019a1.893,1.893,0,0,0-1.845,2.05,1.863,1.863,0,0,0,1.8,2.05,1.843,1.843,0,0,0,1.927-2.05A1.855,1.855,0,0,0,85.731-27.019ZM91.758,0h3.157V-12.505a11.136,11.136,0,0,1,.123-1.763c.41-2.132,1.681-3.239,2.993-3.239,2.3,0,2.747,2.378,2.747,4.715V0h3.157V-13.325c0-4.8-2.05-6.847-4.8-6.847a5.036,5.036,0,0,0-4.551,2.706h-.082l-.164-2.378H91.594c.041,1.6.164,2.788.164,5.125Zm22.386-20.172c-3.4,0-6.642,3.034-6.642,10.291,0,6.97,2.87,10.209,6.437,10.209,3.034,0,6.6-2.583,6.6-10.25C120.54-16.851,117.67-20.172,114.144-20.172Zm-.123,2.542c2.788,0,3.321,4.674,3.321,7.708,0,3.075-.533,7.749-3.239,7.749-2.87,0-3.444-4.469-3.444-7.749C110.659-12.956,111.192-17.63,114.021-17.63Z" transform="translate(938.49 8130.408) rotate(-59.603)" fill="#fff"/>
          <path id="Trazado_914385" data-name="Trazado 914385" transform="translate(882.95 8360.144) rotate(-59.603)" fill="#fff"/>
          <path id="Trazado_914386" data-name="Trazado 914386" d="M2.627-21.83v3.922H.444v2.183H2.627v10.36c0,2.479.37,3.7,1.073,4.514A3.628,3.628,0,0,0,6.512.222a6.24,6.24,0,0,0,2.109-.3L8.51-2.257a5.24,5.24,0,0,1-1.147.111c-1.036,0-1.887-.629-1.887-2.96V-15.725H8.917v-2.183H5.476v-4.736Zm19.536,3.922H19.314v11.8a7.393,7.393,0,0,1-.148,1.628,2.759,2.759,0,0,1-2.553,2.368c-1.961,0-2.405-2.072-2.405-4.884V-17.908H11.359V-6.586C11.359-2.146,12.58.3,15.725.3a4.713,4.713,0,0,0,3.848-2.183h.074L19.832,0h2.479c-.037-1.332-.148-2.886-.148-4.884ZM26.122,0h2.849V-9.916a10.9,10.9,0,0,1,.111-1.628c.3-2.072,1.628-3.737,3.441-3.737a2.991,2.991,0,0,1,.592.037v-2.923c-.185,0-.37-.037-.592-.037A4.361,4.361,0,0,0,28.749-15.1h-.074l-.148-2.812H25.974c.037,1.332.148,3.108.148,4.625ZM38.184,0V-17.908H35.335V0Zm0-25.234-2.849,4.995h1.887l3.885-4.995ZM40.959-.814A6.123,6.123,0,0,0,44.511.222c2.923,0,5.365-1.739,5.365-5.328,0-2.479-1.628-4.107-3.7-5.439-1.776-1.221-2.22-1.887-2.22-3.108a2.193,2.193,0,0,1,2.331-2.257,4.209,4.209,0,0,1,2.368.777l.777-2.146a6.158,6.158,0,0,0-3.219-.925,4.814,4.814,0,0,0-4.921,4.958c0,2.072,1.258,3.589,3.589,5.106,1.813,1.221,2.294,2.146,2.294,3.515a2.42,2.42,0,0,1-2.627,2.59,5.668,5.668,0,0,1-2.886-.925ZM53.465-21.83v3.922H51.282v2.183h2.183v10.36c0,2.479.37,3.7,1.073,4.514A3.628,3.628,0,0,0,57.35.222a6.241,6.241,0,0,0,2.109-.3l-.111-2.183a5.24,5.24,0,0,1-1.147.111c-1.036,0-1.887-.629-1.887-2.96V-15.725h3.441v-2.183H56.314v-4.736ZM65.12,0V-17.908H62.271V0ZM63.64-24.383a1.708,1.708,0,0,0-1.665,1.85,1.681,1.681,0,0,0,1.628,1.85,1.664,1.664,0,0,0,1.739-1.85A1.674,1.674,0,0,0,63.64-24.383Zm13.8,21.756a4.87,4.87,0,0,1-2.072.481c-2.627,0-4.218-2.516-4.218-6.7,0-3.515,1.295-6.919,4.144-6.919a4.647,4.647,0,0,1,2.035.481l.555-2.331a5.759,5.759,0,0,0-2.516-.555c-4.477,0-7.067,4.181-7.067,9.324,0,5.92,2.627,9.065,6.549,9.065a6.139,6.139,0,0,0,2.96-.666ZM85.248-18.2c-3.071,0-5.994,2.738-5.994,9.287,0,6.29,2.59,9.213,5.809,9.213C87.8.3,91.02-2.035,91.02-8.954,91.02-15.207,88.43-18.2,85.248-18.2Zm-.111,2.294c2.516,0,3,4.218,3,6.956,0,2.775-.481,6.993-2.923,6.993-2.59,0-3.108-4.033-3.108-6.993C82.1-11.692,82.584-15.91,85.137-15.91Z" transform="translate(971.547 8137.979) rotate(-59.603)" fill="#fff"/>
          <path id="Trazado_914387" data-name="Trazado 914387" d="M13.653-9.635c.041-.492.041-1.025.041-1.763,0-4.51-1.6-8.774-5.658-8.774-3.977,0-6.683,4.018-6.683,10.455,0,6.068,2.46,9.963,7.216,9.963A9.568,9.568,0,0,0,12.915-.7l-.492-2.337a6.671,6.671,0,0,1-3.28.779c-2.3,0-4.674-1.312-4.715-7.38ZM4.469-11.972c.123-2.706,1.189-5.74,3.239-5.74,1.517,0,3.034,1.763,2.952,5.74ZM17.1,0h3.157V-12.505a11.136,11.136,0,0,1,.123-1.763c.41-2.132,1.681-3.239,2.993-3.239,2.3,0,2.747,2.378,2.747,4.715V0h3.157V-13.325c0-4.8-2.05-6.847-4.8-6.847a5.036,5.036,0,0,0-4.551,2.706h-.082l-.164-2.378H16.933c.041,1.6.164,2.788.164,5.125ZM34.153-24.19v4.346H31.734v2.419h2.419v11.48c0,2.747.41,4.1,1.189,5A4.02,4.02,0,0,0,38.458.246,6.915,6.915,0,0,0,40.8-.082L40.672-2.5a5.807,5.807,0,0,1-1.271.123c-1.148,0-2.091-.7-2.091-3.28V-17.425h3.813v-2.419H37.31v-5.248ZM55.022-9.635c.041-.492.041-1.025.041-1.763,0-4.51-1.6-8.774-5.658-8.774-3.977,0-6.683,4.018-6.683,10.455,0,6.068,2.46,9.963,7.216,9.963A9.568,9.568,0,0,0,54.284-.7l-.492-2.337a6.671,6.671,0,0,1-3.28.779c-2.3,0-4.674-1.312-4.715-7.38Zm-9.184-2.337c.123-2.706,1.189-5.74,3.239-5.74,1.517,0,3.034,1.763,2.952,5.74Z" transform="translate(981.404 8244.733) rotate(-59.603)" fill="#161615"/>
          <path id="Trazado_914388" data-name="Trazado 914388" d="M2.214,0H5.371V-12.505a11.136,11.136,0,0,1,.123-1.763c.41-2.132,1.681-3.239,2.993-3.239,2.3,0,2.747,2.378,2.747,4.715V0h3.157V-13.325c0-4.8-2.05-6.847-4.8-6.847a5.036,5.036,0,0,0-4.551,2.706H4.961L4.8-19.844H2.05c.041,1.6.164,2.788.164,5.125Z" transform="translate(1010.895 8194.455) rotate(-59.603)" fill="#161615"/>
          <path id="Trazado_914389" data-name="Trazado 914389" d="M11.029-28.372v10.578h-.082a3.846,3.846,0,0,0-3.608-2.378c-3.075,0-5.986,3.28-5.986,10.332C1.353-3.321,3.772.328,7.134.328A4.567,4.567,0,0,0,11.275-2.5H11.4L11.6,0h2.706c-.041-1.148-.164-3.4-.164-4.756V-28.372Zm0,21.361A6.207,6.207,0,0,1,10.906-5.7c-.7,2.87-2.05,3.4-3.034,3.4C5.576-2.3,4.51-5.658,4.51-9.84c0-3.977.9-7.626,3.526-7.626,1.517,0,2.747,1.8,2.952,3.854.041.451.041.9.041,1.312Z" transform="translate(1019.603 8179.622) rotate(-59.603)" fill="#161615"/>
          <path id="Trazado_914390" data-name="Trazado 914390" d="M5.24,0V-19.36H2.16V0ZM3.64-26.36a1.847,1.847,0,0,0-1.8,2,1.817,1.817,0,0,0,1.76,2,1.8,1.8,0,0,0,1.88-2A1.81,1.81,0,0,0,3.64-26.36Z" transform="translate(1027.329 8164.549) rotate(-59.603)" fill="#161615"/>
          <path id="Trazado_914391" data-name="Trazado 914391" d="M11.029-28.372v10.578h-.082a3.846,3.846,0,0,0-3.608-2.378c-3.075,0-5.986,3.28-5.986,10.332C1.353-3.321,3.772.328,7.134.328A4.567,4.567,0,0,0,11.275-2.5H11.4L11.6,0h2.706c-.041-1.148-.164-3.4-.164-4.756V-28.372Zm0,21.361A6.207,6.207,0,0,1,10.906-5.7c-.7,2.87-2.05,3.4-3.034,3.4C5.576-2.3,4.51-5.658,4.51-9.84c0-3.977.9-7.626,3.526-7.626,1.517,0,2.747,1.8,2.952,3.854.041.451.041.9.041,1.312ZM24.354-20.172c-3.4,0-6.642,3.034-6.642,10.291,0,6.97,2.87,10.209,6.437,10.209,3.034,0,6.6-2.583,6.6-10.25C30.75-16.851,27.88-20.172,24.354-20.172Zm-.123,2.542c2.788,0,3.321,4.674,3.321,7.708,0,3.075-.533,7.749-3.239,7.749-2.87,0-3.444-4.469-3.444-7.749C20.869-12.956,21.4-17.63,24.231-17.63Z" transform="translate(1032.148 8158.317) rotate(-59.603)" fill="#161615"/>
          <path id="Trazado_914392" data-name="Trazado 914392" d="M11.029-28.372v10.578h-.082a3.846,3.846,0,0,0-3.608-2.378c-3.075,0-5.986,3.28-5.986,10.332C1.353-3.321,3.772.328,7.134.328A4.567,4.567,0,0,0,11.275-2.5H11.4L11.6,0h2.706c-.041-1.148-.164-3.4-.164-4.756V-28.372Zm0,21.361A6.207,6.207,0,0,1,10.906-5.7c-.7,2.87-2.05,3.4-3.034,3.4C5.576-2.3,4.51-5.658,4.51-9.84c0-3.977.9-7.626,3.526-7.626,1.517,0,2.747,1.8,2.952,3.854.041.451.041.9.041,1.312ZM30.012-9.635c.041-.492.041-1.025.041-1.763,0-4.51-1.6-8.774-5.658-8.774-3.977,0-6.683,4.018-6.683,10.455,0,6.068,2.46,9.963,7.216,9.963A9.568,9.568,0,0,0,29.274-.7l-.492-2.337a6.671,6.671,0,0,1-3.28.779c-2.3,0-4.674-1.312-4.715-7.38Zm-9.184-2.337c.123-2.706,1.189-5.74,3.239-5.74,1.517,0,3.034,1.763,2.952,5.74ZM32.144-.9A6.785,6.785,0,0,0,36.08.246c3.239,0,5.945-1.927,5.945-5.9,0-2.747-1.8-4.551-4.1-6.027-1.968-1.353-2.46-2.091-2.46-3.444a2.43,2.43,0,0,1,2.583-2.5,4.664,4.664,0,0,1,2.624.861l.861-2.378a6.824,6.824,0,0,0-3.567-1.025,5.334,5.334,0,0,0-5.453,5.494c0,2.3,1.394,3.977,3.977,5.658,2.009,1.353,2.542,2.378,2.542,3.9a2.681,2.681,0,0,1-2.911,2.87,6.28,6.28,0,0,1-3.2-1.025ZM54.12-28.372v10.578h-.082a3.846,3.846,0,0,0-3.608-2.378c-3.075,0-5.986,3.28-5.986,10.332,0,6.519,2.419,10.168,5.781,10.168A4.567,4.567,0,0,0,54.366-2.5h.123L54.694,0H57.4c-.041-1.148-.164-3.4-.164-4.756V-28.372Zm0,21.361A6.207,6.207,0,0,1,54-5.7c-.7,2.87-2.05,3.4-3.034,3.4-2.3,0-3.362-3.362-3.362-7.544,0-3.977.9-7.626,3.526-7.626,1.517,0,2.747,1.8,2.952,3.854.041.451.041.9.041,1.312ZM73.1-9.635c.041-.492.041-1.025.041-1.763,0-4.51-1.6-8.774-5.658-8.774-3.977,0-6.683,4.018-6.683,10.455,0,6.068,2.46,9.963,7.216,9.963A9.568,9.568,0,0,0,72.365-.7l-.492-2.337a6.671,6.671,0,0,1-3.28.779c-2.3,0-4.674-1.312-4.715-7.38Zm-9.184-2.337c.123-2.706,1.189-5.74,3.239-5.74,1.517,0,3.034,1.763,2.952,5.74Z" transform="translate(1026.201 8238.304) rotate(-59.603)" fill="#161615"/>
          <path id="Trazado_914393" data-name="Trazado 914393" d="M.9-.9A6.785,6.785,0,0,0,4.838.246c3.239,0,5.945-1.927,5.945-5.9,0-2.747-1.8-4.551-4.1-6.027-1.968-1.353-2.46-2.091-2.46-3.444a2.43,2.43,0,0,1,2.583-2.5,4.664,4.664,0,0,1,2.624.861l.861-2.378a6.824,6.824,0,0,0-3.567-1.025,5.334,5.334,0,0,0-5.453,5.494c0,2.3,1.394,3.977,3.977,5.658C7.257-7.667,7.79-6.642,7.79-5.125a2.681,2.681,0,0,1-2.911,2.87,6.28,6.28,0,0,1-3.2-1.025ZM25.953-19.844H22.8V-6.765a8.193,8.193,0,0,1-.164,1.8A3.058,3.058,0,0,1,19.8-2.337c-2.173,0-2.665-2.3-2.665-5.412v-12.1H13.981V-7.3c0,4.92,1.353,7.626,4.838,7.626a5.222,5.222,0,0,0,4.264-2.419h.082L23.37,0h2.747c-.041-1.476-.164-3.2-.164-5.412ZM46.084-2.911a5.4,5.4,0,0,1-2.3.533c-2.911,0-4.674-2.788-4.674-7.421,0-3.9,1.435-7.667,4.592-7.667a5.15,5.15,0,0,1,2.255.533l.615-2.583a6.382,6.382,0,0,0-2.788-.615c-4.961,0-7.831,4.633-7.831,10.332,0,6.56,2.911,10.045,7.257,10.045a6.8,6.8,0,0,0,3.28-.738ZM52.357,0V-19.844H49.2V0Zm-1.64-27.019a1.893,1.893,0,0,0-1.845,2.05,1.863,1.863,0,0,0,1.8,2.05,1.843,1.843,0,0,0,1.927-2.05A1.855,1.855,0,0,0,50.717-27.019ZM66.01-2.911a5.4,5.4,0,0,1-2.3.533C60.8-2.378,59.04-5.166,59.04-9.8c0-3.9,1.435-7.667,4.592-7.667a5.15,5.15,0,0,1,2.255.533l.615-2.583a6.382,6.382,0,0,0-2.788-.615c-4.961,0-7.831,4.633-7.831,10.332,0,6.56,2.911,10.045,7.257,10.045a6.8,6.8,0,0,0,3.28-.738ZM69.126,0h3.157V-28.372H69.126ZM82.738-20.172c-3.4,0-6.642,3.034-6.642,10.291,0,6.97,2.87,10.209,6.437,10.209,3.034,0,6.6-2.583,6.6-10.25C89.134-16.851,86.264-20.172,82.738-20.172Zm-.123,2.542c2.788,0,3.321,4.674,3.321,7.708,0,3.075-.533,7.749-3.239,7.749-2.87,0-3.444-4.469-3.444-7.749C79.253-12.956,79.786-17.63,82.615-17.63Z" transform="translate(1060.226 8289.195) rotate(-59.603)" fill="#161615"/>
          <path id="Trazado_914394" data-name="Trazado 914394" d="M11.029-28.372v10.578h-.082a3.846,3.846,0,0,0-3.608-2.378c-3.075,0-5.986,3.28-5.986,10.332C1.353-3.321,3.772.328,7.134.328A4.567,4.567,0,0,0,11.275-2.5H11.4L11.6,0h2.706c-.041-1.148-.164-3.4-.164-4.756V-28.372Zm0,21.361A6.207,6.207,0,0,1,10.906-5.7c-.7,2.87-2.05,3.4-3.034,3.4C5.576-2.3,4.51-5.658,4.51-9.84c0-3.977.9-7.626,3.526-7.626,1.517,0,2.747,1.8,2.952,3.854.041.451.041.9.041,1.312ZM30.012-9.635c.041-.492.041-1.025.041-1.763,0-4.51-1.6-8.774-5.658-8.774-3.977,0-6.683,4.018-6.683,10.455,0,6.068,2.46,9.963,7.216,9.963A9.568,9.568,0,0,0,29.274-.7l-.492-2.337a6.671,6.671,0,0,1-3.28.779c-2.3,0-4.674-1.312-4.715-7.38Zm-9.184-2.337c.123-2.706,1.189-5.74,3.239-5.74,1.517,0,3.034,1.763,2.952,5.74Zm17.384-7.872L43.378,0h2.829l5.166-19.844H48.257L45.8-8.692c-.287,1.517-.615,3.2-.82,4.838h-.123c-.246-1.722-.574-3.485-.861-4.838l-2.5-11.152ZM57.277,0V-19.844H54.12V0Zm-1.64-27.019a1.893,1.893,0,0,0-1.845,2.05,1.863,1.863,0,0,0,1.8,2.05,1.843,1.843,0,0,0,1.927-2.05A1.855,1.855,0,0,0,55.637-27.019Zm14.842-1.353v10.578H70.4a3.846,3.846,0,0,0-3.608-2.378c-3.075,0-5.986,3.28-5.986,10.332C60.8-3.321,63.222.328,66.584.328A4.567,4.567,0,0,0,70.725-2.5h.123L71.053,0h2.706c-.041-1.148-.164-3.4-.164-4.756V-28.372Zm0,21.361A6.207,6.207,0,0,1,70.356-5.7c-.7,2.87-2.05,3.4-3.034,3.4-2.3,0-3.362-3.362-3.362-7.544,0-3.977.9-7.626,3.526-7.626,1.517,0,2.747,1.8,2.952,3.854.041.451.041.9.041,1.312ZM88.724,0a31.452,31.452,0,0,1-.205-4.51v-8.569c0-4.469-1.722-7.093-5.7-7.093a8.539,8.539,0,0,0-4.633,1.312l.7,2.214a5.976,5.976,0,0,1,3.28-1.025c2.5,0,3.157,1.845,3.157,4.51v.615c-4.469.041-8.446,2.255-8.446,7.216,0,3.4,2.05,5.658,4.715,5.658a4.454,4.454,0,0,0,3.936-2.419h.123L85.854,0ZM85.4-6.232a5.225,5.225,0,0,1-.082,1.107c-.369,1.968-1.558,2.993-2.952,2.993-1.107,0-2.419-.943-2.419-3.526,0-4.3,3.813-4.592,5.453-4.592Z" transform="translate(1090.698 8307.27) rotate(-59.603)" fill="#161615"/>
          <path id="Trazado_914395" data-name="Trazado 914395" d="M.9-.9A6.785,6.785,0,0,0,4.838.246c3.239,0,5.945-1.927,5.945-5.9,0-2.747-1.8-4.551-4.1-6.027-1.968-1.353-2.46-2.091-2.46-3.444a2.43,2.43,0,0,1,2.583-2.5,4.664,4.664,0,0,1,2.624.861l.861-2.378a6.824,6.824,0,0,0-3.567-1.025,5.334,5.334,0,0,0-5.453,5.494c0,2.3,1.394,3.977,3.977,5.658C7.257-7.667,7.79-6.642,7.79-5.125a2.681,2.681,0,0,1-2.911,2.87,6.28,6.28,0,0,1-3.2-1.025ZM25.953-19.844H22.8V-6.765a8.193,8.193,0,0,1-.164,1.8A3.058,3.058,0,0,1,19.8-2.337c-2.173,0-2.665-2.3-2.665-5.412v-12.1H13.981V-7.3c0,4.92,1.353,7.626,4.838,7.626a5.222,5.222,0,0,0,4.264-2.419h.082L23.37,0h2.747c-.041-1.476-.164-3.2-.164-5.412ZM29.069-.9A6.785,6.785,0,0,0,33.005.246c3.239,0,5.945-1.927,5.945-5.9,0-2.747-1.8-4.551-4.1-6.027-1.968-1.353-2.46-2.091-2.46-3.444a2.43,2.43,0,0,1,2.583-2.5,4.664,4.664,0,0,1,2.624.861l.861-2.378a6.824,6.824,0,0,0-3.567-1.025,5.334,5.334,0,0,0-5.453,5.494c0,2.3,1.394,3.977,3.977,5.658,2.009,1.353,2.542,2.378,2.542,3.9a2.681,2.681,0,0,1-2.911,2.87,6.28,6.28,0,0,1-3.2-1.025Z" transform="translate(1183.802 8076.275) rotate(-59.603)" fill="#161615"/>
          <path id="Trazado_914396" data-name="Trazado 914396" d="M11.2-2.84a5.264,5.264,0,0,1-2.24.52C6.12-2.32,4.4-5.04,4.4-9.56c0-3.8,1.4-7.48,4.48-7.48a5.024,5.024,0,0,1,2.2.52l.6-2.52a6.226,6.226,0,0,0-2.72-.6c-4.84,0-7.64,4.52-7.64,10.08,0,6.4,2.84,9.8,7.08,9.8a6.637,6.637,0,0,0,3.2-.72ZM24.8,0a30.684,30.684,0,0,1-.2-4.4v-8.36c0-4.36-1.68-6.92-5.56-6.92a8.331,8.331,0,0,0-4.52,1.28l.68,2.16a5.831,5.831,0,0,1,3.2-1c2.44,0,3.08,1.8,3.08,4.4v.6c-4.36.04-8.24,2.2-8.24,7.04,0,3.32,2,5.52,4.6,5.52a4.345,4.345,0,0,0,3.84-2.36h.12L22,0ZM21.56-6.08A5.1,5.1,0,0,1,21.48-5c-.36,1.92-1.52,2.92-2.88,2.92-1.08,0-2.36-.92-2.36-3.44,0-4.2,3.72-4.48,5.32-4.48ZM28.88,0h3.08V-10.72a11.78,11.78,0,0,1,.12-1.76c.32-2.24,1.76-4.04,3.72-4.04a3.233,3.233,0,0,1,.64.04v-3.16c-.2,0-.4-.04-.64-.04a4.715,4.715,0,0,0-4.08,3.36h-.08l-.16-3.04H28.72c.04,1.44.16,3.36.16,5ZM49.04,0a30.684,30.684,0,0,1-.2-4.4v-8.36c0-4.36-1.68-6.92-5.56-6.92a8.331,8.331,0,0,0-4.52,1.28l.68,2.16a5.831,5.831,0,0,1,3.2-1c2.44,0,3.08,1.8,3.08,4.4v.6c-4.36.04-8.24,2.2-8.24,7.04,0,3.32,2,5.52,4.6,5.52a4.345,4.345,0,0,0,3.84-2.36h.12L46.24,0ZM45.8-6.08A5.1,5.1,0,0,1,45.72-5c-.36,1.92-1.52,2.92-2.88,2.92-1.08,0-2.36-.92-2.36-3.44,0-4.2,3.72-4.48,5.32-4.48ZM62.2-2.84a5.264,5.264,0,0,1-2.24.52c-2.84,0-4.56-2.72-4.56-7.24,0-3.8,1.4-7.48,4.48-7.48a5.024,5.024,0,0,1,2.2.52l.6-2.52a6.226,6.226,0,0,0-2.72-.6c-4.84,0-7.64,4.52-7.64,10.08,0,6.4,2.84,9.8,7.08,9.8a6.636,6.636,0,0,0,3.2-.72ZM66.52-23.6v4.24H64.16V-17h2.36V-5.8c0,2.68.4,4,1.16,4.88A3.922,3.922,0,0,0,70.72.24,6.746,6.746,0,0,0,73-.08l-.12-2.36a5.665,5.665,0,0,1-1.24.12c-1.12,0-2.04-.68-2.04-3.2V-17h3.72v-2.36H69.6v-5.12ZM86.88-9.4c.04-.48.04-1,.04-1.72,0-4.4-1.56-8.56-5.52-8.56-3.88,0-6.52,3.92-6.52,10.2,0,5.92,2.4,9.72,7.04,9.72a9.335,9.335,0,0,0,4.24-.92l-.48-2.28a6.509,6.509,0,0,1-3.2.76c-2.24,0-4.56-1.28-4.6-7.2Zm-8.96-2.28c.12-2.64,1.16-5.6,3.16-5.6,1.48,0,2.96,1.72,2.88,5.6ZM90.2,0h3.08V-10.72a11.779,11.779,0,0,1,.12-1.76c.32-2.24,1.76-4.04,3.72-4.04a3.233,3.233,0,0,1,.64.04v-3.16c-.2,0-.4-.04-.64-.04a4.715,4.715,0,0,0-4.08,3.36h-.08l-.16-3.04H90.04c.04,1.44.16,3.36.16,5Zm13.04,0V-19.36h-3.08V0Zm0-27.28-3.08,5.4h2.04l4.2-5.4Zm3,26.4A6.619,6.619,0,0,0,110.08.24c3.16,0,5.8-1.88,5.8-5.76,0-2.68-1.76-4.44-4-5.88-1.92-1.32-2.4-2.04-2.4-3.36A2.37,2.37,0,0,1,112-17.2a4.551,4.551,0,0,1,2.56.84l.84-2.32a6.658,6.658,0,0,0-3.48-1,5.2,5.2,0,0,0-5.32,5.36c0,2.24,1.36,3.88,3.88,5.52,1.96,1.32,2.48,2.32,2.48,3.8a2.616,2.616,0,0,1-2.84,2.8,6.127,6.127,0,0,1-3.12-1ZM119.76-23.6v4.24H117.4V-17h2.36V-5.8c0,2.68.4,4,1.16,4.88A3.922,3.922,0,0,0,123.96.24a6.746,6.746,0,0,0,2.28-.32l-.12-2.36a5.665,5.665,0,0,1-1.24.12c-1.12,0-2.04-.68-2.04-3.2V-17h3.72v-2.36h-3.72v-5.12ZM132.36,0V-19.36h-3.08V0Zm-1.6-26.36a1.847,1.847,0,0,0-1.8,2,1.817,1.817,0,0,0,1.76,2,1.8,1.8,0,0,0,1.88-2A1.81,1.81,0,0,0,130.76-26.36ZM145.68-2.84a5.264,5.264,0,0,1-2.24.52c-2.84,0-4.56-2.72-4.56-7.24,0-3.8,1.4-7.48,4.48-7.48a5.024,5.024,0,0,1,2.2.52l.6-2.52a6.226,6.226,0,0,0-2.72-.6c-4.84,0-7.64,4.52-7.64,10.08,0,6.4,2.84,9.8,7.08,9.8a6.637,6.637,0,0,0,3.2-.72ZM159.28,0a30.683,30.683,0,0,1-.2-4.4v-8.36c0-4.36-1.68-6.92-5.56-6.92A8.331,8.331,0,0,0,149-18.4l.68,2.16a5.83,5.83,0,0,1,3.2-1c2.44,0,3.08,1.8,3.08,4.4v.6c-4.36.04-8.24,2.2-8.24,7.04,0,3.32,2,5.52,4.6,5.52a4.345,4.345,0,0,0,3.84-2.36h.12l.2,2.04Zm-3.24-6.08A5.1,5.1,0,0,1,155.96-5c-.36,1.92-1.52,2.92-2.88,2.92-1.08,0-2.36-.92-2.36-3.44,0-4.2,3.72-4.48,5.32-4.48Zm6.08,5.2A6.619,6.619,0,0,0,165.96.24c3.16,0,5.8-1.88,5.8-5.76,0-2.68-1.76-4.44-4-5.88-1.92-1.32-2.4-2.04-2.4-3.36a2.37,2.37,0,0,1,2.52-2.44,4.551,4.551,0,0,1,2.56.84l.84-2.32a6.658,6.658,0,0,0-3.48-1,5.2,5.2,0,0,0-5.32,5.36c0,2.24,1.36,3.88,3.88,5.52,1.96,1.32,2.48,2.32,2.48,3.8A2.616,2.616,0,0,1,166-2.2a6.127,6.127,0,0,1-3.12-1Z" transform="translate(1177.521 8154.941) rotate(-59.603)" fill="#161615"/>
          <path id="Trazado_914397" data-name="Trazado 914397" d="M12.546-15.785H5.617v-9.1H13v-2.747H2.46V0H13.489V-2.747H5.617V-13.12h6.929ZM16.4,0h3.157V-28.372H16.4Z" transform="translate(934.483 7776.582) rotate(59.596)" fill="#12263f"/>
          <path id="Trazado_914398" data-name="Trazado 914398" transform="translate(735.341 7631.993) rotate(59.596)" fill="#fff"/>
          <path id="Trazado_914399" data-name="Trazado 914399" d="M.9-.9A6.785,6.785,0,0,0,4.838.246c3.239,0,5.945-1.927,5.945-5.9,0-2.747-1.8-4.551-4.1-6.027-1.968-1.353-2.46-2.091-2.46-3.444a2.43,2.43,0,0,1,2.583-2.5,4.664,4.664,0,0,1,2.624.861l.861-2.378a6.824,6.824,0,0,0-3.567-1.025,5.334,5.334,0,0,0-5.453,5.494c0,2.3,1.394,3.977,3.977,5.658C7.257-7.667,7.79-6.642,7.79-5.125a2.681,2.681,0,0,1-2.911,2.87,6.28,6.28,0,0,1-3.2-1.025ZM17.22,0V-19.844H14.063V0ZM15.58-27.019a1.893,1.893,0,0,0-1.845,2.05,1.863,1.863,0,0,0,1.8,2.05,1.843,1.843,0,0,0,1.927-2.05A1.855,1.855,0,0,0,15.58-27.019ZM20.3-.9A6.785,6.785,0,0,0,24.231.246c3.239,0,5.945-1.927,5.945-5.9,0-2.747-1.8-4.551-4.1-6.027-1.968-1.353-2.46-2.091-2.46-3.444a2.43,2.43,0,0,1,2.583-2.5,4.664,4.664,0,0,1,2.624.861l.861-2.378a6.824,6.824,0,0,0-3.567-1.025,5.334,5.334,0,0,0-5.453,5.494c0,2.3,1.394,3.977,3.977,5.658,2.009,1.353,2.542,2.378,2.542,3.9a2.681,2.681,0,0,1-2.911,2.87,6.28,6.28,0,0,1-3.2-1.025ZM34.153-24.19v4.346H31.734v2.419h2.419v11.48c0,2.747.41,4.1,1.189,5A4.02,4.02,0,0,0,38.458.246,6.915,6.915,0,0,0,40.8-.082L40.672-2.5a5.807,5.807,0,0,1-1.271.123c-1.148,0-2.091-.7-2.091-3.28V-17.425h3.813v-2.419H37.31v-5.248ZM55.022-9.635c.041-.492.041-1.025.041-1.763,0-4.51-1.6-8.774-5.658-8.774-3.977,0-6.683,4.018-6.683,10.455,0,6.068,2.46,9.963,7.216,9.963A9.568,9.568,0,0,0,54.284-.7l-.492-2.337a6.671,6.671,0,0,1-3.28.779c-2.3,0-4.674-1.312-4.715-7.38Zm-9.184-2.337c.123-2.706,1.189-5.74,3.239-5.74,1.517,0,3.034,1.763,2.952,5.74ZM58.466,0h3.116V-12.587a11.341,11.341,0,0,1,.123-1.722c.369-2.091,1.681-3.2,2.952-3.2,2.337,0,2.747,2.3,2.747,4.51V0H70.52V-12.751a12.074,12.074,0,0,1,.123-1.8c.451-1.845,1.6-2.952,2.911-2.952,2.419,0,2.788,2.5,2.788,5.084V0h3.116V-13.161c0-5.043-2.091-7.011-4.756-7.011a4.793,4.793,0,0,0-2.747.779,6.316,6.316,0,0,0-1.968,2.255H69.9a4.137,4.137,0,0,0-4.141-3.034,4.98,4.98,0,0,0-4.469,2.788h-.082l-.164-2.46H58.3c.041,1.6.164,2.788.164,5.125ZM94.587,0a31.452,31.452,0,0,1-.205-4.51v-8.569c0-4.469-1.722-7.093-5.7-7.093A8.539,8.539,0,0,0,84.05-18.86l.7,2.214a5.976,5.976,0,0,1,3.28-1.025c2.5,0,3.157,1.845,3.157,4.51v.615c-4.469.041-8.446,2.255-8.446,7.216,0,3.4,2.05,5.658,4.715,5.658a4.454,4.454,0,0,0,3.936-2.419h.123L91.717,0ZM91.266-6.232a5.225,5.225,0,0,1-.082,1.107c-.369,1.968-1.558,2.993-2.952,2.993-1.107,0-2.419-.943-2.419-3.526,0-4.3,3.813-4.592,5.453-4.592Z" transform="translate(949.405 7802.012) rotate(59.596)" fill="#12263f"/>
          <path id="Trazado_914400" data-name="Trazado 914400" d="M2.627-21.83v3.922H.444v2.183H2.627v10.36c0,2.479.37,3.7,1.073,4.514A3.628,3.628,0,0,0,6.512.222a6.24,6.24,0,0,0,2.109-.3L8.51-2.257a5.24,5.24,0,0,1-1.147.111c-1.036,0-1.887-.629-1.887-2.96V-15.725H8.917v-2.183H5.476v-4.736Zm19.536,3.922H19.314v11.8a7.393,7.393,0,0,1-.148,1.628,2.759,2.759,0,0,1-2.553,2.368c-1.961,0-2.405-2.072-2.405-4.884V-17.908H11.359V-6.586C11.359-2.146,12.58.3,15.725.3a4.713,4.713,0,0,0,3.848-2.183h.074L19.832,0h2.479c-.037-1.332-.148-2.886-.148-4.884ZM26.122,0h2.849V-9.916a10.9,10.9,0,0,1,.111-1.628c.3-2.072,1.628-3.737,3.441-3.737a2.991,2.991,0,0,1,.592.037v-2.923c-.185,0-.37-.037-.592-.037A4.361,4.361,0,0,0,28.749-15.1h-.074l-.148-2.812H25.974c.037,1.332.148,3.108.148,4.625ZM38.184,0V-17.908H35.335V0Zm0-25.234-2.849,4.995h1.887l3.885-4.995ZM40.959-.814A6.123,6.123,0,0,0,44.511.222c2.923,0,5.365-1.739,5.365-5.328,0-2.479-1.628-4.107-3.7-5.439-1.776-1.221-2.22-1.887-2.22-3.108a2.193,2.193,0,0,1,2.331-2.257,4.209,4.209,0,0,1,2.368.777l.777-2.146a6.158,6.158,0,0,0-3.219-.925,4.814,4.814,0,0,0-4.921,4.958c0,2.072,1.258,3.589,3.589,5.106,1.813,1.221,2.294,2.146,2.294,3.515a2.42,2.42,0,0,1-2.627,2.59,5.668,5.668,0,0,1-2.886-.925ZM53.465-21.83v3.922H51.282v2.183h2.183v10.36c0,2.479.37,3.7,1.073,4.514A3.628,3.628,0,0,0,57.35.222a6.241,6.241,0,0,0,2.109-.3l-.111-2.183a5.24,5.24,0,0,1-1.147.111c-1.036,0-1.887-.629-1.887-2.96V-15.725h3.441v-2.183H56.314v-4.736ZM65.12,0V-17.908H62.271V0ZM63.64-24.383a1.708,1.708,0,0,0-1.665,1.85,1.681,1.681,0,0,0,1.628,1.85,1.664,1.664,0,0,0,1.739-1.85A1.674,1.674,0,0,0,63.64-24.383Zm13.8,21.756a4.87,4.87,0,0,1-2.072.481c-2.627,0-4.218-2.516-4.218-6.7,0-3.515,1.295-6.919,4.144-6.919a4.647,4.647,0,0,1,2.035.481l.555-2.331a5.759,5.759,0,0,0-2.516-.555c-4.477,0-7.067,4.181-7.067,9.324,0,5.92,2.627,9.065,6.549,9.065a6.139,6.139,0,0,0,2.96-.666ZM85.248-18.2c-3.071,0-5.994,2.738-5.994,9.287,0,6.29,2.59,9.213,5.809,9.213C87.8.3,91.02-2.035,91.02-8.954,91.02-15.207,88.43-18.2,85.248-18.2Zm-.111,2.294c2.516,0,3,4.218,3,6.956,0,2.775-.481,6.993-2.923,6.993-2.59,0-3.108-4.033-3.108-6.993C82.1-11.692,82.584-15.91,85.137-15.91Z" transform="translate(912.476 7803.238) rotate(59.596)" fill="#12263f"/>
          <path id="Trazado_914401" data-name="Trazado 914401" d="M12.546-15.785H5.617v-9.1H13v-2.747H2.46V0H13.489V-2.747H5.617V-13.12h6.929ZM16.564,0h3.157V-12.505a11.136,11.136,0,0,1,.123-1.763c.41-2.132,1.681-3.239,2.993-3.239,2.3,0,2.747,2.378,2.747,4.715V0h3.157V-13.325c0-4.8-2.05-6.847-4.8-6.847a5.036,5.036,0,0,0-4.551,2.706h-.082l-.164-2.378H16.4c.041,1.6.164,2.788.164,5.125ZM33.62-24.19v4.346H31.2v2.419H33.62v11.48c0,2.747.41,4.1,1.189,5A4.02,4.02,0,0,0,37.925.246a6.915,6.915,0,0,0,2.337-.328L40.139-2.5a5.806,5.806,0,0,1-1.271.123c-1.148,0-2.091-.7-2.091-3.28V-17.425H40.59v-2.419H36.777v-5.248ZM54.489-9.635c.041-.492.041-1.025.041-1.763,0-4.51-1.6-8.774-5.658-8.774-3.977,0-6.683,4.018-6.683,10.455,0,6.068,2.46,9.963,7.216,9.963A9.568,9.568,0,0,0,53.751-.7l-.492-2.337a6.671,6.671,0,0,1-3.28.779c-2.3,0-4.674-1.312-4.715-7.38Zm-9.184-2.337c.123-2.706,1.189-5.74,3.239-5.74,1.517,0,3.034,1.763,2.952,5.74ZM57.933,0H61.09V-12.505a11.136,11.136,0,0,1,.123-1.763c.41-2.132,1.681-3.239,2.993-3.239,2.3,0,2.747,2.378,2.747,4.715V0H70.11V-13.325c0-4.8-2.05-6.847-4.8-6.847a5.036,5.036,0,0,0-4.551,2.706H60.68l-.164-2.378H57.769c.041,1.6.164,2.788.164,5.125Zm25.42-28.372v10.578h-.082a3.846,3.846,0,0,0-3.608-2.378c-3.075,0-5.986,3.28-5.986,10.332C73.677-3.321,76.1.328,79.458.328A4.567,4.567,0,0,0,83.6-2.5h.123l.2,2.5h2.706c-.041-1.148-.164-3.4-.164-4.756V-28.372Zm0,21.361A6.207,6.207,0,0,1,83.23-5.7c-.7,2.87-2.05,3.4-3.034,3.4-2.3,0-3.362-3.362-3.362-7.544,0-3.977.9-7.626,3.526-7.626,1.517,0,2.747,1.8,2.952,3.854.041.451.041.9.041,1.312ZM94.054,0V-19.844H90.9V0Zm-1.64-27.019a1.893,1.893,0,0,0-1.845,2.05,1.863,1.863,0,0,0,1.8,2.05,1.843,1.843,0,0,0,1.927-2.05A1.855,1.855,0,0,0,92.414-27.019Zm14.842-1.353v10.578h-.082a3.846,3.846,0,0,0-3.608-2.378c-3.075,0-5.986,3.28-5.986,10.332C97.58-3.321,100,.328,103.361.328A4.567,4.567,0,0,0,107.5-2.5h.123l.2,2.5h2.706c-.041-1.148-.164-3.4-.164-4.756V-28.372Zm0,21.361a6.207,6.207,0,0,1-.123,1.312c-.7,2.87-2.05,3.4-3.034,3.4-2.3,0-3.362-3.362-3.362-7.544,0-3.977.9-7.626,3.526-7.626,1.517,0,2.747,1.8,2.952,3.854.041.451.041.9.041,1.312Zm13.325-13.161c-3.4,0-6.642,3.034-6.642,10.291,0,6.97,2.87,10.209,6.437,10.209,3.034,0,6.6-2.583,6.6-10.25C126.977-16.851,124.107-20.172,120.581-20.172Zm-.123,2.542c2.788,0,3.321,4.674,3.321,7.708,0,3.075-.533,7.749-3.239,7.749-2.87,0-3.444-4.469-3.444-7.749C117.1-12.956,117.629-17.63,120.458-17.63Z" transform="translate(1034.964 7746.783) rotate(59.596)" fill="#161615"/>
          <path id="Trazado_914402" data-name="Trazado 914402" transform="translate(889.71 7681.443) rotate(59.596)" fill="#161615"/>
          <path id="Trazado_914403" data-name="Trazado 914403" d="M11.029-28.372v10.578h-.082a3.846,3.846,0,0,0-3.608-2.378c-3.075,0-5.986,3.28-5.986,10.332C1.353-3.321,3.772.328,7.134.328A4.567,4.567,0,0,0,11.275-2.5H11.4L11.6,0h2.706c-.041-1.148-.164-3.4-.164-4.756V-28.372Zm0,21.361A6.207,6.207,0,0,1,10.906-5.7c-.7,2.87-2.05,3.4-3.034,3.4C5.576-2.3,4.51-5.658,4.51-9.84c0-3.977.9-7.626,3.526-7.626,1.517,0,2.747,1.8,2.952,3.854.041.451.041.9.041,1.312ZM30.012-9.635c.041-.492.041-1.025.041-1.763,0-4.51-1.6-8.774-5.658-8.774-3.977,0-6.683,4.018-6.683,10.455,0,6.068,2.46,9.963,7.216,9.963A9.568,9.568,0,0,0,29.274-.7l-.492-2.337a6.671,6.671,0,0,1-3.28.779c-2.3,0-4.674-1.312-4.715-7.38Zm-9.184-2.337c.123-2.706,1.189-5.74,3.239-5.74,1.517,0,3.034,1.763,2.952,5.74ZM32.144-.9A6.785,6.785,0,0,0,36.08.246c3.239,0,5.945-1.927,5.945-5.9,0-2.747-1.8-4.551-4.1-6.027-1.968-1.353-2.46-2.091-2.46-3.444a2.43,2.43,0,0,1,2.583-2.5,4.664,4.664,0,0,1,2.624.861l.861-2.378a6.824,6.824,0,0,0-3.567-1.025,5.334,5.334,0,0,0-5.453,5.494c0,2.3,1.394,3.977,3.977,5.658,2.009,1.353,2.542,2.378,2.542,3.9a2.681,2.681,0,0,1-2.911,2.87,6.28,6.28,0,0,1-3.2-1.025ZM54.12-28.372v10.578h-.082a3.846,3.846,0,0,0-3.608-2.378c-3.075,0-5.986,3.28-5.986,10.332,0,6.519,2.419,10.168,5.781,10.168A4.567,4.567,0,0,0,54.366-2.5h.123L54.694,0H57.4c-.041-1.148-.164-3.4-.164-4.756V-28.372Zm0,21.361A6.207,6.207,0,0,1,54-5.7c-.7,2.87-2.05,3.4-3.034,3.4-2.3,0-3.362-3.362-3.362-7.544,0-3.977.9-7.626,3.526-7.626,1.517,0,2.747,1.8,2.952,3.854.041.451.041.9.041,1.312ZM73.1-9.635c.041-.492.041-1.025.041-1.763,0-4.51-1.6-8.774-5.658-8.774-3.977,0-6.683,4.018-6.683,10.455,0,6.068,2.46,9.963,7.216,9.963A9.568,9.568,0,0,0,72.365-.7l-.492-2.337a6.671,6.671,0,0,1-3.28.779c-2.3,0-4.674-1.312-4.715-7.38Zm-9.184-2.337c.123-2.706,1.189-5.74,3.239-5.74,1.517,0,3.034,1.763,2.952,5.74Z" transform="translate(1020.402 7791.974) rotate(59.596)" fill="#161615"/>
          <path id="Trazado_914404" data-name="Trazado 914404" d="M.9-.9A6.785,6.785,0,0,0,4.838.246c3.239,0,5.945-1.927,5.945-5.9,0-2.747-1.8-4.551-4.1-6.027-1.968-1.353-2.46-2.091-2.46-3.444a2.43,2.43,0,0,1,2.583-2.5,4.664,4.664,0,0,1,2.624.861l.861-2.378a6.824,6.824,0,0,0-3.567-1.025,5.334,5.334,0,0,0-5.453,5.494c0,2.3,1.394,3.977,3.977,5.658C7.257-7.667,7.79-6.642,7.79-5.125a2.681,2.681,0,0,1-2.911,2.87,6.28,6.28,0,0,1-3.2-1.025Z" transform="translate(1085.553 7641.786) rotate(59.596)" fill="#161615"/>
          <path id="Trazado_914405" data-name="Trazado 914405" d="M14.1-19.844H10.947V-6.765a8.193,8.193,0,0,1-.164,1.8A3.058,3.058,0,0,1,7.954-2.337c-2.173,0-2.665-2.3-2.665-5.412v-12.1H2.132V-7.3C2.132-2.378,3.485.328,6.97.328a5.222,5.222,0,0,0,4.264-2.419h.082L11.521,0h2.747c-.041-1.476-.164-3.2-.164-5.412Z" transform="translate(1091.769 7652.376) rotate(59.596)" fill="#161615"/>
          <path id="Trazado_914406" data-name="Trazado 914406" d="M.9-.9A6.785,6.785,0,0,0,4.838.246c3.239,0,5.945-1.927,5.945-5.9,0-2.747-1.8-4.551-4.1-6.027-1.968-1.353-2.46-2.091-2.46-3.444a2.43,2.43,0,0,1,2.583-2.5,4.664,4.664,0,0,1,2.624.861l.861-2.378a6.824,6.824,0,0,0-3.567-1.025,5.334,5.334,0,0,0-5.453,5.494c0,2.3,1.394,3.977,3.977,5.658C7.257-7.667,7.79-6.642,7.79-5.125a2.681,2.681,0,0,1-2.911,2.87,6.28,6.28,0,0,1-3.2-1.025Z" transform="translate(1100.325 7666.958) rotate(59.596)" fill="#161615"/>
          <path id="Trazado_914407" data-name="Trazado 914407" d="M12.321-8.7c.037-.444.037-.925.037-1.591,0-4.07-1.443-7.918-5.106-7.918-3.589,0-6.031,3.626-6.031,9.435,0,5.476,2.22,8.991,6.512,8.991a8.635,8.635,0,0,0,3.922-.851l-.444-2.109a6.02,6.02,0,0,1-2.96.7C6.179-2.035,4.033-3.219,4-8.7ZM4.033-10.8c.111-2.442,1.073-5.18,2.923-5.18,1.369,0,2.738,1.591,2.664,5.18ZM15.429,0h2.849V-25.6H15.429Zm17.39-8.7c.037-.444.037-.925.037-1.591,0-4.07-1.443-7.918-5.106-7.918-3.589,0-6.031,3.626-6.031,9.435,0,5.476,2.22,8.991,6.512,8.991a8.635,8.635,0,0,0,3.922-.851l-.444-2.109a6.02,6.02,0,0,1-2.96.7c-2.072,0-4.218-1.184-4.255-6.66ZM24.531-10.8c.111-2.442,1.073-5.18,2.923-5.18,1.369,0,2.738,1.591,2.664,5.18ZM35.927,0h2.812V-11.359a10.234,10.234,0,0,1,.111-1.554c.333-1.887,1.517-2.886,2.664-2.886,2.109,0,2.479,2.072,2.479,4.07V0h2.812V-11.507a10.9,10.9,0,0,1,.111-1.628c.407-1.665,1.443-2.664,2.627-2.664,2.183,0,2.516,2.257,2.516,4.588V0h2.812V-11.877c0-4.551-1.887-6.327-4.292-6.327a4.325,4.325,0,0,0-2.479.7,5.7,5.7,0,0,0-1.776,2.035H46.25A3.733,3.733,0,0,0,42.513-18.2a4.494,4.494,0,0,0-4.033,2.516h-.074l-.148-2.22H35.779c.037,1.443.148,2.516.148,4.625ZM69.19-8.7c.037-.444.037-.925.037-1.591,0-4.07-1.443-7.918-5.106-7.918-3.589,0-6.031,3.626-6.031,9.435C58.09-3.293,60.31.222,64.6.222a8.635,8.635,0,0,0,3.922-.851L68.08-2.738a6.02,6.02,0,0,1-2.96.7c-2.072,0-4.218-1.184-4.255-6.66ZM60.9-10.8c.111-2.442,1.073-5.18,2.923-5.18,1.369,0,2.738,1.591,2.664,5.18ZM72.3,0h2.849V-11.285a10.05,10.05,0,0,1,.111-1.591c.37-1.924,1.517-2.923,2.7-2.923,2.072,0,2.479,2.146,2.479,4.255V0h2.849V-12.025c0-4.329-1.85-6.179-4.329-6.179a4.545,4.545,0,0,0-4.107,2.442h-.074l-.148-2.146H72.15c.037,1.443.148,2.516.148,4.625ZM87.69-21.83v3.922H85.507v2.183H87.69v10.36c0,2.479.37,3.7,1.073,4.514A3.628,3.628,0,0,0,91.575.222a6.241,6.241,0,0,0,2.109-.3l-.111-2.183a5.24,5.24,0,0,1-1.147.111c-1.036,0-1.887-.629-1.887-2.96V-15.725H93.98v-2.183H90.539v-4.736ZM101.417-18.2c-3.071,0-5.994,2.738-5.994,9.287,0,6.29,2.59,9.213,5.809,9.213,2.738,0,5.957-2.331,5.957-9.25C107.189-15.207,104.6-18.2,101.417-18.2Zm-.111,2.294c2.516,0,3,4.218,3,6.956,0,2.775-.481,6.993-2.923,6.993-2.59,0-3.108-4.033-3.108-6.993C98.272-11.692,98.753-15.91,101.306-15.91Zm7.881,15.1A6.123,6.123,0,0,0,112.739.222c2.923,0,5.365-1.739,5.365-5.328,0-2.479-1.628-4.107-3.7-5.439-1.776-1.221-2.22-1.887-2.22-3.108a2.193,2.193,0,0,1,2.331-2.257,4.209,4.209,0,0,1,2.368.777l.777-2.146a6.158,6.158,0,0,0-3.219-.925,4.814,4.814,0,0,0-4.921,4.958c0,2.072,1.258,3.589,3.589,5.106,1.813,1.221,2.294,2.146,2.294,3.515a2.42,2.42,0,0,1-2.627,2.59,5.668,5.668,0,0,1-2.886-.925Z" transform="translate(1033.482 7617.125) rotate(59.596)" fill="#161615"/>
          <path id="Trazado_914408" data-name="Trazado 914408" d="M.9-.9A6.785,6.785,0,0,0,4.838.246c3.239,0,5.945-1.927,5.945-5.9,0-2.747-1.8-4.551-4.1-6.027-1.968-1.353-2.46-2.091-2.46-3.444a2.43,2.43,0,0,1,2.583-2.5,4.664,4.664,0,0,1,2.624.861l.861-2.378a6.824,6.824,0,0,0-3.567-1.025,5.334,5.334,0,0,0-5.453,5.494c0,2.3,1.394,3.977,3.977,5.658C7.257-7.667,7.79-6.642,7.79-5.125a2.681,2.681,0,0,1-2.911,2.87,6.28,6.28,0,0,1-3.2-1.025ZM25.953-19.844H22.8V-6.765a8.193,8.193,0,0,1-.164,1.8A3.058,3.058,0,0,1,19.8-2.337c-2.173,0-2.665-2.3-2.665-5.412v-12.1H13.981V-7.3c0,4.92,1.353,7.626,4.838,7.626a5.222,5.222,0,0,0,4.264-2.419h.082L23.37,0h2.747c-.041-1.476-.164-3.2-.164-5.412ZM29.069-.9A6.785,6.785,0,0,0,33.005.246c3.239,0,5.945-1.927,5.945-5.9,0-2.747-1.8-4.551-4.1-6.027-1.968-1.353-2.46-2.091-2.46-3.444a2.43,2.43,0,0,1,2.583-2.5,4.664,4.664,0,0,1,2.624.861l.861-2.378a6.824,6.824,0,0,0-3.567-1.025,5.334,5.334,0,0,0-5.453,5.494c0,2.3,1.394,3.977,3.977,5.658,2.009,1.353,2.542,2.378,2.542,3.9a2.681,2.681,0,0,1-2.911,2.87,6.28,6.28,0,0,1-3.2-1.025Z" transform="translate(1187.921 7814.644) rotate(59.596)" fill="#161615"/>
          <path id="Trazado_914409" data-name="Trazado 914409" d="M12.915,0a31.452,31.452,0,0,1-.205-4.51v-8.569c0-4.469-1.722-7.093-5.7-7.093A8.539,8.539,0,0,0,2.378-18.86l.7,2.214a5.976,5.976,0,0,1,3.28-1.025c2.5,0,3.157,1.845,3.157,4.51v.615c-4.469.041-8.446,2.255-8.446,7.216,0,3.4,2.05,5.658,4.715,5.658A4.454,4.454,0,0,0,9.717-2.091H9.84L10.045,0ZM9.594-6.232a5.225,5.225,0,0,1-.082,1.107C9.143-3.157,7.954-2.132,6.56-2.132c-1.107,0-2.419-.943-2.419-3.526,0-4.3,3.813-4.592,5.453-4.592ZM26.4-2.911a5.4,5.4,0,0,1-2.3.533c-2.911,0-4.674-2.788-4.674-7.421,0-3.9,1.435-7.667,4.592-7.667a5.15,5.15,0,0,1,2.255.533l.615-2.583a6.382,6.382,0,0,0-2.788-.615c-4.961,0-7.831,4.633-7.831,10.332,0,6.56,2.911,10.045,7.257,10.045a6.8,6.8,0,0,0,3.28-.738ZM30.832-24.19v4.346H28.413v2.419h2.419v11.48c0,2.747.41,4.1,1.189,5A4.02,4.02,0,0,0,35.137.246a6.915,6.915,0,0,0,2.337-.328L37.351-2.5a5.807,5.807,0,0,1-1.271.123c-1.148,0-2.091-.7-2.091-3.28V-17.425H37.8v-2.419H33.989v-5.248Zm15.211,4.018c-3.4,0-6.642,3.034-6.642,10.291,0,6.97,2.87,10.209,6.437,10.209,3.034,0,6.6-2.583,6.6-10.25C52.439-16.851,49.569-20.172,46.043-20.172ZM45.92-17.63c2.788,0,3.321,4.674,3.321,7.708,0,3.075-.533,7.749-3.239,7.749-2.87,0-3.444-4.469-3.444-7.749C42.558-12.956,43.091-17.63,45.92-17.63ZM55.924,0h3.157V-10.988a12.075,12.075,0,0,1,.123-1.8c.328-2.3,1.8-4.141,3.813-4.141a3.314,3.314,0,0,1,.656.041v-3.239c-.2,0-.41-.041-.656-.041a4.833,4.833,0,0,0-4.182,3.444h-.082l-.164-3.116H55.76c.041,1.476.164,3.444.164,5.125ZM77-9.635c.041-.492.041-1.025.041-1.763,0-4.51-1.6-8.774-5.658-8.774-3.977,0-6.683,4.018-6.683,10.455,0,6.068,2.46,9.963,7.216,9.963A9.568,9.568,0,0,0,76.26-.7l-.492-2.337a6.671,6.671,0,0,1-3.28.779c-2.3,0-4.674-1.312-4.715-7.38Zm-9.184-2.337c.123-2.706,1.189-5.74,3.239-5.74,1.517,0,3.034,1.763,2.952,5.74ZM79.13-.9A6.785,6.785,0,0,0,83.066.246c3.239,0,5.945-1.927,5.945-5.9,0-2.747-1.8-4.551-4.1-6.027-1.968-1.353-2.46-2.091-2.46-3.444a2.43,2.43,0,0,1,2.583-2.5,4.664,4.664,0,0,1,2.624.861l.861-2.378a6.824,6.824,0,0,0-3.567-1.025A5.334,5.334,0,0,0,79.5-14.678c0,2.3,1.394,3.977,3.977,5.658,2.009,1.353,2.542,2.378,2.542,3.9a2.681,2.681,0,0,1-2.911,2.87,6.28,6.28,0,0,1-3.2-1.025Z" transform="translate(1144.25 7810.226) rotate(59.596)" fill="#161615"/>
          <path id="Trazado_914410" data-name="Trazado 914410" d="M1.148-.943A9.316,9.316,0,0,0,5.822.246,7.4,7.4,0,0,0,13.571-7.5c0-3.075-1.476-5.617-4.8-7.954-2.624-1.886-4.059-2.952-4.059-5.7a3.811,3.811,0,0,1,3.977-3.936,5.777,5.777,0,0,1,3.28.943l.779-2.706a7.18,7.18,0,0,0-3.9-1.025,6.963,6.963,0,0,0-7.3,7.257c0,3.567,3.034,6.15,5.207,7.667,2.173,1.64,3.649,3.2,3.649,5.74A4.327,4.327,0,0,1,5.822-2.542,8.078,8.078,0,0,1,1.845-3.649Zm27.962-18.9H25.953V-6.765a8.193,8.193,0,0,1-.164,1.8A3.058,3.058,0,0,1,22.96-2.337c-2.173,0-2.665-2.3-2.665-5.412v-12.1H17.138V-7.3c0,4.92,1.353,7.626,4.838,7.626A5.222,5.222,0,0,0,26.24-2.091h.082L26.527,0h2.747c-.041-1.476-.164-3.2-.164-5.412ZM33.5,7.872h3.157v-9.84h.082A3.751,3.751,0,0,0,40.18.328c3.116,0,6.15-2.952,6.15-10.291,0-6.519-2.3-10.209-5.74-10.209a4.544,4.544,0,0,0-4.182,2.87h-.082l-.164-2.542H33.333c.041,1.394.164,3.157.164,6.191Zm3.157-20.213a9.162,9.162,0,0,1,.082-1.517c.205-1.8,1.476-3.608,2.911-3.608,2.5,0,3.485,3.444,3.485,7.544,0,4.018-.82,7.626-3.444,7.626-.861,0-2.3-.533-2.911-3.362a6.675,6.675,0,0,1-.123-1.64ZM61.336-9.635c.041-.492.041-1.025.041-1.763,0-4.51-1.6-8.774-5.658-8.774-3.977,0-6.683,4.018-6.683,10.455,0,6.068,2.46,9.963,7.216,9.963A9.568,9.568,0,0,0,60.6-.7l-.492-2.337a6.671,6.671,0,0,1-3.28.779c-2.3,0-4.674-1.312-4.715-7.38Zm-9.184-2.337c.123-2.706,1.189-5.74,3.239-5.74,1.517,0,3.034,1.763,2.952,5.74ZM64.739,0H67.9V-10.988a12.074,12.074,0,0,1,.123-1.8c.328-2.3,1.8-4.141,3.813-4.141a3.314,3.314,0,0,1,.656.041v-3.239c-.205,0-.41-.041-.656-.041a4.833,4.833,0,0,0-4.182,3.444h-.082L67.4-19.844H64.575c.041,1.476.164,3.444.164,5.125Z" transform="translate(504.708 8050.66) rotate(59.596)" fill="#fff"/>
          <path id="Trazado_914411" data-name="Trazado 914411" d="M13.653-9.635c.041-.492.041-1.025.041-1.763,0-4.51-1.6-8.774-5.658-8.774-3.977,0-6.683,4.018-6.683,10.455,0,6.068,2.46,9.963,7.216,9.963A9.568,9.568,0,0,0,12.915-.7l-.492-2.337a6.671,6.671,0,0,1-3.28.779c-2.3,0-4.674-1.312-4.715-7.38ZM4.469-11.972c.123-2.706,1.189-5.74,3.239-5.74,1.517,0,3.034,1.763,2.952,5.74ZM15.785-.9A6.785,6.785,0,0,0,19.721.246c3.239,0,5.945-1.927,5.945-5.9,0-2.747-1.8-4.551-4.1-6.027-1.968-1.353-2.46-2.091-2.46-3.444a2.43,2.43,0,0,1,2.583-2.5,4.664,4.664,0,0,1,2.624.861l.861-2.378a6.824,6.824,0,0,0-3.567-1.025,5.334,5.334,0,0,0-5.453,5.494c0,2.3,1.394,3.977,3.977,5.658,2.009,1.353,2.542,2.378,2.542,3.9a2.681,2.681,0,0,1-2.911,2.87,6.28,6.28,0,0,1-3.2-1.025ZM29.643-24.19v4.346H27.224v2.419h2.419v11.48c0,2.747.41,4.1,1.189,5A4.02,4.02,0,0,0,33.948.246a6.915,6.915,0,0,0,2.337-.328L36.162-2.5a5.807,5.807,0,0,1-1.271.123c-1.148,0-2.091-.7-2.091-3.28V-17.425h3.813v-2.419H32.8v-5.248ZM39.36,0h3.157V-10.988a12.074,12.074,0,0,1,.123-1.8c.328-2.3,1.8-4.141,3.813-4.141a3.314,3.314,0,0,1,.656.041v-3.239c-.205,0-.41-.041-.656-.041a4.833,4.833,0,0,0-4.182,3.444h-.082l-.164-3.116H39.2c.041,1.476.164,3.444.164,5.125ZM61.336-19.844H58.179V-6.765a8.193,8.193,0,0,1-.164,1.8,3.058,3.058,0,0,1-2.829,2.624c-2.173,0-2.665-2.3-2.665-5.412v-12.1H49.364V-7.3c0,4.92,1.353,7.626,4.838,7.626a5.222,5.222,0,0,0,4.264-2.419h.082L58.753,0H61.5c-.041-1.476-.164-3.2-.164-5.412ZM75.03-2.911a5.4,5.4,0,0,1-2.3.533c-2.911,0-4.674-2.788-4.674-7.421,0-3.9,1.435-7.667,4.592-7.667a5.15,5.15,0,0,1,2.255.533l.615-2.583a6.382,6.382,0,0,0-2.788-.615C67.773-20.131,64.9-15.5,64.9-9.8,64.9-3.239,67.814.246,72.16.246a6.8,6.8,0,0,0,3.28-.738ZM79.458-24.19v4.346H77.039v2.419h2.419v11.48c0,2.747.41,4.1,1.189,5A4.02,4.02,0,0,0,83.763.246,6.915,6.915,0,0,0,86.1-.082L85.977-2.5a5.807,5.807,0,0,1-1.271.123c-1.148,0-2.091-.7-2.091-3.28V-17.425h3.813v-2.419H82.615v-5.248Zm21.648,4.346H97.949V-6.765a8.193,8.193,0,0,1-.164,1.8,3.058,3.058,0,0,1-2.829,2.624c-2.173,0-2.665-2.3-2.665-5.412v-12.1H89.134V-7.3c0,4.92,1.353,7.626,4.838,7.626a5.222,5.222,0,0,0,4.264-2.419h.082L98.523,0h2.747c-.041-1.476-.164-3.2-.164-5.412ZM105.493,0h3.157V-10.988a12.074,12.074,0,0,1,.123-1.8c.328-2.3,1.8-4.141,3.813-4.141a3.314,3.314,0,0,1,.656.041v-3.239c-.2,0-.41-.041-.656-.041a4.833,4.833,0,0,0-4.182,3.444h-.082l-.164-3.116h-2.829c.041,1.476.164,3.444.164,5.125Zm20.664,0a31.452,31.452,0,0,1-.205-4.51v-8.569c0-4.469-1.722-7.093-5.7-7.093a8.539,8.539,0,0,0-4.633,1.312l.7,2.214a5.976,5.976,0,0,1,3.28-1.025c2.5,0,3.157,1.845,3.157,4.51v.615c-4.469.041-8.446,2.255-8.446,7.216,0,3.4,2.05,5.658,4.715,5.658a4.454,4.454,0,0,0,3.936-2.419h.123L123.287,0Zm-3.321-6.232a5.225,5.225,0,0,1-.082,1.107c-.369,1.968-1.558,2.993-2.952,2.993-1.107,0-2.419-.943-2.419-3.526,0-4.3,3.813-4.592,5.453-4.592Z" transform="translate(545.688 8120.501) rotate(59.596)" fill="#fff"/>
          <path id="Trazado_912637" data-name="Trazado 912637" d="M166.812,198.354a6.437,6.437,0,0,1-5.593-3.23L54.254,9.671A6.451,6.451,0,0,1,65.435,3.231l106.96,185.453a6.451,6.451,0,0,1-5.583,9.67" transform="translate(485.38 7513.065)" fill="#fff"/>
          <path id="Trazado_912638" data-name="Trazado 912638" d="M108.513,99.349A6.371,6.371,0,0,1,105.5,98.6L30,58.6a6.451,6.451,0,0,1,6.04-11.4l75.5,40a6.45,6.45,0,0,1-3.025,12.148" transform="translate(384.437 7687.899)" fill="#fff"/>
          <path id="Trazado_912639" data-name="Trazado 912639" d="M205.28,267.16a6.453,6.453,0,0,1-5.645-3.311l-48.914-87.72a6.452,6.452,0,1,1,11.271-6.283l48.914,87.724a6.45,6.45,0,0,1-5.626,9.589" transform="translate(848.629 8139.866)" fill="#fff"/>
          <path id="Trazado_914419" data-name="Trazado 914419" d="M0,0H12.9V84.074H0Z" transform="matrix(0.486, -0.874, 0.874, 0.486, 1106.698, 8144.71)" fill="#fff"/>
          <path id="Trazado_912640" data-name="Trazado 912640" d="M156.353,98.942a6.37,6.37,0,0,1-3.182-.843,6.443,6.443,0,0,1-2.42-8.794L199.665,3.271a6.447,6.447,0,1,1,11.209,6.374L161.965,95.678a6.447,6.447,0,0,1-5.612,3.263" transform="translate(848.632 7513.063)" fill="#fff"/>
          <path id="Trazado_912641" data-name="Trazado 912641" d="M175.176,100.357a6.45,6.45,0,0,1-3.52-11.857L243.35,41.915a6.451,6.451,0,0,1,7.031,10.818L178.687,99.318a6.426,6.426,0,0,1-3.511,1.038" transform="translate(919.449 7666.893)" fill="#fff"/>
          <path id="Trazado_912642" data-name="Trazado 912642" d="M113.232,98.935a6.455,6.455,0,0,1-6.45-6.45V6.452a6.45,6.45,0,0,1,12.9,0V92.485a6.452,6.452,0,0,1-6.45,6.45" transform="translate(686.326 7513.068)" fill="#fff"/>
          <path id="Trazado_914420" data-name="Trazado 914420" d="M238.2,150.125,0,0" transform="translate(675.306 7881.784)" fill="none" stroke="#161615" stroke-width="0.677"/>
          <path id="Trazado_912643" data-name="Trazado 912643" d="M160.394,132.958c-5.936-7.76-12.457-18.721-15.144-27.673l-3.482,15.93L128.9,131.233c9.227-1.443,21.937-.286,31.493,1.724" transform="translate(769.576 7909.327)" fill="#161615"/>
          <path id="Trazado_912644" data-name="Trazado 912644" d="M78.6,75.223c9.561,2.006,22.266,3.163,31.5,1.72L97.222,86.961,93.74,102.9C91.053,93.945,84.532,82.978,78.6,75.223" transform="translate(580.241 7796.181)" fill="#161615"/>
          <path id="Trazado_914421" data-name="Trazado 914421" d="M0,150.129,238.206,0" transform="translate(671.759 7878.882)" fill="none" stroke="#161615" stroke-width="0.677"/>
          <path id="Trazado_912645" data-name="Trazado 912645" d="M77.852,132.346c9.561-2.006,22.266-3.163,31.5-1.72L96.478,120.6,93,104.678c-2.687,8.946-9.2,19.912-15.144,27.668" transform="translate(577.441 7907.042)" fill="#161615"/>
          <path id="Trazado_912646" data-name="Trazado 912646" d="M159.65,74.614c-5.936,7.76-12.457,18.722-15.144,27.673l-3.482-15.935L128.157,76.338c9.227,1.439,21.937.286,31.493-1.724" transform="translate(766.776 7793.889)" fill="#161615"/>
          <path id="Trazado_912647" data-name="Trazado 912647" d="M307.376,180.671A112.124,112.124,0,1,1,195.252,68.547,112.126,112.126,0,0,1,307.376,180.671" transform="translate(597.298 7771.054)" fill="#fff"/>
          <path id="Trazado_912648" data-name="Trazado 912648" d="M307.376,180.671A112.124,112.124,0,1,1,195.252,68.547,112.126,112.126,0,0,1,307.376,180.671Z" transform="translate(597.298 7771.054)" fill="none" stroke="#161615" stroke-miterlimit="10" stroke-width="0.903"/>
          <path id="Trazado_914422" data-name="Trazado 914422" d="M0,0H1030.274V893.964H0Z" transform="translate(284.426 7513.061)" fill="none"/>
          <path id="Trazado_914412" data-name="Trazado 914412" d="M12.691-14.985h-5.7V-20.72h5.994v-4.218H2.146V0H13.431V-4.218H6.993v-6.734h5.7ZM16.724,0H27.972V-4.107h-6.4V-24.938H16.724ZM41.329-14.985h-5.7V-20.72h5.994v-4.218H30.784V0H42.069V-4.218H35.631v-6.734h5.7ZM61.05,0h4.329L63.862-24.938H58.756L56.795-15.91c-.666,3.145-1.221,5.957-1.591,8.732H55.13c-.444-2.812-1.073-5.587-1.776-8.732l-2-9.028H46.25L44.437,0h4.181l.407-8.658c.148-2.479.3-5.624.37-8.325h.111c.37,2.7,1.036,5.809,1.517,7.807L53.1-.407h3.441l2.146-8.917c.481-1.924,1.147-5,1.591-7.659h.111c-.074,2.664.111,5.883.222,8.251ZM79.476-14.985h-5.7V-20.72h5.994v-4.218H68.931V0H80.216V-4.218H73.778v-6.734h5.7ZM87.764,0V-5.624c0-4.995-.185-8.843-.3-11.359h.074a71.533,71.533,0,0,0,2.516,7.511L93.869,0h4.44V-24.938H94.054v5.513c0,4.588.333,8.917.481,11.544h-.074c-.7-2.146-1.924-5.365-2.664-7.289l-3.848-9.768h-4.44V0ZM105.3,0h4.847V-20.461h4.44v-4.477H100.9v4.477h4.4Zm18.352-25.234c-5.513,0-8.214,5.883-8.214,12.691C115.44-5.7,117.66.3,123.321.3c4.736,0,8.066-3.811,8.066-13.209C131.387-18.611,129.685-25.234,123.654-25.234Zm-.185,4.218c2.183,0,2.849,3.959,2.849,8.325,0,5.069-.777,8.769-2.812,8.769-1.961,0-3.034-2.886-3.034-8.547C120.472-17.834,121.545-21.016,123.469-21.016ZM133.2-.777a10.957,10.957,0,0,0,4.773,1c4.884,0,8.251-3,8.251-7.548,0-2.627-1.221-5.143-4.514-7.141-2.7-1.628-3.441-2.405-3.441-3.885,0-1.332,1-2.59,3.071-2.59a5.944,5.944,0,0,1,3.182.851l.777-4.181a8.515,8.515,0,0,0-3.922-.888c-5.217,0-7.881,3.33-7.881,7.326,0,2.257,1.295,4.884,4.7,6.956,2.109,1.369,3.219,2.257,3.219,4.07,0,1.628-1.11,2.812-3.4,2.812a9.464,9.464,0,0,1-4.107-.962Z" transform="translate(713.517 7915.214)" fill="#161615"/>
          <path id="Trazado_914413" data-name="Trazado 914413" d="M13.616-4.44a8.546,8.546,0,0,1-2.331.37c-2.96,0-5.217-2.331-5.217-8.288,0-6.179,2.479-8.547,5.217-8.547a4.878,4.878,0,0,1,2.257.481l.814-4.07a6.659,6.659,0,0,0-3.367-.666C6.142-25.16.925-21.5.925-12.1.925-5.032,3.959.222,10.323.222A9.813,9.813,0,0,0,14.1-.37ZM16.761,0H28.009V-4.107h-6.4V-24.938H16.761ZM39.553-5.7,40.626,0h4.7L40.478-24.938H34.669L29.267,0h4.7l1.11-5.7Zm-4-3.774.925-5.18c.259-1.443.629-4.033.888-5.7h.111c.222,1.665.555,4.144.814,5.661l.814,5.217Z" transform="translate(699.137 7955.048)" fill="#161615"/>
          <path id="Trazado_914414" data-name="Trazado 914414" d="M11.063,0l5.7-24.938H11.433l-1.7,10.656C9.287-11.47,8.88-8.473,8.547-5.513H8.473c-.333-2.923-.851-5.994-1.3-8.658L5.4-24.938H.037L5.624,0ZM29.415-14.985h-5.7V-20.72h5.994v-4.218H18.87V0H30.155V-4.218H23.717v-6.734h5.7ZM32.19-.777a10.957,10.957,0,0,0,4.773,1c4.884,0,8.251-3,8.251-7.548,0-2.627-1.221-5.143-4.514-7.141-2.7-1.628-3.441-2.405-3.441-3.885,0-1.332,1-2.59,3.071-2.59a5.944,5.944,0,0,1,3.182.851l.777-4.181a8.515,8.515,0,0,0-3.922-.888c-5.217,0-7.881,3.33-7.881,7.326,0,2.257,1.3,4.884,4.7,6.956C39.294-9.509,40.4-8.621,40.4-6.808,40.4-5.18,39.294-4,37-4a9.464,9.464,0,0,1-4.107-.962ZM64.454-14.985h-5.7V-20.72H64.75v-4.218H53.909V0H65.194V-4.218H58.756v-6.734h5.7ZM72.742,0V-5.624c0-4.995-.185-8.843-.3-11.359h.074a71.533,71.533,0,0,0,2.516,7.511L78.847,0h4.44V-24.938H79.032v5.513c0,4.588.333,8.917.481,11.544h-.074c-.7-2.146-1.924-5.365-2.664-7.289l-3.848-9.768h-4.44V0Zm20.72,0H104.71V-4.107h-6.4V-24.938H93.462Zm22.792-5.7L117.327,0h4.7l-4.847-24.938H111.37L105.968,0h4.7l1.11-5.7Zm-4-3.774.925-5.18c.259-1.443.629-4.033.888-5.7h.111c.222,1.665.555,4.144.814,5.661l.814,5.217Z" transform="translate(747.732 7955.048)" fill="#161615"/>
          <path id="Trazado_914415" data-name="Trazado 914415" transform="translate(652.69 8035.603)" fill="#161615"/>
          <path id="Trazado_914416" data-name="Trazado 914416" d="M16.848-14.742H9.789v4.173h2.34v6.357a3.1,3.1,0,0,1-1.014.117c-2.379,0-4.836-2.262-4.836-8.58,0-6.864,2.769-9.243,6.24-9.243a6.416,6.416,0,0,1,3,.585l.9-4.407a10.436,10.436,0,0,0-4.29-.78C6.552-26.52,1.092-22.542.975-12.987.9-8.463,2.106-4.563,4.368-2.379A9.356,9.356,0,0,0,11.388.234,17.211,17.211,0,0,0,16.848-.7ZM31.785-15.8H25.779V-21.84H32.1v-4.446H20.67V0h11.9V-4.446H25.779v-7.1h6.006ZM34.71-.819A11.549,11.549,0,0,0,39.741.234c5.148,0,8.7-3.159,8.7-7.956,0-2.769-1.287-5.421-4.758-7.527-2.847-1.716-3.627-2.535-3.627-4.1,0-1.4,1.053-2.73,3.237-2.73a6.265,6.265,0,0,1,3.354.9l.819-4.407a8.975,8.975,0,0,0-4.134-.936c-5.5,0-8.307,3.51-8.307,7.722,0,2.379,1.365,5.148,4.953,7.332,2.223,1.443,3.393,2.379,3.393,4.29,0,1.716-1.17,2.964-3.588,2.964a9.976,9.976,0,0,1-4.329-1.014ZM54.249,0h5.109V-21.567h4.68v-4.719H49.608v4.719h4.641Zm12.48-26.286V0h5.109V-26.286ZM83.772-26.6c-5.811,0-8.658,6.2-8.658,13.377,0,7.215,2.34,13.533,8.307,13.533,4.992,0,8.5-4.017,8.5-13.923C91.923-19.617,90.129-26.6,83.772-26.6Zm-.195,4.446c2.3,0,3,4.173,3,8.775,0,5.343-.819,9.243-2.964,9.243-2.067,0-3.2-3.042-3.2-9.009C80.418-18.8,81.549-22.152,83.577-22.152Zm.975-9.945-3.2,4.407h3.627L89.739-32.1ZM99.645,0V-5.928c0-5.265-.195-9.321-.312-11.973h.078a75.4,75.4,0,0,0,2.652,7.917L106.08,0h4.68V-26.286h-4.485v5.811c0,4.836.351,9.4.507,12.168H106.7c-.741-2.262-2.028-5.655-2.808-7.683l-4.056-10.3H95.16V0Zm21.84-.078A38.041,38.041,0,0,0,125.7.2c3.666,0,6.279-.819,8.034-2.535,2.3-2.028,3.666-5.811,3.666-11.115,0-5.109-1.17-8.58-3.432-10.608-1.677-1.56-3.978-2.34-7.293-2.34a23.492,23.492,0,0,0-5.187.507Zm5.109-22.113a2.9,2.9,0,0,1,1.014-.117c3.081,0,4.485,3.276,4.485,8.658,0,7.254-2.145,9.672-4.6,9.672a3.346,3.346,0,0,1-.9-.078Zm25.155,6.4h-6.006V-21.84h6.318v-4.446H140.634V0h11.9V-4.446h-6.786v-7.1h6.006ZM156,0h11.856V-4.329h-6.747V-26.286H156Z" transform="translate(706.506 7994.118)" fill="#161615"/>
          <path id="Trazado_914417" data-name="Trazado 914417" d="M4.847,0H9.694V-20.461h4.44v-4.477H.444v4.477h4.4ZM16.539-24.938V-9.546C16.539-3.293,18.574.3,23.791.3c4.81,0,7.215-3.478,7.215-9.879V-24.938H26.159V-8.732c0,3.774-1,4.773-2.4,4.773-1.258,0-2.368-1.11-2.368-4.773V-24.938ZM35.187,0h4.847V-9.953h.7c1.628,0,2.4.888,2.849,4A34.491,34.491,0,0,0,44.807,0h5.069a40.145,40.145,0,0,1-1.591-6.771c-.481-2.664-1.332-4.255-3.034-4.921v-.074A6.644,6.644,0,0,0,49.1-18.019a6.351,6.351,0,0,0-1.961-5.18c-1.628-1.48-4-1.85-6.66-1.85a28.963,28.963,0,0,0-5.291.481Zm4.847-21.127a3.454,3.454,0,0,1,1.147-.148c2.183.074,3.034,1.591,3.034,3.7,0,2.183-1.221,3.885-3.33,3.885h-.851Zm12.543-3.811V0h4.847V-24.938ZM60.5-.777a10.957,10.957,0,0,0,4.773,1c4.884,0,8.251-3,8.251-7.548,0-2.627-1.221-5.143-4.514-7.141-2.7-1.628-3.441-2.405-3.441-3.885,0-1.332,1-2.59,3.071-2.59a5.944,5.944,0,0,1,3.182.851l.777-4.181a8.515,8.515,0,0,0-3.922-.888c-5.217,0-7.881,3.33-7.881,7.326,0,2.257,1.3,4.884,4.7,6.956,2.109,1.369,3.219,2.257,3.219,4.07C68.709-5.18,67.6-4,65.305-4A9.464,9.464,0,0,1,61.2-4.958ZM92.019,0h4.329L94.831-24.938H89.725L87.764-15.91c-.666,3.145-1.221,5.957-1.591,8.732H86.1c-.444-2.812-1.073-5.587-1.776-8.732l-2-9.028H77.219L75.406,0h4.181l.407-8.658c.148-2.479.3-5.624.37-8.325h.111c.37,2.7,1.036,5.809,1.517,7.807L84.064-.407h3.441l2.146-8.917c.481-1.924,1.147-5,1.591-7.659h.111c-.074,2.664.111,5.883.222,8.251Zm14.874-25.234c-5.513,0-8.214,5.883-8.214,12.691C98.679-5.7,100.9.3,106.56.3c4.736,0,8.066-3.811,8.066-13.209C114.626-18.611,112.924-25.234,106.893-25.234Zm-.185,4.218c2.183,0,2.849,3.959,2.849,8.325,0,5.069-.777,8.769-2.812,8.769-1.961,0-3.034-2.886-3.034-8.547C103.711-17.834,104.784-21.016,106.708-21.016Z" transform="translate(730.366 8034.713)" fill="#161615"/>
        </g>
      </g>
    </g>
  </g>
</svg>
