<svg xmlns="http://www.w3.org/2000/svg" width="610" height="372.66" viewBox="0 0 610 372.66">
  <g id="Grupo_1103526" data-name="Grupo 1103526" transform="translate(-285 -6185)">
    <path id="Trazado_914323" data-name="Trazado 914323" d="M-37.925-4.263A4.528,4.528,0,0,1-39.45-1.011,5.355,5.355,0,0,1-43.075.176a4.816,4.816,0,0,1-3.872-1.657,6.793,6.793,0,0,1-1.411-4.548v-.782a7.671,7.671,0,0,1,.65-3.252,4.874,4.874,0,0,1,1.859-2.158,5.207,5.207,0,0,1,2.808-.751,5.217,5.217,0,0,1,3.568,1.187,4.866,4.866,0,0,1,1.564,3.331h-2.637a2.673,2.673,0,0,0-.69-1.8,2.555,2.555,0,0,0-1.806-.558,2.24,2.24,0,0,0-1.973.945,5.3,5.3,0,0,0-.672,2.931v.967a5.667,5.667,0,0,0,.628,3.032,2.2,2.2,0,0,0,1.982.958,2.6,2.6,0,0,0,1.824-.558,2.521,2.521,0,0,0,.69-1.727Zm6.908-2.865a6.9,6.9,0,0,0-.914-.07,1.86,1.86,0,0,0-1.89.976V0h-2.54V-9.51h2.4l.07,1.134a2.354,2.354,0,0,1,2.118-1.31,2.662,2.662,0,0,1,.791.114Zm5.432,7.3a4.668,4.668,0,0,1-3.406-1.283A4.561,4.561,0,0,1-30.3-4.526v-.246a5.745,5.745,0,0,1,.554-2.562,4.064,4.064,0,0,1,1.569-1.74,4.4,4.4,0,0,1,2.316-.611,3.947,3.947,0,0,1,3.072,1.23,5,5,0,0,1,1.121,3.489v1.037h-6.056a2.36,2.36,0,0,0,.743,1.494,2.245,2.245,0,0,0,1.569.563,2.742,2.742,0,0,0,2.294-1.063l1.248,1.4A3.813,3.813,0,0,1-23.423-.277,5.075,5.075,0,0,1-25.585.176Zm-.29-7.813a1.587,1.587,0,0,0-1.226.512,2.651,2.651,0,0,0-.6,1.466h3.533v-.2a1.891,1.891,0,0,0-.457-1.311A1.638,1.638,0,0,0-25.875-7.638Zm9.6,5.766a1.666,1.666,0,0,0,1.143-.387,1.355,1.355,0,0,0,.457-1.028H-12.3a3.258,3.258,0,0,1-.527,1.771A3.48,3.48,0,0,1-14.243-.268a4.442,4.442,0,0,1-1.991.444,4.129,4.129,0,0,1-3.217-1.3A5.13,5.13,0,0,1-20.628-4.7v-.167a5.071,5.071,0,0,1,1.169-3.507,4.08,4.08,0,0,1,3.208-1.31A4,4,0,0,1-13.39-8.67a3.594,3.594,0,0,1,1.094,2.7h-2.382a1.745,1.745,0,0,0-.457-1.206,1.524,1.524,0,0,0-1.16-.464,1.53,1.53,0,0,0-1.34.647,3.749,3.749,0,0,0-.453,2.1v.264a3.8,3.8,0,0,0,.448,2.113A1.549,1.549,0,0,0-16.277-1.872ZM-8.165,0h-2.549V-9.51h2.549Zm-2.7-11.971a1.251,1.251,0,0,1,.382-.94,1.436,1.436,0,0,1,1.042-.369,1.44,1.44,0,0,1,1.037.369,1.244,1.244,0,0,1,.387.94,1.247,1.247,0,0,1-.391.949,1.443,1.443,0,0,1-1.033.369,1.443,1.443,0,0,1-1.033-.369A1.247,1.247,0,0,1-10.863-11.971ZM-3.691-9.51l.079,1.063A3.342,3.342,0,0,1-.879-9.686a2.536,2.536,0,0,1,2.522,1.45A3.265,3.265,0,0,1,4.5-9.686a2.836,2.836,0,0,1,2.3.9,4.141,4.141,0,0,1,.756,2.711V0H5.01V-6.078a1.818,1.818,0,0,0-.316-1.185,1.4,1.4,0,0,0-1.116-.374A1.585,1.585,0,0,0,2-6.545L2,0H-.536V-6.07a1.8,1.8,0,0,0-.325-1.2,1.414,1.414,0,0,0-1.107-.37,1.645,1.645,0,0,0-1.564.9V0h-2.54V-9.51ZM12.19,0H9.642V-9.51H12.19Zm-2.7-11.971a1.251,1.251,0,0,1,.382-.94,1.436,1.436,0,0,1,1.042-.369,1.44,1.44,0,0,1,1.037.369,1.244,1.244,0,0,1,.387.94,1.247,1.247,0,0,1-.391.949,1.443,1.443,0,0,1-1.033.369,1.443,1.443,0,0,1-1.033-.369A1.247,1.247,0,0,1,9.492-11.971ZM18.659.176a4.668,4.668,0,0,1-3.406-1.283,4.561,4.561,0,0,1-1.314-3.419v-.246a5.745,5.745,0,0,1,.554-2.562,4.064,4.064,0,0,1,1.569-1.74,4.4,4.4,0,0,1,2.316-.611,3.947,3.947,0,0,1,3.072,1.23A5,5,0,0,1,22.57-4.966v1.037H16.515a2.36,2.36,0,0,0,.743,1.494,2.245,2.245,0,0,0,1.569.563A2.742,2.742,0,0,0,21.12-2.936l1.248,1.4A3.813,3.813,0,0,1,20.821-.277,5.075,5.075,0,0,1,18.659.176Zm-.29-7.813a1.587,1.587,0,0,0-1.226.512,2.651,2.651,0,0,0-.6,1.466h3.533v-.2a1.891,1.891,0,0,0-.457-1.311A1.638,1.638,0,0,0,18.369-7.638ZM26.35-9.51l.079,1.1a3.32,3.32,0,0,1,2.733-1.274,2.759,2.759,0,0,1,2.25.888,4.142,4.142,0,0,1,.756,2.654V0h-2.54V-6.1a1.654,1.654,0,0,0-.352-1.176,1.572,1.572,0,0,0-1.169-.366,1.747,1.747,0,0,0-1.608.916V0h-2.54V-9.51Zm10.784-2.338V-9.51H38.76v1.863H37.134V-2.9a1.133,1.133,0,0,0,.2.756,1.015,1.015,0,0,0,.773.229,4.051,4.051,0,0,0,.747-.062V-.053a5.229,5.229,0,0,1-1.538.229,2.425,2.425,0,0,1-2.725-2.7V-7.646H33.205V-9.51h1.389v-2.338Zm2.382,7a5.64,5.64,0,0,1,.545-2.522,3.989,3.989,0,0,1,1.569-1.714,4.577,4.577,0,0,1,2.377-.606,4.33,4.33,0,0,1,3.142,1.178,4.727,4.727,0,0,1,1.358,3.2l.018.65A4.97,4.97,0,0,1,47.3-1.147,4.247,4.247,0,0,1,44.024.176a4.268,4.268,0,0,1-3.283-1.318,5.058,5.058,0,0,1-1.226-3.586Zm2.54.18a3.555,3.555,0,0,0,.51,2.073,1.682,1.682,0,0,0,1.459.717,1.686,1.686,0,0,0,1.441-.709,3.89,3.89,0,0,0,.519-2.267,3.519,3.519,0,0,0-.519-2.06,1.686,1.686,0,0,0-1.459-.731,1.658,1.658,0,0,0-1.441.726A3.955,3.955,0,0,0,42.056-4.662Z" transform="translate(360.074 6225.042)" fill="#a8571c"/>
    <path id="Trazado_914324" data-name="Trazado 914324" d="M-19.991-10.661h-3.92V0h-2.637V-10.661h-3.867V-12.8h10.424ZM-15.974,0h-2.549V-9.51h2.549Zm-2.7-11.971a1.251,1.251,0,0,1,.382-.94,1.436,1.436,0,0,1,1.042-.369,1.44,1.44,0,0,1,1.037.369,1.244,1.244,0,0,1,.387.94,1.247,1.247,0,0,1-.391.949,1.443,1.443,0,0,1-1.033.369,1.443,1.443,0,0,1-1.033-.369A1.247,1.247,0,0,1-18.672-11.971ZM-9.505.176a4.668,4.668,0,0,1-3.406-1.283,4.561,4.561,0,0,1-1.314-3.419v-.246a5.745,5.745,0,0,1,.554-2.562A4.064,4.064,0,0,1-12.1-9.075a4.4,4.4,0,0,1,2.316-.611,3.947,3.947,0,0,1,3.072,1.23A5,5,0,0,1-5.594-4.966v1.037H-11.65a2.36,2.36,0,0,0,.743,1.494,2.245,2.245,0,0,0,1.569.563A2.742,2.742,0,0,0-7.044-2.936l1.248,1.4A3.813,3.813,0,0,1-7.343-.277,5.075,5.075,0,0,1-9.505.176ZM-9.8-7.638a1.587,1.587,0,0,0-1.226.512,2.651,2.651,0,0,0-.6,1.466H-8.09v-.2a1.891,1.891,0,0,0-.457-1.311A1.638,1.638,0,0,0-9.8-7.638ZM-1.771-9.51l.079,1.063A3.342,3.342,0,0,1,1.042-9.686a2.536,2.536,0,0,1,2.522,1.45A3.265,3.265,0,0,1,6.42-9.686a2.836,2.836,0,0,1,2.3.9,4.141,4.141,0,0,1,.756,2.711V0H6.93V-6.078a1.818,1.818,0,0,0-.316-1.185A1.4,1.4,0,0,0,5.5-7.638,1.585,1.585,0,0,0,3.916-6.545L3.924,0H1.384V-6.07a1.8,1.8,0,0,0-.325-1.2,1.414,1.414,0,0,0-1.107-.37,1.645,1.645,0,0,0-1.564.9V0h-2.54V-9.51ZM19.991-4.667a5.7,5.7,0,0,1-1,3.52A3.2,3.2,0,0,1,16.3.176a2.963,2.963,0,0,1-2.329-1V3.656H11.43V-9.51h2.355l.088.932a2.985,2.985,0,0,1,2.408-1.107,3.22,3.22,0,0,1,2.733,1.3A5.858,5.858,0,0,1,19.991-4.8Zm-2.54-.194a3.763,3.763,0,0,0-.47-2.054,1.53,1.53,0,0,0-1.367-.723,1.662,1.662,0,0,0-1.644.917v3.906a1.691,1.691,0,0,0,1.661.943Q17.451-1.872,17.451-4.861Zm3.718.018a5.64,5.64,0,0,1,.545-2.522,3.989,3.989,0,0,1,1.569-1.714,4.577,4.577,0,0,1,2.377-.606A4.33,4.33,0,0,1,28.8-8.508a4.727,4.727,0,0,1,1.358,3.2l.018.65a4.97,4.97,0,0,1-1.222,3.511A4.247,4.247,0,0,1,25.677.176a4.268,4.268,0,0,1-3.283-1.318,5.058,5.058,0,0,1-1.226-3.586Zm2.54.18a3.555,3.555,0,0,0,.51,2.073,1.682,1.682,0,0,0,1.459.717,1.686,1.686,0,0,0,1.441-.709,3.89,3.89,0,0,0,.519-2.267,3.519,3.519,0,0,0-.519-2.06,1.686,1.686,0,0,0-1.459-.731,1.658,1.658,0,0,0-1.441.726A3.955,3.955,0,0,0,23.708-4.662Z" transform="translate(834.538 6531.529)" fill="#a8571c"/>
    <path id="Trazado_914325" data-name="Trazado 914325" d="M-38.364-5.713H-43.62v3.92h6.144V0h-8.367V-12.8h8.306V-11H-43.62v3.533h5.256Zm5.906-.668,1.811-3.129h2.373l-2.909,4.685L-28.178,0h-2.355l-1.9-3.252L-34.321,0h-2.373l3.006-4.825-2.9-4.685h2.355Zm13.966,1.723a5.662,5.662,0,0,1-1,3.52A3.209,3.209,0,0,1-22.184.176a3.23,3.23,0,0,1-2.5-1.028V3.656h-2.136V-9.51h1.969l.088.967A3.137,3.137,0,0,1-22.21-9.686a3.242,3.242,0,0,1,2.729,1.3,5.813,5.813,0,0,1,.989,3.6Zm-2.127-.185A3.966,3.966,0,0,0-21.186-7.1a1.843,1.843,0,0,0-1.622-.835,1.965,1.965,0,0,0-1.881,1.081v4.219a1.983,1.983,0,0,0,1.9,1.107,1.841,1.841,0,0,0,1.6-.822A4.366,4.366,0,0,0-20.619-4.843ZM-14.414,0H-16.55V-13.5h2.136Zm1.925-4.843a5.607,5.607,0,0,1,.554-2.518A4.044,4.044,0,0,1-10.38-9.083a4.383,4.383,0,0,1,2.3-.6A4.154,4.154,0,0,1-4.953-8.446a4.874,4.874,0,0,1,1.3,3.287l.009.5a5.658,5.658,0,0,1-.541,2.514A4,4,0,0,1-5.735-.431,4.415,4.415,0,0,1-8.06.176a4.125,4.125,0,0,1-3.221-1.34,5.133,5.133,0,0,1-1.208-3.573Zm2.136.185a3.832,3.832,0,0,0,.606,2.3,1.971,1.971,0,0,0,1.688.831,1.95,1.95,0,0,0,1.683-.844,4.232,4.232,0,0,0,.6-2.47,3.782,3.782,0,0,0-.62-2.285,1.979,1.979,0,0,0-1.683-.844,1.96,1.96,0,0,0-1.661.831A4.152,4.152,0,0,0-10.354-4.658Zm13.491-2.9a5.285,5.285,0,0,0-.87-.07A1.959,1.959,0,0,0,.29-6.5V0H-1.846V-9.51H.193L.246-8.446A2.406,2.406,0,0,1,2.391-9.686a2,2,0,0,1,.756.123ZM9.905,0a3.3,3.3,0,0,1-.246-.888A3.325,3.325,0,0,1,7.163.176,3.355,3.355,0,0,1,4.825-.642,2.615,2.615,0,0,1,3.92-2.663,2.7,2.7,0,0,1,5.049-5a5.473,5.473,0,0,1,3.23-.813h1.31v-.624a1.666,1.666,0,0,0-.413-1.182A1.638,1.638,0,0,0,7.919-8.06a1.881,1.881,0,0,0-1.2.365,1.129,1.129,0,0,0-.466.927H4.122a2.37,2.37,0,0,1,.519-1.463A3.455,3.455,0,0,1,6.051-9.3a4.955,4.955,0,0,1,1.991-.387,3.99,3.99,0,0,1,2.663.839,2.993,2.993,0,0,1,1.02,2.36V-2.2a4.861,4.861,0,0,0,.36,2.048V0ZM7.559-1.538A2.429,2.429,0,0,0,8.75-1.846a2.055,2.055,0,0,0,.839-.826V-4.465H8.438a3.148,3.148,0,0,0-1.784.413,1.338,1.338,0,0,0-.6,1.169,1.248,1.248,0,0,0,.409.98A1.583,1.583,0,0,0,7.559-1.538Zm10.31.009A1.931,1.931,0,0,0,19.2-2a1.591,1.591,0,0,0,.563-1.151h2.013a3.137,3.137,0,0,1-.554,1.657A3.632,3.632,0,0,1,19.811-.272a4.191,4.191,0,0,1-1.916.448A4.055,4.055,0,0,1,14.73-1.116a5.124,5.124,0,0,1-1.169-3.568V-4.9a5.039,5.039,0,0,1,1.16-3.476,4.018,4.018,0,0,1,3.164-1.305A3.907,3.907,0,0,1,20.65-8.7a3.542,3.542,0,0,1,1.121,2.6H19.758A1.956,1.956,0,0,0,19.2-7.444a1.8,1.8,0,0,0-1.332-.527,1.879,1.879,0,0,0-1.6.751A3.834,3.834,0,0,0,15.7-4.939V-4.6a3.9,3.9,0,0,0,.558,2.307A1.878,1.878,0,0,0,17.868-1.529ZM25.655,0H23.52V-9.51h2.136ZM23.388-11.988a1.147,1.147,0,0,1,.312-.824,1.173,1.173,0,0,1,.892-.328,1.188,1.188,0,0,1,.9.328,1.138,1.138,0,0,1,.316.824,1.112,1.112,0,0,1-.316.811,1.2,1.2,0,0,1-.9.323,1.182,1.182,0,0,1-.892-.323A1.12,1.12,0,0,1,23.388-11.988ZM27.58-4.843a5.607,5.607,0,0,1,.554-2.518,4.044,4.044,0,0,1,1.556-1.723,4.383,4.383,0,0,1,2.3-.6,4.154,4.154,0,0,1,3.125,1.239,4.874,4.874,0,0,1,1.3,3.287l.009.5a5.658,5.658,0,0,1-.541,2.514A4,4,0,0,1,34.334-.431,4.415,4.415,0,0,1,32.01.176a4.125,4.125,0,0,1-3.221-1.34A5.133,5.133,0,0,1,27.58-4.737Zm2.136.185a3.832,3.832,0,0,0,.606,2.3,1.971,1.971,0,0,0,1.688.831,1.95,1.95,0,0,0,1.683-.844,4.232,4.232,0,0,0,.6-2.47,3.782,3.782,0,0,0-.62-2.285,1.979,1.979,0,0,0-1.683-.844,1.96,1.96,0,0,0-1.661.831A4.152,4.152,0,0,0,29.716-4.658ZM32.581-13.5h2.435l-2.435,2.663-1.714,0ZM40.21-9.51l.062,1.1A3.419,3.419,0,0,1,43.04-9.686q2.971,0,3.023,3.4V0H43.928V-6.161a1.958,1.958,0,0,0-.391-1.34,1.645,1.645,0,0,0-1.279-.435,2.058,2.058,0,0,0-1.925,1.169V0H38.2V-9.51Z" transform="translate(358.074 6480.2)" fill="#12263f"/>
    <path id="Trazado_914326" data-name="Trazado 914326" d="M-43.106,0h-2.215V-12.8h2.215Zm4.535-9.51.062.993a3.422,3.422,0,0,1,2.742-1.169,2.629,2.629,0,0,1,2.61,1.459,3.373,3.373,0,0,1,2.918-1.459,2.965,2.965,0,0,1,2.342.87,3.831,3.831,0,0,1,.787,2.566V0h-2.136V-6.187a1.891,1.891,0,0,0-.4-1.327,1.731,1.731,0,0,0-1.31-.422,1.778,1.778,0,0,0-1.191.391,2.063,2.063,0,0,0-.646,1.024L-32.779,0h-2.136V-6.258a1.523,1.523,0,0,0-1.714-1.679,1.88,1.88,0,0,0-1.819,1.046V0h-2.136V-9.51Zm21.981,4.852a5.662,5.662,0,0,1-1,3.52A3.209,3.209,0,0,1-20.281.176a3.23,3.23,0,0,1-2.5-1.028V3.656h-2.136V-9.51h1.969l.088.967a3.137,3.137,0,0,1,2.558-1.143,3.242,3.242,0,0,1,2.729,1.3,5.813,5.813,0,0,1,.989,3.6Zm-2.127-.185A3.966,3.966,0,0,0-19.283-7.1,1.843,1.843,0,0,0-20.9-7.937a1.965,1.965,0,0,0-1.881,1.081v4.219a1.983,1.983,0,0,0,1.9,1.107,1.841,1.841,0,0,0,1.6-.822A4.366,4.366,0,0,0-18.716-4.843ZM-12.511,0h-2.136V-13.5h2.136Zm4.6,0H-10.05V-9.51h2.136Zm-2.268-11.988a1.147,1.147,0,0,1,.312-.824,1.173,1.173,0,0,1,.892-.328,1.188,1.188,0,0,1,.9.328,1.138,1.138,0,0,1,.316.824,1.112,1.112,0,0,1-.316.811,1.2,1.2,0,0,1-.9.323,1.182,1.182,0,0,1-.892-.323A1.12,1.12,0,0,1-10.182-11.988Zm8.5,10.459A1.931,1.931,0,0,0-.356-2,1.591,1.591,0,0,0,.207-3.146H2.219A3.137,3.137,0,0,1,1.666-1.49,3.632,3.632,0,0,1,.259-.272,4.191,4.191,0,0,1-1.657.176,4.055,4.055,0,0,1-4.821-1.116,5.124,5.124,0,0,1-5.99-4.685V-4.9A5.039,5.039,0,0,1-4.83-8.38,4.018,4.018,0,0,1-1.666-9.686,3.907,3.907,0,0,1,1.1-8.7,3.542,3.542,0,0,1,2.219-6.1H.207A1.956,1.956,0,0,0-.352-7.444a1.8,1.8,0,0,0-1.332-.527,1.879,1.879,0,0,0-1.6.751,3.834,3.834,0,0,0-.571,2.281V-4.6A3.9,3.9,0,0,0-3.3-2.29,1.878,1.878,0,0,0-1.683-1.529ZM9.514,0a3.3,3.3,0,0,1-.246-.888A3.325,3.325,0,0,1,6.772.176,3.355,3.355,0,0,1,4.434-.642a2.615,2.615,0,0,1-.905-2.021A2.7,2.7,0,0,1,4.658-5a5.473,5.473,0,0,1,3.23-.813H9.2v-.624a1.666,1.666,0,0,0-.413-1.182A1.638,1.638,0,0,0,7.528-8.06a1.881,1.881,0,0,0-1.2.365,1.129,1.129,0,0,0-.466.927H3.731A2.37,2.37,0,0,1,4.25-8.231,3.455,3.455,0,0,1,5.66-9.3a4.955,4.955,0,0,1,1.991-.387,3.99,3.99,0,0,1,2.663.839,2.993,2.993,0,0,1,1.02,2.36V-2.2a4.861,4.861,0,0,0,.36,2.048V0ZM7.167-1.538a2.429,2.429,0,0,0,1.191-.308A2.055,2.055,0,0,0,9.2-2.672V-4.465H8.046a3.148,3.148,0,0,0-1.784.413,1.338,1.338,0,0,0-.6,1.169,1.248,1.248,0,0,0,.409.98A1.583,1.583,0,0,0,7.167-1.538Zm10.31.009A1.931,1.931,0,0,0,18.8-2a1.591,1.591,0,0,0,.563-1.151h2.013a3.137,3.137,0,0,1-.554,1.657A3.632,3.632,0,0,1,19.419-.272,4.191,4.191,0,0,1,17.5.176a4.055,4.055,0,0,1-3.164-1.292A5.124,5.124,0,0,1,13.17-4.685V-4.9a5.039,5.039,0,0,1,1.16-3.476,4.018,4.018,0,0,1,3.164-1.305,3.907,3.907,0,0,1,2.764.989,3.542,3.542,0,0,1,1.121,2.6H19.367a1.956,1.956,0,0,0-.558-1.345,1.8,1.8,0,0,0-1.332-.527,1.879,1.879,0,0,0-1.6.751,3.834,3.834,0,0,0-.571,2.281V-4.6a3.9,3.9,0,0,0,.558,2.307A1.878,1.878,0,0,0,17.477-1.529ZM25.264,0H23.128V-9.51h2.136ZM23-11.988a1.147,1.147,0,0,1,.312-.824,1.173,1.173,0,0,1,.892-.328,1.188,1.188,0,0,1,.9.328,1.138,1.138,0,0,1,.316.824,1.112,1.112,0,0,1-.316.811,1.2,1.2,0,0,1-.9.323,1.182,1.182,0,0,1-.892-.323A1.12,1.12,0,0,1,23-11.988Zm4.192,7.146a5.607,5.607,0,0,1,.554-2.518A4.044,4.044,0,0,1,29.3-9.083a4.383,4.383,0,0,1,2.3-.6,4.154,4.154,0,0,1,3.125,1.239,4.874,4.874,0,0,1,1.3,3.287l.009.5a5.658,5.658,0,0,1-.541,2.514A4,4,0,0,1,33.943-.431a4.415,4.415,0,0,1-2.325.606A4.125,4.125,0,0,1,28.4-1.165a5.133,5.133,0,0,1-1.208-3.573Zm2.136.185a3.832,3.832,0,0,0,.606,2.3,1.971,1.971,0,0,0,1.688.831A1.95,1.95,0,0,0,33.3-2.373a4.232,4.232,0,0,0,.6-2.47,3.782,3.782,0,0,0-.62-2.285A1.979,1.979,0,0,0,31.6-7.972a1.96,1.96,0,0,0-1.661.831A4.152,4.152,0,0,0,29.325-4.658ZM32.19-13.5h2.435L32.19-10.837l-1.714,0Zm7.629,3.99.062,1.1a3.419,3.419,0,0,1,2.769-1.274q2.971,0,3.023,3.4V0H43.537V-6.161a1.958,1.958,0,0,0-.391-1.34,1.645,1.645,0,0,0-1.279-.435,2.058,2.058,0,0,0-1.925,1.169V0H37.806V-9.51Z" transform="translate(570.086 6449.7)" fill="#12263f"/>
    <path id="Trazado_914327" data-name="Trazado 914327" d="M6-4.922H3.524V0H1.3V-12.8H5.8A5.235,5.235,0,0,1,9.22-11.8a3.516,3.516,0,0,1,1.2,2.876A3.6,3.6,0,0,1,9.8-6.776,3.943,3.943,0,0,1,8.077-5.443L10.951-.114V0H8.569ZM3.524-6.715H5.81a2.541,2.541,0,0,0,1.758-.567A1.977,1.977,0,0,0,8.2-8.833a2.1,2.1,0,0,0-.584-1.591A2.483,2.483,0,0,0,5.871-11H3.524ZM16.515.176A4.419,4.419,0,0,1,13.223-1.1a4.639,4.639,0,0,1-1.261-3.406v-.264a5.706,5.706,0,0,1,.549-2.544,4.181,4.181,0,0,1,1.542-1.745,4.078,4.078,0,0,1,2.215-.624,3.733,3.733,0,0,1,3,1.239,5.24,5.24,0,0,1,1.059,3.507v.861H14.115A2.856,2.856,0,0,0,14.9-2.215a2.362,2.362,0,0,0,1.736.686,2.892,2.892,0,0,0,2.391-1.187l1.151,1.1A3.845,3.845,0,0,1,18.655-.294,4.774,4.774,0,0,1,16.515.176ZM16.26-7.972a1.8,1.8,0,0,0-1.419.615,3.189,3.189,0,0,0-.69,1.714H18.22V-5.8a2.6,2.6,0,0,0-.571-1.622A1.785,1.785,0,0,0,16.26-7.972ZM24.214-9.51V.844a3.129,3.129,0,0,1-.725,2.228,2.779,2.779,0,0,1-2.123.769,4.268,4.268,0,0,1-1.134-.149V2a3.291,3.291,0,0,0,.756.079q1.063,0,1.09-1.16V-9.51Zm-2.32-2.479a1.147,1.147,0,0,1,.312-.824,1.173,1.173,0,0,1,.892-.328,1.188,1.188,0,0,1,.9.328,1.138,1.138,0,0,1,.316.824,1.112,1.112,0,0,1-.316.811,1.2,1.2,0,0,1-.9.323,1.182,1.182,0,0,1-.892-.323A1.12,1.12,0,0,1,21.894-11.988ZM32.256-.932A3.312,3.312,0,0,1,29.584.176a2.952,2.952,0,0,1-2.342-.905,3.851,3.851,0,0,1-.8-2.619V-9.51h2.136v6.135q0,1.811,1.5,1.811a2.111,2.111,0,0,0,2.1-1.116V-9.51h2.136V0H32.309ZM39.85-2.707l2.013-6.8h2.206L40.772,0H38.918L35.6-9.51h2.215ZM49.474.176A4.419,4.419,0,0,1,46.182-1.1a4.639,4.639,0,0,1-1.261-3.406v-.264a5.706,5.706,0,0,1,.549-2.544,4.181,4.181,0,0,1,1.542-1.745,4.078,4.078,0,0,1,2.215-.624,3.733,3.733,0,0,1,3,1.239,5.24,5.24,0,0,1,1.059,3.507v.861H47.074a2.856,2.856,0,0,0,.787,1.863,2.362,2.362,0,0,0,1.736.686,2.892,2.892,0,0,0,2.391-1.187l1.151,1.1A3.845,3.845,0,0,1,51.614-.294,4.774,4.774,0,0,1,49.474.176Zm-.255-8.147a1.8,1.8,0,0,0-1.419.615,3.189,3.189,0,0,0-.69,1.714h4.069V-5.8a2.6,2.6,0,0,0-.571-1.622A1.785,1.785,0,0,0,49.219-7.972ZM56.927-9.51l.062,1.1a3.419,3.419,0,0,1,2.769-1.274q2.971,0,3.023,3.4V0H60.645V-6.161a1.958,1.958,0,0,0-.391-1.34,1.645,1.645,0,0,0-1.279-.435A2.058,2.058,0,0,0,57.05-6.768V0H54.914V-9.51ZM69.144.176A4.419,4.419,0,0,1,65.852-1.1a4.639,4.639,0,0,1-1.261-3.406v-.264a5.706,5.706,0,0,1,.549-2.544,4.181,4.181,0,0,1,1.542-1.745A4.078,4.078,0,0,1,68.9-9.686a3.733,3.733,0,0,1,3,1.239,5.24,5.24,0,0,1,1.059,3.507v.861H66.744a2.856,2.856,0,0,0,.787,1.863,2.362,2.362,0,0,0,1.736.686,2.892,2.892,0,0,0,2.391-1.187l1.151,1.1A3.845,3.845,0,0,1,71.284-.294,4.774,4.774,0,0,1,69.144.176Zm-.255-8.147a1.8,1.8,0,0,0-1.419.615,3.189,3.189,0,0,0-.69,1.714h4.069V-5.8a2.6,2.6,0,0,0-.571-1.622A1.785,1.785,0,0,0,68.889-7.972Zm9.633,6.442A1.931,1.931,0,0,0,79.849-2a1.591,1.591,0,0,0,.563-1.151h2.013A3.137,3.137,0,0,1,81.87-1.49,3.632,3.632,0,0,1,80.464-.272a4.191,4.191,0,0,1-1.916.448,4.055,4.055,0,0,1-3.164-1.292,5.124,5.124,0,0,1-1.169-3.568V-4.9a5.039,5.039,0,0,1,1.16-3.476,4.018,4.018,0,0,1,3.164-1.305A3.907,3.907,0,0,1,81.3-8.7a3.542,3.542,0,0,1,1.121,2.6H80.411a1.956,1.956,0,0,0-.558-1.345,1.8,1.8,0,0,0-1.332-.527,1.879,1.879,0,0,0-1.6.751,3.834,3.834,0,0,0-.571,2.281V-4.6a3.9,3.9,0,0,0,.558,2.307A1.878,1.878,0,0,0,78.521-1.529ZM86.309,0H84.173V-9.51h2.136ZM84.041-11.988a1.147,1.147,0,0,1,.312-.824,1.173,1.173,0,0,1,.892-.328,1.188,1.188,0,0,1,.9.328,1.138,1.138,0,0,1,.316.824,1.112,1.112,0,0,1-.316.811,1.2,1.2,0,0,1-.9.323,1.182,1.182,0,0,1-.892-.323A1.12,1.12,0,0,1,84.041-11.988Zm6.6,2.479.062.993a3.422,3.422,0,0,1,2.742-1.169,2.629,2.629,0,0,1,2.61,1.459,3.373,3.373,0,0,1,2.918-1.459,2.965,2.965,0,0,1,2.342.87,3.831,3.831,0,0,1,.787,2.566V0H99.967V-6.187a1.891,1.891,0,0,0-.4-1.327,1.731,1.731,0,0,0-1.31-.422,1.778,1.778,0,0,0-1.191.391,2.063,2.063,0,0,0-.646,1.024L96.434,0H94.3V-6.258a1.523,1.523,0,0,0-1.714-1.679,1.88,1.88,0,0,0-1.819,1.046V0H88.629V-9.51ZM106.567,0h-2.136V-9.51h2.136ZM104.3-11.988a1.147,1.147,0,0,1,.312-.824,1.173,1.173,0,0,1,.892-.328,1.188,1.188,0,0,1,.9.328,1.138,1.138,0,0,1,.316.824,1.112,1.112,0,0,1-.316.811,1.2,1.2,0,0,1-.9.323,1.182,1.182,0,0,1-.892-.323A1.12,1.12,0,0,1,104.3-11.988ZM113.08.176A4.419,4.419,0,0,1,109.789-1.1a4.639,4.639,0,0,1-1.261-3.406v-.264a5.706,5.706,0,0,1,.549-2.544,4.181,4.181,0,0,1,1.542-1.745,4.078,4.078,0,0,1,2.215-.624,3.733,3.733,0,0,1,3,1.239,5.24,5.24,0,0,1,1.059,3.507v.861h-6.214a2.856,2.856,0,0,0,.787,1.863,2.362,2.362,0,0,0,1.736.686,2.892,2.892,0,0,0,2.391-1.187l1.151,1.1A3.845,3.845,0,0,1,115.22-.294,4.774,4.774,0,0,1,113.08.176Zm-.255-8.147a1.8,1.8,0,0,0-1.419.615,3.189,3.189,0,0,0-.69,1.714h4.069V-5.8a2.6,2.6,0,0,0-.571-1.622A1.785,1.785,0,0,0,112.825-7.972Zm7.708-1.538.062,1.1a3.419,3.419,0,0,1,2.769-1.274q2.971,0,3.023,3.4V0h-2.136V-6.161a1.958,1.958,0,0,0-.391-1.34,1.645,1.645,0,0,0-1.279-.435,2.058,2.058,0,0,0-1.925,1.169V0h-2.136V-9.51Zm10.705-2.312V-9.51h1.679v1.582h-1.679v5.309a1.169,1.169,0,0,0,.215.787,1,1,0,0,0,.769.242,3.29,3.29,0,0,0,.747-.088V-.026a5.26,5.26,0,0,1-1.406.2Q129.1.176,129.1-2.54V-7.928h-1.564V-9.51H129.1v-2.312Zm2.646,6.979a5.607,5.607,0,0,1,.554-2.518,4.044,4.044,0,0,1,1.556-1.723,4.383,4.383,0,0,1,2.3-.6,4.154,4.154,0,0,1,3.125,1.239,4.874,4.874,0,0,1,1.3,3.287l.009.5a5.658,5.658,0,0,1-.541,2.514,4,4,0,0,1-1.547,1.714,4.415,4.415,0,0,1-2.325.606,4.125,4.125,0,0,1-3.221-1.34,5.133,5.133,0,0,1-1.208-3.573Zm2.136.185a3.832,3.832,0,0,0,.606,2.3,1.971,1.971,0,0,0,1.688.831A1.95,1.95,0,0,0,140-2.373a4.232,4.232,0,0,0,.6-2.47,3.782,3.782,0,0,0-.62-2.285,1.979,1.979,0,0,0-1.683-.844,1.96,1.96,0,0,0-1.661.831A4.152,4.152,0,0,0,136.02-4.658Z" transform="translate(746.257 6243.639)" fill="#12263f"/>
    <path id="Trazado_914328" data-name="Trazado 914328" d="M8.78-5.713H3.524v3.92H9.668V0H1.3V-12.8H9.606V-11H3.524v3.533H8.78ZM16.6-2.584a.968.968,0,0,0-.47-.87,5,5,0,0,0-1.56-.527,8.02,8.02,0,0,1-1.819-.58,2.428,2.428,0,0,1-1.6-2.241A2.531,2.531,0,0,1,12.19-8.859a4.1,4.1,0,0,1,2.637-.826,4.266,4.266,0,0,1,2.755.844,2.677,2.677,0,0,1,1.05,2.188H16.5a1.316,1.316,0,0,0-.457-1.024,1.752,1.752,0,0,0-1.213-.409,1.893,1.893,0,0,0-1.147.325,1.025,1.025,0,0,0-.444.87.866.866,0,0,0,.413.765,5.68,5.68,0,0,0,1.67.549,7.9,7.9,0,0,1,1.973.659A2.794,2.794,0,0,1,18.356-4,2.342,2.342,0,0,1,18.7-2.7,2.478,2.478,0,0,1,17.64-.62a4.535,4.535,0,0,1-2.786.8,4.917,4.917,0,0,1-2.083-.422,3.428,3.428,0,0,1-1.424-1.16A2.746,2.746,0,0,1,10.837-3h2.074a1.5,1.5,0,0,0,.571,1.165,2.22,2.22,0,0,0,1.4.409,2.16,2.16,0,0,0,1.283-.321A.993.993,0,0,0,16.6-2.584Zm6.636-9.237V-9.51h1.679v1.582H23.238v5.309a1.169,1.169,0,0,0,.215.787,1,1,0,0,0,.769.242,3.29,3.29,0,0,0,.747-.088V-.026a5.26,5.26,0,0,1-1.406.2Q21.1.176,21.1-2.54V-7.928H19.538V-9.51H21.1v-2.312ZM32.229,0a3.3,3.3,0,0,1-.246-.888,3.325,3.325,0,0,1-2.5,1.063,3.355,3.355,0,0,1-2.338-.817,2.615,2.615,0,0,1-.905-2.021A2.7,2.7,0,0,1,27.374-5,5.473,5.473,0,0,1,30.6-5.81h1.31v-.624A1.666,1.666,0,0,0,31.5-7.616a1.638,1.638,0,0,0-1.257-.444,1.881,1.881,0,0,0-1.2.365,1.129,1.129,0,0,0-.466.927H26.446a2.37,2.37,0,0,1,.519-1.463A3.455,3.455,0,0,1,28.375-9.3a4.955,4.955,0,0,1,1.991-.387,3.99,3.99,0,0,1,2.663.839,2.993,2.993,0,0,1,1.02,2.36V-2.2a4.861,4.861,0,0,0,.36,2.048V0ZM29.883-1.538a2.429,2.429,0,0,0,1.191-.308,2.055,2.055,0,0,0,.839-.826V-4.465H30.762a3.148,3.148,0,0,0-1.784.413,1.338,1.338,0,0,0-.6,1.169,1.248,1.248,0,0,0,.409.98A1.583,1.583,0,0,0,29.883-1.538Zm14.748-3.12a5.712,5.712,0,0,1-.989,3.524,3.221,3.221,0,0,1-2.72,1.31,3.1,3.1,0,0,1-2.6-1.2L38.215,0H36.281V-13.5h2.136v4.9A3.091,3.091,0,0,1,40.9-9.686a3.258,3.258,0,0,1,2.733,1.292,5.807,5.807,0,0,1,.993,3.612ZM42.5-4.843a4.037,4.037,0,0,0-.545-2.32,1.815,1.815,0,0,0-1.582-.773,1.983,1.983,0,0,0-1.951,1.213V-2.8a2,2,0,0,0,1.969,1.239,1.8,1.8,0,0,0,1.547-.747A3.912,3.912,0,0,0,42.5-4.57ZM48.691,0H46.556V-9.51h2.136ZM46.424-11.988a1.147,1.147,0,0,1,.312-.824,1.173,1.173,0,0,1,.892-.328,1.188,1.188,0,0,1,.9.328,1.138,1.138,0,0,1,.316.824,1.112,1.112,0,0,1-.316.811,1.2,1.2,0,0,1-.9.323,1.182,1.182,0,0,1-.892-.323A1.12,1.12,0,0,1,46.424-11.988ZM53.288,0H51.152V-13.5h2.136Zm4.6,0H55.749V-9.51h2.136ZM55.617-11.988a1.147,1.147,0,0,1,.312-.824,1.173,1.173,0,0,1,.892-.328,1.188,1.188,0,0,1,.9.328,1.138,1.138,0,0,1,.316.824,1.112,1.112,0,0,1-.316.811,1.2,1.2,0,0,1-.9.323,1.182,1.182,0,0,1-.892-.323A1.12,1.12,0,0,1,55.617-11.988ZM62.49-1.705h5.063V0H59.836V-1.4l4.825-6.39H59.924V-9.51h7.444v1.354ZM74.944,0A3.3,3.3,0,0,1,74.7-.888,3.325,3.325,0,0,1,72.2.176a3.355,3.355,0,0,1-2.338-.817,2.615,2.615,0,0,1-.905-2.021A2.7,2.7,0,0,1,70.088-5a5.473,5.473,0,0,1,3.23-.813h1.31v-.624a1.666,1.666,0,0,0-.413-1.182,1.638,1.638,0,0,0-1.257-.444,1.881,1.881,0,0,0-1.2.365,1.129,1.129,0,0,0-.466.927H69.161a2.37,2.37,0,0,1,.519-1.463A3.455,3.455,0,0,1,71.09-9.3a4.955,4.955,0,0,1,1.991-.387,3.99,3.99,0,0,1,2.663.839,2.993,2.993,0,0,1,1.02,2.36V-2.2a4.861,4.861,0,0,0,.36,2.048V0ZM72.6-1.538a2.429,2.429,0,0,0,1.191-.308,2.055,2.055,0,0,0,.839-.826V-4.465H73.477a3.148,3.148,0,0,0-1.784.413,1.338,1.338,0,0,0-.6,1.169,1.248,1.248,0,0,0,.409.98A1.583,1.583,0,0,0,72.6-1.538Zm10.31.009A1.931,1.931,0,0,0,84.234-2,1.591,1.591,0,0,0,84.8-3.146H86.81a3.137,3.137,0,0,1-.554,1.657A3.632,3.632,0,0,1,84.85-.272a4.191,4.191,0,0,1-1.916.448A4.055,4.055,0,0,1,79.77-1.116,5.124,5.124,0,0,1,78.6-4.685V-4.9a5.039,5.039,0,0,1,1.16-3.476,4.018,4.018,0,0,1,3.164-1.305,3.907,3.907,0,0,1,2.764.989A3.542,3.542,0,0,1,86.81-6.1H84.8a1.956,1.956,0,0,0-.558-1.345,1.8,1.8,0,0,0-1.332-.527,1.879,1.879,0,0,0-1.6.751,3.834,3.834,0,0,0-.571,2.281V-4.6a3.9,3.9,0,0,0,.558,2.307A1.878,1.878,0,0,0,82.907-1.529ZM90.694,0H88.559V-9.51h2.136ZM88.427-11.988a1.147,1.147,0,0,1,.312-.824,1.173,1.173,0,0,1,.892-.328,1.188,1.188,0,0,1,.9.328,1.138,1.138,0,0,1,.316.824,1.112,1.112,0,0,1-.316.811,1.2,1.2,0,0,1-.9.323,1.182,1.182,0,0,1-.892-.323A1.12,1.12,0,0,1,88.427-11.988Zm4.192,7.146a5.607,5.607,0,0,1,.554-2.518,4.044,4.044,0,0,1,1.556-1.723,4.383,4.383,0,0,1,2.3-.6,4.154,4.154,0,0,1,3.125,1.239,4.874,4.874,0,0,1,1.3,3.287l.009.5a5.658,5.658,0,0,1-.541,2.514A4,4,0,0,1,99.374-.431a4.415,4.415,0,0,1-2.325.606,4.125,4.125,0,0,1-3.221-1.34,5.133,5.133,0,0,1-1.208-3.573Zm2.136.185a3.832,3.832,0,0,0,.606,2.3,1.971,1.971,0,0,0,1.688.831,1.95,1.95,0,0,0,1.683-.844,4.232,4.232,0,0,0,.6-2.47,3.782,3.782,0,0,0-.62-2.285,1.979,1.979,0,0,0-1.683-.844,1.96,1.96,0,0,0-1.661.831A4.152,4.152,0,0,0,94.755-4.658ZM97.62-13.5h2.435L97.62-10.837l-1.714,0Zm7.629,3.99.062,1.1a3.419,3.419,0,0,1,2.769-1.274q2.971,0,3.023,3.4V0h-2.136V-6.161a1.958,1.958,0,0,0-.391-1.34,1.645,1.645,0,0,0-1.279-.435,2.058,2.058,0,0,0-1.925,1.169V0h-2.136V-9.51Z" transform="translate(746.257 6291.993)" fill="#12263f"/>
    <path id="Trazado_914329" data-name="Trazado 914329" d="M1.3,0V-12.8H5.08a5.928,5.928,0,0,1,3.01.756A5.154,5.154,0,0,1,10.125-9.9a6.807,6.807,0,0,1,.721,3.182v.642a6.779,6.779,0,0,1-.725,3.2A5.092,5.092,0,0,1,8.055-.747,6.2,6.2,0,0,1,4.983,0ZM3.524-11v9.211h1.45A3.342,3.342,0,0,0,7.66-2.885a4.751,4.751,0,0,0,.954-3.136v-.711a4.875,4.875,0,0,0-.905-3.176A3.212,3.212,0,0,0,5.08-11ZM17.042.176A4.419,4.419,0,0,1,13.75-1.1a4.639,4.639,0,0,1-1.261-3.406v-.264a5.706,5.706,0,0,1,.549-2.544,4.181,4.181,0,0,1,1.542-1.745A4.078,4.078,0,0,1,16.8-9.686a3.733,3.733,0,0,1,3,1.239,5.24,5.24,0,0,1,1.059,3.507v.861H14.643a2.856,2.856,0,0,0,.787,1.863,2.362,2.362,0,0,0,1.736.686,2.892,2.892,0,0,0,2.391-1.187l1.151,1.1A3.845,3.845,0,0,1,19.182-.294,4.774,4.774,0,0,1,17.042.176Zm-.255-8.147a1.8,1.8,0,0,0-1.419.615,3.189,3.189,0,0,0-.69,1.714h4.069V-5.8a2.6,2.6,0,0,0-.571-1.622A1.785,1.785,0,0,0,16.787-7.972ZM26.42-1.529A1.931,1.931,0,0,0,27.747-2a1.591,1.591,0,0,0,.563-1.151h2.013a3.137,3.137,0,0,1-.554,1.657A3.632,3.632,0,0,1,28.362-.272a4.191,4.191,0,0,1-1.916.448,4.055,4.055,0,0,1-3.164-1.292,5.124,5.124,0,0,1-1.169-3.568V-4.9a5.039,5.039,0,0,1,1.16-3.476,4.018,4.018,0,0,1,3.164-1.305A3.907,3.907,0,0,1,29.2-8.7a3.542,3.542,0,0,1,1.121,2.6H28.31a1.956,1.956,0,0,0-.558-1.345,1.8,1.8,0,0,0-1.332-.527,1.879,1.879,0,0,0-1.6.751,3.834,3.834,0,0,0-.571,2.281V-4.6a3.9,3.9,0,0,0,.558,2.307A1.878,1.878,0,0,0,26.42-1.529ZM34.207,0H32.071V-13.5h2.136Zm4.6,0H36.668V-9.51H38.8ZM36.536-11.988a1.147,1.147,0,0,1,.312-.824,1.173,1.173,0,0,1,.892-.328,1.188,1.188,0,0,1,.9.328,1.138,1.138,0,0,1,.316.824,1.112,1.112,0,0,1-.316.811,1.2,1.2,0,0,1-.9.323,1.182,1.182,0,0,1-.892-.323A1.12,1.12,0,0,1,36.536-11.988Zm7.945,9.281,2.013-6.8H48.7L45.4,0H43.55L40.228-9.51h2.215ZM54.105.176A4.419,4.419,0,0,1,50.814-1.1a4.639,4.639,0,0,1-1.261-3.406v-.264A5.706,5.706,0,0,1,50.1-7.317a4.181,4.181,0,0,1,1.542-1.745,4.078,4.078,0,0,1,2.215-.624,3.733,3.733,0,0,1,3,1.239A5.24,5.24,0,0,1,57.92-4.939v.861H51.706a2.856,2.856,0,0,0,.787,1.863,2.362,2.362,0,0,0,1.736.686,2.892,2.892,0,0,0,2.391-1.187l1.151,1.1A3.845,3.845,0,0,1,56.246-.294,4.774,4.774,0,0,1,54.105.176Zm-.255-8.147a1.8,1.8,0,0,0-1.419.615,3.189,3.189,0,0,0-.69,1.714h4.069V-5.8a2.6,2.6,0,0,0-.571-1.622A1.785,1.785,0,0,0,53.851-7.972Z" transform="translate(746.257 6344.81)" fill="#12263f"/>
    <path id="Trazado_914330" data-name="Trazado 914330" d="M1.3,0V-12.8H5.08a5.928,5.928,0,0,1,3.01.756A5.154,5.154,0,0,1,10.125-9.9a6.807,6.807,0,0,1,.721,3.182v.642a6.779,6.779,0,0,1-.725,3.2A5.092,5.092,0,0,1,8.055-.747,6.2,6.2,0,0,1,4.983,0ZM3.524-11v9.211h1.45A3.342,3.342,0,0,0,7.66-2.885a4.751,4.751,0,0,0,.954-3.136v-.711a4.875,4.875,0,0,0-.905-3.176A3.212,3.212,0,0,0,5.08-11ZM17.042.176A4.419,4.419,0,0,1,13.75-1.1a4.639,4.639,0,0,1-1.261-3.406v-.264a5.706,5.706,0,0,1,.549-2.544,4.181,4.181,0,0,1,1.542-1.745A4.078,4.078,0,0,1,16.8-9.686a3.733,3.733,0,0,1,3,1.239,5.24,5.24,0,0,1,1.059,3.507v.861H14.643a2.856,2.856,0,0,0,.787,1.863,2.362,2.362,0,0,0,1.736.686,2.892,2.892,0,0,0,2.391-1.187l1.151,1.1A3.845,3.845,0,0,1,19.182-.294,4.774,4.774,0,0,1,17.042.176Zm-.255-8.147a1.8,1.8,0,0,0-1.419.615,3.189,3.189,0,0,0-.69,1.714h4.069V-5.8a2.6,2.6,0,0,0-.571-1.622A1.785,1.785,0,0,0,16.787-7.972ZM27.844-2.584a.968.968,0,0,0-.47-.87,5,5,0,0,0-1.56-.527,8.02,8.02,0,0,1-1.819-.58,2.428,2.428,0,0,1-1.6-2.241,2.531,2.531,0,0,1,1.037-2.057,4.1,4.1,0,0,1,2.637-.826,4.266,4.266,0,0,1,2.755.844,2.677,2.677,0,0,1,1.05,2.188H27.738a1.316,1.316,0,0,0-.457-1.024,1.752,1.752,0,0,0-1.213-.409,1.893,1.893,0,0,0-1.147.325,1.025,1.025,0,0,0-.444.87.866.866,0,0,0,.413.765,5.68,5.68,0,0,0,1.67.549,7.9,7.9,0,0,1,1.973.659A2.794,2.794,0,0,1,29.6-4a2.342,2.342,0,0,1,.347,1.3A2.478,2.478,0,0,1,28.881-.62a4.535,4.535,0,0,1-2.786.8,4.917,4.917,0,0,1-2.083-.422,3.428,3.428,0,0,1-1.424-1.16A2.746,2.746,0,0,1,22.078-3h2.074a1.5,1.5,0,0,0,.571,1.165,2.22,2.22,0,0,0,1.4.409A2.16,2.16,0,0,0,27.4-1.745.993.993,0,0,0,27.844-2.584ZM37.485,0a3.3,3.3,0,0,1-.246-.888,3.325,3.325,0,0,1-2.5,1.063,3.355,3.355,0,0,1-2.338-.817A2.615,2.615,0,0,1,31.5-2.663,2.7,2.7,0,0,1,32.629-5a5.473,5.473,0,0,1,3.23-.813h1.31v-.624a1.666,1.666,0,0,0-.413-1.182A1.638,1.638,0,0,0,35.5-8.06a1.881,1.881,0,0,0-1.2.365,1.129,1.129,0,0,0-.466.927H31.7a2.37,2.37,0,0,1,.519-1.463A3.455,3.455,0,0,1,33.631-9.3a4.955,4.955,0,0,1,1.991-.387,3.99,3.99,0,0,1,2.663.839,2.993,2.993,0,0,1,1.02,2.36V-2.2a4.861,4.861,0,0,0,.36,2.048V0ZM35.139-1.538a2.429,2.429,0,0,0,1.191-.308,2.055,2.055,0,0,0,.839-.826V-4.465H36.018a3.148,3.148,0,0,0-1.784.413,1.338,1.338,0,0,0-.6,1.169,1.248,1.248,0,0,0,.409.98A1.583,1.583,0,0,0,35.139-1.538ZM46.521-7.559a5.285,5.285,0,0,0-.87-.07A1.959,1.959,0,0,0,43.673-6.5V0H41.537V-9.51h2.039l.053,1.063a2.406,2.406,0,0,1,2.145-1.239,2,2,0,0,1,.756.123Zm6.328,0a5.285,5.285,0,0,0-.87-.07A1.959,1.959,0,0,0,50-6.5V0H47.865V-9.51H49.9l.053,1.063A2.406,2.406,0,0,1,52.1-9.686a2,2,0,0,1,.756.123Zm.633,2.716a5.607,5.607,0,0,1,.554-2.518,4.044,4.044,0,0,1,1.556-1.723,4.383,4.383,0,0,1,2.3-.6,4.154,4.154,0,0,1,3.125,1.239,4.874,4.874,0,0,1,1.3,3.287l.009.5a5.658,5.658,0,0,1-.541,2.514A4,4,0,0,1,60.236-.431a4.415,4.415,0,0,1-2.325.606,4.125,4.125,0,0,1-3.221-1.34,5.133,5.133,0,0,1-1.208-3.573Zm2.136.185a3.832,3.832,0,0,0,.606,2.3,1.971,1.971,0,0,0,1.688.831,1.95,1.95,0,0,0,1.683-.844,4.232,4.232,0,0,0,.6-2.47,3.782,3.782,0,0,0-.62-2.285,1.979,1.979,0,0,0-1.683-.844,1.96,1.96,0,0,0-1.661.831A4.152,4.152,0,0,0,55.617-4.658ZM66.4,0H64.266V-13.5H66.4ZM71,0H68.862V-13.5H71Zm1.925-4.843a5.607,5.607,0,0,1,.554-2.518,4.044,4.044,0,0,1,1.556-1.723,4.383,4.383,0,0,1,2.3-.6,4.154,4.154,0,0,1,3.125,1.239,4.874,4.874,0,0,1,1.3,3.287l.009.5a5.658,5.658,0,0,1-.541,2.514A4,4,0,0,1,79.677-.431a4.415,4.415,0,0,1-2.325.606,4.125,4.125,0,0,1-3.221-1.34,5.133,5.133,0,0,1-1.208-3.573Zm2.136.185a3.832,3.832,0,0,0,.606,2.3,1.971,1.971,0,0,0,1.688.831,1.95,1.95,0,0,0,1.683-.844,4.232,4.232,0,0,0,.6-2.47,3.782,3.782,0,0,0-.62-2.285,1.979,1.979,0,0,0-1.683-.844,1.96,1.96,0,0,0-1.661.831A4.152,4.152,0,0,0,75.059-4.658Z" transform="translate(523.086 6346.297)" fill="#12263f"/>
    <path id="Trazado_914331" data-name="Trazado 914331" d="M8.78-5.713H3.524v3.92H9.668V0H1.3V-12.8H9.606V-11H3.524v3.533H8.78ZM16.6-2.584a.968.968,0,0,0-.47-.87,5,5,0,0,0-1.56-.527,8.02,8.02,0,0,1-1.819-.58,2.428,2.428,0,0,1-1.6-2.241A2.531,2.531,0,0,1,12.19-8.859a4.1,4.1,0,0,1,2.637-.826,4.266,4.266,0,0,1,2.755.844,2.677,2.677,0,0,1,1.05,2.188H16.5a1.316,1.316,0,0,0-.457-1.024,1.752,1.752,0,0,0-1.213-.409,1.893,1.893,0,0,0-1.147.325,1.025,1.025,0,0,0-.444.87.866.866,0,0,0,.413.765,5.68,5.68,0,0,0,1.67.549,7.9,7.9,0,0,1,1.973.659A2.794,2.794,0,0,1,18.356-4,2.342,2.342,0,0,1,18.7-2.7,2.478,2.478,0,0,1,17.64-.62a4.535,4.535,0,0,1-2.786.8,4.917,4.917,0,0,1-2.083-.422,3.428,3.428,0,0,1-1.424-1.16A2.746,2.746,0,0,1,10.837-3h2.074a1.5,1.5,0,0,0,.571,1.165,2.22,2.22,0,0,0,1.4.409,2.16,2.16,0,0,0,1.283-.321A.993.993,0,0,0,16.6-2.584Zm6.636-9.237V-9.51h1.679v1.582H23.238v5.309a1.169,1.169,0,0,0,.215.787,1,1,0,0,0,.769.242,3.29,3.29,0,0,0,.747-.088V-.026a5.26,5.26,0,0,1-1.406.2Q21.1.176,21.1-2.54V-7.928H19.538V-9.51H21.1v-2.312ZM32.229,0a3.3,3.3,0,0,1-.246-.888,3.325,3.325,0,0,1-2.5,1.063,3.355,3.355,0,0,1-2.338-.817,2.615,2.615,0,0,1-.905-2.021A2.7,2.7,0,0,1,27.374-5,5.473,5.473,0,0,1,30.6-5.81h1.31v-.624A1.666,1.666,0,0,0,31.5-7.616a1.638,1.638,0,0,0-1.257-.444,1.881,1.881,0,0,0-1.2.365,1.129,1.129,0,0,0-.466.927H26.446a2.37,2.37,0,0,1,.519-1.463A3.455,3.455,0,0,1,28.375-9.3a4.955,4.955,0,0,1,1.991-.387,3.99,3.99,0,0,1,2.663.839,2.993,2.993,0,0,1,1.02,2.36V-2.2a4.861,4.861,0,0,0,.36,2.048V0ZM29.883-1.538a2.429,2.429,0,0,0,1.191-.308,2.055,2.055,0,0,0,.839-.826V-4.465H30.762a3.148,3.148,0,0,0-1.784.413,1.338,1.338,0,0,0-.6,1.169,1.248,1.248,0,0,0,.409.98A1.583,1.583,0,0,0,29.883-1.538ZM38.268-9.51l.062,1.1A3.419,3.419,0,0,1,41.1-9.686q2.971,0,3.023,3.4V0H41.985V-6.161a1.958,1.958,0,0,0-.391-1.34,1.645,1.645,0,0,0-1.279-.435,2.058,2.058,0,0,0-1.925,1.169V0H36.255V-9.51ZM50.2-1.529A1.931,1.931,0,0,0,51.53-2a1.591,1.591,0,0,0,.563-1.151h2.013a3.137,3.137,0,0,1-.554,1.657A3.632,3.632,0,0,1,52.146-.272a4.191,4.191,0,0,1-1.916.448,4.055,4.055,0,0,1-3.164-1.292A5.124,5.124,0,0,1,45.9-4.685V-4.9a5.039,5.039,0,0,1,1.16-3.476,4.018,4.018,0,0,1,3.164-1.305,3.907,3.907,0,0,1,2.764.989,3.542,3.542,0,0,1,1.121,2.6H52.093a1.956,1.956,0,0,0-.558-1.345A1.8,1.8,0,0,0,50.2-7.972a1.879,1.879,0,0,0-1.6.751,3.834,3.834,0,0,0-.571,2.281V-4.6A3.9,3.9,0,0,0,48.59-2.29,1.878,1.878,0,0,0,50.2-1.529ZM61.4,0a3.3,3.3,0,0,1-.246-.888,3.325,3.325,0,0,1-2.5,1.063A3.355,3.355,0,0,1,56.32-.642a2.615,2.615,0,0,1-.905-2.021A2.7,2.7,0,0,1,56.544-5a5.473,5.473,0,0,1,3.23-.813h1.31v-.624a1.666,1.666,0,0,0-.413-1.182,1.638,1.638,0,0,0-1.257-.444,1.881,1.881,0,0,0-1.2.365,1.129,1.129,0,0,0-.466.927H55.617a2.37,2.37,0,0,1,.519-1.463A3.455,3.455,0,0,1,57.546-9.3a4.955,4.955,0,0,1,1.991-.387,3.99,3.99,0,0,1,2.663.839,2.993,2.993,0,0,1,1.02,2.36V-2.2a4.861,4.861,0,0,0,.36,2.048V0ZM59.054-1.538a2.429,2.429,0,0,0,1.191-.308,2.055,2.055,0,0,0,.839-.826V-4.465H59.933a3.148,3.148,0,0,0-1.784.413,1.338,1.338,0,0,0-.6,1.169,1.248,1.248,0,0,0,.409.98A1.583,1.583,0,0,0,59.054-1.538ZM67.465-9.51l.062.993a3.422,3.422,0,0,1,2.742-1.169,2.629,2.629,0,0,1,2.61,1.459A3.373,3.373,0,0,1,75.8-9.686a2.965,2.965,0,0,1,2.342.87,3.831,3.831,0,0,1,.787,2.566V0H76.79V-6.187a1.891,1.891,0,0,0-.4-1.327,1.731,1.731,0,0,0-1.31-.422,1.778,1.778,0,0,0-1.191.391,2.063,2.063,0,0,0-.646,1.024L73.257,0H71.121V-6.258a1.523,1.523,0,0,0-1.714-1.679,1.88,1.88,0,0,0-1.819,1.046V0H65.452V-9.51ZM83.391,0H81.255V-9.51h2.136ZM81.123-11.988a1.147,1.147,0,0,1,.312-.824,1.173,1.173,0,0,1,.892-.328,1.188,1.188,0,0,1,.9.328,1.138,1.138,0,0,1,.316.824,1.112,1.112,0,0,1-.316.811,1.2,1.2,0,0,1-.9.323,1.182,1.182,0,0,1-.892-.323A1.12,1.12,0,0,1,81.123-11.988ZM89.9.176A4.419,4.419,0,0,1,86.612-1.1a4.639,4.639,0,0,1-1.261-3.406v-.264A5.706,5.706,0,0,1,85.9-7.317a4.181,4.181,0,0,1,1.542-1.745,4.078,4.078,0,0,1,2.215-.624,3.733,3.733,0,0,1,3,1.239,5.24,5.24,0,0,1,1.059,3.507v.861H87.5a2.856,2.856,0,0,0,.787,1.863,2.362,2.362,0,0,0,1.736.686,2.892,2.892,0,0,0,2.391-1.187l1.151,1.1A3.845,3.845,0,0,1,92.043-.294,4.774,4.774,0,0,1,89.9.176Zm-.255-8.147a1.8,1.8,0,0,0-1.419.615,3.189,3.189,0,0,0-.69,1.714h4.069V-5.8a2.6,2.6,0,0,0-.571-1.622A1.785,1.785,0,0,0,89.648-7.972ZM97.356-9.51l.062,1.1a3.419,3.419,0,0,1,2.769-1.274q2.971,0,3.023,3.4V0h-2.136V-6.161a1.958,1.958,0,0,0-.391-1.34A1.645,1.645,0,0,0,99.4-7.937a2.058,2.058,0,0,0-1.925,1.169V0H95.344V-9.51Zm10.705-2.312V-9.51h1.679v1.582h-1.679v5.309a1.169,1.169,0,0,0,.215.787,1,1,0,0,0,.769.242,3.29,3.29,0,0,0,.747-.088V-.026a5.26,5.26,0,0,1-1.406.2q-2.461,0-2.461-2.716V-7.928h-1.564V-9.51h1.564v-2.312Zm2.646,6.979a5.607,5.607,0,0,1,.554-2.518,4.044,4.044,0,0,1,1.556-1.723,4.383,4.383,0,0,1,2.3-.6,4.154,4.154,0,0,1,3.125,1.239,4.874,4.874,0,0,1,1.3,3.287l.009.5a5.658,5.658,0,0,1-.541,2.514,4,4,0,0,1-1.547,1.714,4.415,4.415,0,0,1-2.325.606,4.125,4.125,0,0,1-3.221-1.34,5.133,5.133,0,0,1-1.208-3.573Zm2.136.185a3.832,3.832,0,0,0,.606,2.3,1.971,1.971,0,0,0,1.688.831,1.95,1.95,0,0,0,1.683-.844,4.232,4.232,0,0,0,.6-2.47,3.782,3.782,0,0,0-.62-2.285,1.979,1.979,0,0,0-1.683-.844,1.96,1.96,0,0,0-1.661.831A4.152,4.152,0,0,0,112.843-4.658Z" transform="translate(546.891 6250.334)" fill="#12263f"/>
    <path id="Trazado_913243" data-name="Trazado 913243" d="M23.295,0V23.295H0Z" transform="translate(301.472 6217.944) rotate(-135)" fill="#32799d"/>
    <path id="Trazado_914314" data-name="Trazado 914314" d="M23.295,0V23.295H0Z" transform="translate(862.056 6541.188) rotate(-45)" fill="#32799d"/>
    <path id="Trazado_914312" data-name="Trazado 914312" d="M-1381.908-5325.357v354.4" transform="translate(1683.38 11514.023)" fill="none" stroke="#32799d" stroke-width="5"/>
    <path id="Trazado_914313" data-name="Trazado 914313" d="M0,0V584.953" transform="translate(885.302 6541.188) rotate(90)" fill="none" stroke="#32799d" stroke-width="5"/>
    <path id="Trazado_914315" data-name="Trazado 914315" d="M-1379.478-5004.468l124.468-.107,64.265-64.265v-102.027l118.851-52.352h102.745" transform="translate(1682.758 11510.927)" fill="none" stroke="#4aafe3" stroke-width="5"/>
    <g id="Trazado_914332" data-name="Trazado 914332" transform="translate(408.526 6487.98)" fill="#94b10b">
      <path d="M 18.22561073303223 33.95122146606445 C 14.02515029907227 33.95122146606445 10.07610034942627 32.31547164916992 7.105920791625977 29.34530067443848 C 4.135750770568848 26.37512016296387 2.500000715255737 22.42607116699219 2.500000715255737 18.22561073303223 C 2.500000715255737 14.02515029907227 4.135750770568848 10.07610034942627 7.105920791625977 7.105920791625977 C 10.07610034942627 4.135750770568848 14.02515029907227 2.500000715255737 18.22561073303223 2.500000715255737 C 22.42607116699219 2.500000715255737 26.37512016296387 4.135750770568848 29.34530067443848 7.105920791625977 C 32.31547164916992 10.07610034942627 33.95122146606445 14.02515029907227 33.95122146606445 18.22561073303223 C 33.95122146606445 22.42607116699219 32.31547164916992 26.37512016296387 29.34530067443848 29.34530067443848 C 26.37512016296387 32.31547164916992 22.42607116699219 33.95122146606445 18.22561073303223 33.95122146606445 Z" stroke="none"/>
      <path d="M 18.22561073303223 5 C 14.69292068481445 5 11.37168121337891 6.375699996948242 8.873691558837891 8.873691558837891 C 6.375699996948242 11.37168121337891 5 14.69292068481445 5 18.22561073303223 C 5 21.75830078125 6.375699996948242 25.07954025268555 8.873691558837891 27.57752990722656 C 11.37168121337891 30.07551956176758 14.69292068481445 31.45122146606445 18.22561073303223 31.45122146606445 C 21.75830078125 31.45122146606445 25.07954025268555 30.07551956176758 27.57752990722656 27.57752990722656 C 30.07551956176758 25.07954025268555 31.45122146606445 21.75830078125 31.45122146606445 18.22561073303223 C 31.45122146606445 14.69292068481445 30.07551956176758 11.37168121337891 27.57752990722656 8.873691558837891 C 25.07954025268555 6.375699996948242 21.75830078125 5 18.22561073303223 5 M 18.22561073303223 0 C 28.29133987426758 0 36.45122146606445 8.159881591796875 36.45122146606445 18.22561073303223 C 36.45122146606445 28.29133987426758 28.29133987426758 36.45122146606445 18.22561073303223 36.45122146606445 C 8.159881591796875 36.45122146606445 0 28.29133987426758 0 18.22561073303223 C 0 8.159881591796875 8.159881591796875 0 18.22561073303223 0 Z" stroke="none" fill="#667b07"/>
    </g>
    <g id="Trazado_914333" data-name="Trazado 914333" transform="translate(473.245 6424.749)" fill="#94b10b">
      <path d="M 18.22561073303223 33.95122146606445 C 14.02515029907227 33.95122146606445 10.07610034942627 32.31547164916992 7.105920791625977 29.34530067443848 C 4.135750770568848 26.37512016296387 2.500000715255737 22.42607116699219 2.500000715255737 18.22561073303223 C 2.500000715255737 14.02515029907227 4.135750770568848 10.07610034942627 7.105920791625977 7.105920791625977 C 10.07610034942627 4.135750770568848 14.02515029907227 2.500000715255737 18.22561073303223 2.500000715255737 C 22.42607116699219 2.500000715255737 26.37512016296387 4.135750770568848 29.34530067443848 7.105920791625977 C 32.31547164916992 10.07610034942627 33.95122146606445 14.02515029907227 33.95122146606445 18.22561073303223 C 33.95122146606445 22.42607116699219 32.31547164916992 26.37512016296387 29.34530067443848 29.34530067443848 C 26.37512016296387 32.31547164916992 22.42607116699219 33.95122146606445 18.22561073303223 33.95122146606445 Z" stroke="none"/>
      <path d="M 18.22561073303223 5 C 14.69292068481445 5 11.37168121337891 6.375699996948242 8.873691558837891 8.873691558837891 C 6.375699996948242 11.37168121337891 5 14.69292068481445 5 18.22561073303223 C 5 21.75830078125 6.375699996948242 25.07954025268555 8.873691558837891 27.57752990722656 C 11.37168121337891 30.07551956176758 14.69292068481445 31.45122146606445 18.22561073303223 31.45122146606445 C 21.75830078125 31.45122146606445 25.07954025268555 30.07551956176758 27.57752990722656 27.57752990722656 C 30.07551956176758 25.07954025268555 31.45122146606445 21.75830078125 31.45122146606445 18.22561073303223 C 31.45122146606445 14.69292068481445 30.07551956176758 11.37168121337891 27.57752990722656 8.873691558837891 C 25.07954025268555 6.375699996948242 21.75830078125 5 18.22561073303223 5 M 18.22561073303223 0 C 28.29133987426758 0 36.45122146606445 8.159881591796875 36.45122146606445 18.22561073303223 C 36.45122146606445 28.29133987426758 28.29133987426758 36.45122146606445 18.22561073303223 36.45122146606445 C 8.159881591796875 36.45122146606445 0 28.29133987426758 0 18.22561073303223 C 0 8.159881591796875 8.159881591796875 0 18.22561073303223 0 Z" stroke="none" fill="#667b07"/>
    </g>
    <g id="Trazado_914334" data-name="Trazado 914334" transform="translate(473.245 6321.346)" fill="#94b10b">
      <path d="M 18.22561073303223 33.95122146606445 C 14.02515029907227 33.95122146606445 10.07610034942627 32.31547164916992 7.105920791625977 29.34530067443848 C 4.135750770568848 26.37512016296387 2.500000715255737 22.42607116699219 2.500000715255737 18.22561073303223 C 2.500000715255737 14.02515029907227 4.135750770568848 10.07610034942627 7.105920791625977 7.105920791625977 C 10.07610034942627 4.135750770568848 14.02515029907227 2.500000715255737 18.22561073303223 2.500000715255737 C 22.42607116699219 2.500000715255737 26.37512016296387 4.135750770568848 29.34530067443848 7.105920791625977 C 32.31547164916992 10.07610034942627 33.95122146606445 14.02515029907227 33.95122146606445 18.22561073303223 C 33.95122146606445 22.42607116699219 32.31547164916992 26.37512016296387 29.34530067443848 29.34530067443848 C 26.37512016296387 32.31547164916992 22.42607116699219 33.95122146606445 18.22561073303223 33.95122146606445 Z" stroke="none"/>
      <path d="M 18.22561073303223 5 C 14.69292068481445 5 11.37168121337891 6.375699996948242 8.873691558837891 8.873691558837891 C 6.375699996948242 11.37168121337891 5 14.69292068481445 5 18.22561073303223 C 5 21.75830078125 6.375699996948242 25.07954025268555 8.873691558837891 27.57752990722656 C 11.37168121337891 30.07551956176758 14.69292068481445 31.45122146606445 18.22561073303223 31.45122146606445 C 21.75830078125 31.45122146606445 25.07954025268555 30.07551956176758 27.57752990722656 27.57752990722656 C 30.07551956176758 25.07954025268555 31.45122146606445 21.75830078125 31.45122146606445 18.22561073303223 C 31.45122146606445 14.69292068481445 30.07551956176758 11.37168121337891 27.57752990722656 8.873691558837891 C 25.07954025268555 6.375699996948242 21.75830078125 5 18.22561073303223 5 M 18.22561073303223 0 C 28.29133987426758 0 36.45122146606445 8.159881591796875 36.45122146606445 18.22561073303223 C 36.45122146606445 28.29133987426758 28.29133987426758 36.45122146606445 18.22561073303223 36.45122146606445 C 8.159881591796875 36.45122146606445 0 28.29133987426758 0 18.22561073303223 C 0 8.159881591796875 8.159881591796875 0 18.22561073303223 0 Z" stroke="none" fill="#667b07"/>
    </g>
    <g id="Trazado_914335" data-name="Trazado 914335" transform="translate(590.038 6268.529)" fill="#94b10b">
      <path d="M 18.22561073303223 33.95122146606445 C 14.02515029907227 33.95122146606445 10.07610034942627 32.31547164916992 7.105920791625977 29.34530067443848 C 4.135750770568848 26.37512016296387 2.500000715255737 22.42607116699219 2.500000715255737 18.22561073303223 C 2.500000715255737 14.02515029907227 4.135750770568848 10.07610034942627 7.105920791625977 7.105920791625977 C 10.07610034942627 4.135750770568848 14.02515029907227 2.500000715255737 18.22561073303223 2.500000715255737 C 22.42607116699219 2.500000715255737 26.37512016296387 4.135750770568848 29.34530067443848 7.105920791625977 C 32.31547164916992 10.07610034942627 33.95122146606445 14.02515029907227 33.95122146606445 18.22561073303223 C 33.95122146606445 22.42607116699219 32.31547164916992 26.37512016296387 29.34530067443848 29.34530067443848 C 26.37512016296387 32.31547164916992 22.42607116699219 33.95122146606445 18.22561073303223 33.95122146606445 Z" stroke="none"/>
      <path d="M 18.22561073303223 5 C 14.69292068481445 5 11.37168121337891 6.375699996948242 8.873691558837891 8.873691558837891 C 6.375699996948242 11.37168121337891 5 14.69292068481445 5 18.22561073303223 C 5 21.75830078125 6.375699996948242 25.07954025268555 8.873691558837891 27.57752990722656 C 11.37168121337891 30.07551956176758 14.69292068481445 31.45122146606445 18.22561073303223 31.45122146606445 C 21.75830078125 31.45122146606445 25.07954025268555 30.07551956176758 27.57752990722656 27.57752990722656 C 30.07551956176758 25.07954025268555 31.45122146606445 21.75830078125 31.45122146606445 18.22561073303223 C 31.45122146606445 14.69292068481445 30.07551956176758 11.37168121337891 27.57752990722656 8.873691558837891 C 25.07954025268555 6.375699996948242 21.75830078125 5 18.22561073303223 5 M 18.22561073303223 0 C 28.29133987426758 0 36.45122146606445 8.159881591796875 36.45122146606445 18.22561073303223 C 36.45122146606445 28.29133987426758 28.29133987426758 36.45122146606445 18.22561073303223 36.45122146606445 C 8.159881591796875 36.45122146606445 0 28.29133987426758 0 18.22561073303223 C 0 8.159881591796875 8.159881591796875 0 18.22561073303223 0 Z" stroke="none" fill="#667b07"/>
    </g>
    <path id="Trazado_914316" data-name="Trazado 914316" d="M-693.9-5361.285l-51.066,51.066" transform="translate(1412.324 11598.161)" fill="none" stroke="#4aafe3" stroke-width="5"/>
    <path id="Trazado_914317" data-name="Trazado 914317" d="M-693.9-5310.219l-51.066-51.066" transform="translate(1412.324 11648.04)" fill="none" stroke="#4aafe3" stroke-width="5"/>
    <g id="Trazado_914336" data-name="Trazado 914336" transform="translate(700.135 6218.688)" fill="#f37e29">
      <path d="M 18.22561073303223 33.95122146606445 C 14.02515029907227 33.95122146606445 10.07610034942627 32.31547164916992 7.105920791625977 29.34530067443848 C 4.135750770568848 26.37512016296387 2.500000715255737 22.42607116699219 2.500000715255737 18.22561073303223 C 2.500000715255737 14.02515029907227 4.135750770568848 10.07610034942627 7.105920791625977 7.105920791625977 C 10.07610034942627 4.135750770568848 14.02515029907227 2.500000715255737 18.22561073303223 2.500000715255737 C 22.42607116699219 2.500000715255737 26.37512016296387 4.135750770568848 29.34530067443848 7.105920791625977 C 32.31547164916992 10.07610034942627 33.95122146606445 14.02515029907227 33.95122146606445 18.22561073303223 C 33.95122146606445 22.42607116699219 32.31547164916992 26.37512016296387 29.34530067443848 29.34530067443848 C 26.37512016296387 32.31547164916992 22.42607116699219 33.95122146606445 18.22561073303223 33.95122146606445 Z" stroke="none"/>
      <path d="M 18.22561073303223 5 C 14.69292068481445 5 11.37168121337891 6.375699996948242 8.873691558837891 8.873691558837891 C 6.375699996948242 11.37168121337891 5 14.69292068481445 5 18.22561073303223 C 5 21.75830078125 6.375699996948242 25.07954025268555 8.873691558837891 27.57752990722656 C 11.37168121337891 30.07551956176758 14.69292068481445 31.45122146606445 18.22561073303223 31.45122146606445 C 21.75830078125 31.45122146606445 25.07954025268555 30.07551956176758 27.57752990722656 27.57752990722656 C 30.07551956176758 25.07954025268555 31.45122146606445 21.75830078125 31.45122146606445 18.22561073303223 C 31.45122146606445 14.69292068481445 30.07551956176758 11.37168121337891 27.57752990722656 8.873691558837891 C 25.07954025268555 6.375699996948242 21.75830078125 5 18.22561073303223 5 M 18.22561073303223 0 C 28.29133987426758 0 36.45122146606445 8.159881591796875 36.45122146606445 18.22561073303223 C 36.45122146606445 28.29133987426758 28.29133987426758 36.45122146606445 18.22561073303223 36.45122146606445 C 8.159881591796875 36.45122146606445 0 28.29133987426758 0 18.22561073303223 C 0 8.159881591796875 8.159881591796875 0 18.22561073303223 0 Z" stroke="none" fill="#a8571c"/>
    </g>
    <g id="Trazado_914337" data-name="Trazado 914337" transform="translate(700.135 6268.529)" fill="#f37e29">
      <path d="M 18.22561073303223 33.95122146606445 C 14.02515029907227 33.95122146606445 10.07610034942627 32.31547164916992 7.105920791625977 29.34530067443848 C 4.135750770568848 26.37512016296387 2.500000715255737 22.42607116699219 2.500000715255737 18.22561073303223 C 2.500000715255737 14.02515029907227 4.135750770568848 10.07610034942627 7.105920791625977 7.105920791625977 C 10.07610034942627 4.135750770568848 14.02515029907227 2.500000715255737 18.22561073303223 2.500000715255737 C 22.42607116699219 2.500000715255737 26.37512016296387 4.135750770568848 29.34530067443848 7.105920791625977 C 32.31547164916992 10.07610034942627 33.95122146606445 14.02515029907227 33.95122146606445 18.22561073303223 C 33.95122146606445 22.42607116699219 32.31547164916992 26.37512016296387 29.34530067443848 29.34530067443848 C 26.37512016296387 32.31547164916992 22.42607116699219 33.95122146606445 18.22561073303223 33.95122146606445 Z" stroke="none"/>
      <path d="M 18.22561073303223 5 C 14.69292068481445 5 11.37168121337891 6.375699996948242 8.873691558837891 8.873691558837891 C 6.375699996948242 11.37168121337891 5 14.69292068481445 5 18.22561073303223 C 5 21.75830078125 6.375699996948242 25.07954025268555 8.873691558837891 27.57752990722656 C 11.37168121337891 30.07551956176758 14.69292068481445 31.45122146606445 18.22561073303223 31.45122146606445 C 21.75830078125 31.45122146606445 25.07954025268555 30.07551956176758 27.57752990722656 27.57752990722656 C 30.07551956176758 25.07954025268555 31.45122146606445 21.75830078125 31.45122146606445 18.22561073303223 C 31.45122146606445 14.69292068481445 30.07551956176758 11.37168121337891 27.57752990722656 8.873691558837891 C 25.07954025268555 6.375699996948242 21.75830078125 5 18.22561073303223 5 M 18.22561073303223 0 C 28.29133987426758 0 36.45122146606445 8.159881591796875 36.45122146606445 18.22561073303223 C 36.45122146606445 28.29133987426758 28.29133987426758 36.45122146606445 18.22561073303223 36.45122146606445 C 8.159881591796875 36.45122146606445 0 28.29133987426758 0 18.22561073303223 C 0 8.159881591796875 8.159881591796875 0 18.22561073303223 0 Z" stroke="none" fill="#a8571c"/>
    </g>
    <g id="Trazado_914338" data-name="Trazado 914338" transform="translate(700.135 6319.858)" fill="#f37e29">
      <path d="M 18.22561073303223 33.95122146606445 C 14.02515029907227 33.95122146606445 10.07610034942627 32.31547164916992 7.105920791625977 29.34530067443848 C 4.135750770568848 26.37512016296387 2.500000715255737 22.42607116699219 2.500000715255737 18.22561073303223 C 2.500000715255737 14.02515029907227 4.135750770568848 10.07610034942627 7.105920791625977 7.105920791625977 C 10.07610034942627 4.135750770568848 14.02515029907227 2.500000715255737 18.22561073303223 2.500000715255737 C 22.42607116699219 2.500000715255737 26.37512016296387 4.135750770568848 29.34530067443848 7.105920791625977 C 32.31547164916992 10.07610034942627 33.95122146606445 14.02515029907227 33.95122146606445 18.22561073303223 C 33.95122146606445 22.42607116699219 32.31547164916992 26.37512016296387 29.34530067443848 29.34530067443848 C 26.37512016296387 32.31547164916992 22.42607116699219 33.95122146606445 18.22561073303223 33.95122146606445 Z" stroke="none"/>
      <path d="M 18.22561073303223 5 C 14.69292068481445 5 11.37168121337891 6.375699996948242 8.873691558837891 8.873691558837891 C 6.375699996948242 11.37168121337891 5 14.69292068481445 5 18.22561073303223 C 5 21.75830078125 6.375699996948242 25.07954025268555 8.873691558837891 27.57752990722656 C 11.37168121337891 30.07551956176758 14.69292068481445 31.45122146606445 18.22561073303223 31.45122146606445 C 21.75830078125 31.45122146606445 25.07954025268555 30.07551956176758 27.57752990722656 27.57752990722656 C 30.07551956176758 25.07954025268555 31.45122146606445 21.75830078125 31.45122146606445 18.22561073303223 C 31.45122146606445 14.69292068481445 30.07551956176758 11.37168121337891 27.57752990722656 8.873691558837891 C 25.07954025268555 6.375699996948242 21.75830078125 5 18.22561073303223 5 M 18.22561073303223 0 C 28.29133987426758 0 36.45122146606445 8.159881591796875 36.45122146606445 18.22561073303223 C 36.45122146606445 28.29133987426758 28.29133987426758 36.45122146606445 18.22561073303223 36.45122146606445 C 8.159881591796875 36.45122146606445 0 28.29133987426758 0 18.22561073303223 C 0 8.159881591796875 8.159881591796875 0 18.22561073303223 0 Z" stroke="none" fill="#a8571c"/>
    </g>
    <g id="Trazado_914339" data-name="Trazado 914339" transform="translate(660.708 6397.224)" fill="#4aafe3">
      <path d="M 188.8536529541016 90.256103515625 L 12.00000953674316 90.256103515625 C 8.928234100341797 90.256103515625 6.040334224700928 89.05989837646484 3.868284225463867 86.88782501220703 C 1.696209073066711 84.71577453613281 0.5000091195106506 81.82787322998047 0.5000091195106506 78.756103515625 L 0.5000091195106506 12.00000190734863 C 0.5000091195106506 8.928226470947266 1.696209073066711 6.040326595306396 3.868284225463867 3.868276834487915 C 6.040334224700928 1.696201801300049 8.928234100341797 0.5000017285346985 12.00000953674316 0.5000017285346985 L 188.8536529541016 0.5000017285346985 C 191.9254302978516 0.5000017285346985 194.8133392333984 1.696201801300049 196.9853820800781 3.868276834487915 C 199.1574554443359 6.040326595306396 200.3536529541016 8.928226470947266 200.3536529541016 12.00000190734863 L 200.3536529541016 78.756103515625 C 200.3536529541016 81.82787322998047 199.1574554443359 84.71577453613281 196.9853820800781 86.88782501220703 C 194.8133392333984 89.05989837646484 191.9254302978516 90.256103515625 188.8536529541016 90.256103515625 Z" stroke="none"/>
      <path d="M 11.99998474121094 1 C 9.061782836914062 1 6.299468994140625 2.144210815429688 4.221832275390625 4.221817016601562 C 2.144195556640625 6.299446105957031 0.9999847412109375 9.061790466308594 0.9999847412109375 12 L 0.9999847412109375 78.756103515625 C 0.9999847412109375 81.69431304931641 2.144195556640625 84.45665740966797 4.221832275390625 86.53428649902344 C 6.299468994140625 88.61189270019531 9.061782836914062 89.756103515625 11.99998474121094 89.756103515625 L 188.8536682128906 89.756103515625 C 191.7918853759766 89.756103515625 194.55419921875 88.61189270019531 196.6318359375 86.53428649902344 C 198.70947265625 84.45665740966797 199.8536834716797 81.69431304931641 199.8536834716797 78.756103515625 L 199.8536834716797 12 C 199.8536834716797 9.061790466308594 198.70947265625 6.299446105957031 196.6318359375 4.221817016601562 C 194.55419921875 2.144210815429688 191.7918853759766 1 188.8536682128906 1 L 11.99998474121094 1 M 11.99998474121094 0 L 188.8536682128906 0 C 195.4810638427734 0 200.8536834716797 5.372581481933594 200.8536834716797 12 L 200.8536834716797 78.756103515625 C 200.8536834716797 85.38352203369141 195.4810638427734 90.756103515625 188.8536682128906 90.756103515625 L 11.99998474121094 90.756103515625 C 5.372604370117188 90.756103515625 -1.52587890625e-05 85.38352203369141 -1.52587890625e-05 78.756103515625 L -1.52587890625e-05 12 C -1.52587890625e-05 5.372581481933594 5.372604370117188 0 11.99998474121094 0 Z" stroke="none" fill="#245670"/>
    </g>
    <path id="Trazado_914340" data-name="Trazado 914340" d="M-54.006-5.684a6.038,6.038,0,0,1-2.033,4.336A7.141,7.141,0,0,1-60.873.234a6.421,6.421,0,0,1-5.162-2.209,9.058,9.058,0,0,1-1.881-6.064V-9.082a10.228,10.228,0,0,1,.867-4.336,6.5,6.5,0,0,1,2.479-2.877,6.943,6.943,0,0,1,3.744-1,6.956,6.956,0,0,1,4.758,1.582,6.488,6.488,0,0,1,2.086,4.441H-57.5a3.563,3.563,0,0,0-.92-2.4,3.407,3.407,0,0,0-2.408-.744,2.987,2.987,0,0,0-2.631,1.26,7.06,7.06,0,0,0-.9,3.908v1.289a7.556,7.556,0,0,0,.838,4.043,2.932,2.932,0,0,0,2.643,1.277,3.471,3.471,0,0,0,2.432-.744,3.361,3.361,0,0,0,.92-2.3ZM-48.346,0h-3.4V-12.68h3.4Zm-3.6-15.961a1.668,1.668,0,0,1,.51-1.254,1.915,1.915,0,0,1,1.389-.492,1.919,1.919,0,0,1,1.383.492,1.658,1.658,0,0,1,.516,1.254,1.663,1.663,0,0,1-.521,1.266,1.924,1.924,0,0,1-1.377.492,1.924,1.924,0,0,1-1.377-.492A1.663,1.663,0,0,1-51.943-15.961ZM-40.283-2.5a2.221,2.221,0,0,0,1.523-.516,1.807,1.807,0,0,0,.609-1.371h3.176a4.344,4.344,0,0,1-.7,2.361A4.64,4.64,0,0,1-37.57-.357a5.923,5.923,0,0,1-2.654.592,5.5,5.5,0,0,1-4.289-1.729,6.84,6.84,0,0,1-1.57-4.775v-.223a6.762,6.762,0,0,1,1.559-4.676,5.441,5.441,0,0,1,4.277-1.746,5.333,5.333,0,0,1,3.814,1.354,4.792,4.792,0,0,1,1.459,3.6H-38.15a2.327,2.327,0,0,0-.609-1.608,2.032,2.032,0,0,0-1.547-.619,2.04,2.04,0,0,0-1.787.863,5,5,0,0,0-.6,2.8v.352a5.063,5.063,0,0,0,.6,2.817A2.065,2.065,0,0,0-40.283-2.5ZM-29.467,0h-3.4V-18h3.4Zm2.262-6.457a7.52,7.52,0,0,1,.727-3.363,5.319,5.319,0,0,1,2.092-2.285,6.1,6.1,0,0,1,3.17-.809,5.774,5.774,0,0,1,4.189,1.57,6.3,6.3,0,0,1,1.811,4.266l.023.867a6.627,6.627,0,0,1-1.629,4.682A5.662,5.662,0,0,1-21.193.234,5.69,5.69,0,0,1-25.57-1.523,6.744,6.744,0,0,1-27.205-6.3Zm3.387.24a4.74,4.74,0,0,0,.68,2.764,2.242,2.242,0,0,0,1.945.957,2.247,2.247,0,0,0,1.922-.945,5.186,5.186,0,0,0,.691-3.022,4.692,4.692,0,0,0-.691-2.746,2.248,2.248,0,0,0-1.945-.974,2.211,2.211,0,0,0-1.922.968A5.274,5.274,0,0,0-23.818-6.217Zm16.16-.217a7.641,7.641,0,0,1,1.33-4.723,4.316,4.316,0,0,1,3.639-1.758A3.884,3.884,0,0,1,.369-11.531V-18h3.4V0H.709L.545-1.348A3.985,3.985,0,0,1-2.713.234,4.3,4.3,0,0,1-6.3-1.529,7.887,7.887,0,0,1-7.658-6.434Zm3.387.241A5.033,5.033,0,0,0-3.65-3.45a2.022,2.022,0,0,0,1.8.954A2.265,2.265,0,0,0,.369-3.826V-8.853a2.233,2.233,0,0,0-2.191-1.33Q-4.271-10.184-4.271-6.193ZM12.229.234A6.225,6.225,0,0,1,7.688-1.477,6.082,6.082,0,0,1,5.936-6.035v-.328a7.66,7.66,0,0,1,.738-3.416A5.418,5.418,0,0,1,8.766-12.1a5.871,5.871,0,0,1,3.088-.814,5.262,5.262,0,0,1,4.1,1.641,6.667,6.667,0,0,1,1.494,4.652v1.383H9.369a3.146,3.146,0,0,0,.99,1.992,2.993,2.993,0,0,0,2.092.75A3.656,3.656,0,0,0,15.51-3.914l1.664,1.863A5.084,5.084,0,0,1,15.111-.369,6.767,6.767,0,0,1,12.229.234Zm-.387-10.418a2.116,2.116,0,0,0-1.635.683,3.535,3.535,0,0,0-.8,1.954h4.711v-.271a2.521,2.521,0,0,0-.609-1.748A2.183,2.183,0,0,0,11.842-10.184ZM30.088-4.137l2.355-8.543h3.539L31.705,0H28.471L24.193-12.68h3.539ZM41.045,0h-3.4V-12.68h3.4Zm-3.6-15.961a1.668,1.668,0,0,1,.51-1.254,1.915,1.915,0,0,1,1.389-.492,1.919,1.919,0,0,1,1.383.492,1.658,1.658,0,0,1,.516,1.254,1.663,1.663,0,0,1-.521,1.266,1.924,1.924,0,0,1-1.377.492,1.924,1.924,0,0,1-1.377-.492A1.663,1.663,0,0,1,37.447-15.961Zm5.859,9.527a7.641,7.641,0,0,1,1.33-4.723,4.316,4.316,0,0,1,3.639-1.758,3.884,3.884,0,0,1,3.059,1.383V-18h3.4V0H51.674L51.51-1.348A3.985,3.985,0,0,1,48.252.234,4.3,4.3,0,0,1,44.66-1.529,7.887,7.887,0,0,1,43.307-6.434Zm3.387.241a5.033,5.033,0,0,0,.621,2.743,2.022,2.022,0,0,0,1.8.954,2.265,2.265,0,0,0,2.215-1.33V-8.853a2.233,2.233,0,0,0-2.191-1.33Q46.693-10.184,46.693-6.193ZM64.705,0a3.761,3.761,0,0,1-.34-1.137,4.1,4.1,0,0,1-3.2,1.371A4.5,4.5,0,0,1,58.078-.844a3.467,3.467,0,0,1-1.225-2.719,3.583,3.583,0,0,1,1.494-3.094,7.373,7.373,0,0,1,4.318-1.09h1.559v-.727a2.089,2.089,0,0,0-.451-1.406,1.775,1.775,0,0,0-1.424-.527,2.018,2.018,0,0,0-1.342.41,1.393,1.393,0,0,0-.486,1.125H57.135a3.4,3.4,0,0,1,.68-2.039,4.493,4.493,0,0,1,1.922-1.471,7,7,0,0,1,2.789-.533,5.534,5.534,0,0,1,3.721,1.178,4.12,4.12,0,0,1,1.377,3.311v5.5a6.062,6.062,0,0,0,.5,2.73V0ZM61.9-2.355a2.917,2.917,0,0,0,1.383-.334,2.194,2.194,0,0,0,.938-.9v-2.18H62.959q-2.543,0-2.707,1.758l-.012.2a1.356,1.356,0,0,0,.445,1.043A1.73,1.73,0,0,0,61.9-2.355ZM-72.047,19.566a7.641,7.641,0,0,1,1.33-4.723,4.316,4.316,0,0,1,3.639-1.758,3.884,3.884,0,0,1,3.059,1.383V8h3.4V26H-63.68l-.164-1.348A3.985,3.985,0,0,1-67.1,26.234a4.3,4.3,0,0,1-3.592-1.764A7.887,7.887,0,0,1-72.047,19.566Zm3.387.241a5.033,5.033,0,0,0,.621,2.743,2.022,2.022,0,0,0,1.8.954,2.265,2.265,0,0,0,2.215-1.33V17.147a2.233,2.233,0,0,0-2.191-1.33Q-68.66,15.816-68.66,19.807Zm16.5,6.427A6.225,6.225,0,0,1-56.7,24.523a6.082,6.082,0,0,1-1.752-4.559v-.328a7.66,7.66,0,0,1,.738-3.416,5.418,5.418,0,0,1,2.092-2.32,5.871,5.871,0,0,1,3.088-.814,5.262,5.262,0,0,1,4.1,1.641,6.667,6.667,0,0,1,1.494,4.652v1.383H-55.02a3.146,3.146,0,0,0,.99,1.992,2.993,2.993,0,0,0,2.092.75,3.656,3.656,0,0,0,3.059-1.418l1.664,1.863a5.084,5.084,0,0,1-2.062,1.682A6.767,6.767,0,0,1-52.16,26.234Zm-.387-10.418a2.116,2.116,0,0,0-1.635.683,3.535,3.535,0,0,0-.8,1.954h4.711v-.271a2.521,2.521,0,0,0-.609-1.748A2.183,2.183,0,0,0-52.547,15.816Zm21.094,8.895a4.247,4.247,0,0,1-3.469,1.523,4.005,4.005,0,0,1-3.111-1.172,5,5,0,0,1-1.1-3.434V13.32h3.387v8.2q0,1.983,1.8,1.983a2.445,2.445,0,0,0,2.367-1.2V13.32h3.4V26h-3.187ZM-22.5,13.32l.105,1.465a4.427,4.427,0,0,1,3.645-1.7,3.679,3.679,0,0,1,3,1.184,5.522,5.522,0,0,1,1.008,3.539V26h-3.387V17.872A2.206,2.206,0,0,0-18.6,16.3a2.1,2.1,0,0,0-1.559-.487A2.329,2.329,0,0,0-22.3,17.038V26h-3.387V13.32Zm15.773,6.246A7.641,7.641,0,0,1-5.4,14.844a4.316,4.316,0,0,1,3.639-1.758A3.884,3.884,0,0,1,1.3,14.469V8H4.7V26H1.641l-.164-1.348a3.985,3.985,0,0,1-3.258,1.582,4.3,4.3,0,0,1-3.592-1.764A7.887,7.887,0,0,1-6.727,19.566Zm3.387.241a5.033,5.033,0,0,0,.621,2.743,2.022,2.022,0,0,0,1.8.954A2.265,2.265,0,0,0,1.3,22.174V17.147a2.233,2.233,0,0,0-2.191-1.33Q-3.34,15.816-3.34,19.807Zm16.5,6.427a6.225,6.225,0,0,1-4.541-1.711,6.082,6.082,0,0,1-1.752-4.559v-.328a7.66,7.66,0,0,1,.738-3.416A5.418,5.418,0,0,1,9.7,13.9a5.871,5.871,0,0,1,3.088-.814,5.262,5.262,0,0,1,4.1,1.641,6.667,6.667,0,0,1,1.494,4.652v1.383H10.3a3.146,3.146,0,0,0,.99,1.992,2.993,2.993,0,0,0,2.092.75,3.656,3.656,0,0,0,3.059-1.418l1.664,1.863a5.084,5.084,0,0,1-2.062,1.682A6.767,6.767,0,0,1,13.16,26.234Zm-.387-10.418a2.116,2.116,0,0,0-1.635.683,3.535,3.535,0,0,0-.8,1.954h4.711v-.271a2.521,2.521,0,0,0-.609-1.748A2.183,2.183,0,0,0,12.773,15.816ZM27.164,22.5a1.091,1.091,0,0,0-.615-.979,6.989,6.989,0,0,0-1.975-.639q-4.523-.949-4.523-3.844a3.484,3.484,0,0,1,1.4-2.818,5.649,5.649,0,0,1,3.662-1.131,6.08,6.08,0,0,1,3.861,1.137,3.582,3.582,0,0,1,1.447,2.953H27.035a1.639,1.639,0,0,0-.469-1.2A1.984,1.984,0,0,0,25.1,15.5a2.027,2.027,0,0,0-1.324.387,1.221,1.221,0,0,0-.469.984,1.044,1.044,0,0,0,.533.908,5.485,5.485,0,0,0,1.8.6,14.692,14.692,0,0,1,2.133.568q2.684.984,2.684,3.41a3.308,3.308,0,0,1-1.488,2.807,6.42,6.42,0,0,1-3.844,1.072,6.706,6.706,0,0,1-2.83-.568,4.748,4.748,0,0,1-1.939-1.559,3.621,3.621,0,0,1-.7-2.139h3.211a1.768,1.768,0,0,0,.668,1.383,2.649,2.649,0,0,0,1.664.48,2.452,2.452,0,0,0,1.471-.369A1.149,1.149,0,0,0,27.164,22.5ZM36.691,10.2V13.32h2.168V15.8H36.691v6.328a1.511,1.511,0,0,0,.27,1.008,1.354,1.354,0,0,0,1.031.3,5.4,5.4,0,0,0,1-.082V25.93a6.972,6.972,0,0,1-2.051.3q-3.562,0-3.633-3.6V15.8H31.453V13.32H33.3V10.2ZM44.32,26h-3.4V13.32h3.4Zm-3.6-15.961a1.668,1.668,0,0,1,.51-1.254,2.2,2.2,0,0,1,2.771,0,1.658,1.658,0,0,1,.516,1.254A1.663,1.663,0,0,1,44,11.3a2.172,2.172,0,0,1-2.754,0A1.663,1.663,0,0,1,40.723,10.039Zm9.5,3.281.105,1.465a4.427,4.427,0,0,1,3.645-1.7,3.679,3.679,0,0,1,3,1.184,5.522,5.522,0,0,1,1.008,3.539V26H54.6V17.872a2.206,2.206,0,0,0-.469-1.568,2.1,2.1,0,0,0-1.559-.487,2.329,2.329,0,0,0-2.145,1.221V26H47.039V13.32Zm9.8,6.223a7.52,7.52,0,0,1,.727-3.363,5.319,5.319,0,0,1,2.092-2.285,6.1,6.1,0,0,1,3.17-.809,5.774,5.774,0,0,1,4.189,1.57,6.3,6.3,0,0,1,1.811,4.266l.023.867a6.627,6.627,0,0,1-1.629,4.682,6.313,6.313,0,0,1-8.748.006A6.744,6.744,0,0,1,60.023,19.7Zm3.387.24a4.74,4.74,0,0,0,.68,2.764,2.442,2.442,0,0,0,3.867.012,5.186,5.186,0,0,0,.691-3.022,4.692,4.692,0,0,0-.691-2.746,2.248,2.248,0,0,0-1.945-.974,2.211,2.211,0,0,0-1.922.968A5.274,5.274,0,0,0,63.41,19.783Z" transform="translate(759.745 6437.846)" fill="#fff"/>
  </g>
</svg>
