<svg xmlns="http://www.w3.org/2000/svg" width="610" height="250" viewBox="0 0 610 250">
  <g id="Grupo_1103014" data-name="Grupo 1103014" transform="translate(-285.051 -3061)">
    <g id="Trazado_913241" data-name="Trazado 913241" transform="translate(442.051 3061)" fill="#f37e29">
      <path d="M 284 81.5 L 12 81.5 C 8.928231239318848 81.5 6.040346145629883 80.30381011962891 3.868269205093384 78.13172912597656 C 1.696192264556885 75.95965576171875 0.5 73.07176971435547 0.5 70 L 0.5 12 C 0.5 8.928231239318848 1.696192264556885 6.040346145629883 3.868269205093384 3.868269205093384 C 6.040346145629883 1.696192264556885 8.928231239318848 0.5 12 0.5 L 284 0.5 C 287.07177734375 0.5 289.9596557617188 1.696192264556885 292.1317443847656 3.868269205093384 C 294.3038024902344 6.040346145629883 295.5 8.928231239318848 295.5 12 L 295.5 70 C 295.5 73.07176971435547 294.3038024902344 75.95965576171875 292.1317443847656 78.13172912597656 C 289.9596557617188 80.30381011962891 287.07177734375 81.5 284 81.5 Z" stroke="none"/>
      <path d="M 12 1 C 9.061798095703125 1 6.299468994140625 2.144195556640625 4.2218017578125 4.221809387207031 C 2.144195556640625 6.299461364746094 1 9.061805725097656 1 12 L 1 70 C 1 72.93819427490234 2.144195556640625 75.70053863525391 4.2218017578125 77.77819061279297 C 6.299468994140625 79.85580444335938 9.061798095703125 81 12 81 L 284 81 C 286.9382019042969 81 289.7005310058594 79.85580444335938 291.7781982421875 77.77819061279297 C 293.8558044433594 75.70053863525391 295 72.93819427490234 295 70 L 295 12 C 295 9.061805725097656 293.8558044433594 6.299461364746094 291.7781982421875 4.221809387207031 C 289.7005310058594 2.144195556640625 286.9382019042969 1 284 1 L 12 1 M 12 0 L 284 0 C 290.6274108886719 0 296 5.372573852539062 296 12 L 296 70 C 296 76.62742614746094 290.6274108886719 82 284 82 L 12 82 C 5.372589111328125 82 0 76.62742614746094 0 70 L 0 12 C 0 5.372573852539062 5.372589111328125 0 12 0 Z" stroke="none" fill="#a8571c"/>
    </g>
    <g id="Rectángulo_403321" data-name="Rectángulo 403321" transform="translate(285.051 3188)" fill="#b5def3" stroke="#4aafe3" stroke-width="1" opacity="0.6">
      <rect width="190" height="123" rx="12" stroke="none"/>
      <rect x="0.5" y="0.5" width="189" height="122" rx="11.5" fill="none"/>
    </g>
    <g id="Rectángulo_403322" data-name="Rectángulo 403322" transform="translate(495.051 3188)" fill="#b5def3" stroke="#4aafe3" stroke-width="1" opacity="0.6">
      <rect width="190" height="123" rx="12" stroke="none"/>
      <rect x="0.5" y="0.5" width="189" height="122" rx="11.5" fill="none"/>
    </g>
    <g id="Rectángulo_403323" data-name="Rectángulo 403323" transform="translate(705.051 3188)" fill="#b5def3" stroke="#4aafe3" stroke-width="1" opacity="0.6">
      <rect width="190" height="123" rx="12" stroke="none"/>
      <rect x="0.5" y="0.5" width="189" height="122" rx="11.5" fill="none"/>
    </g>
    <path id="Trazado_914354" data-name="Trazado 914354" d="M-31.818-2.307A5.905,5.905,0,0,1-34.491-.4a10.907,10.907,0,0,1-3.882.647A7.649,7.649,0,0,1-42.328-.769a6.749,6.749,0,0,1-2.655-2.9,10.143,10.143,0,0,1-.97-4.4V-9.46a9.407,9.407,0,0,1,1.929-6.293,6.689,6.689,0,0,1,5.383-2.264,7.1,7.1,0,0,1,4.712,1.465,6.314,6.314,0,0,1,2.1,4.224h-3.027a3.406,3.406,0,0,0-3.723-3.21,3.648,3.648,0,0,0-3.156,1.5,7.624,7.624,0,0,0-1.117,4.388v1.367a7.24,7.24,0,0,0,1.215,4.474,4,4,0,0,0,3.375,1.593A4.449,4.449,0,0,0-34.894-3.3V-6.775h-3.662V-9.119h6.738ZM-21.8-10.5A7.34,7.34,0,0,0-23-10.6a2.721,2.721,0,0,0-2.747,1.563V0h-2.966V-13.208h2.832l.073,1.477a3.342,3.342,0,0,1,2.979-1.721,2.777,2.777,0,0,1,1.05.171ZM-14.105.244a6.137,6.137,0,0,1-4.572-1.776,6.443,6.443,0,0,1-1.752-4.73v-.366a7.925,7.925,0,0,1,.763-3.534,5.807,5.807,0,0,1,2.142-2.423,5.664,5.664,0,0,1,3.076-.867,5.184,5.184,0,0,1,4.169,1.721A7.278,7.278,0,0,1-8.807-6.86v1.2h-8.63a3.966,3.966,0,0,0,1.093,2.588,3.28,3.28,0,0,0,2.411.952,4.017,4.017,0,0,0,3.32-1.648l1.6,1.526A5.34,5.34,0,0,1-11.133-.409,6.631,6.631,0,0,1-14.105.244Zm-.354-11.316a2.5,2.5,0,0,0-1.971.854,4.429,4.429,0,0,0-.958,2.38h5.652v-.22a3.605,3.605,0,0,0-.793-2.252A2.479,2.479,0,0,0-14.459-11.072Zm10.742-2.136.085,1.379A4.753,4.753,0,0,1,.177-13.452,3.651,3.651,0,0,1,3.8-11.426a4.685,4.685,0,0,1,4.053-2.026,4.118,4.118,0,0,1,3.253,1.208A5.321,5.321,0,0,1,12.2-8.679V0H9.235V-8.594a2.627,2.627,0,0,0-.549-1.843,2.4,2.4,0,0,0-1.819-.586,2.47,2.47,0,0,0-1.654.543,2.865,2.865,0,0,0-.9,1.422L4.327,0H1.361V-8.691a2.116,2.116,0,0,0-2.38-2.332A2.611,2.611,0,0,0-3.546-9.57V0H-6.512V-13.208ZM18.4,0H15.436V-13.208H18.4ZM15.253-16.638a1.574,1.574,0,0,1,.433-1.135,1.637,1.637,0,0,1,1.239-.452,1.658,1.658,0,0,1,1.245.452,1.562,1.562,0,0,1,.439,1.135,1.526,1.526,0,0,1-.439,1.117,1.671,1.671,0,0,1-1.245.446,1.65,1.65,0,0,1-1.239-.446A1.538,1.538,0,0,1,15.253-16.638Zm5.823,9.912a7.788,7.788,0,0,1,.769-3.5,5.617,5.617,0,0,1,2.161-2.393,6.088,6.088,0,0,1,3.2-.836,5.769,5.769,0,0,1,4.34,1.721,6.77,6.77,0,0,1,1.8,4.565l.012.7A7.858,7.858,0,0,1,32.6-2.979,5.549,5.549,0,0,1,30.457-.6a6.132,6.132,0,0,1-3.229.842,5.729,5.729,0,0,1-4.474-1.862A7.13,7.13,0,0,1,21.075-6.58Zm2.966.256a5.322,5.322,0,0,0,.842,3.192,2.738,2.738,0,0,0,2.344,1.154A2.708,2.708,0,0,0,29.565-3.3a5.878,5.878,0,0,0,.836-3.43A5.253,5.253,0,0,0,29.541-9.9,2.748,2.748,0,0,0,27.2-11.072,2.723,2.723,0,0,0,24.9-9.918,5.767,5.767,0,0,0,24.042-6.47ZM43.268-3.589A1.345,1.345,0,0,0,42.615-4.8a6.946,6.946,0,0,0-2.167-.732,11.138,11.138,0,0,1-2.527-.806A3.372,3.372,0,0,1,35.7-9.448,3.516,3.516,0,0,1,37.14-12.3,5.694,5.694,0,0,1,40.8-13.452a5.925,5.925,0,0,1,3.827,1.172,3.719,3.719,0,0,1,1.459,3.04H43.121a1.828,1.828,0,0,0-.635-1.422A2.433,2.433,0,0,0,40.8-11.23a2.629,2.629,0,0,0-1.593.452,1.424,1.424,0,0,0-.616,1.208,1.2,1.2,0,0,0,.574,1.062,7.89,7.89,0,0,0,2.319.763,10.979,10.979,0,0,1,2.74.916A3.881,3.881,0,0,1,45.7-5.554a3.253,3.253,0,0,1,.482,1.807A3.441,3.441,0,0,1,44.708-.861a6.3,6.3,0,0,1-3.87,1.1,6.83,6.83,0,0,1-2.893-.586,4.761,4.761,0,0,1-1.978-1.611,3.814,3.814,0,0,1-.708-2.209h2.881a2.09,2.09,0,0,0,.793,1.617,3.083,3.083,0,0,0,1.941.568,3,3,0,0,0,1.782-.446A1.379,1.379,0,0,0,43.268-3.589Z" transform="translate(380.051 3259)" fill="#12263f"/>
    <path id="Trazado_914355" data-name="Trazado 914355" d="M-63.293-6.6V0h-3.088V-17.773h6.8a6.88,6.88,0,0,1,4.73,1.55,5.21,5.21,0,0,1,1.752,4.1,5.037,5.037,0,0,1-1.715,4.065,7.214,7.214,0,0,1-4.8,1.453Zm0-2.478h3.711a3.655,3.655,0,0,0,2.515-.775A2.849,2.849,0,0,0-56.2-12.1a3.074,3.074,0,0,0-.879-2.3,3.388,3.388,0,0,0-2.417-.885h-3.8ZM-43.774-10.5a7.34,7.34,0,0,0-1.208-.1,2.721,2.721,0,0,0-2.747,1.563V0H-50.7V-13.208h2.832l.073,1.477a3.342,3.342,0,0,1,2.979-1.721,2.777,2.777,0,0,1,1.05.171ZM-36.084.244a6.137,6.137,0,0,1-4.572-1.776,6.443,6.443,0,0,1-1.752-4.73v-.366a7.925,7.925,0,0,1,.763-3.534A5.807,5.807,0,0,1-39.5-12.585a5.664,5.664,0,0,1,3.076-.867,5.184,5.184,0,0,1,4.169,1.721A7.278,7.278,0,0,1-30.786-6.86v1.2h-8.63a3.966,3.966,0,0,0,1.093,2.588,3.28,3.28,0,0,0,2.411.952,4.017,4.017,0,0,0,3.32-1.648l1.6,1.526A5.34,5.34,0,0,1-33.112-.409,6.631,6.631,0,0,1-36.084.244Zm-.354-11.316a2.5,2.5,0,0,0-1.971.854,4.429,4.429,0,0,0-.958,2.38h5.652v-.22a3.605,3.605,0,0,0-.793-2.252A2.479,2.479,0,0,0-36.438-11.072Zm15.356,7.483A1.345,1.345,0,0,0-21.735-4.8,6.946,6.946,0,0,0-23.9-5.53a11.138,11.138,0,0,1-2.527-.806A3.372,3.372,0,0,1-28.65-9.448a3.516,3.516,0,0,1,1.44-2.856,5.694,5.694,0,0,1,3.662-1.147A5.925,5.925,0,0,1-19.72-12.28a3.719,3.719,0,0,1,1.459,3.04h-2.966a1.828,1.828,0,0,0-.635-1.422,2.433,2.433,0,0,0-1.685-.568,2.629,2.629,0,0,0-1.593.452,1.424,1.424,0,0,0-.616,1.208,1.2,1.2,0,0,0,.574,1.062,7.89,7.89,0,0,0,2.319.763,10.979,10.979,0,0,1,2.74.916,3.881,3.881,0,0,1,1.477,1.276,3.253,3.253,0,0,1,.482,1.807A3.441,3.441,0,0,1-19.641-.861a6.3,6.3,0,0,1-3.87,1.1A6.83,6.83,0,0,1-26.4-.342a4.761,4.761,0,0,1-1.978-1.611,3.814,3.814,0,0,1-.708-2.209h2.881a2.09,2.09,0,0,0,.793,1.617,3.083,3.083,0,0,0,1.941.568,3,3,0,0,0,1.782-.446A1.379,1.379,0,0,0-21.082-3.589Zm9.216-12.83v3.21h2.332v2.2h-2.332v7.373a1.624,1.624,0,0,0,.3,1.093,1.387,1.387,0,0,0,1.068.336A4.57,4.57,0,0,0-9.46-2.332V-.037a7.306,7.306,0,0,1-1.953.281q-3.418,0-3.418-3.772v-7.483H-17v-2.2h2.173v-3.21ZM.623,0A4.578,4.578,0,0,1,.281-1.233,4.617,4.617,0,0,1-3.186.244,4.66,4.66,0,0,1-6.433-.891,3.632,3.632,0,0,1-7.69-3.7,3.75,3.75,0,0,1-6.122-6.94,7.6,7.6,0,0,1-1.636-8.069H.183v-.867a2.314,2.314,0,0,0-.574-1.642,2.274,2.274,0,0,0-1.746-.616,2.613,2.613,0,0,0-1.66.507A1.568,1.568,0,0,0-4.443-9.4H-7.41a3.292,3.292,0,0,1,.72-2.032A4.8,4.8,0,0,1-4.73-12.915a6.882,6.882,0,0,1,2.765-.537,5.542,5.542,0,0,1,3.7,1.166A4.157,4.157,0,0,1,3.149-9.009v5.957a6.751,6.751,0,0,0,.5,2.844V0ZM-2.637-2.136A3.374,3.374,0,0,0-.983-2.563,2.854,2.854,0,0,0,.183-3.711V-6.2h-1.6a4.373,4.373,0,0,0-2.478.574A1.859,1.859,0,0,0-4.724-4a1.733,1.733,0,0,0,.568,1.361A2.2,2.2,0,0,0-2.637-2.136ZM5.7-6.7a7.853,7.853,0,0,1,1.416-4.9,4.537,4.537,0,0,1,3.8-1.849,4.311,4.311,0,0,1,3.394,1.465V-18.75h2.966V0H14.587l-.146-1.367A4.373,4.373,0,0,1,10.889.244,4.512,4.512,0,0,1,7.135-1.624,8.14,8.14,0,0,1,5.7-6.7Zm2.966.256A5.5,5.5,0,0,0,9.442-3.3a2.515,2.515,0,0,0,2.2,1.129A2.8,2.8,0,0,0,14.307-3.8v-5.64a2.759,2.759,0,0,0-2.637-1.587A2.534,2.534,0,0,0,9.448-9.882,6.123,6.123,0,0,0,8.667-6.445Zm11.145-.281a7.788,7.788,0,0,1,.769-3.5,5.617,5.617,0,0,1,2.161-2.393,6.088,6.088,0,0,1,3.2-.836,5.769,5.769,0,0,1,4.34,1.721,6.77,6.77,0,0,1,1.8,4.565l.012.7a7.858,7.858,0,0,1-.751,3.491A5.549,5.549,0,0,1,29.193-.6a6.132,6.132,0,0,1-3.229.842A5.729,5.729,0,0,1,21.49-1.617,7.13,7.13,0,0,1,19.812-6.58Zm2.966.256a5.322,5.322,0,0,0,.842,3.192,2.738,2.738,0,0,0,2.344,1.154A2.708,2.708,0,0,0,28.3-3.3a5.878,5.878,0,0,0,.836-3.43A5.253,5.253,0,0,0,28.278-9.9a2.748,2.748,0,0,0-2.338-1.172,2.723,2.723,0,0,0-2.307,1.154A5.767,5.767,0,0,0,22.778-6.47ZM41.516-10.5a7.34,7.34,0,0,0-1.208-.1,2.721,2.721,0,0,0-2.747,1.563V0H34.595V-13.208h2.832l.073,1.477a3.342,3.342,0,0,1,2.979-1.721,2.777,2.777,0,0,1,1.05.171ZM49.207.244a6.137,6.137,0,0,1-4.572-1.776,6.443,6.443,0,0,1-1.752-4.73v-.366a7.925,7.925,0,0,1,.763-3.534,5.807,5.807,0,0,1,2.142-2.423,5.664,5.664,0,0,1,3.076-.867,5.184,5.184,0,0,1,4.169,1.721A7.278,7.278,0,0,1,54.5-6.86v1.2h-8.63a3.966,3.966,0,0,0,1.093,2.588,3.28,3.28,0,0,0,2.411.952A4.017,4.017,0,0,0,52.7-3.772l1.6,1.526A5.34,5.34,0,0,1,52.179-.409,6.631,6.631,0,0,1,49.207.244Zm-.354-11.316a2.5,2.5,0,0,0-1.971.854,4.429,4.429,0,0,0-.958,2.38h5.652v-.22a3.605,3.605,0,0,0-.793-2.252A2.479,2.479,0,0,0,48.853-11.072ZM64.209-3.589A1.345,1.345,0,0,0,63.556-4.8a6.946,6.946,0,0,0-2.167-.732,11.138,11.138,0,0,1-2.527-.806,3.372,3.372,0,0,1-2.222-3.113,3.516,3.516,0,0,1,1.44-2.856,5.694,5.694,0,0,1,3.662-1.147A5.925,5.925,0,0,1,65.57-12.28a3.719,3.719,0,0,1,1.459,3.04H64.063a1.828,1.828,0,0,0-.635-1.422,2.433,2.433,0,0,0-1.685-.568,2.629,2.629,0,0,0-1.593.452,1.424,1.424,0,0,0-.616,1.208,1.2,1.2,0,0,0,.574,1.062,7.89,7.89,0,0,0,2.319.763,10.979,10.979,0,0,1,2.74.916,3.881,3.881,0,0,1,1.477,1.276,3.253,3.253,0,0,1,.482,1.807A3.441,3.441,0,0,1,65.649-.861a6.3,6.3,0,0,1-3.87,1.1,6.83,6.83,0,0,1-2.893-.586,4.761,4.761,0,0,1-1.978-1.611A3.814,3.814,0,0,1,56.2-4.163h2.881a2.09,2.09,0,0,0,.793,1.617,3.083,3.083,0,0,0,1.941.568A3,3,0,0,0,63.6-2.423,1.379,1.379,0,0,0,64.209-3.589ZM-66.254,24.3a7.853,7.853,0,0,1,1.416-4.9,4.537,4.537,0,0,1,3.8-1.849,4.311,4.311,0,0,1,3.394,1.465V12.25h2.966V31h-2.686l-.146-1.367a4.373,4.373,0,0,1-3.552,1.611,4.512,4.512,0,0,1-3.754-1.868A8.14,8.14,0,0,1-66.254,24.3Zm2.966.256a5.5,5.5,0,0,0,.775,3.143,2.515,2.515,0,0,0,2.2,1.129A2.8,2.8,0,0,0-57.648,27.2v-5.64a2.759,2.759,0,0,0-2.637-1.587,2.534,2.534,0,0,0-2.222,1.141A6.123,6.123,0,0,0-63.287,24.555Zm17.517,6.689a6.137,6.137,0,0,1-4.572-1.776,6.443,6.443,0,0,1-1.752-4.73v-.366a7.925,7.925,0,0,1,.763-3.534,5.807,5.807,0,0,1,2.142-2.423,5.664,5.664,0,0,1,3.076-.867,5.184,5.184,0,0,1,4.169,1.721,7.278,7.278,0,0,1,1.471,4.871v1.2H-49.1a3.966,3.966,0,0,0,1.093,2.588,3.28,3.28,0,0,0,2.411.952,4.017,4.017,0,0,0,3.32-1.648l1.6,1.526A5.34,5.34,0,0,1-42.8,30.591,6.631,6.631,0,0,1-45.77,31.244Zm-.354-11.316a2.5,2.5,0,0,0-1.971.854,4.429,4.429,0,0,0-.958,2.38H-43.4v-.22a3.605,3.605,0,0,0-.793-2.252A2.479,2.479,0,0,0-46.124,19.928Zm21.582,7.483A1.345,1.345,0,0,0-25.2,26.2a6.946,6.946,0,0,0-2.167-.732,11.138,11.138,0,0,1-2.527-.806,3.372,3.372,0,0,1-2.222-3.113A3.516,3.516,0,0,1-30.67,18.7a5.694,5.694,0,0,1,3.662-1.147,5.925,5.925,0,0,1,3.827,1.172,3.719,3.719,0,0,1,1.459,3.04h-2.966a1.828,1.828,0,0,0-.635-1.422,2.433,2.433,0,0,0-1.685-.568,2.629,2.629,0,0,0-1.593.452,1.424,1.424,0,0,0-.616,1.208,1.2,1.2,0,0,0,.574,1.062,7.89,7.89,0,0,0,2.319.763,10.979,10.979,0,0,1,2.74.916,3.881,3.881,0,0,1,1.477,1.276,3.253,3.253,0,0,1,.482,1.807A3.441,3.441,0,0,1-23.1,30.139a6.3,6.3,0,0,1-3.87,1.1,6.83,6.83,0,0,1-2.893-.586,4.761,4.761,0,0,1-1.978-1.611,3.814,3.814,0,0,1-.708-2.209h2.881a2.09,2.09,0,0,0,.793,1.617,3.083,3.083,0,0,0,1.941.568,3,3,0,0,0,1.782-.446A1.379,1.379,0,0,0-24.542,27.411Zm11.316,3.833A6.137,6.137,0,0,1-17.8,29.468a6.443,6.443,0,0,1-1.752-4.73v-.366a7.925,7.925,0,0,1,.763-3.534,5.807,5.807,0,0,1,2.142-2.423,5.664,5.664,0,0,1,3.076-.867A5.184,5.184,0,0,1-9.4,19.269,7.278,7.278,0,0,1-7.928,24.14v1.2h-8.63a3.966,3.966,0,0,0,1.093,2.588,3.28,3.28,0,0,0,2.411.952,4.017,4.017,0,0,0,3.32-1.648l1.6,1.526a5.34,5.34,0,0,1-2.118,1.837A6.631,6.631,0,0,1-13.226,31.244Zm-.354-11.316a2.5,2.5,0,0,0-1.971.854,4.429,4.429,0,0,0-.958,2.38h5.652v-.22a3.605,3.605,0,0,0-.793-2.252A2.479,2.479,0,0,0-13.58,19.928ZM1.288,20.5a7.34,7.34,0,0,0-1.208-.1,2.721,2.721,0,0,0-2.747,1.563V31H-5.634V17.792H-2.8l.073,1.477A3.342,3.342,0,0,1,.25,17.548a2.777,2.777,0,0,1,1.05.171Zm6.75,6.738,2.8-9.448H13.9L9.32,31H6.744L2.13,17.792H5.206ZM18.9,31H15.936V17.792H18.9ZM15.753,14.362a1.574,1.574,0,0,1,.433-1.135,1.637,1.637,0,0,1,1.239-.452,1.658,1.658,0,0,1,1.245.452,1.562,1.562,0,0,1,.439,1.135,1.526,1.526,0,0,1-.439,1.117,1.671,1.671,0,0,1-1.245.446,1.65,1.65,0,0,1-1.239-.446A1.538,1.538,0,0,1,15.753,14.362Zm11.8,14.514a2.682,2.682,0,0,0,1.843-.647,2.21,2.21,0,0,0,.781-1.6h2.8a4.357,4.357,0,0,1-.769,2.3,5.044,5.044,0,0,1-1.953,1.691,5.82,5.82,0,0,1-2.661.623A5.631,5.631,0,0,1,23.2,29.45a7.117,7.117,0,0,1-1.624-4.956v-.305a7,7,0,0,1,1.611-4.828,5.58,5.58,0,0,1,4.395-1.813,5.427,5.427,0,0,1,3.839,1.373,4.919,4.919,0,0,1,1.556,3.607h-2.8a2.716,2.716,0,0,0-.775-1.868,2.494,2.494,0,0,0-1.849-.732,2.61,2.61,0,0,0-2.222,1.044,5.326,5.326,0,0,0-.793,3.168v.476a5.414,5.414,0,0,0,.775,3.2A2.608,2.608,0,0,0,27.557,28.876ZM38.373,31H35.406V17.792h2.966ZM35.223,14.362a1.574,1.574,0,0,1,.433-1.135,1.637,1.637,0,0,1,1.239-.452,1.658,1.658,0,0,1,1.245.452,1.562,1.562,0,0,1,.439,1.135,1.526,1.526,0,0,1-.439,1.117,1.671,1.671,0,0,1-1.245.446,1.65,1.65,0,0,1-1.239-.446A1.538,1.538,0,0,1,35.223,14.362Zm5.823,9.912a7.788,7.788,0,0,1,.769-3.5,5.617,5.617,0,0,1,2.161-2.393,6.088,6.088,0,0,1,3.2-.836,5.769,5.769,0,0,1,4.34,1.721,6.77,6.77,0,0,1,1.8,4.565l.012.7a7.858,7.858,0,0,1-.751,3.491,5.549,5.549,0,0,1-2.148,2.38,6.132,6.132,0,0,1-3.229.842,5.729,5.729,0,0,1-4.474-1.862,7.13,7.13,0,0,1-1.678-4.962Zm2.966.256a5.322,5.322,0,0,0,.842,3.192A2.738,2.738,0,0,0,47.2,28.876,2.708,2.708,0,0,0,49.536,27.7a5.878,5.878,0,0,0,.836-3.43,5.253,5.253,0,0,0-.861-3.174,2.9,2.9,0,0,0-4.645-.018A5.767,5.767,0,0,0,44.012,24.53Zm19.226,2.881a1.345,1.345,0,0,0-.653-1.208,6.946,6.946,0,0,0-2.167-.732,11.138,11.138,0,0,1-2.527-.806,3.372,3.372,0,0,1-2.222-3.113,3.516,3.516,0,0,1,1.44-2.856,5.694,5.694,0,0,1,3.662-1.147A5.925,5.925,0,0,1,64.6,18.72a3.719,3.719,0,0,1,1.459,3.04H63.092a1.828,1.828,0,0,0-.635-1.422,2.433,2.433,0,0,0-1.685-.568,2.629,2.629,0,0,0-1.593.452,1.424,1.424,0,0,0-.616,1.208,1.2,1.2,0,0,0,.574,1.062,7.89,7.89,0,0,0,2.319.763,10.979,10.979,0,0,1,2.74.916,3.881,3.881,0,0,1,1.477,1.276,3.253,3.253,0,0,1,.482,1.807,3.441,3.441,0,0,1-1.477,2.887,6.3,6.3,0,0,1-3.87,1.1,6.83,6.83,0,0,1-2.893-.586,4.761,4.761,0,0,1-1.978-1.611,3.814,3.814,0,0,1-.708-2.209h2.881a2.09,2.09,0,0,0,.793,1.617,3.083,3.083,0,0,0,1.941.568,3,3,0,0,0,1.782-.446A1.379,1.379,0,0,0,63.239,27.411Z" transform="translate(590.051 3244)" fill="#12263f"/>
    <path id="Trazado_914356" data-name="Trazado 914356" d="M-47.644-6.848h-3.442V0h-3.088V-17.773h6.25a7.274,7.274,0,0,1,4.749,1.379A4.878,4.878,0,0,1-41.5-12.4a5,5,0,0,1-.861,2.985,5.475,5.475,0,0,1-2.4,1.849l3.992,7.41V0H-44.08Zm-3.442-2.478h3.174a3.53,3.53,0,0,0,2.441-.787,2.746,2.746,0,0,0,.879-2.155,2.923,2.923,0,0,0-.812-2.209,3.448,3.448,0,0,0-2.423-.806h-3.259ZM-33.044.244a6.137,6.137,0,0,1-4.572-1.776,6.443,6.443,0,0,1-1.752-4.73v-.366a7.925,7.925,0,0,1,.763-3.534,5.807,5.807,0,0,1,2.142-2.423,5.664,5.664,0,0,1,3.076-.867,5.184,5.184,0,0,1,4.169,1.721A7.278,7.278,0,0,1-27.747-6.86v1.2h-8.63a3.966,3.966,0,0,0,1.093,2.588,3.28,3.28,0,0,0,2.411.952,4.017,4.017,0,0,0,3.32-1.648l1.6,1.526A5.34,5.34,0,0,1-30.072-.409,6.631,6.631,0,0,1-33.044.244ZM-33.4-11.072a2.5,2.5,0,0,0-1.971.854,4.429,4.429,0,0,0-.958,2.38h5.652v-.22a3.605,3.605,0,0,0-.793-2.252A2.479,2.479,0,0,0-33.4-11.072ZM-26-6.7a7.853,7.853,0,0,1,1.416-4.9,4.537,4.537,0,0,1,3.8-1.849A4.311,4.311,0,0,1-17.4-11.987V-18.75h2.966V0h-2.686l-.146-1.367A4.373,4.373,0,0,1-20.813.244a4.512,4.512,0,0,1-3.754-1.868A8.14,8.14,0,0,1-26-6.7Zm2.966.256A5.5,5.5,0,0,0-22.26-3.3a2.515,2.515,0,0,0,2.2,1.129A2.8,2.8,0,0,0-17.4-3.8v-5.64a2.759,2.759,0,0,0-2.637-1.587,2.534,2.534,0,0,0-2.222,1.141A6.123,6.123,0,0,0-23.035-6.445ZM-5.518.244a6.137,6.137,0,0,1-4.572-1.776,6.443,6.443,0,0,1-1.752-4.73v-.366a7.925,7.925,0,0,1,.763-3.534,5.807,5.807,0,0,1,2.142-2.423,5.664,5.664,0,0,1,3.076-.867,5.184,5.184,0,0,1,4.169,1.721A7.278,7.278,0,0,1-.22-6.86v1.2H-8.85A3.966,3.966,0,0,0-7.758-3.076a3.28,3.28,0,0,0,2.411.952,4.017,4.017,0,0,0,3.32-1.648l1.6,1.526A5.34,5.34,0,0,1-2.545-.409,6.631,6.631,0,0,1-5.518.244Zm-.354-11.316a2.5,2.5,0,0,0-1.971.854A4.429,4.429,0,0,0-8.8-7.837h5.652v-.22a3.605,3.605,0,0,0-.793-2.252A2.479,2.479,0,0,0-5.872-11.072ZM9.485-3.589A1.345,1.345,0,0,0,8.832-4.8,6.946,6.946,0,0,0,6.665-5.53a11.138,11.138,0,0,1-2.527-.806A3.372,3.372,0,0,1,1.917-9.448,3.516,3.516,0,0,1,3.357-12.3a5.694,5.694,0,0,1,3.662-1.147,5.925,5.925,0,0,1,3.827,1.172A3.719,3.719,0,0,1,12.3-9.241H9.338A1.828,1.828,0,0,0,8.7-10.663a2.433,2.433,0,0,0-1.685-.568,2.629,2.629,0,0,0-1.593.452A1.424,1.424,0,0,0,4.81-9.57a1.2,1.2,0,0,0,.574,1.062A7.89,7.89,0,0,0,7.7-7.745a10.979,10.979,0,0,1,2.74.916A3.881,3.881,0,0,1,11.92-5.554,3.253,3.253,0,0,1,12.4-3.748,3.441,3.441,0,0,1,10.925-.861a6.3,6.3,0,0,1-3.87,1.1A6.83,6.83,0,0,1,4.163-.342,4.761,4.761,0,0,1,2.185-1.953a3.814,3.814,0,0,1-.708-2.209H4.358a2.09,2.09,0,0,0,.793,1.617,3.083,3.083,0,0,0,1.941.568,3,3,0,0,0,1.782-.446A1.379,1.379,0,0,0,9.485-3.589ZM25.83-4.248l2.686-8.96h3.162L26.428,2q-1.208,3.333-4.1,3.333a5.314,5.314,0,0,1-1.428-.22V2.82l.562.037a2.886,2.886,0,0,0,1.691-.409,2.711,2.711,0,0,0,.9-1.373l.427-1.135L19.836-13.208h3.2Zm8.386,5.774H31.885l6.995-19.3h2.332Zm8.5-8.252a7.788,7.788,0,0,1,.769-3.5,5.617,5.617,0,0,1,2.161-2.393,6.088,6.088,0,0,1,3.2-.836,5.769,5.769,0,0,1,4.34,1.721,6.77,6.77,0,0,1,1.8,4.565l.012.7a7.858,7.858,0,0,1-.751,3.491A5.549,5.549,0,0,1,52.094-.6a6.132,6.132,0,0,1-3.229.842,5.729,5.729,0,0,1-4.474-1.862A7.13,7.13,0,0,1,42.712-6.58Zm2.966.256a5.322,5.322,0,0,0,.842,3.192,2.738,2.738,0,0,0,2.344,1.154A2.708,2.708,0,0,0,51.2-3.3a5.878,5.878,0,0,0,.836-3.43A5.253,5.253,0,0,0,51.178-9.9a2.748,2.748,0,0,0-2.338-1.172,2.723,2.723,0,0,0-2.307,1.154A5.767,5.767,0,0,0,45.679-6.47ZM-37.469,31V19.989h-2.014v-2.2h2.014V16.583a4.536,4.536,0,0,1,1.221-3.394,4.676,4.676,0,0,1,3.418-1.2,6.856,6.856,0,0,1,1.66.22l-.073,2.319a5.842,5.842,0,0,0-1.135-.1A1.9,1.9,0,0,0-34.5,16.62v1.172h2.686v2.2H-34.5V31Zm7.263-6.726a7.788,7.788,0,0,1,.769-3.5,5.617,5.617,0,0,1,2.161-2.393,6.088,6.088,0,0,1,3.2-.836,5.769,5.769,0,0,1,4.34,1.721,6.77,6.77,0,0,1,1.8,4.565l.012.7a7.858,7.858,0,0,1-.751,3.491,5.549,5.549,0,0,1-2.148,2.38,6.132,6.132,0,0,1-3.229.842,5.729,5.729,0,0,1-4.474-1.862,7.13,7.13,0,0,1-1.678-4.962Zm2.966.256a5.322,5.322,0,0,0,.842,3.192,2.738,2.738,0,0,0,2.344,1.154A2.708,2.708,0,0,0-21.716,27.7a5.878,5.878,0,0,0,.836-3.43,5.253,5.253,0,0,0-.861-3.174,2.748,2.748,0,0,0-2.338-1.172,2.723,2.723,0,0,0-2.307,1.154A5.767,5.767,0,0,0-27.24,24.53ZM-8.5,20.5a7.34,7.34,0,0,0-1.208-.1,2.721,2.721,0,0,0-2.747,1.563V31h-2.966V17.792h2.832l.073,1.477A3.342,3.342,0,0,1-9.54,17.548a2.777,2.777,0,0,1,1.05.171Zm4.663-2.71.085,1.379A4.753,4.753,0,0,1,.055,17.548,3.651,3.651,0,0,1,3.68,19.574a4.685,4.685,0,0,1,4.053-2.026,4.118,4.118,0,0,1,3.253,1.208,5.321,5.321,0,0,1,1.093,3.564V31H9.113V22.406a2.627,2.627,0,0,0-.549-1.843,2.4,2.4,0,0,0-1.819-.586,2.47,2.47,0,0,0-1.654.543,2.865,2.865,0,0,0-.9,1.422L4.205,31H1.239V22.309a2.116,2.116,0,0,0-2.38-2.332A2.611,2.611,0,0,0-3.668,21.43V31H-6.635V17.792ZM23.016,31a4.578,4.578,0,0,1-.342-1.233,4.617,4.617,0,0,1-3.467,1.477,4.66,4.66,0,0,1-3.247-1.135A3.632,3.632,0,0,1,14.7,27.3a3.75,3.75,0,0,1,1.569-3.241,7.6,7.6,0,0,1,4.486-1.129h1.819v-.867A2.314,2.314,0,0,0,22,20.423a2.274,2.274,0,0,0-1.746-.616,2.613,2.613,0,0,0-1.66.507A1.568,1.568,0,0,0,17.95,21.6H14.984a3.292,3.292,0,0,1,.72-2.032,4.8,4.8,0,0,1,1.959-1.483,6.882,6.882,0,0,1,2.765-.537,5.542,5.542,0,0,1,3.7,1.166,4.157,4.157,0,0,1,1.416,3.278v5.957a6.751,6.751,0,0,0,.5,2.844V31Zm-3.259-2.136a3.374,3.374,0,0,0,1.654-.427,2.854,2.854,0,0,0,1.166-1.147V24.8h-1.6a4.373,4.373,0,0,0-2.478.574A1.859,1.859,0,0,0,17.67,27a1.733,1.733,0,0,0,.568,1.361A2.2,2.2,0,0,0,19.757,28.864Zm16.3-1.453A1.345,1.345,0,0,0,35.4,26.2a6.946,6.946,0,0,0-2.167-.732,11.138,11.138,0,0,1-2.527-.806,3.372,3.372,0,0,1-2.222-3.113,3.516,3.516,0,0,1,1.44-2.856,5.694,5.694,0,0,1,3.662-1.147,5.925,5.925,0,0,1,3.827,1.172,3.719,3.719,0,0,1,1.459,3.04H35.907a1.828,1.828,0,0,0-.635-1.422,2.433,2.433,0,0,0-1.685-.568,2.629,2.629,0,0,0-1.593.452,1.424,1.424,0,0,0-.616,1.208,1.2,1.2,0,0,0,.574,1.062,7.89,7.89,0,0,0,2.319.763,10.979,10.979,0,0,1,2.74.916,3.881,3.881,0,0,1,1.477,1.276,3.253,3.253,0,0,1,.482,1.807,3.441,3.441,0,0,1-1.477,2.887,6.3,6.3,0,0,1-3.87,1.1,6.83,6.83,0,0,1-2.893-.586,4.761,4.761,0,0,1-1.978-1.611,3.814,3.814,0,0,1-.708-2.209h2.881a2.09,2.09,0,0,0,.793,1.617,3.083,3.083,0,0,0,1.941.568,3,3,0,0,0,1.782-.446A1.379,1.379,0,0,0,36.053,27.411ZM-54.071,62a4.578,4.578,0,0,1-.342-1.233,4.617,4.617,0,0,1-3.467,1.477,4.66,4.66,0,0,1-3.247-1.135A3.632,3.632,0,0,1-62.384,58.3a3.75,3.75,0,0,1,1.569-3.241,7.6,7.6,0,0,1,4.486-1.129h1.819v-.867a2.314,2.314,0,0,0-.574-1.642,2.274,2.274,0,0,0-1.746-.616,2.613,2.613,0,0,0-1.66.507,1.568,1.568,0,0,0-.647,1.288H-62.1a3.292,3.292,0,0,1,.72-2.032,4.8,4.8,0,0,1,1.959-1.483,6.882,6.882,0,0,1,2.765-.537,5.542,5.542,0,0,1,3.7,1.166,4.157,4.157,0,0,1,1.416,3.278v5.957a6.751,6.751,0,0,0,.5,2.844V62Zm-3.259-2.136a3.374,3.374,0,0,0,1.654-.427,2.854,2.854,0,0,0,1.166-1.147V55.8h-1.6a4.373,4.373,0,0,0-2.478.574A1.859,1.859,0,0,0-59.418,58a1.733,1.733,0,0,0,.568,1.361A2.2,2.2,0,0,0-57.33,59.864Zm16.3-1.453a1.345,1.345,0,0,0-.653-1.208,6.946,6.946,0,0,0-2.167-.732,11.139,11.139,0,0,1-2.527-.806A3.372,3.372,0,0,1-48.6,52.552a3.516,3.516,0,0,1,1.44-2.856A5.694,5.694,0,0,1-43.5,48.548a5.925,5.925,0,0,1,3.827,1.172,3.719,3.719,0,0,1,1.459,3.04H-41.18a1.828,1.828,0,0,0-.635-1.422A2.433,2.433,0,0,0-43.5,50.77a2.629,2.629,0,0,0-1.593.452,1.424,1.424,0,0,0-.616,1.208,1.2,1.2,0,0,0,.574,1.062,7.89,7.89,0,0,0,2.319.763,10.979,10.979,0,0,1,2.74.916A3.881,3.881,0,0,1-38.6,56.446a3.253,3.253,0,0,1,.482,1.807,3.441,3.441,0,0,1-1.477,2.887,6.3,6.3,0,0,1-3.87,1.1,6.83,6.83,0,0,1-2.893-.586,4.761,4.761,0,0,1-1.978-1.611,3.814,3.814,0,0,1-.708-2.209h2.881a2.09,2.09,0,0,0,.793,1.617,3.083,3.083,0,0,0,1.941.568,3,3,0,0,0,1.782-.446A1.379,1.379,0,0,0-41.034,58.411Zm4.944-3.137a7.788,7.788,0,0,1,.769-3.5,5.617,5.617,0,0,1,2.161-2.393,6.088,6.088,0,0,1,3.2-.836,5.769,5.769,0,0,1,4.34,1.721,6.77,6.77,0,0,1,1.8,4.565l.012.7a7.858,7.858,0,0,1-.751,3.491,5.549,5.549,0,0,1-2.148,2.38,6.132,6.132,0,0,1-3.229.842,5.729,5.729,0,0,1-4.474-1.862A7.13,7.13,0,0,1-36.09,55.42Zm2.966.256a5.322,5.322,0,0,0,.842,3.192,2.738,2.738,0,0,0,2.344,1.154A2.708,2.708,0,0,0-27.6,58.7a5.878,5.878,0,0,0,.836-3.43,5.253,5.253,0,0,0-.861-3.174,2.748,2.748,0,0,0-2.338-1.172,2.723,2.723,0,0,0-2.307,1.154A5.767,5.767,0,0,0-33.124,55.53Zm17.249,4.346a2.682,2.682,0,0,0,1.843-.647,2.21,2.21,0,0,0,.781-1.6h2.8a4.357,4.357,0,0,1-.769,2.3,5.044,5.044,0,0,1-1.953,1.691,5.82,5.82,0,0,1-2.661.623,5.631,5.631,0,0,1-4.395-1.794,7.117,7.117,0,0,1-1.624-4.956v-.305a7,7,0,0,1,1.611-4.828,5.58,5.58,0,0,1,4.395-1.813,5.427,5.427,0,0,1,3.839,1.373,4.919,4.919,0,0,1,1.556,3.607h-2.8a2.716,2.716,0,0,0-.775-1.868,2.494,2.494,0,0,0-1.849-.732A2.61,2.61,0,0,0-18.1,51.972a5.326,5.326,0,0,0-.793,3.168v.476a5.414,5.414,0,0,0,.775,3.2A2.608,2.608,0,0,0-15.875,59.876ZM-5.06,62H-8.026V48.792H-5.06ZM-8.209,45.362a1.574,1.574,0,0,1,.433-1.135,1.637,1.637,0,0,1,1.239-.452,1.658,1.658,0,0,1,1.245.452,1.562,1.562,0,0,1,.439,1.135,1.526,1.526,0,0,1-.439,1.117,1.671,1.671,0,0,1-1.245.446,1.65,1.65,0,0,1-1.239-.446A1.538,1.538,0,0,1-8.209,45.362ZM6.061,62a4.578,4.578,0,0,1-.342-1.233,4.617,4.617,0,0,1-3.467,1.477A4.66,4.66,0,0,1-.995,61.109,3.632,3.632,0,0,1-2.252,58.3,3.75,3.75,0,0,1-.684,55.06,7.6,7.6,0,0,1,3.8,53.931H5.621v-.867a2.314,2.314,0,0,0-.574-1.642A2.274,2.274,0,0,0,3.3,50.806a2.613,2.613,0,0,0-1.66.507A1.568,1.568,0,0,0,.995,52.6H-1.971a3.292,3.292,0,0,1,.72-2.032A4.8,4.8,0,0,1,.708,49.085a6.882,6.882,0,0,1,2.765-.537,5.542,5.542,0,0,1,3.7,1.166,4.157,4.157,0,0,1,1.416,3.278v5.957a6.751,6.751,0,0,0,.5,2.844V62ZM2.8,59.864a3.374,3.374,0,0,0,1.654-.427,2.854,2.854,0,0,0,1.166-1.147V55.8h-1.6a4.373,4.373,0,0,0-2.478.574A1.859,1.859,0,0,0,.714,58a1.733,1.733,0,0,0,.568,1.361A2.2,2.2,0,0,0,2.8,59.864Zm12.61-14.282v3.21h2.332v2.2H15.411v7.373a1.624,1.624,0,0,0,.3,1.093,1.387,1.387,0,0,0,1.068.336,4.57,4.57,0,0,0,1.038-.122v2.295a7.306,7.306,0,0,1-1.953.281q-3.418,0-3.418-3.772V50.989H10.272v-2.2h2.173v-3.21ZM23.163,62H20.2V48.792h2.966ZM20.013,45.362a1.574,1.574,0,0,1,.433-1.135,1.637,1.637,0,0,1,1.239-.452,1.658,1.658,0,0,1,1.245.452,1.562,1.562,0,0,1,.439,1.135,1.526,1.526,0,0,1-.439,1.117,1.671,1.671,0,0,1-1.245.446,1.65,1.65,0,0,1-1.239-.446A1.538,1.538,0,0,1,20.013,45.362ZM31.049,58.24l2.8-9.448h3.064L32.33,62H29.755L25.14,48.792h3.076ZM46.466,62a4.578,4.578,0,0,1-.342-1.233,4.99,4.99,0,0,1-6.714.342A3.632,3.632,0,0,1,38.153,58.3a3.75,3.75,0,0,1,1.569-3.241,7.6,7.6,0,0,1,4.486-1.129h1.819v-.867a2.314,2.314,0,0,0-.574-1.642,2.274,2.274,0,0,0-1.746-.616,2.613,2.613,0,0,0-1.66.507A1.568,1.568,0,0,0,41.4,52.6H38.434a3.292,3.292,0,0,1,.72-2.032,4.8,4.8,0,0,1,1.959-1.483,6.882,6.882,0,0,1,2.765-.537,5.542,5.542,0,0,1,3.7,1.166,4.157,4.157,0,0,1,1.416,3.278v5.957a6.751,6.751,0,0,0,.5,2.844V62Zm-3.259-2.136a3.374,3.374,0,0,0,1.654-.427,2.854,2.854,0,0,0,1.166-1.147V55.8h-1.6a4.373,4.373,0,0,0-2.478.574A1.859,1.859,0,0,0,41.119,58a1.733,1.733,0,0,0,.568,1.361A2.2,2.2,0,0,0,43.207,59.864Zm16.3-1.453A1.345,1.345,0,0,0,58.85,57.2a6.946,6.946,0,0,0-2.167-.732,11.139,11.139,0,0,1-2.527-.806,3.372,3.372,0,0,1-2.222-3.113,3.516,3.516,0,0,1,1.44-2.856,5.694,5.694,0,0,1,3.662-1.147,5.925,5.925,0,0,1,3.827,1.172,3.719,3.719,0,0,1,1.459,3.04H59.357a1.828,1.828,0,0,0-.635-1.422,2.433,2.433,0,0,0-1.685-.568,2.629,2.629,0,0,0-1.593.452,1.424,1.424,0,0,0-.616,1.208,1.2,1.2,0,0,0,.574,1.062,7.89,7.89,0,0,0,2.319.763,10.979,10.979,0,0,1,2.74.916,3.881,3.881,0,0,1,1.477,1.276,3.253,3.253,0,0,1,.482,1.807,3.441,3.441,0,0,1-1.477,2.887,6.3,6.3,0,0,1-3.87,1.1,6.83,6.83,0,0,1-2.893-.586A4.761,4.761,0,0,1,52.2,60.047a3.814,3.814,0,0,1-.708-2.209h2.881a2.09,2.09,0,0,0,.793,1.617,3.083,3.083,0,0,0,1.941.568,3,3,0,0,0,1.782-.446A1.379,1.379,0,0,0,59.5,58.411Z" transform="translate(800.051 3228)" fill="#12263f"/>
    <path id="Trazado_914353" data-name="Trazado 914353" d="M-93.57-6.155a2.481,2.481,0,0,0-.967-2.1A12.681,12.681,0,0,0-98.017-9.8a24.673,24.673,0,0,1-3.98-1.6q-4-2.159-4-5.817a5.665,5.665,0,0,1,1.072-3.392,6.99,6.99,0,0,1,3.078-2.328,11.584,11.584,0,0,1,4.5-.838,10.544,10.544,0,0,1,4.479.91,7.133,7.133,0,0,1,3.053,2.57,6.725,6.725,0,0,1,1.088,3.771h-4.834a3.164,3.164,0,0,0-1.015-2.506,4.173,4.173,0,0,0-2.852-.894,4.458,4.458,0,0,0-2.755.749,2.363,2.363,0,0,0-.983,1.974,2.263,2.263,0,0,0,1.152,1.917,13.016,13.016,0,0,0,3.392,1.45,14.655,14.655,0,0,1,6.01,3.078A6.129,6.129,0,0,1-88.72-6.187a5.646,5.646,0,0,1-2.3,4.778,10.087,10.087,0,0,1-6.2,1.732,11.979,11.979,0,0,1-4.931-.991,7.8,7.8,0,0,1-3.392-2.715,6.953,6.953,0,0,1-1.168-4h4.85q0,3.883,4.641,3.883a4.514,4.514,0,0,0,2.691-.7A2.28,2.28,0,0,0-93.57-6.155ZM-77.73.322A8.559,8.559,0,0,1-83.974-2.03,8.362,8.362,0,0,1-86.383-8.3V-8.75a10.532,10.532,0,0,1,1.015-4.7,7.45,7.45,0,0,1,2.876-3.19,8.073,8.073,0,0,1,4.246-1.12A7.236,7.236,0,0,1-72.615-15.5,9.167,9.167,0,0,1-70.56-9.1v1.9h-11.1A4.326,4.326,0,0,0-80.3-4.463a4.116,4.116,0,0,0,2.876,1.031,5.026,5.026,0,0,0,4.206-1.95l2.288,2.562A6.991,6.991,0,0,1-73.767-.508,9.3,9.3,0,0,1-77.73.322Zm-.532-14.309a2.916,2.916,0,0,0-2.248.935,4.828,4.828,0,0,0-1.1,2.675h6.478v-.371a3.442,3.442,0,0,0-.838-2.393A3.01,3.01,0,0,0-78.262-13.986Zm17.6,10.554a3.054,3.054,0,0,0,2.095-.709,2.484,2.484,0,0,0,.838-1.885h4.367a5.973,5.973,0,0,1-.967,3.247,6.379,6.379,0,0,1-2.6,2.288,8.144,8.144,0,0,1-3.65.814,7.569,7.569,0,0,1-5.9-2.377,9.4,9.4,0,0,1-2.159-6.566v-.306A9.3,9.3,0,0,1-66.5-15.356a7.481,7.481,0,0,1,5.881-2.4A7.333,7.333,0,0,1-55.373-15.9a6.589,6.589,0,0,1,2.006,4.955h-4.367a3.174,3.174,0,0,0-.838-2.2,2.8,2.8,0,0,0-2.127-.846A2.806,2.806,0,0,0-63.156-12.8a6.855,6.855,0,0,0-.83,3.843v.483a6.942,6.942,0,0,0,.822,3.867A2.841,2.841,0,0,0-60.667-3.432Zm15.533-18.289v4.286h2.981v3.416h-2.981v8.7a2.078,2.078,0,0,0,.371,1.386,1.861,1.861,0,0,0,1.418.419,7.426,7.426,0,0,0,1.37-.113V-.1a9.587,9.587,0,0,1-2.82.419q-4.9,0-5-4.947v-9.394h-2.546v-3.416h2.546v-4.286Zm4.367,12.842a10.34,10.34,0,0,1,1-4.625,7.313,7.313,0,0,1,2.876-3.142,8.391,8.391,0,0,1,4.359-1.112,7.939,7.939,0,0,1,5.76,2.159,8.666,8.666,0,0,1,2.49,5.865l.032,1.192A9.113,9.113,0,0,1-26.49-2.1,7.785,7.785,0,0,1-32.5.322a7.824,7.824,0,0,1-6.018-2.417,9.273,9.273,0,0,1-2.248-6.574Zm4.657.338a6.5,6.5,0,0,0,.935,3.795A3.085,3.085,0,0,0-32.5-3.432a3.092,3.092,0,0,0,2.643-1.3,7.112,7.112,0,0,0,.951-4.149,6.434,6.434,0,0,0-.951-3.771,3.092,3.092,0,0,0-2.675-1.337,3.041,3.041,0,0,0-2.643,1.329A7.231,7.231,0,0,0-36.11-8.54Zm24.524-4.528a12.651,12.651,0,0,0-1.676-.129q-2.643,0-3.464,1.789V0h-4.657V-17.435h4.4l.129,2.079a4.315,4.315,0,0,1,3.883-2.4,4.879,4.879,0,0,1,1.45.209ZM14.566-8.556A10.456,10.456,0,0,1,12.738-2.1,5.864,5.864,0,0,1,7.8.322a5.432,5.432,0,0,1-4.27-1.837V6.7H-1.128V-17.435H3.19l.161,1.708a5.473,5.473,0,0,1,4.415-2.03,5.9,5.9,0,0,1,5.011,2.385A10.739,10.739,0,0,1,14.566-8.8ZM9.91-8.895a6.862,6.862,0,0,0-.862-3.754A2.808,2.808,0,0,0,6.542-13.97a3.049,3.049,0,0,0-3.013,1.676v7.138A3.1,3.1,0,0,0,6.574-3.432Q9.91-3.432,9.91-8.895Zm17.338-4.173a12.651,12.651,0,0,0-1.676-.129q-2.643,0-3.464,1.789V0H17.451V-17.435h4.4l.129,2.079a4.315,4.315,0,0,1,3.883-2.4,4.879,4.879,0,0,1,1.45.209ZM34.4,0H29.729V-17.435H34.4ZM29.455-21.946a2.293,2.293,0,0,1,.7-1.724,2.633,2.633,0,0,1,1.909-.677,2.639,2.639,0,0,1,1.9.677,2.28,2.28,0,0,1,.709,1.724,2.286,2.286,0,0,1-.717,1.74,2.646,2.646,0,0,1-1.893.677,2.646,2.646,0,0,1-1.893-.677A2.286,2.286,0,0,1,29.455-21.946ZM44.763-5.688,48-17.435h4.866L46.986,0H42.539L36.658-17.435h4.866ZM64.775,0a5.171,5.171,0,0,1-.467-1.563,5.635,5.635,0,0,1-4.4,1.885A6.19,6.19,0,0,1,55.663-1.16,4.768,4.768,0,0,1,53.979-4.9a4.927,4.927,0,0,1,2.054-4.254,10.137,10.137,0,0,1,5.938-1.5h2.143v-1a2.873,2.873,0,0,0-.62-1.934,2.44,2.44,0,0,0-1.958-.725,2.775,2.775,0,0,0-1.845.564,1.916,1.916,0,0,0-.669,1.547H54.366A4.678,4.678,0,0,1,55.3-15a6.178,6.178,0,0,1,2.643-2.022,9.631,9.631,0,0,1,3.835-.733,7.609,7.609,0,0,1,5.116,1.619,5.665,5.665,0,0,1,1.893,4.552v7.557A8.335,8.335,0,0,0,69.48-.274V0ZM60.924-3.239a4.011,4.011,0,0,0,1.9-.459,3.016,3.016,0,0,0,1.289-1.233v-3h-1.74q-3.5,0-3.722,2.417l-.016.274A1.864,1.864,0,0,0,59.249-3.8,2.378,2.378,0,0,0,60.924-3.239ZM71.64-8.846a10.507,10.507,0,0,1,1.829-6.494,5.934,5.934,0,0,1,5-2.417,5.34,5.34,0,0,1,4.206,1.9V-24.75H87.35V0H83.145l-.226-1.853A5.48,5.48,0,0,1,78.439.322,5.918,5.918,0,0,1,73.5-2.1,10.845,10.845,0,0,1,71.64-8.846Zm4.657.338a6.863,6.863,0,0,0,.854,3.754,2.783,2.783,0,0,0,2.481,1.305,3.116,3.116,0,0,0,3.045-1.821v-6.88a3.072,3.072,0,0,0-3.013-1.821Q76.3-13.97,76.3-8.508Zm13.938-.371a10.34,10.34,0,0,1,1-4.625,7.313,7.313,0,0,1,2.876-3.142,8.391,8.391,0,0,1,4.359-1.112,7.939,7.939,0,0,1,5.76,2.159,8.666,8.666,0,0,1,2.49,5.865l.032,1.192a9.113,9.113,0,0,1-2.24,6.437A7.785,7.785,0,0,1,98.5.322a7.824,7.824,0,0,1-6.018-2.417,9.273,9.273,0,0,1-2.248-6.574Zm4.657.338a6.5,6.5,0,0,0,.935,3.795A3.085,3.085,0,0,0,98.5-3.432a3.092,3.092,0,0,0,2.643-1.3,7.112,7.112,0,0,0,.951-4.149,6.434,6.434,0,0,0-.951-3.771,3.092,3.092,0,0,0-2.675-1.337,3.041,3.041,0,0,0-2.643,1.329A7.231,7.231,0,0,0,94.891-8.54Z" transform="translate(590.051 3115)" fill="#fff"/>
    <path id="Trazado_913233" data-name="Trazado 913233" d="M-4697.559-8457.574v45" transform="translate(5282.051 11600.574)" fill="none" stroke="#f37e29" stroke-width="2"/>
    <path id="Trazado_913234" data-name="Trazado 913234" d="M-4697.559-8457.574v22.5" transform="translate(5497.609 11623.074)" fill="none" stroke="#f37e29" stroke-width="2"/>
    <path id="Trazado_913240" data-name="Trazado 913240" d="M-4697.559-8457.574v22.5" transform="translate(5077.609 11623.074)" fill="none" stroke="#f37e29" stroke-width="2"/>
    <path id="Trazado_913235" data-name="Trazado 913235" d="M-4697.559-8457.579v422" transform="translate(-7656.514 7863.059) rotate(90)" fill="none" stroke="#f37e29" stroke-width="2"/>
  </g>
</svg>
