<svg xmlns="http://www.w3.org/2000/svg" width="820" height="250" viewBox="0 0 820 250">
  <g id="Grupo_1103534" data-name="Grupo 1103534" transform="translate(-370.051 -4912)">
    <g id="Grupo_1103533" data-name="Grupo 1103533">
      <g id="Grupo_1103532" data-name="Grupo 1103532">
        <g id="Grupo_1103531" data-name="Grupo 1103531">
          <g id="Rectángulo_403321" data-name="Rectángulo 403321" transform="translate(370.051 5039)" fill="#facba8" stroke="#a8571c" stroke-width="1" opacity="0.6">
            <rect width="190" height="123" rx="12" stroke="none"/>
            <rect x="0.5" y="0.5" width="189" height="122" rx="11.5" fill="none"/>
          </g>
          <g id="Rectángulo_403322" data-name="Rectángulo 403322" transform="translate(580.051 5039)" fill="#f9f0b1" stroke="#ada77b" stroke-width="1" opacity="0.6">
            <rect width="190" height="123" rx="12" stroke="none"/>
            <rect x="0.5" y="0.5" width="189" height="122" rx="11.5" fill="none"/>
          </g>
          <g id="Rectángulo_403323" data-name="Rectángulo 403323" transform="translate(790.051 5039)" fill="#b5def3" stroke="#4aafe3" stroke-width="1" opacity="0.6">
            <rect width="190" height="123" rx="12" stroke="none"/>
            <rect x="0.5" y="0.5" width="189" height="122" rx="11.5" fill="none"/>
          </g>
          <g id="Rectángulo_403344" data-name="Rectángulo 403344" transform="translate(1000.051 5039)" fill="#d3df9c" stroke="#667b07" stroke-width="1" opacity="0.6">
            <rect width="190" height="123" rx="12" stroke="none"/>
            <rect x="0.5" y="0.5" width="189" height="122" rx="11.5" fill="none"/>
          </g>
          <path id="Trazado_914358" data-name="Trazado 914358" d="M-30.267-5.786a6.417,6.417,0,0,1-2.1,4.437A7.158,7.158,0,0,1-37.238.244,6.931,6.931,0,0,1-40.979-.763a6.61,6.61,0,0,1-2.5-2.863,10.33,10.33,0,0,1-.916-4.309v-1.66a10.4,10.4,0,0,1,.891-4.431,6.716,6.716,0,0,1,2.557-2.954,7.134,7.134,0,0,1,3.851-1.038,6.853,6.853,0,0,1,4.736,1.6A6.681,6.681,0,0,1-30.267-11.9h-3.076a4.39,4.39,0,0,0-1.117-2.765,3.692,3.692,0,0,0-2.631-.848,3.607,3.607,0,0,0-3.094,1.471,7.346,7.346,0,0,0-1.1,4.315v1.575A7.793,7.793,0,0,0-40.259-3.76a3.424,3.424,0,0,0,3.021,1.514A3.993,3.993,0,0,0-34.5-3.064a4.265,4.265,0,0,0,1.16-2.722Zm1.917-.94a7.788,7.788,0,0,1,.769-3.5,5.617,5.617,0,0,1,2.161-2.393,6.088,6.088,0,0,1,3.2-.836,5.769,5.769,0,0,1,4.34,1.721,6.77,6.77,0,0,1,1.8,4.565l.012.7a7.858,7.858,0,0,1-.751,3.491A5.549,5.549,0,0,1-18.97-.6,6.132,6.132,0,0,1-22.2.244a5.729,5.729,0,0,1-4.474-1.862A7.13,7.13,0,0,1-28.351-6.58Zm2.966.256a5.322,5.322,0,0,0,.842,3.192A2.738,2.738,0,0,0-22.2-2.124,2.708,2.708,0,0,0-19.861-3.3a5.878,5.878,0,0,0,.836-3.43A5.253,5.253,0,0,0-19.885-9.9a2.748,2.748,0,0,0-2.338-1.172A2.723,2.723,0,0,0-24.53-9.918,5.767,5.767,0,0,0-25.385-6.47Zm14.575-6.738.085,1.526a4.749,4.749,0,0,1,3.845-1.77q4.126,0,4.2,4.724V0H-5.646V-8.557a2.72,2.72,0,0,0-.543-1.862,2.285,2.285,0,0,0-1.776-.6A2.858,2.858,0,0,0-10.638-9.4V0H-13.6V-13.208ZM7.745-3.589A1.345,1.345,0,0,0,7.092-4.8,6.946,6.946,0,0,0,4.926-5.53,11.138,11.138,0,0,1,2.4-6.335,3.372,3.372,0,0,1,.177-9.448,3.516,3.516,0,0,1,1.617-12.3,5.694,5.694,0,0,1,5.28-13.452,5.925,5.925,0,0,1,9.106-12.28a3.719,3.719,0,0,1,1.459,3.04H7.6a1.828,1.828,0,0,0-.635-1.422A2.433,2.433,0,0,0,5.28-11.23a2.629,2.629,0,0,0-1.593.452A1.424,1.424,0,0,0,3.07-9.57a1.2,1.2,0,0,0,.574,1.062,7.89,7.89,0,0,0,2.319.763A10.979,10.979,0,0,1,8.7-6.83a3.881,3.881,0,0,1,1.477,1.276,3.253,3.253,0,0,1,.482,1.807A3.441,3.441,0,0,1,9.186-.861a6.3,6.3,0,0,1-3.87,1.1A6.83,6.83,0,0,1,2.423-.342,4.761,4.761,0,0,1,.446-1.953,3.814,3.814,0,0,1-.262-4.163H2.618a2.09,2.09,0,0,0,.793,1.617,3.083,3.083,0,0,0,1.941.568,3,3,0,0,0,1.782-.446A1.379,1.379,0,0,0,7.745-3.589ZM19.061.244A6.137,6.137,0,0,1,14.49-1.532a6.443,6.443,0,0,1-1.752-4.73v-.366a7.925,7.925,0,0,1,.763-3.534,5.807,5.807,0,0,1,2.142-2.423,5.664,5.664,0,0,1,3.076-.867,5.184,5.184,0,0,1,4.169,1.721A7.278,7.278,0,0,1,24.359-6.86v1.2h-8.63a3.966,3.966,0,0,0,1.093,2.588,3.28,3.28,0,0,0,2.411.952,4.017,4.017,0,0,0,3.32-1.648l1.6,1.526A5.34,5.34,0,0,1,22.034-.409,6.631,6.631,0,0,1,19.061.244Zm-.354-11.316a2.5,2.5,0,0,0-1.971.854,4.429,4.429,0,0,0-.958,2.38h5.652v-.22a3.605,3.605,0,0,0-.793-2.252A2.479,2.479,0,0,0,18.707-11.072Zm11.047-2.136V1.172a4.345,4.345,0,0,1-1.007,3.094A3.86,3.86,0,0,1,25.8,5.334a5.928,5.928,0,0,1-1.575-.208V2.783a4.57,4.57,0,0,0,1.05.11q1.477,0,1.514-1.611v-14.49Zm-3.223-3.43a1.574,1.574,0,0,1,.433-1.135,1.637,1.637,0,0,1,1.239-.452,1.658,1.658,0,0,1,1.245.452,1.562,1.562,0,0,1,.439,1.135,1.526,1.526,0,0,1-.439,1.117,1.671,1.671,0,0,1-1.245.446,1.65,1.65,0,0,1-1.239-.446A1.538,1.538,0,0,1,26.532-16.638Zm5.835,9.912a7.788,7.788,0,0,1,.769-3.5A5.617,5.617,0,0,1,35.3-12.616a6.088,6.088,0,0,1,3.2-.836,5.769,5.769,0,0,1,4.34,1.721,6.77,6.77,0,0,1,1.8,4.565l.012.7A7.858,7.858,0,0,1,43.9-2.979,5.549,5.549,0,0,1,41.748-.6a6.132,6.132,0,0,1-3.229.842,5.729,5.729,0,0,1-4.474-1.862A7.13,7.13,0,0,1,32.367-6.58Zm2.966.256a5.322,5.322,0,0,0,.842,3.192,2.738,2.738,0,0,0,2.344,1.154A2.708,2.708,0,0,0,40.857-3.3a5.878,5.878,0,0,0,.836-3.43A5.253,5.253,0,0,0,40.833-9.9a2.748,2.748,0,0,0-2.338-1.172,2.723,2.723,0,0,0-2.307,1.154A5.767,5.767,0,0,0,35.333-6.47Zm-72.65,33.881A1.345,1.345,0,0,0-37.97,26.2a6.946,6.946,0,0,0-2.167-.732,11.138,11.138,0,0,1-2.527-.806,3.372,3.372,0,0,1-2.222-3.113,3.516,3.516,0,0,1,1.44-2.856,5.694,5.694,0,0,1,3.662-1.147,5.925,5.925,0,0,1,3.827,1.172,3.719,3.719,0,0,1,1.459,3.04h-2.966a1.828,1.828,0,0,0-.635-1.422,2.433,2.433,0,0,0-1.685-.568,2.629,2.629,0,0,0-1.593.452,1.424,1.424,0,0,0-.616,1.208,1.2,1.2,0,0,0,.574,1.062,7.89,7.89,0,0,0,2.319.763,10.979,10.979,0,0,1,2.74.916,3.881,3.881,0,0,1,1.477,1.276,3.253,3.253,0,0,1,.482,1.807,3.441,3.441,0,0,1-1.477,2.887,6.3,6.3,0,0,1-3.87,1.1,6.83,6.83,0,0,1-2.893-.586,4.761,4.761,0,0,1-1.978-1.611,3.814,3.814,0,0,1-.708-2.209h2.881a2.09,2.09,0,0,0,.793,1.617,3.083,3.083,0,0,0,1.941.568,3,3,0,0,0,1.782-.446A1.379,1.379,0,0,0-37.317,27.411Zm13.5,2.295a4.6,4.6,0,0,1-3.711,1.538,4.1,4.1,0,0,1-3.253-1.257,5.349,5.349,0,0,1-1.1-3.638V17.792h2.966v8.521q0,2.515,2.087,2.515a2.932,2.932,0,0,0,2.917-1.55V17.792h2.966V31h-2.8ZM-6.36,24.53a7.864,7.864,0,0,1-1.392,4.889,4.457,4.457,0,0,1-3.735,1.825,4.487,4.487,0,0,1-3.479-1.428v6.262h-2.966V17.792H-15.2l.122,1.343a4.357,4.357,0,0,1,3.552-1.587,4.5,4.5,0,0,1,3.79,1.8,8.074,8.074,0,0,1,1.373,5Zm-2.954-.256a5.509,5.509,0,0,0-.787-3.137,2.56,2.56,0,0,0-2.252-1.16,2.73,2.73,0,0,0-2.612,1.5v5.859a2.755,2.755,0,0,0,2.637,1.538,2.557,2.557,0,0,0,2.216-1.141A6.064,6.064,0,0,0-9.314,24.274Zm11.279,6.97a6.137,6.137,0,0,1-4.572-1.776,6.443,6.443,0,0,1-1.752-4.73v-.366a7.925,7.925,0,0,1,.763-3.534,5.807,5.807,0,0,1,2.142-2.423,5.664,5.664,0,0,1,3.076-.867,5.184,5.184,0,0,1,4.169,1.721A7.278,7.278,0,0,1,7.263,24.14v1.2h-8.63A3.966,3.966,0,0,0-.275,27.924a3.28,3.28,0,0,0,2.411.952,4.017,4.017,0,0,0,3.32-1.648l1.6,1.526a5.34,5.34,0,0,1-2.118,1.837A6.631,6.631,0,0,1,1.965,31.244ZM1.611,19.928a2.5,2.5,0,0,0-1.971.854,4.429,4.429,0,0,0-.958,2.38H4.333v-.22a3.605,3.605,0,0,0-.793-2.252A2.479,2.479,0,0,0,1.611,19.928Zm14.868.574a7.34,7.34,0,0,0-1.208-.1,2.721,2.721,0,0,0-2.747,1.563V31H9.558V17.792H12.39l.073,1.477a3.342,3.342,0,0,1,2.979-1.721,2.777,2.777,0,0,1,1.05.171ZM21.509,31H18.542V17.792h2.966ZM18.359,14.362a1.574,1.574,0,0,1,.433-1.135,1.637,1.637,0,0,1,1.239-.452,1.658,1.658,0,0,1,1.245.452,1.562,1.562,0,0,1,.439,1.135,1.526,1.526,0,0,1-.439,1.117,1.671,1.671,0,0,1-1.245.446,1.65,1.65,0,0,1-1.239-.446A1.538,1.538,0,0,1,18.359,14.362Zm5.823,9.912a7.788,7.788,0,0,1,.769-3.5,5.617,5.617,0,0,1,2.161-2.393,6.088,6.088,0,0,1,3.2-.836,5.769,5.769,0,0,1,4.34,1.721,6.77,6.77,0,0,1,1.8,4.565l.012.7a7.858,7.858,0,0,1-.751,3.491,5.549,5.549,0,0,1-2.148,2.38,6.132,6.132,0,0,1-3.229.842,5.729,5.729,0,0,1-4.474-1.862,7.13,7.13,0,0,1-1.678-4.962Zm2.966.256a5.322,5.322,0,0,0,.842,3.192,2.738,2.738,0,0,0,2.344,1.154A2.708,2.708,0,0,0,32.672,27.7a5.878,5.878,0,0,0,.836-3.43,5.253,5.253,0,0,0-.861-3.174A2.9,2.9,0,0,0,28,21.082,5.767,5.767,0,0,0,27.148,24.53ZM45.886,20.5a7.34,7.34,0,0,0-1.208-.1,2.721,2.721,0,0,0-2.747,1.563V31H38.965V17.792H41.8l.073,1.477a3.342,3.342,0,0,1,2.979-1.721,2.777,2.777,0,0,1,1.05.171ZM-59.045,55.3a7.853,7.853,0,0,1,1.416-4.9,4.537,4.537,0,0,1,3.8-1.849,4.311,4.311,0,0,1,3.394,1.465V43.25h2.966V62h-2.686l-.146-1.367a4.373,4.373,0,0,1-3.552,1.611,4.512,4.512,0,0,1-3.754-1.868A8.14,8.14,0,0,1-59.045,55.3Zm2.966.256A5.5,5.5,0,0,0-55.3,58.7a2.515,2.515,0,0,0,2.2,1.129A2.8,2.8,0,0,0-50.439,58.2v-5.64a2.759,2.759,0,0,0-2.637-1.587A2.534,2.534,0,0,0-55.3,52.118,6.123,6.123,0,0,0-56.079,55.555Zm17.517,6.689a6.137,6.137,0,0,1-4.572-1.776,6.443,6.443,0,0,1-1.752-4.73v-.366a7.925,7.925,0,0,1,.763-3.534,5.807,5.807,0,0,1,2.142-2.423,5.664,5.664,0,0,1,3.076-.867,5.184,5.184,0,0,1,4.169,1.721,7.278,7.278,0,0,1,1.471,4.871v1.2h-8.63A3.966,3.966,0,0,0-40.8,58.924a3.28,3.28,0,0,0,2.411.952,4.017,4.017,0,0,0,3.32-1.648l1.6,1.526a5.34,5.34,0,0,1-2.118,1.837A6.631,6.631,0,0,1-38.562,62.244Zm-.354-11.316a2.5,2.5,0,0,0-1.971.854,4.429,4.429,0,0,0-.958,2.38h5.652v-.22a3.605,3.605,0,0,0-.793-2.252A2.479,2.479,0,0,0-38.916,50.928Zm17.9-5.347v3.21h2.332v2.2h-2.332v7.373a1.624,1.624,0,0,0,.3,1.093,1.387,1.387,0,0,0,1.068.336,4.57,4.57,0,0,0,1.038-.122v2.295a7.306,7.306,0,0,1-1.953.281q-3.418,0-3.418-3.772V50.989H-26.16v-2.2h2.173v-3.21Zm12.6,15.125a4.6,4.6,0,0,1-3.711,1.538,4.1,4.1,0,0,1-3.253-1.257,5.349,5.349,0,0,1-1.1-3.638V48.792h2.966v8.521q0,2.515,2.087,2.515a2.932,2.932,0,0,0,2.917-1.55V48.792h2.966V62h-2.8ZM4.382,51.5a7.34,7.34,0,0,0-1.208-.1A2.721,2.721,0,0,0,.427,52.967V62H-2.539V48.792H.293l.073,1.477a3.342,3.342,0,0,1,2.979-1.721,2.777,2.777,0,0,1,1.05.171ZM9.412,62H6.445V48.792H9.412ZM6.262,45.362A1.574,1.574,0,0,1,6.7,44.227a1.637,1.637,0,0,1,1.239-.452,1.658,1.658,0,0,1,1.245.452,1.562,1.562,0,0,1,.439,1.135,1.526,1.526,0,0,1-.439,1.117,1.671,1.671,0,0,1-1.245.446A1.65,1.65,0,0,1,6.7,46.479,1.538,1.538,0,0,1,6.262,45.362ZM20.044,58.411a1.345,1.345,0,0,0-.653-1.208,6.946,6.946,0,0,0-2.167-.732,11.139,11.139,0,0,1-2.527-.806,3.372,3.372,0,0,1-2.222-3.113,3.516,3.516,0,0,1,1.44-2.856,5.694,5.694,0,0,1,3.662-1.147,5.925,5.925,0,0,1,3.827,1.172,3.719,3.719,0,0,1,1.459,3.04H19.9a1.828,1.828,0,0,0-.635-1.422,2.433,2.433,0,0,0-1.685-.568,2.629,2.629,0,0,0-1.593.452,1.424,1.424,0,0,0-.616,1.208,1.2,1.2,0,0,0,.574,1.062,7.89,7.89,0,0,0,2.319.763A10.979,10.979,0,0,1,21,55.17a3.881,3.881,0,0,1,1.477,1.276,3.253,3.253,0,0,1,.482,1.807,3.441,3.441,0,0,1-1.477,2.887,6.3,6.3,0,0,1-3.87,1.1,6.83,6.83,0,0,1-2.893-.586,4.761,4.761,0,0,1-1.978-1.611,3.814,3.814,0,0,1-.708-2.209h2.881a2.09,2.09,0,0,0,.793,1.617,3.083,3.083,0,0,0,1.941.568,3,3,0,0,0,1.782-.446A1.379,1.379,0,0,0,20.044,58.411Zm8.289-9.619.085,1.379a4.753,4.753,0,0,1,3.809-1.624,3.651,3.651,0,0,1,3.625,2.026A4.685,4.685,0,0,1,39.9,48.548a4.118,4.118,0,0,1,3.253,1.208,5.321,5.321,0,0,1,1.093,3.564V62H41.284V53.406a2.627,2.627,0,0,0-.549-1.843,2.4,2.4,0,0,0-1.819-.586,2.47,2.47,0,0,0-1.654.543,2.865,2.865,0,0,0-.9,1.422L36.377,62H33.411V53.309a2.116,2.116,0,0,0-2.38-2.332A2.611,2.611,0,0,0,28.5,52.43V62H25.537V48.792Zm18.408,6.482a7.788,7.788,0,0,1,.769-3.5,5.617,5.617,0,0,1,2.161-2.393,6.088,6.088,0,0,1,3.2-.836,5.769,5.769,0,0,1,4.34,1.721,6.77,6.77,0,0,1,1.8,4.565l.012.7a7.858,7.858,0,0,1-.751,3.491,5.549,5.549,0,0,1-2.148,2.38,6.132,6.132,0,0,1-3.229.842,5.729,5.729,0,0,1-4.474-1.862,7.13,7.13,0,0,1-1.678-4.962Zm2.966.256a5.322,5.322,0,0,0,.842,3.192,2.738,2.738,0,0,0,2.344,1.154A2.708,2.708,0,0,0,55.231,58.7a5.878,5.878,0,0,0,.836-3.43,5.253,5.253,0,0,0-.861-3.174,2.9,2.9,0,0,0-4.645-.018A5.767,5.767,0,0,0,49.707,55.53Z" transform="translate(465.051 5079)" fill="#12263f"/>
          <path id="Trazado_914359" data-name="Trazado 914359" d="M-41.718-5.786a6.417,6.417,0,0,1-2.1,4.437A7.158,7.158,0,0,1-48.688.244,6.931,6.931,0,0,1-52.429-.763a6.61,6.61,0,0,1-2.5-2.863,10.33,10.33,0,0,1-.916-4.309v-1.66a10.4,10.4,0,0,1,.891-4.431,6.716,6.716,0,0,1,2.557-2.954,7.134,7.134,0,0,1,3.851-1.038,6.853,6.853,0,0,1,4.736,1.6A6.681,6.681,0,0,1-41.718-11.9h-3.076a4.39,4.39,0,0,0-1.117-2.765,3.692,3.692,0,0,0-2.631-.848,3.607,3.607,0,0,0-3.094,1.471,7.346,7.346,0,0,0-1.1,4.315v1.575A7.793,7.793,0,0,0-51.709-3.76a3.424,3.424,0,0,0,3.021,1.514,3.993,3.993,0,0,0,2.734-.818,4.265,4.265,0,0,0,1.16-2.722Zm1.917-.94a7.788,7.788,0,0,1,.769-3.5,5.617,5.617,0,0,1,2.161-2.393,6.088,6.088,0,0,1,3.2-.836,5.769,5.769,0,0,1,4.34,1.721,6.77,6.77,0,0,1,1.8,4.565l.012.7a7.858,7.858,0,0,1-.751,3.491A5.549,5.549,0,0,1-30.42-.6a6.132,6.132,0,0,1-3.229.842,5.729,5.729,0,0,1-4.474-1.862A7.13,7.13,0,0,1-39.8-6.58Zm2.966.256a5.322,5.322,0,0,0,.842,3.192,2.738,2.738,0,0,0,2.344,1.154A2.708,2.708,0,0,0-31.311-3.3a5.878,5.878,0,0,0,.836-3.43A5.253,5.253,0,0,0-31.335-9.9a2.748,2.748,0,0,0-2.338-1.172A2.723,2.723,0,0,0-35.98-9.918,5.767,5.767,0,0,0-36.835-6.47Zm14.612-6.738.085,1.379a4.753,4.753,0,0,1,3.809-1.624A3.651,3.651,0,0,1-14.7-11.426a4.685,4.685,0,0,1,4.053-2.026A4.118,4.118,0,0,1-7.4-12.244,5.321,5.321,0,0,1-6.3-8.679V0H-9.271V-8.594a2.627,2.627,0,0,0-.549-1.843,2.4,2.4,0,0,0-1.819-.586,2.47,2.47,0,0,0-1.654.543,2.865,2.865,0,0,0-.9,1.422L-14.178,0h-2.966V-8.691a2.116,2.116,0,0,0-2.38-2.332A2.611,2.611,0,0,0-22.052-9.57V0h-2.966V-13.208ZM-.1,0H-3.07V-13.208H-.1ZM-3.253-16.638a1.574,1.574,0,0,1,.433-1.135,1.637,1.637,0,0,1,1.239-.452,1.658,1.658,0,0,1,1.245.452A1.562,1.562,0,0,1,.1-16.638a1.526,1.526,0,0,1-.439,1.117,1.671,1.671,0,0,1-1.245.446,1.65,1.65,0,0,1-1.239-.446A1.538,1.538,0,0,1-3.253-16.638Zm10.1.22v3.21H9.174v2.2H6.842v7.373a1.624,1.624,0,0,0,.3,1.093,1.387,1.387,0,0,0,1.068.336,4.57,4.57,0,0,0,1.038-.122V-.037A7.306,7.306,0,0,1,7.294.244q-3.418,0-3.418-3.772v-7.483H1.7v-2.2H3.876v-3.21ZM17.255.244a6.137,6.137,0,0,1-4.572-1.776,6.443,6.443,0,0,1-1.752-4.73v-.366a7.925,7.925,0,0,1,.763-3.534,5.807,5.807,0,0,1,2.142-2.423,5.664,5.664,0,0,1,3.076-.867,5.184,5.184,0,0,1,4.169,1.721A7.278,7.278,0,0,1,22.552-6.86v1.2h-8.63a3.966,3.966,0,0,0,1.093,2.588,3.28,3.28,0,0,0,2.411.952,4.017,4.017,0,0,0,3.32-1.648l1.6,1.526A5.34,5.34,0,0,1,20.227-.409,6.631,6.631,0,0,1,17.255.244ZM16.9-11.072a2.5,2.5,0,0,0-1.971.854,4.429,4.429,0,0,0-.958,2.38h5.652v-.22a3.605,3.605,0,0,0-.793-2.252A2.479,2.479,0,0,0,16.9-11.072Zm.671-7.678h3.381l-3.381,3.7h-2.38ZM30.524-6.7a7.853,7.853,0,0,1,1.416-4.9,4.537,4.537,0,0,1,3.8-1.849,4.311,4.311,0,0,1,3.394,1.465V-18.75H42.1V0H39.41l-.146-1.367A4.373,4.373,0,0,1,35.712.244a4.512,4.512,0,0,1-3.754-1.868A8.14,8.14,0,0,1,30.524-6.7Zm2.966.256A5.5,5.5,0,0,0,34.265-3.3a2.515,2.515,0,0,0,2.2,1.129A2.8,2.8,0,0,0,39.13-3.8v-5.64a2.759,2.759,0,0,0-2.637-1.587,2.534,2.534,0,0,0-2.222,1.141A6.123,6.123,0,0,0,33.49-6.445ZM51.007.244a6.137,6.137,0,0,1-4.572-1.776,6.443,6.443,0,0,1-1.752-4.73v-.366a7.925,7.925,0,0,1,.763-3.534,5.807,5.807,0,0,1,2.142-2.423,5.664,5.664,0,0,1,3.076-.867,5.184,5.184,0,0,1,4.169,1.721A7.278,7.278,0,0,1,56.3-6.86v1.2h-8.63a3.966,3.966,0,0,0,1.093,2.588,3.28,3.28,0,0,0,2.411.952A4.017,4.017,0,0,0,54.5-3.772l1.6,1.526A5.34,5.34,0,0,1,53.979-.409,6.631,6.631,0,0,1,51.007.244Zm-.354-11.316a2.5,2.5,0,0,0-1.971.854,4.429,4.429,0,0,0-.958,2.38h5.652v-.22a3.605,3.605,0,0,0-.793-2.252A2.479,2.479,0,0,0,50.653-11.072ZM-64.618,28.876a2.682,2.682,0,0,0,1.843-.647,2.21,2.21,0,0,0,.781-1.6h2.8a4.357,4.357,0,0,1-.769,2.3,5.044,5.044,0,0,1-1.953,1.691,5.82,5.82,0,0,1-2.661.623,5.631,5.631,0,0,1-4.395-1.794A7.117,7.117,0,0,1-70.6,24.494v-.305a7,7,0,0,1,1.611-4.828,5.58,5.58,0,0,1,4.395-1.813,5.427,5.427,0,0,1,3.839,1.373A4.919,4.919,0,0,1-59.2,22.528h-2.8a2.716,2.716,0,0,0-.775-1.868,2.494,2.494,0,0,0-1.849-.732,2.61,2.61,0,0,0-2.222,1.044,5.326,5.326,0,0,0-.793,3.168v.476a5.414,5.414,0,0,0,.775,3.2A2.608,2.608,0,0,0-64.618,28.876ZM-49.066,31a4.578,4.578,0,0,1-.342-1.233,4.617,4.617,0,0,1-3.467,1.477,4.66,4.66,0,0,1-3.247-1.135A3.632,3.632,0,0,1-57.379,27.3a3.75,3.75,0,0,1,1.569-3.241,7.6,7.6,0,0,1,4.486-1.129h1.819v-.867a2.314,2.314,0,0,0-.574-1.642,2.274,2.274,0,0,0-1.746-.616,2.613,2.613,0,0,0-1.66.507,1.568,1.568,0,0,0-.647,1.288H-57.1a3.292,3.292,0,0,1,.72-2.032,4.8,4.8,0,0,1,1.959-1.483,6.882,6.882,0,0,1,2.765-.537,5.542,5.542,0,0,1,3.7,1.166,4.157,4.157,0,0,1,1.416,3.278v5.957a6.751,6.751,0,0,0,.5,2.844V31Zm-3.259-2.136a3.374,3.374,0,0,0,1.654-.427,2.854,2.854,0,0,0,1.166-1.147V24.8h-1.6a4.373,4.373,0,0,0-2.478.574A1.859,1.859,0,0,0-54.413,27a1.733,1.733,0,0,0,.568,1.361A2.2,2.2,0,0,0-52.325,28.864Zm20.459-4.333a7.864,7.864,0,0,1-1.392,4.889,4.457,4.457,0,0,1-3.735,1.825,4.487,4.487,0,0,1-3.479-1.428v6.262h-2.966V17.792H-40.7l.122,1.343a4.357,4.357,0,0,1,3.552-1.587,4.5,4.5,0,0,1,3.79,1.8,8.074,8.074,0,0,1,1.373,5Zm-2.954-.256a5.509,5.509,0,0,0-.787-3.137,2.56,2.56,0,0,0-2.252-1.16,2.73,2.73,0,0,0-2.612,1.5v5.859a2.755,2.755,0,0,0,2.637,1.538,2.557,2.557,0,0,0,2.216-1.141A6.064,6.064,0,0,0-34.821,24.274ZM-21.466,31a4.578,4.578,0,0,1-.342-1.233,4.617,4.617,0,0,1-3.467,1.477,4.66,4.66,0,0,1-3.247-1.135A3.632,3.632,0,0,1-29.779,27.3,3.75,3.75,0,0,1-28.21,24.06a7.6,7.6,0,0,1,4.486-1.129h1.819v-.867a2.314,2.314,0,0,0-.574-1.642,2.274,2.274,0,0,0-1.746-.616,2.613,2.613,0,0,0-1.66.507,1.568,1.568,0,0,0-.647,1.288H-29.5a3.292,3.292,0,0,1,.72-2.032,4.8,4.8,0,0,1,1.959-1.483,6.882,6.882,0,0,1,2.765-.537,5.542,5.542,0,0,1,3.7,1.166,4.157,4.157,0,0,1,1.416,3.278v5.957a6.751,6.751,0,0,0,.5,2.844V31Zm-3.259-2.136a3.374,3.374,0,0,0,1.654-.427,2.854,2.854,0,0,0,1.166-1.147V24.8h-1.6a4.373,4.373,0,0,0-2.478.574A1.859,1.859,0,0,0-26.813,27a1.733,1.733,0,0,0,.568,1.361A2.2,2.2,0,0,0-24.725,28.864Zm14.319.012a2.682,2.682,0,0,0,1.843-.647,2.21,2.21,0,0,0,.781-1.6h2.8a4.357,4.357,0,0,1-.769,2.3,5.044,5.044,0,0,1-1.953,1.691,5.82,5.82,0,0,1-2.661.623,5.631,5.631,0,0,1-4.395-1.794,7.117,7.117,0,0,1-1.624-4.956v-.305a7,7,0,0,1,1.611-4.828,5.58,5.58,0,0,1,4.395-1.813,5.427,5.427,0,0,1,3.839,1.373,4.919,4.919,0,0,1,1.556,3.607h-2.8a2.716,2.716,0,0,0-.775-1.868,2.494,2.494,0,0,0-1.849-.732,2.61,2.61,0,0,0-2.222,1.044,5.326,5.326,0,0,0-.793,3.168v.476a5.414,5.414,0,0,0,.775,3.2A2.608,2.608,0,0,0-10.406,28.876ZM.409,31H-2.557V17.792H.409ZM-2.74,14.362a1.574,1.574,0,0,1,.433-1.135,1.637,1.637,0,0,1,1.239-.452,1.658,1.658,0,0,1,1.245.452,1.562,1.562,0,0,1,.439,1.135,1.526,1.526,0,0,1-.439,1.117,1.671,1.671,0,0,1-1.245.446,1.65,1.65,0,0,1-1.239-.446A1.538,1.538,0,0,1-2.74,14.362Zm10.1.22v3.21H9.686v2.2H7.355v7.373a1.624,1.624,0,0,0,.3,1.093,1.387,1.387,0,0,0,1.068.336,4.569,4.569,0,0,0,1.038-.122v2.295a7.306,7.306,0,0,1-1.953.281q-3.418,0-3.418-3.772V19.989H2.216v-2.2H4.388v-3.21ZM19.843,31a4.578,4.578,0,0,1-.342-1.233,4.617,4.617,0,0,1-3.467,1.477,4.66,4.66,0,0,1-3.247-1.135A3.632,3.632,0,0,1,11.53,27.3,3.75,3.75,0,0,1,13.1,24.06a7.6,7.6,0,0,1,4.486-1.129H19.4v-.867a2.314,2.314,0,0,0-.574-1.642,2.274,2.274,0,0,0-1.746-.616,2.613,2.613,0,0,0-1.66.507,1.568,1.568,0,0,0-.647,1.288H11.81a3.292,3.292,0,0,1,.72-2.032,4.8,4.8,0,0,1,1.959-1.483,6.882,6.882,0,0,1,2.765-.537,5.542,5.542,0,0,1,3.7,1.166,4.157,4.157,0,0,1,1.416,3.278v5.957a6.751,6.751,0,0,0,.5,2.844V31Zm-3.259-2.136a3.374,3.374,0,0,0,1.654-.427A2.854,2.854,0,0,0,19.4,27.289V24.8H17.8a4.373,4.373,0,0,0-2.478.574A1.859,1.859,0,0,0,14.5,27a1.733,1.733,0,0,0,.568,1.361A2.2,2.2,0,0,0,16.583,28.864Zm14.319.012a2.682,2.682,0,0,0,1.843-.647,2.21,2.21,0,0,0,.781-1.6h2.8a4.357,4.357,0,0,1-.769,2.3A5.044,5.044,0,0,1,33.6,30.622a5.82,5.82,0,0,1-2.661.623,5.631,5.631,0,0,1-4.395-1.794,7.117,7.117,0,0,1-1.624-4.956v-.305a7,7,0,0,1,1.611-4.828,5.58,5.58,0,0,1,4.395-1.813,5.427,5.427,0,0,1,3.839,1.373,4.919,4.919,0,0,1,1.556,3.607h-2.8a2.716,2.716,0,0,0-.775-1.868,2.494,2.494,0,0,0-1.849-.732,2.61,2.61,0,0,0-2.222,1.044,5.326,5.326,0,0,0-.793,3.168v.476a5.414,5.414,0,0,0,.775,3.2A2.608,2.608,0,0,0,30.9,28.876ZM41.718,31H38.751V17.792h2.966ZM38.568,14.362A1.574,1.574,0,0,1,39,13.227a1.637,1.637,0,0,1,1.239-.452,1.658,1.658,0,0,1,1.245.452,1.562,1.562,0,0,1,.439,1.135,1.526,1.526,0,0,1-.439,1.117,1.671,1.671,0,0,1-1.245.446A1.65,1.65,0,0,1,39,15.479,1.538,1.538,0,0,1,38.568,14.362Zm5.823,9.912a7.788,7.788,0,0,1,.769-3.5,5.617,5.617,0,0,1,2.161-2.393,6.088,6.088,0,0,1,3.2-.836,5.769,5.769,0,0,1,4.34,1.721,6.77,6.77,0,0,1,1.8,4.565l.012.7a7.858,7.858,0,0,1-.751,3.491,5.549,5.549,0,0,1-2.148,2.38,6.132,6.132,0,0,1-3.229.842,5.729,5.729,0,0,1-4.474-1.862,7.13,7.13,0,0,1-1.678-4.962Zm2.966.256a5.322,5.322,0,0,0,.842,3.192,2.738,2.738,0,0,0,2.344,1.154A2.708,2.708,0,0,0,52.881,27.7a5.878,5.878,0,0,0,.836-3.43,5.253,5.253,0,0,0-.861-3.174,2.9,2.9,0,0,0-4.645-.018A5.767,5.767,0,0,0,47.357,24.53Zm3.979-12.28h3.381l-3.381,3.7h-2.38Zm10.6,5.542.085,1.526a4.749,4.749,0,0,1,3.845-1.77q4.126,0,4.2,4.724V31H67.1V22.443a2.72,2.72,0,0,0-.543-1.862,2.285,2.285,0,0,0-1.776-.6A2.858,2.858,0,0,0,62.1,21.6V31H59.137V17.792ZM-40.649,45.582v3.21h2.332v2.2h-2.332v7.373a1.624,1.624,0,0,0,.3,1.093,1.387,1.387,0,0,0,1.068.336,4.57,4.57,0,0,0,1.038-.122v2.295a7.306,7.306,0,0,1-1.953.281q-3.418,0-3.418-3.772V50.989h-2.173v-2.2h2.173v-3.21Zm12.6,15.125a4.6,4.6,0,0,1-3.711,1.538,4.1,4.1,0,0,1-3.253-1.257,5.349,5.349,0,0,1-1.1-3.638V48.792h2.966v8.521q0,2.515,2.087,2.515a2.932,2.932,0,0,0,2.917-1.55V48.792h2.966V62h-2.8Zm12.805-9.2a7.34,7.34,0,0,0-1.208-.1A2.721,2.721,0,0,0-19.2,52.967V62h-2.966V48.792h2.832l.073,1.477a3.342,3.342,0,0,1,2.979-1.721,2.777,2.777,0,0,1,1.05.171ZM-10.181,62h-2.966V48.792h2.966Zm-.562-18.665h3.381l-3.381,3.7h-2.38ZM.6,58.411A1.345,1.345,0,0,0-.055,57.2a6.946,6.946,0,0,0-2.167-.732,11.139,11.139,0,0,1-2.527-.806A3.372,3.372,0,0,1-6.97,52.552,3.516,3.516,0,0,1-5.53,49.7a5.694,5.694,0,0,1,3.662-1.147A5.925,5.925,0,0,1,1.959,49.72a3.719,3.719,0,0,1,1.459,3.04H.452a1.828,1.828,0,0,0-.635-1.422,2.433,2.433,0,0,0-1.685-.568,2.629,2.629,0,0,0-1.593.452,1.424,1.424,0,0,0-.616,1.208A1.2,1.2,0,0,0-3.5,53.492a7.89,7.89,0,0,0,2.319.763,10.979,10.979,0,0,1,2.74.916,3.881,3.881,0,0,1,1.477,1.276,3.253,3.253,0,0,1,.482,1.807,3.441,3.441,0,0,1-1.477,2.887,6.3,6.3,0,0,1-3.87,1.1,6.83,6.83,0,0,1-2.893-.586A4.761,4.761,0,0,1-6.7,60.047a3.814,3.814,0,0,1-.708-2.209h2.881a2.09,2.09,0,0,0,.793,1.617,3.083,3.083,0,0,0,1.941.568,3,3,0,0,0,1.782-.446A1.379,1.379,0,0,0,.6,58.411Zm9.216-12.83v3.21h2.332v2.2H9.814v7.373a1.624,1.624,0,0,0,.3,1.093,1.387,1.387,0,0,0,1.068.336,4.57,4.57,0,0,0,1.038-.122v2.295a7.306,7.306,0,0,1-1.953.281q-3.418,0-3.418-3.772V50.989H4.675v-2.2H6.848v-3.21ZM17.566,62H14.6V48.792h2.966ZM14.417,45.362a1.574,1.574,0,0,1,.433-1.135,1.637,1.637,0,0,1,1.239-.452,1.658,1.658,0,0,1,1.245.452,1.562,1.562,0,0,1,.439,1.135,1.526,1.526,0,0,1-.439,1.117,1.671,1.671,0,0,1-1.245.446,1.65,1.65,0,0,1-1.239-.446A1.538,1.538,0,0,1,14.417,45.362Zm11.8,14.514a2.682,2.682,0,0,0,1.843-.647,2.21,2.21,0,0,0,.781-1.6h2.8a4.357,4.357,0,0,1-.769,2.3,5.044,5.044,0,0,1-1.953,1.691,5.82,5.82,0,0,1-2.661.623,5.631,5.631,0,0,1-4.395-1.794,7.117,7.117,0,0,1-1.624-4.956v-.305a7,7,0,0,1,1.611-4.828,5.58,5.58,0,0,1,4.395-1.813,5.427,5.427,0,0,1,3.839,1.373,4.919,4.919,0,0,1,1.556,3.607h-2.8a2.716,2.716,0,0,0-.775-1.868,2.494,2.494,0,0,0-1.849-.732A2.61,2.61,0,0,0,24,51.972a5.326,5.326,0,0,0-.793,3.168v.476a5.414,5.414,0,0,0,.775,3.2A2.608,2.608,0,0,0,26.221,59.876ZM41.772,62a4.578,4.578,0,0,1-.342-1.233,4.99,4.99,0,0,1-6.714.342A3.632,3.632,0,0,1,33.459,58.3a3.75,3.75,0,0,1,1.569-3.241,7.6,7.6,0,0,1,4.486-1.129h1.819v-.867a2.314,2.314,0,0,0-.574-1.642,2.274,2.274,0,0,0-1.746-.616,2.613,2.613,0,0,0-1.66.507,1.568,1.568,0,0,0-.647,1.288H33.74a3.292,3.292,0,0,1,.72-2.032,4.8,4.8,0,0,1,1.959-1.483,6.882,6.882,0,0,1,2.765-.537,5.542,5.542,0,0,1,3.7,1.166A4.157,4.157,0,0,1,44.3,52.991v5.957a6.751,6.751,0,0,0,.5,2.844V62Zm-3.259-2.136a3.374,3.374,0,0,0,1.654-.427,2.854,2.854,0,0,0,1.166-1.147V55.8h-1.6a4.373,4.373,0,0,0-2.478.574A1.859,1.859,0,0,0,36.426,58a1.733,1.733,0,0,0,.568,1.361A2.2,2.2,0,0,0,38.513,59.864Z" transform="translate(675.051 5079)" fill="#12263f"/>
          <path id="Trazado_914360" data-name="Trazado 914360" d="M-24.841-5.786a6.417,6.417,0,0,1-2.1,4.437A7.158,7.158,0,0,1-31.812.244,6.931,6.931,0,0,1-35.553-.763a6.61,6.61,0,0,1-2.5-2.863,10.33,10.33,0,0,1-.916-4.309v-1.66a10.4,10.4,0,0,1,.891-4.431,6.716,6.716,0,0,1,2.557-2.954,7.134,7.134,0,0,1,3.851-1.038,6.853,6.853,0,0,1,4.736,1.6A6.681,6.681,0,0,1-24.841-11.9h-3.076a4.39,4.39,0,0,0-1.117-2.765,3.692,3.692,0,0,0-2.631-.848,3.607,3.607,0,0,0-3.094,1.471,7.346,7.346,0,0,0-1.1,4.315v1.575A7.793,7.793,0,0,0-34.833-3.76a3.424,3.424,0,0,0,3.021,1.514,3.993,3.993,0,0,0,2.734-.818,4.265,4.265,0,0,0,1.16-2.722Zm1.917-.94a7.788,7.788,0,0,1,.769-3.5A5.617,5.617,0,0,1-20-12.616a6.088,6.088,0,0,1,3.2-.836,5.769,5.769,0,0,1,4.34,1.721,6.77,6.77,0,0,1,1.8,4.565l.012.7A7.858,7.858,0,0,1-11.4-2.979,5.549,5.549,0,0,1-13.544-.6a6.132,6.132,0,0,1-3.229.842,5.729,5.729,0,0,1-4.474-1.862A7.13,7.13,0,0,1-22.925-6.58Zm2.966.256a5.322,5.322,0,0,0,.842,3.192,2.738,2.738,0,0,0,2.344,1.154A2.708,2.708,0,0,0-14.435-3.3a5.878,5.878,0,0,0,.836-3.43A5.253,5.253,0,0,0-14.459-9.9,2.748,2.748,0,0,0-16.8-11.072,2.723,2.723,0,0,0-19.1-9.918,5.767,5.767,0,0,0-19.958-6.47Zm14.612-6.738.085,1.379a4.753,4.753,0,0,1,3.809-1.624,3.651,3.651,0,0,1,3.625,2.026,4.685,4.685,0,0,1,4.053-2.026,4.118,4.118,0,0,1,3.253,1.208,5.321,5.321,0,0,1,1.093,3.564V0H7.6V-8.594a2.627,2.627,0,0,0-.549-1.843,2.4,2.4,0,0,0-1.819-.586,2.47,2.47,0,0,0-1.654.543,2.865,2.865,0,0,0-.9,1.422L2.7,0H-.269V-8.691a2.116,2.116,0,0,0-2.38-2.332A2.611,2.611,0,0,0-5.176-9.57V0H-8.142V-13.208ZM16.772,0H13.806V-13.208h2.966ZM13.623-16.638a1.574,1.574,0,0,1,.433-1.135,1.637,1.637,0,0,1,1.239-.452,1.658,1.658,0,0,1,1.245.452,1.562,1.562,0,0,1,.439,1.135,1.526,1.526,0,0,1-.439,1.117,1.671,1.671,0,0,1-1.245.446,1.65,1.65,0,0,1-1.239-.446A1.538,1.538,0,0,1,13.623-16.638Zm10.1.22v3.21H26.05v2.2H23.718v7.373a1.624,1.624,0,0,0,.3,1.093,1.387,1.387,0,0,0,1.068.336,4.57,4.57,0,0,0,1.038-.122V-.037A7.306,7.306,0,0,1,24.17.244q-3.418,0-3.418-3.772v-7.483H18.579v-2.2h2.173v-3.21ZM34.131.244a6.137,6.137,0,0,1-4.572-1.776,6.443,6.443,0,0,1-1.752-4.73v-.366a7.925,7.925,0,0,1,.763-3.534,5.807,5.807,0,0,1,2.142-2.423,5.664,5.664,0,0,1,3.076-.867,5.184,5.184,0,0,1,4.169,1.721A7.278,7.278,0,0,1,39.429-6.86v1.2H30.8a3.966,3.966,0,0,0,1.093,2.588,3.28,3.28,0,0,0,2.411.952,4.017,4.017,0,0,0,3.32-1.648l1.6,1.526A5.34,5.34,0,0,1,37.1-.409,6.631,6.631,0,0,1,34.131.244Zm-.354-11.316a2.5,2.5,0,0,0-1.971.854,4.429,4.429,0,0,0-.958,2.38H36.5v-.22a3.605,3.605,0,0,0-.793-2.252A2.479,2.479,0,0,0,33.777-11.072Zm.671-7.678H37.83l-3.381,3.7h-2.38ZM-12.8,24.3a7.853,7.853,0,0,1,1.416-4.9,4.537,4.537,0,0,1,3.8-1.849,4.311,4.311,0,0,1,3.394,1.465V12.25h2.966V31H-3.912l-.146-1.367a4.373,4.373,0,0,1-3.552,1.611,4.512,4.512,0,0,1-3.754-1.868A8.14,8.14,0,0,1-12.8,24.3Zm2.966.256A5.5,5.5,0,0,0-9.058,27.7a2.515,2.515,0,0,0,2.2,1.129A2.8,2.8,0,0,0-4.193,27.2v-5.64A2.759,2.759,0,0,0-6.83,19.977a2.534,2.534,0,0,0-2.222,1.141A6.123,6.123,0,0,0-9.833,24.555ZM7.684,31.244a6.137,6.137,0,0,1-4.572-1.776,6.443,6.443,0,0,1-1.752-4.73v-.366a7.925,7.925,0,0,1,.763-3.534,5.807,5.807,0,0,1,2.142-2.423,5.664,5.664,0,0,1,3.076-.867,5.184,5.184,0,0,1,4.169,1.721,7.278,7.278,0,0,1,1.471,4.871v1.2H4.352a3.966,3.966,0,0,0,1.093,2.588,3.28,3.28,0,0,0,2.411.952,4.017,4.017,0,0,0,3.32-1.648l1.6,1.526a5.34,5.34,0,0,1-2.118,1.837A6.631,6.631,0,0,1,7.684,31.244ZM7.33,19.928a2.5,2.5,0,0,0-1.971.854,4.429,4.429,0,0,0-.958,2.38h5.652v-.22a3.605,3.605,0,0,0-.793-2.252A2.479,2.479,0,0,0,7.33,19.928Zm-30.536,35.6A7.864,7.864,0,0,1-24.6,60.419a4.457,4.457,0,0,1-3.735,1.825,4.487,4.487,0,0,1-3.479-1.428v6.262h-2.966V48.792h2.734l.122,1.343a4.357,4.357,0,0,1,3.552-1.587,4.5,4.5,0,0,1,3.79,1.8,8.074,8.074,0,0,1,1.373,5Zm-2.954-.256a5.509,5.509,0,0,0-.787-3.137,2.56,2.56,0,0,0-2.252-1.16,2.73,2.73,0,0,0-2.612,1.5v5.859a2.755,2.755,0,0,0,2.637,1.538,2.557,2.557,0,0,0,2.216-1.141A6.064,6.064,0,0,0-26.16,55.274ZM-17.542,62h-2.966V43.25h2.966Zm11.121,0a4.578,4.578,0,0,1-.342-1.233,4.617,4.617,0,0,1-3.467,1.477,4.66,4.66,0,0,1-3.247-1.135A3.632,3.632,0,0,1-14.734,58.3a3.75,3.75,0,0,1,1.569-3.241,7.6,7.6,0,0,1,4.486-1.129H-6.86v-.867a2.314,2.314,0,0,0-.574-1.642,2.274,2.274,0,0,0-1.746-.616,2.613,2.613,0,0,0-1.66.507,1.568,1.568,0,0,0-.647,1.288h-2.966a3.292,3.292,0,0,1,.72-2.032,4.8,4.8,0,0,1,1.959-1.483,6.882,6.882,0,0,1,2.765-.537,5.542,5.542,0,0,1,3.7,1.166,4.157,4.157,0,0,1,1.416,3.278v5.957a6.751,6.751,0,0,0,.5,2.844V62ZM-9.68,59.864a3.374,3.374,0,0,0,1.654-.427A2.854,2.854,0,0,0-6.86,58.289V55.8h-1.6a4.373,4.373,0,0,0-2.478.574A1.859,1.859,0,0,0-11.768,58a1.733,1.733,0,0,0,.568,1.361A2.2,2.2,0,0,0-9.68,59.864ZM3.833,57.752l2.686-8.96H9.68L4.431,64Q3.223,67.334.33,67.334a5.314,5.314,0,0,1-1.428-.22V64.82l.562.037a2.886,2.886,0,0,0,1.691-.409,2.711,2.711,0,0,0,.9-1.373l.427-1.135L-2.161,48.792h3.2ZM19.275,62a4.578,4.578,0,0,1-.342-1.233,4.617,4.617,0,0,1-3.467,1.477,4.66,4.66,0,0,1-3.247-1.135A3.632,3.632,0,0,1,10.962,58.3a3.75,3.75,0,0,1,1.569-3.241,7.6,7.6,0,0,1,4.486-1.129h1.819v-.867a2.314,2.314,0,0,0-.574-1.642,2.274,2.274,0,0,0-1.746-.616,2.613,2.613,0,0,0-1.66.507,1.568,1.568,0,0,0-.647,1.288H11.243a3.292,3.292,0,0,1,.72-2.032,4.8,4.8,0,0,1,1.959-1.483,6.882,6.882,0,0,1,2.765-.537,5.542,5.542,0,0,1,3.7,1.166A4.157,4.157,0,0,1,21.8,52.991v5.957a6.751,6.751,0,0,0,.5,2.844V62Zm-3.259-2.136a3.374,3.374,0,0,0,1.654-.427,2.854,2.854,0,0,0,1.166-1.147V55.8h-1.6a4.373,4.373,0,0,0-2.478.574A1.859,1.859,0,0,0,13.928,58a1.733,1.733,0,0,0,.568,1.361A2.2,2.2,0,0,0,16.016,59.864Zm16.3-1.453a1.345,1.345,0,0,0-.653-1.208,6.946,6.946,0,0,0-2.167-.732,11.139,11.139,0,0,1-2.527-.806,3.372,3.372,0,0,1-2.222-3.113,3.516,3.516,0,0,1,1.44-2.856,5.694,5.694,0,0,1,3.662-1.147,5.925,5.925,0,0,1,3.827,1.172,3.719,3.719,0,0,1,1.459,3.04H32.166a1.828,1.828,0,0,0-.635-1.422,2.433,2.433,0,0,0-1.685-.568,2.629,2.629,0,0,0-1.593.452,1.424,1.424,0,0,0-.616,1.208,1.2,1.2,0,0,0,.574,1.062,7.89,7.89,0,0,0,2.319.763,10.979,10.979,0,0,1,2.74.916,3.881,3.881,0,0,1,1.477,1.276,3.253,3.253,0,0,1,.482,1.807,3.441,3.441,0,0,1-1.477,2.887,6.3,6.3,0,0,1-3.87,1.1,6.83,6.83,0,0,1-2.893-.586,4.761,4.761,0,0,1-1.978-1.611,3.814,3.814,0,0,1-.708-2.209h2.881a2.09,2.09,0,0,0,.793,1.617,3.083,3.083,0,0,0,1.941.568,3,3,0,0,0,1.782-.446A1.379,1.379,0,0,0,32.312,58.411Z" transform="translate(885.051 5079)" fill="#12263f"/>
          <path id="Trazado_914361" data-name="Trazado 914361" d="M-47.144-5.786a6.417,6.417,0,0,1-2.1,4.437A7.158,7.158,0,0,1-54.114.244,6.931,6.931,0,0,1-57.855-.763a6.61,6.61,0,0,1-2.5-2.863,10.33,10.33,0,0,1-.916-4.309v-1.66a10.4,10.4,0,0,1,.891-4.431,6.716,6.716,0,0,1,2.557-2.954,7.134,7.134,0,0,1,3.851-1.038,6.853,6.853,0,0,1,4.736,1.6A6.681,6.681,0,0,1-47.144-11.9H-50.22a4.39,4.39,0,0,0-1.117-2.765,3.692,3.692,0,0,0-2.631-.848,3.607,3.607,0,0,0-3.094,1.471,7.346,7.346,0,0,0-1.1,4.315v1.575A7.793,7.793,0,0,0-57.135-3.76a3.424,3.424,0,0,0,3.021,1.514,3.993,3.993,0,0,0,2.734-.818,4.265,4.265,0,0,0,1.16-2.722Zm1.917-.94a7.788,7.788,0,0,1,.769-3.5A5.617,5.617,0,0,1-42.3-12.616a6.088,6.088,0,0,1,3.2-.836,5.769,5.769,0,0,1,4.34,1.721,6.77,6.77,0,0,1,1.8,4.565l.012.7A7.858,7.858,0,0,1-33.7-2.979,5.549,5.549,0,0,1-35.846-.6a6.132,6.132,0,0,1-3.229.842,5.729,5.729,0,0,1-4.474-1.862A7.13,7.13,0,0,1-45.227-6.58Zm2.966.256a5.322,5.322,0,0,0,.842,3.192,2.738,2.738,0,0,0,2.344,1.154A2.708,2.708,0,0,0-36.737-3.3a5.878,5.878,0,0,0,.836-3.43A5.253,5.253,0,0,0-36.761-9.9,2.748,2.748,0,0,0-39.1-11.072a2.723,2.723,0,0,0-2.307,1.154A5.767,5.767,0,0,0-42.261-6.47Zm14.575-6.738.085,1.526a4.749,4.749,0,0,1,3.845-1.77q4.126,0,4.2,4.724V0h-2.966V-8.557a2.72,2.72,0,0,0-.543-1.862,2.285,2.285,0,0,0-1.776-.6A2.858,2.858,0,0,0-27.515-9.4V0h-2.966V-13.208ZM-9.131-3.589A1.345,1.345,0,0,0-9.784-4.8a6.946,6.946,0,0,0-2.167-.732,11.138,11.138,0,0,1-2.527-.806A3.372,3.372,0,0,1-16.7-9.448a3.516,3.516,0,0,1,1.44-2.856A5.694,5.694,0,0,1-11.6-13.452,5.925,5.925,0,0,1-7.77-12.28a3.719,3.719,0,0,1,1.459,3.04H-9.277a1.828,1.828,0,0,0-.635-1.422A2.433,2.433,0,0,0-11.6-11.23a2.629,2.629,0,0,0-1.593.452,1.424,1.424,0,0,0-.616,1.208,1.2,1.2,0,0,0,.574,1.062,7.89,7.89,0,0,0,2.319.763,10.979,10.979,0,0,1,2.74.916A3.881,3.881,0,0,1-6.7-5.554a3.253,3.253,0,0,1,.482,1.807A3.441,3.441,0,0,1-7.69-.861a6.3,6.3,0,0,1-3.87,1.1,6.83,6.83,0,0,1-2.893-.586,4.761,4.761,0,0,1-1.978-1.611,3.814,3.814,0,0,1-.708-2.209h2.881a2.09,2.09,0,0,0,.793,1.617,3.083,3.083,0,0,0,1.941.568,3,3,0,0,0,1.782-.446A1.379,1.379,0,0,0-9.131-3.589ZM2.185.244A6.137,6.137,0,0,1-2.386-1.532a6.443,6.443,0,0,1-1.752-4.73v-.366a7.925,7.925,0,0,1,.763-3.534,5.807,5.807,0,0,1,2.142-2.423,5.664,5.664,0,0,1,3.076-.867,5.184,5.184,0,0,1,4.169,1.721A7.278,7.278,0,0,1,7.483-6.86v1.2h-8.63A3.966,3.966,0,0,0-.055-3.076a3.28,3.28,0,0,0,2.411.952,4.017,4.017,0,0,0,3.32-1.648l1.6,1.526A5.34,5.34,0,0,1,5.157-.409,6.631,6.631,0,0,1,2.185.244ZM1.831-11.072a2.5,2.5,0,0,0-1.971.854A4.429,4.429,0,0,0-1.1-7.837H4.553v-.22a3.605,3.605,0,0,0-.793-2.252A2.479,2.479,0,0,0,1.831-11.072Zm11.047-2.136V1.172a4.345,4.345,0,0,1-1.007,3.094A3.86,3.86,0,0,1,8.923,5.334a5.928,5.928,0,0,1-1.575-.208V2.783a4.57,4.57,0,0,0,1.05.11q1.477,0,1.514-1.611v-14.49Zm-3.223-3.43a1.574,1.574,0,0,1,.433-1.135,1.637,1.637,0,0,1,1.239-.452,1.658,1.658,0,0,1,1.245.452,1.562,1.562,0,0,1,.439,1.135,1.526,1.526,0,0,1-.439,1.117,1.671,1.671,0,0,1-1.245.446,1.65,1.65,0,0,1-1.239-.446A1.538,1.538,0,0,1,9.656-16.638Zm5.835,9.912a7.788,7.788,0,0,1,.769-3.5,5.617,5.617,0,0,1,2.161-2.393,6.088,6.088,0,0,1,3.2-.836,5.769,5.769,0,0,1,4.34,1.721,6.77,6.77,0,0,1,1.8,4.565l.012.7a7.858,7.858,0,0,1-.751,3.491A5.549,5.549,0,0,1,24.872-.6a6.132,6.132,0,0,1-3.229.842,5.729,5.729,0,0,1-4.474-1.862A7.13,7.13,0,0,1,15.491-6.58Zm2.966.256A5.322,5.322,0,0,0,19.3-3.278a2.738,2.738,0,0,0,2.344,1.154A2.708,2.708,0,0,0,23.981-3.3a5.878,5.878,0,0,0,.836-3.43A5.253,5.253,0,0,0,23.956-9.9a2.748,2.748,0,0,0-2.338-1.172,2.723,2.723,0,0,0-2.307,1.154A5.767,5.767,0,0,0,18.457-6.47ZM35.95-6.7a7.853,7.853,0,0,1,1.416-4.9,4.537,4.537,0,0,1,3.8-1.849,4.311,4.311,0,0,1,3.394,1.465V-18.75h2.966V0H44.836L44.69-1.367A4.373,4.373,0,0,1,41.138.244a4.512,4.512,0,0,1-3.754-1.868A8.14,8.14,0,0,1,35.95-6.7Zm2.966.256A5.5,5.5,0,0,0,39.691-3.3a2.515,2.515,0,0,0,2.2,1.129A2.8,2.8,0,0,0,44.556-3.8v-5.64a2.759,2.759,0,0,0-2.637-1.587A2.534,2.534,0,0,0,39.7-9.882,6.123,6.123,0,0,0,38.916-6.445ZM56.433.244a6.137,6.137,0,0,1-4.572-1.776,6.443,6.443,0,0,1-1.752-4.73v-.366a7.925,7.925,0,0,1,.763-3.534,5.807,5.807,0,0,1,2.142-2.423,5.664,5.664,0,0,1,3.076-.867,5.184,5.184,0,0,1,4.169,1.721A7.278,7.278,0,0,1,61.731-6.86v1.2H53.1a3.966,3.966,0,0,0,1.093,2.588,3.28,3.28,0,0,0,2.411.952,4.017,4.017,0,0,0,3.32-1.648l1.6,1.526A5.34,5.34,0,0,1,59.406-.409,6.631,6.631,0,0,1,56.433.244Zm-.354-11.316a2.5,2.5,0,0,0-1.971.854,4.429,4.429,0,0,0-.958,2.38H58.8v-.22a3.605,3.605,0,0,0-.793-2.252A2.479,2.479,0,0,0,56.079-11.072ZM-46.729,27.411a1.345,1.345,0,0,0-.653-1.208,6.946,6.946,0,0,0-2.167-.732,11.138,11.138,0,0,1-2.527-.806A3.372,3.372,0,0,1-54.3,21.552a3.516,3.516,0,0,1,1.44-2.856,5.694,5.694,0,0,1,3.662-1.147,5.925,5.925,0,0,1,3.827,1.172,3.719,3.719,0,0,1,1.459,3.04h-2.966a1.828,1.828,0,0,0-.635-1.422,2.433,2.433,0,0,0-1.685-.568,2.629,2.629,0,0,0-1.593.452A1.424,1.424,0,0,0-51.4,21.43a1.2,1.2,0,0,0,.574,1.062,7.89,7.89,0,0,0,2.319.763,10.979,10.979,0,0,1,2.74.916,3.881,3.881,0,0,1,1.477,1.276,3.253,3.253,0,0,1,.482,1.807,3.441,3.441,0,0,1-1.477,2.887,6.3,6.3,0,0,1-3.87,1.1,6.83,6.83,0,0,1-2.893-.586,4.761,4.761,0,0,1-1.978-1.611,3.814,3.814,0,0,1-.708-2.209h2.881a2.09,2.09,0,0,0,.793,1.617,3.083,3.083,0,0,0,1.941.568,3,3,0,0,0,1.782-.446A1.379,1.379,0,0,0-46.729,27.411Zm11.316,3.833a6.137,6.137,0,0,1-4.572-1.776,6.443,6.443,0,0,1-1.752-4.73v-.366a7.925,7.925,0,0,1,.763-3.534,5.807,5.807,0,0,1,2.142-2.423,5.664,5.664,0,0,1,3.076-.867,5.184,5.184,0,0,1,4.169,1.721,7.278,7.278,0,0,1,1.471,4.871v1.2h-8.63a3.966,3.966,0,0,0,1.093,2.588,3.28,3.28,0,0,0,2.411.952,4.017,4.017,0,0,0,3.32-1.648l1.6,1.526a5.34,5.34,0,0,1-2.118,1.837A6.631,6.631,0,0,1-35.413,31.244Zm-.354-11.316a2.5,2.5,0,0,0-1.971.854,4.429,4.429,0,0,0-.958,2.38h5.652v-.22a3.605,3.605,0,0,0-.793-2.252A2.479,2.479,0,0,0-35.767,19.928Zm7.434,4.37a7.725,7.725,0,0,1,1.447-4.913,4.643,4.643,0,0,1,3.839-1.837,4.349,4.349,0,0,1,3.552,1.575l.134-1.331h2.673V30.6A5.322,5.322,0,0,1-18.3,34.7a6.161,6.161,0,0,1-4.364,1.5,7.034,7.034,0,0,1-2.838-.6,5.043,5.043,0,0,1-2.106-1.581l1.4-1.782a4.24,4.24,0,0,0,3.369,1.624,3.277,3.277,0,0,0,2.332-.8,3.064,3.064,0,0,0,.854-2.35v-.891a4.367,4.367,0,0,1-3.418,1.428,4.632,4.632,0,0,1-3.79-1.843A7.975,7.975,0,0,1-28.333,24.3Zm2.954.256a5.318,5.318,0,0,0,.812,3.131,2.61,2.61,0,0,0,2.252,1.141,2.855,2.855,0,0,0,2.661-1.538V21.479a2.814,2.814,0,0,0-2.637-1.5,2.62,2.62,0,0,0-2.277,1.16A5.954,5.954,0,0,0-25.378,24.555ZM-5.64,29.706a4.6,4.6,0,0,1-3.711,1.538A4.1,4.1,0,0,1-12.6,29.987a5.349,5.349,0,0,1-1.1-3.638V17.792h2.966v8.521q0,2.515,2.087,2.515a2.932,2.932,0,0,0,2.917-1.55V17.792h2.966V31h-2.8ZM7.166,20.5a7.34,7.34,0,0,0-1.208-.1A2.721,2.721,0,0,0,3.21,21.967V31H.244V17.792H3.076l.073,1.477a3.342,3.342,0,0,1,2.979-1.721,2.777,2.777,0,0,1,1.05.171ZM12.195,31H9.229V17.792h2.966ZM9.045,14.362a1.574,1.574,0,0,1,.433-1.135,1.637,1.637,0,0,1,1.239-.452,1.658,1.658,0,0,1,1.245.452,1.562,1.562,0,0,1,.439,1.135,1.526,1.526,0,0,1-.439,1.117,1.671,1.671,0,0,1-1.245.446,1.65,1.65,0,0,1-1.239-.446A1.538,1.538,0,0,1,9.045,14.362ZM14.868,24.3a7.853,7.853,0,0,1,1.416-4.9,4.537,4.537,0,0,1,3.8-1.849,4.311,4.311,0,0,1,3.394,1.465V12.25H26.44V31H23.755l-.146-1.367a4.373,4.373,0,0,1-3.552,1.611A4.512,4.512,0,0,1,16.3,29.376,8.14,8.14,0,0,1,14.868,24.3Zm2.966.256A5.5,5.5,0,0,0,18.61,27.7a2.515,2.515,0,0,0,2.2,1.129A2.8,2.8,0,0,0,23.474,27.2v-5.64a2.759,2.759,0,0,0-2.637-1.587,2.534,2.534,0,0,0-2.222,1.141A6.123,6.123,0,0,0,17.834,24.555ZM37.427,31a4.578,4.578,0,0,1-.342-1.233,4.99,4.99,0,0,1-6.714.342A3.632,3.632,0,0,1,29.114,27.3a3.75,3.75,0,0,1,1.569-3.241,7.6,7.6,0,0,1,4.486-1.129h1.819v-.867a2.314,2.314,0,0,0-.574-1.642,2.274,2.274,0,0,0-1.746-.616,2.613,2.613,0,0,0-1.66.507,1.568,1.568,0,0,0-.647,1.288H29.395a3.292,3.292,0,0,1,.72-2.032,4.8,4.8,0,0,1,1.959-1.483,6.882,6.882,0,0,1,2.765-.537,5.542,5.542,0,0,1,3.7,1.166,4.157,4.157,0,0,1,1.416,3.278v5.957a6.751,6.751,0,0,0,.5,2.844V31Zm-3.259-2.136a3.374,3.374,0,0,0,1.654-.427,2.854,2.854,0,0,0,1.166-1.147V24.8h-1.6a4.373,4.373,0,0,0-2.478.574A1.859,1.859,0,0,0,32.08,27a1.733,1.733,0,0,0,.568,1.361A2.2,2.2,0,0,0,34.167,28.864ZM42.5,24.3a7.853,7.853,0,0,1,1.416-4.9,4.537,4.537,0,0,1,3.8-1.849,4.311,4.311,0,0,1,3.394,1.465V12.25h2.966V31H51.392l-.146-1.367a4.373,4.373,0,0,1-3.552,1.611,4.512,4.512,0,0,1-3.754-1.868A8.14,8.14,0,0,1,42.5,24.3Zm2.966.256a5.5,5.5,0,0,0,.775,3.143,2.515,2.515,0,0,0,2.2,1.129A2.8,2.8,0,0,0,51.111,27.2v-5.64a2.759,2.759,0,0,0-2.637-1.587,2.534,2.534,0,0,0-2.222,1.141A6.123,6.123,0,0,0,45.471,24.555ZM-40.649,45.582v3.21h2.332v2.2h-2.332v7.373a1.624,1.624,0,0,0,.3,1.093,1.387,1.387,0,0,0,1.068.336,4.57,4.57,0,0,0,1.038-.122v2.295a7.306,7.306,0,0,1-1.953.281q-3.418,0-3.418-3.772V50.989h-2.173v-2.2h2.173v-3.21Zm12.6,15.125a4.6,4.6,0,0,1-3.711,1.538,4.1,4.1,0,0,1-3.253-1.257,5.349,5.349,0,0,1-1.1-3.638V48.792h2.966v8.521q0,2.515,2.087,2.515a2.932,2.932,0,0,0,2.917-1.55V48.792h2.966V62h-2.8Zm12.805-9.2a7.34,7.34,0,0,0-1.208-.1A2.721,2.721,0,0,0-19.2,52.967V62h-2.966V48.792h2.832l.073,1.477a3.342,3.342,0,0,1,2.979-1.721,2.777,2.777,0,0,1,1.05.171ZM-10.181,62h-2.966V48.792h2.966Zm-.562-18.665h3.381l-3.381,3.7h-2.38ZM.6,58.411A1.345,1.345,0,0,0-.055,57.2a6.946,6.946,0,0,0-2.167-.732,11.139,11.139,0,0,1-2.527-.806A3.372,3.372,0,0,1-6.97,52.552,3.516,3.516,0,0,1-5.53,49.7a5.694,5.694,0,0,1,3.662-1.147A5.925,5.925,0,0,1,1.959,49.72a3.719,3.719,0,0,1,1.459,3.04H.452a1.828,1.828,0,0,0-.635-1.422,2.433,2.433,0,0,0-1.685-.568,2.629,2.629,0,0,0-1.593.452,1.424,1.424,0,0,0-.616,1.208A1.2,1.2,0,0,0-3.5,53.492a7.89,7.89,0,0,0,2.319.763,10.979,10.979,0,0,1,2.74.916,3.881,3.881,0,0,1,1.477,1.276,3.253,3.253,0,0,1,.482,1.807,3.441,3.441,0,0,1-1.477,2.887,6.3,6.3,0,0,1-3.87,1.1,6.83,6.83,0,0,1-2.893-.586A4.761,4.761,0,0,1-6.7,60.047a3.814,3.814,0,0,1-.708-2.209h2.881a2.09,2.09,0,0,0,.793,1.617,3.083,3.083,0,0,0,1.941.568,3,3,0,0,0,1.782-.446A1.379,1.379,0,0,0,.6,58.411Zm9.216-12.83v3.21h2.332v2.2H9.814v7.373a1.624,1.624,0,0,0,.3,1.093,1.387,1.387,0,0,0,1.068.336,4.57,4.57,0,0,0,1.038-.122v2.295a7.306,7.306,0,0,1-1.953.281q-3.418,0-3.418-3.772V50.989H4.675v-2.2H6.848v-3.21ZM17.566,62H14.6V48.792h2.966ZM14.417,45.362a1.574,1.574,0,0,1,.433-1.135,1.637,1.637,0,0,1,1.239-.452,1.658,1.658,0,0,1,1.245.452,1.562,1.562,0,0,1,.439,1.135,1.526,1.526,0,0,1-.439,1.117,1.671,1.671,0,0,1-1.245.446,1.65,1.65,0,0,1-1.239-.446A1.538,1.538,0,0,1,14.417,45.362Zm11.8,14.514a2.682,2.682,0,0,0,1.843-.647,2.21,2.21,0,0,0,.781-1.6h2.8a4.357,4.357,0,0,1-.769,2.3,5.044,5.044,0,0,1-1.953,1.691,5.82,5.82,0,0,1-2.661.623,5.631,5.631,0,0,1-4.395-1.794,7.117,7.117,0,0,1-1.624-4.956v-.305a7,7,0,0,1,1.611-4.828,5.58,5.58,0,0,1,4.395-1.813,5.427,5.427,0,0,1,3.839,1.373,4.919,4.919,0,0,1,1.556,3.607h-2.8a2.716,2.716,0,0,0-.775-1.868,2.494,2.494,0,0,0-1.849-.732A2.61,2.61,0,0,0,24,51.972a5.326,5.326,0,0,0-.793,3.168v.476a5.414,5.414,0,0,0,.775,3.2A2.608,2.608,0,0,0,26.221,59.876ZM41.772,62a4.578,4.578,0,0,1-.342-1.233,4.99,4.99,0,0,1-6.714.342A3.632,3.632,0,0,1,33.459,58.3a3.75,3.75,0,0,1,1.569-3.241,7.6,7.6,0,0,1,4.486-1.129h1.819v-.867a2.314,2.314,0,0,0-.574-1.642,2.274,2.274,0,0,0-1.746-.616,2.613,2.613,0,0,0-1.66.507,1.568,1.568,0,0,0-.647,1.288H33.74a3.292,3.292,0,0,1,.72-2.032,4.8,4.8,0,0,1,1.959-1.483,6.882,6.882,0,0,1,2.765-.537,5.542,5.542,0,0,1,3.7,1.166A4.157,4.157,0,0,1,44.3,52.991v5.957a6.751,6.751,0,0,0,.5,2.844V62Zm-3.259-2.136a3.374,3.374,0,0,0,1.654-.427,2.854,2.854,0,0,0,1.166-1.147V55.8h-1.6a4.373,4.373,0,0,0-2.478.574A1.859,1.859,0,0,0,36.426,58a1.733,1.733,0,0,0,.568,1.361A2.2,2.2,0,0,0,38.513,59.864Z" transform="translate(1095.051 5079)" fill="#12263f"/>
          <g id="Grupo_1103030" data-name="Grupo 1103030" transform="translate(85 -8)">
            <g id="Trazado_913241" data-name="Trazado 913241" transform="translate(547.051 4920)" fill="#94b10b">
              <path d="M 284 81.5 L 12 81.5 C 8.928231239318848 81.5 6.040346145629883 80.30381011962891 3.868269205093384 78.13172912597656 C 1.696192264556885 75.95965576171875 0.5 73.07176971435547 0.5 70 L 0.5 12 C 0.5 8.928231239318848 1.696192264556885 6.040346145629883 3.868269205093384 3.868269205093384 C 6.040346145629883 1.696192264556885 8.928231239318848 0.5 12 0.5 L 284 0.5 C 287.07177734375 0.5 289.9596557617188 1.696192264556885 292.1317443847656 3.868269205093384 C 294.3038024902344 6.040346145629883 295.5 8.928231239318848 295.5 12 L 295.5 70 C 295.5 73.07176971435547 294.3038024902344 75.95965576171875 292.1317443847656 78.13172912597656 C 289.9596557617188 80.30381011962891 287.07177734375 81.5 284 81.5 Z" stroke="none"/>
              <path d="M 12 1 C 9.061798095703125 1 6.299468994140625 2.144195556640625 4.2218017578125 4.221809387207031 C 2.144195556640625 6.299461364746094 1 9.061805725097656 1 12 L 1 70 C 1 72.93819427490234 2.144195556640625 75.70053863525391 4.2218017578125 77.77819061279297 C 6.299468994140625 79.85580444335938 9.061798095703125 81 12 81 L 284 81 C 286.9382019042969 81 289.7005310058594 79.85580444335938 291.7781982421875 77.77819061279297 C 293.8558044433594 75.70053863525391 295 72.93819427490234 295 70 L 295 12 C 295 9.061805725097656 293.8558044433594 6.299461364746094 291.7781982421875 4.221809387207031 C 289.7005310058594 2.144195556640625 286.9382019042969 1 284 1 L 12 1 M 12 0 L 284 0 C 290.6274108886719 0 296 5.372573852539062 296 12 L 296 70 C 296 76.62742614746094 290.6274108886719 82 284 82 L 12 82 C 5.372589111328125 82 0 76.62742614746094 0 70 L 0 12 C 0 5.372573852539062 5.372589111328125 0 12 0 Z" stroke="none" fill="#667b07"/>
            </g>
            <path id="Trazado_914357" data-name="Trazado 914357" d="M-79.914-6.155a2.481,2.481,0,0,0-.967-2.1A12.681,12.681,0,0,0-84.361-9.8a24.673,24.673,0,0,1-3.98-1.6q-4-2.159-4-5.817a5.665,5.665,0,0,1,1.072-3.392,6.99,6.99,0,0,1,3.078-2.328,11.584,11.584,0,0,1,4.5-.838,10.544,10.544,0,0,1,4.479.91,7.133,7.133,0,0,1,3.053,2.57,6.725,6.725,0,0,1,1.088,3.771H-79.9a3.164,3.164,0,0,0-1.015-2.506,4.173,4.173,0,0,0-2.852-.894,4.458,4.458,0,0,0-2.755.749,2.363,2.363,0,0,0-.983,1.974,2.263,2.263,0,0,0,1.152,1.917,13.016,13.016,0,0,0,3.392,1.45,14.655,14.655,0,0,1,6.01,3.078,6.129,6.129,0,0,1,1.885,4.576,5.646,5.646,0,0,1-2.3,4.778,10.087,10.087,0,0,1-6.2,1.732A11.979,11.979,0,0,1-88.5-.669a7.8,7.8,0,0,1-3.392-2.715,6.953,6.953,0,0,1-1.168-4h4.85q0,3.883,4.641,3.883a4.514,4.514,0,0,0,2.691-.7A2.28,2.28,0,0,0-79.914-6.155ZM-64.074.322A8.559,8.559,0,0,1-70.318-2.03,8.362,8.362,0,0,1-72.727-8.3V-8.75a10.532,10.532,0,0,1,1.015-4.7,7.45,7.45,0,0,1,2.876-3.19,8.073,8.073,0,0,1,4.246-1.12A7.236,7.236,0,0,1-58.958-15.5,9.167,9.167,0,0,1-56.9-9.1v1.9h-11.1a4.326,4.326,0,0,0,1.362,2.739,4.116,4.116,0,0,0,2.876,1.031,5.026,5.026,0,0,0,4.206-1.95l2.288,2.562A6.991,6.991,0,0,1-60.111-.508,9.3,9.3,0,0,1-64.074.322Zm-.532-14.309a2.916,2.916,0,0,0-2.248.935,4.828,4.828,0,0,0-1.1,2.675h6.478v-.371a3.442,3.442,0,0,0-.838-2.393A3.01,3.01,0,0,0-64.606-13.986Zm17.6,10.554a3.054,3.054,0,0,0,2.095-.709,2.484,2.484,0,0,0,.838-1.885h4.367a5.973,5.973,0,0,1-.967,3.247,6.379,6.379,0,0,1-2.6,2.288,8.144,8.144,0,0,1-3.65.814,7.569,7.569,0,0,1-5.9-2.377,9.4,9.4,0,0,1-2.159-6.566v-.306a9.3,9.3,0,0,1,2.143-6.429,7.481,7.481,0,0,1,5.881-2.4A7.333,7.333,0,0,1-41.717-15.9a6.589,6.589,0,0,1,2.006,4.955h-4.367a3.174,3.174,0,0,0-.838-2.2,2.8,2.8,0,0,0-2.127-.846A2.806,2.806,0,0,0-49.5-12.8a6.855,6.855,0,0,0-.83,3.843v.483a6.942,6.942,0,0,0,.822,3.867A2.841,2.841,0,0,0-47.01-3.432Zm15.533-18.289v4.286H-28.5v3.416h-2.981v8.7a2.078,2.078,0,0,0,.371,1.386,1.861,1.861,0,0,0,1.418.419,7.426,7.426,0,0,0,1.37-.113V-.1a9.587,9.587,0,0,1-2.82.419q-4.9,0-5-4.947v-9.394H-38.68v-3.416h2.546v-4.286Zm4.367,12.842a10.34,10.34,0,0,1,1-4.625,7.313,7.313,0,0,1,2.876-3.142,8.391,8.391,0,0,1,4.359-1.112,7.939,7.939,0,0,1,5.76,2.159,8.666,8.666,0,0,1,2.49,5.865l.032,1.192A9.113,9.113,0,0,1-12.834-2.1,7.785,7.785,0,0,1-18.844.322a7.824,7.824,0,0,1-6.018-2.417,9.273,9.273,0,0,1-2.248-6.574Zm4.657.338a6.5,6.5,0,0,0,.935,3.795,3.085,3.085,0,0,0,2.675,1.313,3.092,3.092,0,0,0,2.643-1.3,7.112,7.112,0,0,0,.951-4.149,6.434,6.434,0,0,0-.951-3.771,3.092,3.092,0,0,0-2.675-1.337,3.041,3.041,0,0,0-2.643,1.329A7.231,7.231,0,0,0-22.454-8.54ZM2.071-13.068A12.651,12.651,0,0,0,.395-13.2q-2.643,0-3.464,1.789V0H-7.726V-17.435h4.4l.129,2.079a4.315,4.315,0,0,1,3.883-2.4,4.879,4.879,0,0,1,1.45.209Zm14.824-4.367.145,1.95a6.127,6.127,0,0,1,5.011-2.272A4.65,4.65,0,0,1,26.676-15.1a5.986,5.986,0,0,1,5.237-2.659,5.2,5.2,0,0,1,4.222,1.652,7.592,7.592,0,0,1,1.386,4.971V0H32.847V-11.118a3.32,3.32,0,0,0-.58-2.167,2.571,2.571,0,0,0-2.046-.685,2.906,2.906,0,0,0-2.9,2L27.336,0H22.679V-11.1a3.279,3.279,0,0,0-.6-2.191,2.6,2.6,0,0,0-2.03-.677,3.018,3.018,0,0,0-2.868,1.644V0H12.528V-17.435ZM46.011,0H41.339V-17.435h4.673ZM41.065-21.946a2.293,2.293,0,0,1,.7-1.724,2.633,2.633,0,0,1,1.909-.677,2.639,2.639,0,0,1,1.9.677,2.28,2.28,0,0,1,.709,1.724,2.286,2.286,0,0,1-.717,1.74,2.646,2.646,0,0,1-1.893.677,2.646,2.646,0,0,1-1.893-.677A2.286,2.286,0,0,1,41.065-21.946Zm15.42,9.716,2.933-5.2H64.4l-4.963,8.54L64.606,0h-5L56.5-5.479,53.407,0H48.4l5.172-8.895-4.947-8.54h5Zm15.727-9.491v4.286h2.981v3.416H72.212v8.7a2.078,2.078,0,0,0,.371,1.386A1.861,1.861,0,0,0,74-3.513a7.426,7.426,0,0,0,1.37-.113V-.1a9.587,9.587,0,0,1-2.82.419q-4.9,0-5-4.947v-9.394H65.009v-3.416h2.546v-4.286ZM76.578-8.878a10.34,10.34,0,0,1,1-4.625,7.313,7.313,0,0,1,2.876-3.142,8.391,8.391,0,0,1,4.359-1.112,7.939,7.939,0,0,1,5.76,2.159,8.666,8.666,0,0,1,2.49,5.865l.032,1.192A9.113,9.113,0,0,1,90.855-2.1,7.785,7.785,0,0,1,84.844.322a7.824,7.824,0,0,1-6.018-2.417,9.273,9.273,0,0,1-2.248-6.574Zm4.657.338a6.5,6.5,0,0,0,.935,3.795,3.085,3.085,0,0,0,2.675,1.313,3.092,3.092,0,0,0,2.643-1.3,7.112,7.112,0,0,0,.951-4.149,6.434,6.434,0,0,0-.951-3.771,3.092,3.092,0,0,0-2.675-1.337,3.041,3.041,0,0,0-2.643,1.329A7.231,7.231,0,0,0,81.235-8.54Z" transform="translate(695.051 4974)" fill="#fff"/>
          </g>
          <path id="Trazado_913233" data-name="Trazado 913233" d="M-4697.559-8457.574v22.5" transform="translate(5477.609 13451.574)" fill="none" stroke="#94b10b" stroke-width="2"/>
          <path id="Trazado_913234" data-name="Trazado 913234" d="M-4697.559-8457.574v22.5" transform="translate(5582.609 13474.074)" fill="none" stroke="#94b10b" stroke-width="2"/>
          <path id="Trazado_913247" data-name="Trazado 913247" d="M-4697.559-8457.574v22.5" transform="translate(5372.609 13474.074)" fill="none" stroke="#94b10b" stroke-width="2"/>
          <path id="Trazado_913246" data-name="Trazado 913246" d="M-4697.559-8457.574v22.5" transform="translate(5792.609 13474.074)" fill="none" stroke="#94b10b" stroke-width="2"/>
          <path id="Trazado_913240" data-name="Trazado 913240" d="M-4697.559-8457.574v22.5" transform="translate(5162.609 13474.074)" fill="none" stroke="#94b10b" stroke-width="2"/>
          <path id="Trazado_913235" data-name="Trazado 913235" d="M-4697.559-8457.58v632.042" transform="translate(-7361.473 9714.059) rotate(90)" fill="none" stroke="#94b10b" stroke-width="2"/>
        </g>
      </g>
    </g>
  </g>
</svg>
