<svg id="Grupo_1102977" data-name="Grupo 1102977" xmlns="http://www.w3.org/2000/svg" xmlns:xlink="http://www.w3.org/1999/xlink" width="715" height="664.747" viewBox="0 0 715 664.747">
  <defs>
    <clipPath id="clip-path">
      <rect id="Rectángulo_403312" data-name="Rectángulo 403312" width="715" height="664.747" fill="none"/>
    </clipPath>
  </defs>
  <g id="Grupo_1102976" data-name="Grupo 1102976">
    <g id="Grupo_1102975" data-name="Grupo 1102975" clip-path="url(#clip-path)">
      <path id="Trazado_913221" data-name="Trazado 913221" d="M603.563,318.209c0,161.549-130.964,292.51-292.513,292.51S18.54,479.758,18.54,318.209,149.5,25.7,311.05,25.7,603.563,156.66,603.563,318.209" transform="translate(31.468 43.619)" fill="#d3df9c" stroke="#94b10b" stroke-width="3"/>
      <path id="Trazado_913222" data-name="Trazado 913222" d="M367.148,299.1A115.246,115.246,0,1,1,251.9,183.858,115.247,115.247,0,0,1,367.148,299.1ZM460.44,198.016A115.247,115.247,0,1,1,345.193,82.766,115.245,115.245,0,0,1,460.44,198.016Zm-176.556,11.4A115.247,115.247,0,1,1,168.636,94.173,115.247,115.247,0,0,1,283.883,209.42Z" transform="translate(90.617 140.478)" fill="none" stroke="#fff" stroke-miterlimit="10" stroke-width="2"/>
      <path id="Trazado_913223" data-name="Trazado 913223" d="M279.371,77.159A77.156,77.156,0,1,1,202.215,0a77.159,77.159,0,0,1,77.156,77.159" transform="translate(212.261 0)" fill="#4aafe3" stroke="#32799d" stroke-width="3"/>
      <path id="Trazado_913224" data-name="Trazado 913224" d="M362.185,168.8a77.157,77.157,0,1,1-77.156-77.159A77.16,77.16,0,0,1,362.185,168.8" transform="translate(352.815 155.538)" fill="#4aafe3" stroke="#32799d" stroke-width="3"/>
      <path id="Trazado_913225" data-name="Trazado 913225" d="M318.5,266.4a77.156,77.156,0,1,1-77.156-77.159A77.159,77.159,0,0,1,318.5,266.4" transform="translate(278.68 321.192)" fill="#4aafe3" stroke="#32799d" stroke-width="3"/>
      <path id="Trazado_913226" data-name="Trazado 913226" d="M161.473,240.13a77.157,77.157,0,1,1-77.156-77.159,77.16,77.16,0,0,1,77.156,77.159" transform="translate(12.149 276.609)" fill="#4aafe3" stroke="#32799d" stroke-width="3"/>
      <path id="Trazado_913227" data-name="Trazado 913227" d="M154.315,140.192A77.157,77.157,0,1,1,77.156,63.033a77.159,77.159,0,0,1,77.159,77.159" transform="translate(0 106.985)" fill="#4aafe3" stroke="#32799d" stroke-width="3"/>
      <path id="Trazado_913228" data-name="Trazado 913228" d="M262.651,186.542a83.268,83.268,0,1,1-83.268-83.268,83.268,83.268,0,0,1,83.268,83.268" transform="translate(163.135 175.286)" fill="#f37e29" stroke="#fff" stroke-width="3"/>
    </g>
  </g>
  <path id="Trazado_914326" data-name="Trazado 914326" d="M.7-.609A8.588,8.588,0,0,0,4.437.174C8.265.174,10.9-2.175,10.9-5.742c0-2.059-.957-4.031-3.538-5.6-2.117-1.276-2.7-1.885-2.7-3.045a2.115,2.115,0,0,1,2.407-2.03,4.659,4.659,0,0,1,2.494.667l.609-3.277a6.674,6.674,0,0,0-3.074-.7c-4.089,0-6.177,2.61-6.177,5.742,0,1.769,1.015,3.828,3.683,5.452,1.653,1.073,2.523,1.769,2.523,3.19,0,1.276-.87,2.2-2.668,2.2a7.418,7.418,0,0,1-3.219-.754ZM18.589-19.778c-4.321,0-6.438,4.611-6.438,9.947,0,5.365,1.74,10.063,6.177,10.063,3.712,0,6.322-2.987,6.322-10.353C24.65-14.587,23.316-19.778,18.589-19.778Zm-.145,3.306c1.711,0,2.233,3.1,2.233,6.525,0,3.973-.609,6.873-2.2,6.873-1.537,0-2.378-2.262-2.378-6.7C16.095-13.978,16.936-16.472,18.444-16.472ZM26.071-.609a8.588,8.588,0,0,0,3.741.783c3.828,0,6.467-2.349,6.467-5.916,0-2.059-.957-4.031-3.538-5.6-2.117-1.276-2.7-1.885-2.7-3.045a2.115,2.115,0,0,1,2.407-2.03,4.659,4.659,0,0,1,2.494.667l.609-3.277a6.674,6.674,0,0,0-3.074-.7c-4.089,0-6.177,2.61-6.177,5.742,0,1.769,1.015,3.828,3.683,5.452,1.653,1.073,2.523,1.769,2.523,3.19,0,1.276-.87,2.2-2.668,2.2a7.418,7.418,0,0,1-3.219-.754ZM40.6,0h3.8V-16.037h3.48v-3.509H37.149v3.509H40.6ZM58.145-11.745H53.679V-16.24h4.7v-3.306h-8.5V0h8.845V-3.306H53.679V-8.584h4.466ZM64.641,0V-4.408c0-3.915-.145-6.931-.232-8.9h.058a56.066,56.066,0,0,0,1.972,5.887L69.426,0h3.48V-19.546H69.571v4.321c0,3.6.261,6.989.377,9.048H69.89c-.551-1.682-1.508-4.2-2.088-5.713l-3.016-7.656h-3.48V0ZM76.27-19.546V0h3.8V-19.546ZM83.462-.058A27.706,27.706,0,0,0,87,.145c3.277,0,5.249-.7,6.409-1.972a5.252,5.252,0,0,0,1.45-3.828,4.671,4.671,0,0,0-3.48-4.669v-.116A4.525,4.525,0,0,0,94.221-14.7a4.466,4.466,0,0,0-1.479-3.538,7.349,7.349,0,0,0-4.959-1.392,20.628,20.628,0,0,0-4.321.377Zm3.8-16.617a3.052,3.052,0,0,1,.986-.116c1.566,0,2.233,1.1,2.233,2.523a2.533,2.533,0,0,1-2.407,2.755h-.812Zm0,7.975h.812a2.8,2.8,0,0,1,2.842,2.987A2.664,2.664,0,0,1,88.1-2.784a3.575,3.575,0,0,1-.841-.058ZM97.469-19.546V0h3.8V-19.546ZM104.661,0h8.816V-3.219H108.46V-19.546h-3.8Zm11.02-19.546V0h3.8V-19.546ZM122.873-.058a28.287,28.287,0,0,0,3.132.2c2.726,0,4.669-.609,5.974-1.885,1.711-1.508,2.726-4.321,2.726-8.265,0-3.8-.87-6.38-2.552-7.888a7.523,7.523,0,0,0-5.423-1.74,17.469,17.469,0,0,0-3.857.377Zm3.8-16.443a2.156,2.156,0,0,1,.754-.087c2.291,0,3.335,2.436,3.335,6.438,0,5.394-1.6,7.192-3.422,7.192a2.488,2.488,0,0,1-.667-.058ZM143.26-4.466,144.1,0h3.683l-3.8-19.546h-4.553L135.2,0h3.683l.87-4.466Zm-3.132-2.958.725-4.06c.2-1.131.493-3.161.7-4.466h.087c.174,1.305.435,3.248.638,4.437l.638,4.089Zm9.8,7.366a28.287,28.287,0,0,0,3.132.2c2.726,0,4.669-.609,5.974-1.885,1.711-1.508,2.726-4.321,2.726-8.265,0-3.8-.87-6.38-2.552-7.888a7.523,7.523,0,0,0-5.423-1.74,17.468,17.468,0,0,0-3.857.377Zm3.8-16.443a2.156,2.156,0,0,1,.754-.087c2.291,0,3.335,2.436,3.335,6.438,0,5.394-1.6,7.192-3.422,7.192a2.488,2.488,0,0,1-.667-.058Z" transform="translate(208.737 192.857)" fill="#12263f"/>
  <path id="Trazado_914327" data-name="Trazado 914327" d="M6.67-19.778C3.248-19.778.928-16.269.928-9.8.928-3.219,3.1.232,6.351.232c3.132,0,5.655-2.813,5.655-10.15C12.006-16.153,10.005-19.778,6.67-19.778Zm-.2,1.972c2.552,0,3.219,4.321,3.219,7.975C9.686-6,9.019-1.74,6.5-1.74c-2.465,0-3.248-4-3.248-8.033C3.248-13.746,4.031-17.806,6.467-17.806ZM17.458,0V-12.325H20.01v-1.711H17.458v-.87c0-1.827.377-3.538,1.972-3.538a2.894,2.894,0,0,1,1.218.232l.377-1.74a3.914,3.914,0,0,0-1.74-.348,3.8,3.8,0,0,0-2.813,1.189,6.259,6.259,0,0,0-1.247,4.234v.841H13.456v1.711h1.769V0Z" transform="translate(183.647 347.631)" fill="#12263f"/>
  <path id="Trazado_914329" data-name="Trazado 914329" d="M9.657-6.815c.029-.348.029-.725.029-1.247,0-3.19-1.131-6.206-4-6.206-2.813,0-4.727,2.842-4.727,7.4C.957-2.581,2.7.174,6.061.174A6.768,6.768,0,0,0,9.135-.493L8.787-2.146a4.719,4.719,0,0,1-2.32.551c-1.624,0-3.306-.928-3.335-5.22Zm-6.5-1.653c.087-1.914.841-4.06,2.291-4.06,1.073,0,2.146,1.247,2.088,4.06ZM12.064,0H14.3V-7.772a8.54,8.54,0,0,1,.087-1.276c.232-1.624,1.276-2.929,2.7-2.929a2.344,2.344,0,0,1,.464.029v-2.291c-.145,0-.29-.029-.464-.029a3.418,3.418,0,0,0-2.958,2.436h-.058l-.116-2.2h-2c.029,1.044.116,2.436.116,3.625Z" transform="translate(205.001 347.631)" fill="#12263f"/>
  <path id="Trazado_914328" data-name="Trazado 914328" d="M2.059-17.11v3.074H.348v1.711H2.059V-4.2c0,1.943.29,2.9.841,3.538A2.843,2.843,0,0,0,5.1.174,4.891,4.891,0,0,0,6.757-.058L6.67-1.769a4.107,4.107,0,0,1-.9.087c-.812,0-1.479-.493-1.479-2.32v-8.323h2.7v-1.711h-2.7v-3.712ZM16.53,0a22.246,22.246,0,0,1-.145-3.19V-9.251c0-3.161-1.218-5.017-4.031-5.017a6.04,6.04,0,0,0-3.277.928l.493,1.566a4.227,4.227,0,0,1,2.32-.725c1.769,0,2.233,1.3,2.233,3.19v.435c-3.161.029-5.974,1.595-5.974,5.1,0,2.407,1.45,4,3.335,4a3.15,3.15,0,0,0,2.784-1.711h.087L14.5,0ZM14.181-4.408a3.7,3.7,0,0,1-.058.783c-.261,1.392-1.1,2.117-2.088,2.117-.783,0-1.711-.667-1.711-2.494,0-3.045,2.7-3.248,3.857-3.248Z" transform="translate(224.939 347.631)" fill="#12263f"/>
  <path id="Trazado_914335" data-name="Trazado 914335" d="M6.67-19.778C3.248-19.778.928-16.269.928-9.8.928-3.219,3.1.232,6.351.232c3.132,0,5.655-2.813,5.655-10.15C12.006-16.153,10.005-19.778,6.67-19.778Zm-.2,1.972c2.552,0,3.219,4.321,3.219,7.975C9.686-6,9.019-1.74,6.5-1.74c-2.465,0-3.248-4-3.248-8.033C3.248-13.746,4.031-17.806,6.467-17.806ZM14.645,0h2.233V-7.772a8.54,8.54,0,0,1,.087-1.276c.232-1.624,1.276-2.929,2.7-2.929a2.344,2.344,0,0,1,.464.029v-2.291c-.145,0-.29-.029-.464-.029A3.418,3.418,0,0,0,16.7-11.832h-.058l-.116-2.2h-2c.029,1.044.116,2.436.116,3.625Z" transform="translate(252.792 488.054)" fill="#12263f"/>
  <path id="Trazado_914333" data-name="Trazado 914333" d="M8.149-14.036l-.116,1.6H7.975a2.788,2.788,0,0,0-2.61-1.827C3.306-14.268.957-12.122.957-6.96c0,4.118,1.624,6.931,4.118,6.931a2.853,2.853,0,0,0,2.7-1.711H7.83V-.319c0,3.19-1.1,4.292-2.871,4.292a5.749,5.749,0,0,1-2.61-.609L1.827,5.1A6.689,6.689,0,0,0,4.9,5.8,4.883,4.883,0,0,0,8.642,4.292c.928-1.015,1.392-2.407,1.392-6.09V-9.657c0-2.146.087-3.393.116-4.379Zm-.319,8.9a4.927,4.927,0,0,1-.145,1.276c-.464,1.682-1.334,2-2,2-1.363,0-2.494-1.624-2.494-5.22,0-3.1.87-5.278,2.494-5.278,1.276,0,1.769,1.189,2.03,2.146A3.753,3.753,0,0,1,7.83-9.193ZM20.706,0a22.246,22.246,0,0,1-.145-3.19V-9.251c0-3.161-1.218-5.017-4.031-5.017a6.04,6.04,0,0,0-3.277.928l.493,1.566a4.227,4.227,0,0,1,2.32-.725c1.769,0,2.233,1.3,2.233,3.19v.435c-3.161.029-5.974,1.595-5.974,5.1,0,2.407,1.45,4,3.335,4a3.15,3.15,0,0,0,2.784-1.711h.087L18.676,0ZM18.357-4.408a3.7,3.7,0,0,1-.058.783c-.261,1.392-1.1,2.117-2.088,2.117C15.428-1.508,14.5-2.175,14.5-4c0-3.045,2.7-3.248,3.857-3.248ZM23.693,0h2.233V-8.845a7.877,7.877,0,0,1,.087-1.247c.29-1.508,1.189-2.291,2.117-2.291,1.624,0,1.943,1.682,1.943,3.335V0h2.233V-9.425c0-3.393-1.45-4.843-3.393-4.843a3.562,3.562,0,0,0-3.219,1.914h-.058l-.116-1.682H23.577c.029,1.131.116,1.972.116,3.625ZM37.671,0V-14.036H35.438V0Zm-1.16-19.111a1.339,1.339,0,0,0-1.305,1.45,1.318,1.318,0,0,0,1.276,1.45,1.3,1.3,0,0,0,1.363-1.45A1.312,1.312,0,0,0,36.511-19.111ZM39.672,0h8.033V-1.856h-5.51v-.058c.319-.638.754-1.363,1.131-2.088l4.379-8.555v-1.479H40.223v1.856H45.24v.058c-.319.638-.754,1.363-1.131,2.088L39.672-1.363ZM57.42,0a22.247,22.247,0,0,1-.145-3.19V-9.251c0-3.161-1.218-5.017-4.031-5.017a6.04,6.04,0,0,0-3.277.928l.493,1.566a4.227,4.227,0,0,1,2.32-.725c1.769,0,2.233,1.3,2.233,3.19v.435c-3.161.029-5.974,1.595-5.974,5.1,0,2.407,1.45,4,3.335,4a3.15,3.15,0,0,0,2.784-1.711h.087L55.39,0ZM55.071-4.408a3.7,3.7,0,0,1-.058.783c-.261,1.392-1.1,2.117-2.088,2.117-.783,0-1.711-.667-1.711-2.494,0-3.045,2.7-3.248,3.857-3.248Zm11.89,2.349a3.817,3.817,0,0,1-1.624.377c-2.059,0-3.306-1.972-3.306-5.249,0-2.755,1.015-5.423,3.248-5.423a3.643,3.643,0,0,1,1.6.377l.435-1.827a4.514,4.514,0,0,0-1.972-.435c-3.509,0-5.539,3.277-5.539,7.308,0,4.64,2.059,7.1,5.133,7.1a4.811,4.811,0,0,0,2.32-.522ZM71.4,0V-14.036H69.165V0Zm-1.16-19.111a1.339,1.339,0,0,0-1.305,1.45,1.318,1.318,0,0,0,1.276,1.45,1.3,1.3,0,0,0,1.363-1.45A1.312,1.312,0,0,0,70.238-19.111Zm8.352,4.843c-2.407,0-4.7,2.146-4.7,7.279,0,4.93,2.03,7.221,4.553,7.221,2.146,0,4.669-1.827,4.669-7.25C83.114-11.919,81.084-14.268,78.59-14.268Zm-.087,1.8c1.972,0,2.349,3.306,2.349,5.452,0,2.175-.377,5.481-2.291,5.481-2.03,0-2.436-3.161-2.436-5.481C76.125-9.164,76.5-12.47,78.5-12.47Zm1.131-7.308L77.4-15.863H78.88l3.045-3.915ZM85.608,0h2.233V-8.845a7.877,7.877,0,0,1,.087-1.247c.29-1.508,1.189-2.291,2.117-2.291,1.624,0,1.943,1.682,1.943,3.335V0h2.233V-9.425c0-3.393-1.45-4.843-3.393-4.843a3.562,3.562,0,0,0-3.219,1.914h-.058l-.116-1.682H85.492c.029,1.131.116,1.972.116,3.625Zm15.37-.638a4.8,4.8,0,0,0,2.784.812A3.915,3.915,0,0,0,107.967-4c0-1.943-1.276-3.219-2.9-4.263-1.392-.957-1.74-1.479-1.74-2.436a1.718,1.718,0,0,1,1.827-1.769,3.3,3.3,0,0,1,1.856.609l.609-1.682a4.827,4.827,0,0,0-2.523-.725,3.773,3.773,0,0,0-3.857,3.886c0,1.624.986,2.813,2.813,4,1.421.957,1.8,1.682,1.8,2.755a1.9,1.9,0,0,1-2.059,2.03,4.442,4.442,0,0,1-2.262-.725Zm13.4-13.63c-2.407,0-4.7,2.146-4.7,7.279,0,4.93,2.03,7.221,4.553,7.221,2.146,0,4.669-1.827,4.669-7.25C118.9-11.919,116.87-14.268,114.376-14.268Zm-.087,1.8c1.972,0,2.349,3.306,2.349,5.452,0,2.175-.377,5.481-2.291,5.481-2.03,0-2.436-3.161-2.436-5.481C111.911-9.164,112.288-12.47,114.289-12.47ZM127.948-2.059a3.817,3.817,0,0,1-1.624.377c-2.059,0-3.306-1.972-3.306-5.249,0-2.755,1.015-5.423,3.248-5.423a3.642,3.642,0,0,1,1.595.377L128.3-13.8a4.514,4.514,0,0,0-1.972-.435c-3.509,0-5.539,3.277-5.539,7.308,0,4.64,2.059,7.1,5.133,7.1a4.811,4.811,0,0,0,2.32-.522ZM132.385,0V-14.036h-2.233V0Zm-1.16-19.111a1.339,1.339,0,0,0-1.305,1.45,1.318,1.318,0,0,0,1.276,1.45,1.3,1.3,0,0,0,1.363-1.45A1.312,1.312,0,0,0,131.225-19.111ZM143.057,0a22.248,22.248,0,0,1-.145-3.19V-9.251c0-3.161-1.218-5.017-4.031-5.017a6.04,6.04,0,0,0-3.277.928l.493,1.566a4.227,4.227,0,0,1,2.32-.725c1.769,0,2.233,1.3,2.233,3.19v.435c-3.161.029-5.974,1.595-5.974,5.1,0,2.407,1.45,4,3.335,4a3.15,3.15,0,0,0,2.784-1.711h.087L141.027,0Zm-2.349-4.408a3.7,3.7,0,0,1-.058.783c-.261,1.392-1.1,2.117-2.088,2.117-.783,0-1.711-.667-1.711-2.494,0-3.045,2.7-3.248,3.857-3.248ZM146.044,0h2.233V-20.068h-2.233Z" transform="translate(274.333 488.054)" fill="#12263f"/>
  <path id="Trazado_914334" data-name="Trazado 914334" d="M9.657-6.815c.029-.348.029-.725.029-1.247,0-3.19-1.131-6.206-4-6.206-2.813,0-4.727,2.842-4.727,7.4C.957-2.581,2.7.174,6.061.174A6.768,6.768,0,0,0,9.135-.493L8.787-2.146a4.719,4.719,0,0,1-2.32.551c-1.624,0-3.306-.928-3.335-5.22Zm-6.5-1.653c.087-1.914.841-4.06,2.291-4.06,1.073,0,2.146,1.247,2.088,4.06ZM18.879,0V-14.036H16.646V0Zm-1.16-19.111a1.339,1.339,0,0,0-1.305,1.45,1.318,1.318,0,0,0,1.276,1.45,1.3,1.3,0,0,0,1.363-1.45A1.312,1.312,0,0,0,17.719-19.111ZM21.982,0h2.233V-8.845a7.877,7.877,0,0,1,.087-1.247c.29-1.508,1.189-2.291,2.117-2.291,1.624,0,1.943,1.682,1.943,3.335V0H30.6V-9.425c0-3.393-1.45-4.843-3.393-4.843a3.562,3.562,0,0,0-3.219,1.914h-.058l-.116-1.682H21.866c.029,1.131.116,1.972.116,3.625ZM32.8-.638a4.8,4.8,0,0,0,2.784.812A3.915,3.915,0,0,0,39.788-4c0-1.943-1.276-3.219-2.9-4.263-1.392-.957-1.74-1.479-1.74-2.436a1.718,1.718,0,0,1,1.827-1.769,3.3,3.3,0,0,1,1.856.609l.609-1.682a4.827,4.827,0,0,0-2.523-.725,3.773,3.773,0,0,0-3.857,3.886c0,1.624.986,2.813,2.813,4,1.421.957,1.8,1.682,1.8,2.755A1.9,1.9,0,0,1,35.612-1.6,4.442,4.442,0,0,1,33.35-2.32ZM42.6-17.11v3.074H40.89v1.711H42.6V-4.2c0,1.943.29,2.9.841,3.538a2.843,2.843,0,0,0,2.2.841A4.891,4.891,0,0,0,47.3-.058l-.087-1.711a4.107,4.107,0,0,1-.9.087c-.812,0-1.479-.493-1.479-2.32v-8.323h2.7v-1.711h-2.7v-3.712ZM51.736,0V-14.036H49.5V0Zm-1.16-19.111a1.339,1.339,0,0,0-1.305,1.45,1.318,1.318,0,0,0,1.276,1.45,1.3,1.3,0,0,0,1.363-1.45A1.312,1.312,0,0,0,50.576-19.111Zm4.756,2v3.074H53.621v1.711h1.711V-4.2c0,1.943.29,2.9.841,3.538a2.843,2.843,0,0,0,2.2.841A4.891,4.891,0,0,0,60.03-.058l-.087-1.711a4.107,4.107,0,0,1-.9.087c-.812,0-1.479-.493-1.479-2.32v-8.323h2.7v-1.711h-2.7v-3.712Zm15.312,3.074H68.411v9.251a5.8,5.8,0,0,1-.116,1.276,2.163,2.163,0,0,1-2,1.856c-1.537,0-1.885-1.624-1.885-3.828v-8.555H62.176v8.874c0,3.48.957,5.394,3.422,5.394a3.694,3.694,0,0,0,3.016-1.711h.058L68.817,0H70.76c-.029-1.044-.116-2.262-.116-3.828ZM80.33-2.059a3.817,3.817,0,0,1-1.624.377c-2.059,0-3.306-1.972-3.306-5.249,0-2.755,1.015-5.423,3.248-5.423a3.642,3.642,0,0,1,1.595.377l.435-1.827a4.514,4.514,0,0,0-1.972-.435c-3.509,0-5.539,3.277-5.539,7.308,0,4.64,2.059,7.1,5.133,7.1a4.811,4.811,0,0,0,2.32-.522ZM84.767,0V-14.036H82.534V0Zm-1.16-19.111a1.339,1.339,0,0,0-1.305,1.45,1.318,1.318,0,0,0,1.276,1.45,1.3,1.3,0,0,0,1.363-1.45A1.312,1.312,0,0,0,83.607-19.111Zm8.352,4.843c-2.407,0-4.7,2.146-4.7,7.279,0,4.93,2.03,7.221,4.553,7.221,2.146,0,4.669-1.827,4.669-7.25C96.483-11.919,94.453-14.268,91.959-14.268Zm-.087,1.8c1.972,0,2.349,3.306,2.349,5.452,0,2.175-.377,5.481-2.291,5.481-2.03,0-2.436-3.161-2.436-5.481C89.494-9.164,89.871-12.47,91.872-12.47ZM98.977,0h2.233V-8.845a7.877,7.877,0,0,1,.087-1.247c.29-1.508,1.189-2.291,2.117-2.291,1.624,0,1.943,1.682,1.943,3.335V0h2.233V-9.425c0-3.393-1.45-4.843-3.393-4.843a3.562,3.562,0,0,0-3.219,1.914h-.058l-.116-1.682H98.861c.029,1.131.116,1.972.116,3.625Zm19.314,0a22.246,22.246,0,0,1-.145-3.19V-9.251c0-3.161-1.218-5.017-4.031-5.017a6.04,6.04,0,0,0-3.277.928l.493,1.566a4.227,4.227,0,0,1,2.32-.725c1.769,0,2.233,1.3,2.233,3.19v.435c-3.161.029-5.974,1.595-5.974,5.1,0,2.407,1.45,4,3.335,4a3.15,3.15,0,0,0,2.784-1.711h.087L116.261,0Zm-2.349-4.408a3.7,3.7,0,0,1-.058.783c-.261,1.392-1.1,2.117-2.088,2.117-.783,0-1.711-.667-1.711-2.494,0-3.045,2.7-3.248,3.857-3.248ZM121.278,0h2.233V-20.068h-2.233Z" transform="translate(276.97 514.963)" fill="#12263f"/>
  <path id="Trazado_914336" data-name="Trazado 914336" d="M1.74-.087a12.753,12.753,0,0,0,2.494.2A6.851,6.851,0,0,0,9.628-2c1.247-1.334,2.349-3.77,2.349-8.236,0-4.089-1.131-6.612-2.639-7.917a6.535,6.535,0,0,0-4.582-1.479,10.591,10.591,0,0,0-3.016.377Zm2.233-17.6a3.973,3.973,0,0,1,1.044-.116c3.132,0,4.64,2.7,4.64,7.627,0,6.641-2.378,8.41-4.843,8.41a4.7,4.7,0,0,1-.841-.058ZM22.794-6.815c.029-.348.029-.725.029-1.247,0-3.19-1.131-6.206-4-6.206-2.813,0-4.727,2.842-4.727,7.4,0,4.292,1.74,7.047,5.1,7.047a6.768,6.768,0,0,0,3.074-.667l-.348-1.653A4.719,4.719,0,0,1,19.6-1.6c-1.624,0-3.306-.928-3.335-5.22ZM16.3-8.468c.087-1.914.841-4.06,2.291-4.06,1.073,0,2.146,1.247,2.088,4.06ZM25.23,0h2.2V-8.9a8.021,8.021,0,0,1,.087-1.218c.261-1.479,1.189-2.262,2.088-2.262,1.653,0,1.943,1.624,1.943,3.19V0h2.2V-9.019a8.54,8.54,0,0,1,.087-1.276c.319-1.305,1.131-2.088,2.059-2.088,1.711,0,1.972,1.769,1.972,3.6V0h2.2V-9.309c0-3.567-1.479-4.959-3.364-4.959a3.39,3.39,0,0,0-1.943.551,4.467,4.467,0,0,0-1.392,1.595h-.058a2.926,2.926,0,0,0-2.929-2.146A3.522,3.522,0,0,0,27.231-12.3h-.058l-.116-1.74H25.114c.029,1.131.116,1.972.116,3.625ZM50.779,0a22.247,22.247,0,0,1-.145-3.19V-9.251c0-3.161-1.218-5.017-4.031-5.017a6.04,6.04,0,0,0-3.277.928l.493,1.566a4.227,4.227,0,0,1,2.32-.725c1.769,0,2.233,1.3,2.233,3.19v.435c-3.161.029-5.974,1.595-5.974,5.1,0,2.407,1.45,4,3.335,4a3.15,3.15,0,0,0,2.784-1.711H48.6L48.749,0ZM48.43-4.408a3.7,3.7,0,0,1-.058.783c-.261,1.392-1.1,2.117-2.088,2.117-.783,0-1.711-.667-1.711-2.494,0-3.045,2.7-3.248,3.857-3.248ZM53.766,0H56V-8.845a7.877,7.877,0,0,1,.087-1.247c.29-1.508,1.189-2.291,2.117-2.291,1.624,0,1.943,1.682,1.943,3.335V0h2.233V-9.425c0-3.393-1.45-4.843-3.393-4.843a3.562,3.562,0,0,0-3.219,1.914h-.058l-.116-1.682H53.65c.029,1.131.116,1.972.116,3.625Zm17.98-20.068v7.482h-.058a2.72,2.72,0,0,0-2.552-1.682c-2.175,0-4.234,2.32-4.234,7.308,0,4.611,1.711,7.192,4.089,7.192a3.23,3.23,0,0,0,2.929-2h.087L72.152,0h1.914c-.029-.812-.116-2.407-.116-3.364v-16.7Zm0,15.109a4.39,4.39,0,0,1-.087.928c-.493,2.03-1.45,2.407-2.146,2.407-1.624,0-2.378-2.378-2.378-5.336,0-2.813.638-5.394,2.494-5.394,1.073,0,1.943,1.276,2.088,2.726.029.319.029.638.029.928ZM84.651,0a22.246,22.246,0,0,1-.145-3.19V-9.251c0-3.161-1.218-5.017-4.031-5.017a6.04,6.04,0,0,0-3.277.928l.493,1.566a4.227,4.227,0,0,1,2.32-.725c1.769,0,2.233,1.3,2.233,3.19v.435c-3.161.029-5.974,1.595-5.974,5.1,0,2.407,1.45,4,3.335,4a3.15,3.15,0,0,0,2.784-1.711h.087L82.621,0ZM82.3-4.408a3.7,3.7,0,0,1-.058.783c-.261,1.392-1.1,2.117-2.088,2.117-.783,0-1.711-.667-1.711-2.494,0-3.045,2.7-3.248,3.857-3.248Z" transform="translate(435.699 357.238)" fill="#12263f"/>
  <path id="Trazado_914339" data-name="Trazado 914339" d="M1.74-.087a12.753,12.753,0,0,0,2.494.2A6.851,6.851,0,0,0,9.628-2c1.247-1.334,2.349-3.77,2.349-8.236,0-4.089-1.131-6.612-2.639-7.917a6.535,6.535,0,0,0-4.582-1.479,10.591,10.591,0,0,0-3.016.377Zm2.233-17.6a3.973,3.973,0,0,1,1.044-.116c3.132,0,4.64,2.7,4.64,7.627,0,6.641-2.378,8.41-4.843,8.41a4.7,4.7,0,0,1-.841-.058ZM16.878,0V-14.036H14.645V0Zm-1.16-19.111a1.339,1.339,0,0,0-1.305,1.45,1.318,1.318,0,0,0,1.276,1.45,1.3,1.3,0,0,0,1.363-1.45A1.312,1.312,0,0,0,15.718-19.111ZM19.981,0h2.2V-8.9a8.021,8.021,0,0,1,.087-1.218c.261-1.479,1.189-2.262,2.088-2.262,1.653,0,1.943,1.624,1.943,3.19V0h2.2V-9.019a8.54,8.54,0,0,1,.087-1.276c.319-1.305,1.131-2.088,2.059-2.088,1.711,0,1.972,1.769,1.972,3.6V0h2.2V-9.309c0-3.567-1.479-4.959-3.364-4.959a3.39,3.39,0,0,0-1.943.551,4.467,4.467,0,0,0-1.392,1.595h-.058a2.926,2.926,0,0,0-2.929-2.146A3.522,3.522,0,0,0,21.982-12.3h-.058l-.116-1.74H19.865c.029,1.131.116,1.972.116,3.625ZM46.052-6.815c.029-.348.029-.725.029-1.247,0-3.19-1.131-6.206-4-6.206-2.813,0-4.727,2.842-4.727,7.4,0,4.292,1.74,7.047,5.1,7.047A6.768,6.768,0,0,0,45.53-.493l-.348-1.653a4.719,4.719,0,0,1-2.32.551c-1.624,0-3.306-.928-3.335-5.22Zm-6.5-1.653c.087-1.914.841-4.06,2.291-4.06,1.073,0,2.146,1.247,2.088,4.06ZM48.488,0h2.233V-8.845a7.877,7.877,0,0,1,.087-1.247C51.1-11.6,52-12.383,52.925-12.383c1.624,0,1.943,1.682,1.943,3.335V0H57.1V-9.425c0-3.393-1.45-4.843-3.393-4.843a3.562,3.562,0,0,0-3.219,1.914h-.058l-.116-1.682H48.372c.029,1.131.116,1.972.116,3.625ZM59.305-.638a4.8,4.8,0,0,0,2.784.812A3.915,3.915,0,0,0,66.294-4c0-1.943-1.276-3.219-2.9-4.263C62-9.222,61.654-9.744,61.654-10.7a1.718,1.718,0,0,1,1.827-1.769,3.3,3.3,0,0,1,1.856.609l.609-1.682a4.827,4.827,0,0,0-2.523-.725,3.773,3.773,0,0,0-3.857,3.886c0,1.624.986,2.813,2.813,4,1.421.957,1.8,1.682,1.8,2.755A1.9,1.9,0,0,1,62.118-1.6a4.442,4.442,0,0,1-2.262-.725ZM70.847,0V-14.036H68.614V0Zm-1.16-19.111a1.339,1.339,0,0,0-1.305,1.45,1.318,1.318,0,0,0,1.276,1.45,1.3,1.3,0,0,0,1.363-1.45A1.312,1.312,0,0,0,69.687-19.111Zm8.352,4.843c-2.407,0-4.7,2.146-4.7,7.279,0,4.93,2.03,7.221,4.553,7.221,2.146,0,4.669-1.827,4.669-7.25C82.563-11.919,80.533-14.268,78.039-14.268Zm-.087,1.8c1.972,0,2.349,3.306,2.349,5.452,0,2.175-.377,5.481-2.291,5.481-2.03,0-2.436-3.161-2.436-5.481C75.574-9.164,75.951-12.47,77.952-12.47Zm1.131-7.308L76.85-15.863h1.479l3.045-3.915ZM85.057,0H87.29V-8.845a7.877,7.877,0,0,1,.087-1.247c.29-1.508,1.189-2.291,2.117-2.291,1.624,0,1.943,1.682,1.943,3.335V0H93.67V-9.425c0-3.393-1.45-4.843-3.393-4.843a3.562,3.562,0,0,0-3.219,1.914H87l-.116-1.682H84.941c.029,1.131.116,1.972.116,3.625Z" transform="translate(468.483 569.599)" fill="#fff"/>
  <path id="Trazado_914340" data-name="Trazado 914340" d="M.638-.638A4.8,4.8,0,0,0,3.422.174,3.915,3.915,0,0,0,7.627-4c0-1.943-1.276-3.219-2.9-4.263-1.392-.957-1.74-1.479-1.74-2.436A1.718,1.718,0,0,1,4.814-12.47a3.3,3.3,0,0,1,1.856.609l.609-1.682a4.827,4.827,0,0,0-2.523-.725A3.773,3.773,0,0,0,.9-10.382c0,1.624.986,2.813,2.813,4,1.421.957,1.8,1.682,1.8,2.755A1.9,1.9,0,0,1,3.451-1.6,4.442,4.442,0,0,1,1.189-2.32Zm13.4-13.63c-2.407,0-4.7,2.146-4.7,7.279,0,4.93,2.03,7.221,4.553,7.221,2.146,0,4.669-1.827,4.669-7.25C18.56-11.919,16.53-14.268,14.036-14.268Zm-.087,1.8c1.972,0,2.349,3.306,2.349,5.452,0,2.175-.377,5.481-2.291,5.481-2.03,0-2.436-3.161-2.436-5.481C11.571-9.164,11.948-12.47,13.949-12.47ZM27.608-2.059a3.817,3.817,0,0,1-1.624.377c-2.059,0-3.306-1.972-3.306-5.249,0-2.755,1.015-5.423,3.248-5.423a3.643,3.643,0,0,1,1.595.377l.435-1.827a4.514,4.514,0,0,0-1.972-.435c-3.509,0-5.539,3.277-5.539,7.308,0,4.64,2.059,7.1,5.133,7.1A4.811,4.811,0,0,0,27.9-.348ZM32.045,0V-14.036H29.812V0Zm-1.16-19.111a1.339,1.339,0,0,0-1.305,1.45,1.318,1.318,0,0,0,1.276,1.45,1.3,1.3,0,0,0,1.363-1.45A1.312,1.312,0,0,0,30.885-19.111Zm8.352,4.843c-2.407,0-4.7,2.146-4.7,7.279,0,4.93,2.03,7.221,4.553,7.221,2.146,0,4.669-1.827,4.669-7.25C43.761-11.919,41.731-14.268,39.237-14.268Zm-.087,1.8c1.972,0,2.349,3.306,2.349,5.452,0,2.175-.377,5.481-2.291,5.481-2.03,0-2.436-3.161-2.436-5.481C36.772-9.164,37.149-12.47,39.15-12.47Zm6.815,4.031V-6.7h6.351v-1.74Z" transform="translate(491.246 596.511)" fill="#fff"/>
  <path id="Trazado_914341" data-name="Trazado 914341" d="M8.12-2.059A3.817,3.817,0,0,1,6.5-1.682c-2.059,0-3.306-1.972-3.306-5.249,0-2.755,1.015-5.423,3.248-5.423a3.643,3.643,0,0,1,1.595.377L8.468-13.8A4.514,4.514,0,0,0,6.5-14.239c-3.509,0-5.539,3.277-5.539,7.308,0,4.64,2.059,7.1,5.133,7.1A4.811,4.811,0,0,0,8.41-.348ZM18.85-14.036H16.617v9.251A5.8,5.8,0,0,1,16.5-3.509a2.163,2.163,0,0,1-2,1.856c-1.537,0-1.885-1.624-1.885-3.828v-8.555H10.382v8.874c0,3.48.957,5.394,3.422,5.394A3.694,3.694,0,0,0,16.82-1.479h.058L17.023,0h1.943c-.029-1.044-.116-2.262-.116-3.828ZM21.982,0h2.233V-20.068H21.982Zm6.032-17.11v3.074H26.3v1.711h1.711V-4.2c0,1.943.29,2.9.841,3.538a2.843,2.843,0,0,0,2.2.841,4.891,4.891,0,0,0,1.653-.232l-.087-1.711a4.107,4.107,0,0,1-.9.087c-.812,0-1.479-.493-1.479-2.32v-8.323h2.7v-1.711h-2.7v-3.712Zm15.312,3.074H41.093v9.251a5.8,5.8,0,0,1-.116,1.276,2.163,2.163,0,0,1-2,1.856c-1.537,0-1.885-1.624-1.885-3.828v-8.555H34.858v8.874c0,3.48.957,5.394,3.422,5.394A3.694,3.694,0,0,0,41.3-1.479h.058L41.5,0h1.943c-.029-1.044-.116-2.262-.116-3.828ZM46.429,0h2.233V-7.772a8.54,8.54,0,0,1,.087-1.276c.232-1.624,1.276-2.929,2.7-2.929a2.344,2.344,0,0,1,.464.029v-2.291c-.145,0-.29-.029-.464-.029a3.418,3.418,0,0,0-2.958,2.436H48.43l-.116-2.2h-2c.029,1.044.116,2.436.116,3.625ZM61.045,0A22.247,22.247,0,0,1,60.9-3.19V-9.251c0-3.161-1.218-5.017-4.031-5.017a6.04,6.04,0,0,0-3.277.928l.493,1.566A4.227,4.227,0,0,1,56.4-12.5c1.769,0,2.233,1.3,2.233,3.19v.435c-3.161.029-5.974,1.595-5.974,5.1,0,2.407,1.45,4,3.335,4a3.15,3.15,0,0,0,2.784-1.711h.087L59.015,0ZM58.7-4.408a3.7,3.7,0,0,1-.058.783c-.261,1.392-1.1,2.117-2.088,2.117-.783,0-1.711-.667-1.711-2.494,0-3.045,2.7-3.248,3.857-3.248ZM64.032,0h2.233V-20.068H64.032Z" transform="translate(483.239 623.421)" fill="#fff"/>
  <path id="Trazado_914337" data-name="Trazado 914337" d="M1.74-.087a12.753,12.753,0,0,0,2.494.2A6.851,6.851,0,0,0,9.628-2c1.247-1.334,2.349-3.77,2.349-8.236,0-4.089-1.131-6.612-2.639-7.917a6.535,6.535,0,0,0-4.582-1.479,10.591,10.591,0,0,0-3.016.377Zm2.233-17.6a3.973,3.973,0,0,1,1.044-.116c3.132,0,4.64,2.7,4.64,7.627,0,6.641-2.378,8.41-4.843,8.41a4.7,4.7,0,0,1-.841-.058ZM16.878,0V-14.036H14.645V0Zm-1.16-19.111a1.339,1.339,0,0,0-1.305,1.45,1.318,1.318,0,0,0,1.276,1.45,1.3,1.3,0,0,0,1.363-1.45A1.312,1.312,0,0,0,15.718-19.111ZM19.981,0h2.2V-8.9a8.021,8.021,0,0,1,.087-1.218c.261-1.479,1.189-2.262,2.088-2.262,1.653,0,1.943,1.624,1.943,3.19V0h2.2V-9.019a8.54,8.54,0,0,1,.087-1.276c.319-1.305,1.131-2.088,2.059-2.088,1.711,0,1.972,1.769,1.972,3.6V0h2.2V-9.309c0-3.567-1.479-4.959-3.364-4.959a3.39,3.39,0,0,0-1.943.551,4.467,4.467,0,0,0-1.392,1.595h-.058a2.926,2.926,0,0,0-2.929-2.146A3.522,3.522,0,0,0,21.982-12.3h-.058l-.116-1.74H19.865c.029,1.131.116,1.972.116,3.625ZM46.052-6.815c.029-.348.029-.725.029-1.247,0-3.19-1.131-6.206-4-6.206-2.813,0-4.727,2.842-4.727,7.4,0,4.292,1.74,7.047,5.1,7.047A6.768,6.768,0,0,0,45.53-.493l-.348-1.653a4.719,4.719,0,0,1-2.32.551c-1.624,0-3.306-.928-3.335-5.22Zm-6.5-1.653c.087-1.914.841-4.06,2.291-4.06,1.073,0,2.146,1.247,2.088,4.06ZM48.488,0h2.233V-8.845a7.877,7.877,0,0,1,.087-1.247C51.1-11.6,52-12.383,52.925-12.383c1.624,0,1.943,1.682,1.943,3.335V0H57.1V-9.425c0-3.393-1.45-4.843-3.393-4.843a3.562,3.562,0,0,0-3.219,1.914h-.058l-.116-1.682H48.372c.029,1.131.116,1.972.116,3.625ZM59.305-.638a4.8,4.8,0,0,0,2.784.812A3.915,3.915,0,0,0,66.294-4c0-1.943-1.276-3.219-2.9-4.263C62-9.222,61.654-9.744,61.654-10.7a1.718,1.718,0,0,1,1.827-1.769,3.3,3.3,0,0,1,1.856.609l.609-1.682a4.827,4.827,0,0,0-2.523-.725,3.773,3.773,0,0,0-3.857,3.886c0,1.624.986,2.813,2.813,4,1.421.957,1.8,1.682,1.8,2.755A1.9,1.9,0,0,1,62.118-1.6a4.442,4.442,0,0,1-2.262-.725ZM70.847,0V-14.036H68.614V0Zm-1.16-19.111a1.339,1.339,0,0,0-1.305,1.45,1.318,1.318,0,0,0,1.276,1.45,1.3,1.3,0,0,0,1.363-1.45A1.312,1.312,0,0,0,69.687-19.111Zm8.352,4.843c-2.407,0-4.7,2.146-4.7,7.279,0,4.93,2.03,7.221,4.553,7.221,2.146,0,4.669-1.827,4.669-7.25C82.563-11.919,80.533-14.268,78.039-14.268Zm-.087,1.8c1.972,0,2.349,3.306,2.349,5.452,0,2.175-.377,5.481-2.291,5.481-2.03,0-2.436-3.161-2.436-5.481C75.574-9.164,75.951-12.47,77.952-12.47Zm1.131-7.308L76.85-15.863h1.479l3.045-3.915ZM85.057,0H87.29V-8.845a7.877,7.877,0,0,1,.087-1.247c.29-1.508,1.189-2.291,2.117-2.291,1.624,0,1.943,1.682,1.943,3.335V0H93.67V-9.425c0-3.393-1.45-4.843-3.393-4.843a3.562,3.562,0,0,0-3.219,1.914H87l-.116-1.682H84.941c.029,1.131.116,1.972.116,3.625Z" transform="translate(586.328 321.097)" fill="#fff"/>
  <path id="Trazado_914338" data-name="Trazado 914338" d="M2.059-17.11v3.074H.348v1.711H2.059V-4.2c0,1.943.29,2.9.841,3.538A2.843,2.843,0,0,0,5.1.174,4.891,4.891,0,0,0,6.757-.058L6.67-1.769a4.107,4.107,0,0,1-.9.087c-.812,0-1.479-.493-1.479-2.32v-8.323h2.7v-1.711h-2.7v-3.712ZM16.82-6.815c.029-.348.029-.725.029-1.247,0-3.19-1.131-6.206-4-6.206-2.813,0-4.727,2.842-4.727,7.4,0,4.292,1.74,7.047,5.1,7.047A6.768,6.768,0,0,0,16.3-.493L15.95-2.146a4.719,4.719,0,0,1-2.32.551c-1.624,0-3.306-.928-3.335-5.22Zm-6.5-1.653c.087-1.914.841-4.06,2.291-4.06,1.073,0,2.146,1.247,2.088,4.06ZM25.81-2.059a3.817,3.817,0,0,1-1.624.377c-2.059,0-3.306-1.972-3.306-5.249,0-2.755,1.015-5.423,3.248-5.423a3.643,3.643,0,0,1,1.595.377l.435-1.827a4.514,4.514,0,0,0-1.972-.435c-3.509,0-5.539,3.277-5.539,7.308,0,4.64,2.059,7.1,5.133,7.1A4.811,4.811,0,0,0,26.1-.348ZM28.014,0h2.233V-8.845a7.877,7.877,0,0,1,.087-1.247c.29-1.508,1.189-2.291,2.117-2.291,1.624,0,1.943,1.682,1.943,3.335V0h2.233V-9.425c0-3.393-1.45-4.843-3.393-4.843a3.562,3.562,0,0,0-3.219,1.914h-.058l-.116-1.682H27.9c.029,1.131.116,1.972.116,3.625ZM43.848-14.268c-2.407,0-4.7,2.146-4.7,7.279,0,4.93,2.03,7.221,4.553,7.221,2.146,0,4.669-1.827,4.669-7.25C48.372-11.919,46.342-14.268,43.848-14.268Zm-.087,1.8c1.972,0,2.349,3.306,2.349,5.452,0,2.175-.377,5.481-2.291,5.481-2.03,0-2.436-3.161-2.436-5.481C41.383-9.164,41.76-12.47,43.761-12.47ZM50.866,0H53.1V-20.068H50.866Zm9.628-14.268c-2.407,0-4.7,2.146-4.7,7.279,0,4.93,2.03,7.221,4.553,7.221,2.146,0,4.669-1.827,4.669-7.25C65.018-11.919,62.988-14.268,60.494-14.268Zm-.087,1.8c1.972,0,2.349,3.306,2.349,5.452,0,2.175-.377,5.481-2.291,5.481-2.03,0-2.436-3.161-2.436-5.481C58.029-9.164,58.406-12.47,60.407-12.47Zm1.131-7.308-2.233,3.915h1.479l3.045-3.915ZM74.1-14.036l-.116,1.6h-.058a2.788,2.788,0,0,0-2.61-1.827c-2.059,0-4.408,2.146-4.408,7.308,0,4.118,1.624,6.931,4.118,6.931a2.853,2.853,0,0,0,2.7-1.711h.058V-.319c0,3.19-1.1,4.292-2.871,4.292a5.749,5.749,0,0,1-2.61-.609L67.773,5.1a6.689,6.689,0,0,0,3.074.7,4.883,4.883,0,0,0,3.741-1.508c.928-1.015,1.392-2.407,1.392-6.09V-9.657c0-2.146.087-3.393.116-4.379Zm-.319,8.9a4.927,4.927,0,0,1-.145,1.276c-.464,1.682-1.334,2-2,2-1.363,0-2.494-1.624-2.494-5.22,0-3.1.87-5.278,2.494-5.278,1.276,0,1.769,1.189,2.03,2.146a3.753,3.753,0,0,1,.116,1.015ZM81.316,0V-14.036H79.083V0Zm-1.16-19.111a1.339,1.339,0,0,0-1.305,1.45,1.318,1.318,0,0,0,1.276,1.45,1.3,1.3,0,0,0,1.363-1.45A1.312,1.312,0,0,0,80.156-19.111ZM90.973-2.059a3.817,3.817,0,0,1-1.624.377c-2.059,0-3.306-1.972-3.306-5.249,0-2.755,1.015-5.423,3.248-5.423a3.642,3.642,0,0,1,1.595.377l.435-1.827a4.514,4.514,0,0,0-1.972-.435c-3.509,0-5.539,3.277-5.539,7.308,0,4.64,2.059,7.1,5.133,7.1a4.811,4.811,0,0,0,2.32-.522ZM100.833,0a22.246,22.246,0,0,1-.145-3.19V-9.251c0-3.161-1.218-5.017-4.031-5.017a6.04,6.04,0,0,0-3.277.928l.493,1.566a4.227,4.227,0,0,1,2.32-.725c1.769,0,2.233,1.3,2.233,3.19v.435c-3.161.029-5.974,1.595-5.974,5.1,0,2.407,1.45,4,3.335,4a3.15,3.15,0,0,0,2.784-1.711h.087L98.8,0ZM98.484-4.408a3.7,3.7,0,0,1-.058.783c-.261,1.392-1.1,2.117-2.088,2.117-.783,0-1.711-.667-1.711-2.494,0-3.045,2.7-3.248,3.857-3.248Z" transform="translate(582.527 348.008)" fill="#fff"/>
  <path id="Trazado_914330" data-name="Trazado 914330" d="M9.135,0A22.246,22.246,0,0,1,8.99-3.19V-9.251c0-3.161-1.218-5.017-4.031-5.017a6.04,6.04,0,0,0-3.277.928l.493,1.566a4.227,4.227,0,0,1,2.32-.725c1.769,0,2.233,1.3,2.233,3.19v.435C3.567-8.845.754-7.279.754-3.77c0,2.407,1.45,4,3.335,4A3.15,3.15,0,0,0,6.873-1.479H6.96L7.105,0ZM6.786-4.408a3.7,3.7,0,0,1-.058.783c-.261,1.392-1.1,2.117-2.088,2.117-.783,0-1.711-.667-1.711-2.494,0-3.045,2.7-3.248,3.857-3.248ZM12.122,0h2.2V-8.9a8.021,8.021,0,0,1,.087-1.218c.261-1.479,1.189-2.262,2.088-2.262,1.653,0,1.943,1.624,1.943,3.19V0h2.2V-9.019a8.54,8.54,0,0,1,.087-1.276c.319-1.305,1.131-2.088,2.059-2.088,1.711,0,1.972,1.769,1.972,3.6V0h2.2V-9.309c0-3.567-1.479-4.959-3.364-4.959a3.39,3.39,0,0,0-1.943.551,4.467,4.467,0,0,0-1.392,1.595h-.058a2.926,2.926,0,0,0-2.929-2.146A3.522,3.522,0,0,0,14.123-12.3h-.058l-.116-1.74H12.006c.029,1.131.116,1.972.116,3.625ZM31.871,0l.145-1.827H32.1A2.933,2.933,0,0,0,34.887.232c2.175,0,4.263-2.32,4.263-7.395,0-4.582-1.653-7.105-3.828-7.105a3.134,3.134,0,0,0-2.958,1.885h-.058v-7.685H30.073v16.7c0,.957-.087,2.552-.116,3.364Zm.435-8.874a5.627,5.627,0,0,1,.058-.986c.174-1.189,1.044-2.494,2.088-2.494,1.8,0,2.465,2.494,2.465,5.307,0,2.987-.638,5.423-2.436,5.423-.609,0-1.566-.377-2.088-2.465a2.682,2.682,0,0,1-.087-.87ZM43.906,0V-14.036H41.673V0Zm-1.16-19.111a1.339,1.339,0,0,0-1.305,1.45,1.318,1.318,0,0,0,1.276,1.45,1.3,1.3,0,0,0,1.363-1.45A1.312,1.312,0,0,0,42.746-19.111ZM55.1-6.815c.029-.348.029-.725.029-1.247,0-3.19-1.131-6.206-4-6.206-2.813,0-4.727,2.842-4.727,7.4,0,4.292,1.74,7.047,5.1,7.047a6.768,6.768,0,0,0,3.074-.667L54.23-2.146a4.719,4.719,0,0,1-2.32.551c-1.624,0-3.306-.928-3.335-5.22ZM48.6-8.468c.087-1.914.841-4.06,2.291-4.06,1.073,0,2.146,1.247,2.088,4.06ZM57.536,0h2.233V-8.845a7.877,7.877,0,0,1,.087-1.247c.29-1.508,1.189-2.291,2.117-2.291,1.624,0,1.943,1.682,1.943,3.335V0h2.233V-9.425c0-3.393-1.45-4.843-3.393-4.843a3.562,3.562,0,0,0-3.219,1.914h-.058l-.116-1.682H57.42c.029,1.131.116,1.972.116,3.625ZM69.6-17.11v3.074H67.889v1.711H69.6V-4.2c0,1.943.29,2.9.841,3.538a2.843,2.843,0,0,0,2.2.841A4.891,4.891,0,0,0,74.3-.058l-.087-1.711a4.107,4.107,0,0,1-.9.087c-.812,0-1.479-.493-1.479-2.32v-8.323h2.7v-1.711h-2.7v-3.712ZM84.071,0a22.246,22.246,0,0,1-.145-3.19V-9.251c0-3.161-1.218-5.017-4.031-5.017a6.04,6.04,0,0,0-3.277.928l.493,1.566a4.227,4.227,0,0,1,2.32-.725c1.769,0,2.233,1.3,2.233,3.19v.435c-3.161.029-5.974,1.595-5.974,5.1,0,2.407,1.45,4,3.335,4a3.15,3.15,0,0,0,2.784-1.711H81.9L82.041,0ZM81.722-4.408a3.7,3.7,0,0,1-.058.783c-.261,1.392-1.1,2.117-2.088,2.117-.783,0-1.711-.667-1.711-2.494,0-3.045,2.7-3.248,3.857-3.248ZM87.058,0h2.233V-20.068H87.058Z" transform="translate(365.238 97.493)" fill="#fff"/>
  <path id="Trazado_914322" data-name="Trazado 914322" d="M1.74-.087a12.753,12.753,0,0,0,2.494.2A6.851,6.851,0,0,0,9.628-2c1.247-1.334,2.349-3.77,2.349-8.236,0-4.089-1.131-6.612-2.639-7.917a6.535,6.535,0,0,0-4.582-1.479,10.591,10.591,0,0,0-3.016.377Zm2.233-17.6a3.973,3.973,0,0,1,1.044-.116c3.132,0,4.64,2.7,4.64,7.627,0,6.641-2.378,8.41-4.843,8.41a4.7,4.7,0,0,1-.841-.058ZM16.878,0V-14.036H14.645V0Zm-1.16-19.111a1.339,1.339,0,0,0-1.305,1.45,1.318,1.318,0,0,0,1.276,1.45,1.3,1.3,0,0,0,1.363-1.45A1.312,1.312,0,0,0,15.718-19.111ZM19.981,0h2.2V-8.9a8.021,8.021,0,0,1,.087-1.218c.261-1.479,1.189-2.262,2.088-2.262,1.653,0,1.943,1.624,1.943,3.19V0h2.2V-9.019a8.54,8.54,0,0,1,.087-1.276c.319-1.305,1.131-2.088,2.059-2.088,1.711,0,1.972,1.769,1.972,3.6V0h2.2V-9.309c0-3.567-1.479-4.959-3.364-4.959a3.39,3.39,0,0,0-1.943.551,4.467,4.467,0,0,0-1.392,1.595h-.058a2.926,2.926,0,0,0-2.929-2.146A3.522,3.522,0,0,0,21.982-12.3h-.058l-.116-1.74H19.865c.029,1.131.116,1.972.116,3.625ZM46.052-6.815c.029-.348.029-.725.029-1.247,0-3.19-1.131-6.206-4-6.206-2.813,0-4.727,2.842-4.727,7.4,0,4.292,1.74,7.047,5.1,7.047A6.768,6.768,0,0,0,45.53-.493l-.348-1.653a4.719,4.719,0,0,1-2.32.551c-1.624,0-3.306-.928-3.335-5.22Zm-6.5-1.653c.087-1.914.841-4.06,2.291-4.06,1.073,0,2.146,1.247,2.088,4.06ZM48.488,0h2.233V-8.845a7.877,7.877,0,0,1,.087-1.247C51.1-11.6,52-12.383,52.925-12.383c1.624,0,1.943,1.682,1.943,3.335V0H57.1V-9.425c0-3.393-1.45-4.843-3.393-4.843a3.562,3.562,0,0,0-3.219,1.914h-.058l-.116-1.682H48.372c.029,1.131.116,1.972.116,3.625ZM59.305-.638a4.8,4.8,0,0,0,2.784.812A3.915,3.915,0,0,0,66.294-4c0-1.943-1.276-3.219-2.9-4.263C62-9.222,61.654-9.744,61.654-10.7a1.718,1.718,0,0,1,1.827-1.769,3.3,3.3,0,0,1,1.856.609l.609-1.682a4.827,4.827,0,0,0-2.523-.725,3.773,3.773,0,0,0-3.857,3.886c0,1.624.986,2.813,2.813,4,1.421.957,1.8,1.682,1.8,2.755A1.9,1.9,0,0,1,62.118-1.6a4.442,4.442,0,0,1-2.262-.725ZM70.847,0V-14.036H68.614V0Zm-1.16-19.111a1.339,1.339,0,0,0-1.305,1.45,1.318,1.318,0,0,0,1.276,1.45,1.3,1.3,0,0,0,1.363-1.45A1.312,1.312,0,0,0,69.687-19.111Zm8.352,4.843c-2.407,0-4.7,2.146-4.7,7.279,0,4.93,2.03,7.221,4.553,7.221,2.146,0,4.669-1.827,4.669-7.25C82.563-11.919,80.533-14.268,78.039-14.268Zm-.087,1.8c1.972,0,2.349,3.306,2.349,5.452,0,2.175-.377,5.481-2.291,5.481-2.03,0-2.436-3.161-2.436-5.481C75.574-9.164,75.951-12.47,77.952-12.47Zm1.131-7.308L76.85-15.863h1.479l3.045-3.915ZM85.057,0H87.29V-8.845a7.877,7.877,0,0,1,.087-1.247c.29-1.508,1.189-2.291,2.117-2.291,1.624,0,1.943,1.682,1.943,3.335V0H93.67V-9.425c0-3.393-1.45-4.843-3.393-4.843a3.562,3.562,0,0,0-3.219,1.914H87l-.116-1.682H84.941c.029,1.131.116,1.972.116,3.625Z" transform="translate(25.64 244.856)" fill="#fff"/>
  <path id="Trazado_914323" data-name="Trazado 914323" d="M1.537,5.568H3.77v-6.96h.058A2.653,2.653,0,0,0,6.264.232c2.2,0,4.35-2.088,4.35-7.279,0-4.611-1.624-7.221-4.06-7.221A3.214,3.214,0,0,0,3.6-12.238H3.538l-.116-1.8h-2c.029.986.116,2.233.116,4.379ZM3.77-8.729A6.48,6.48,0,0,1,3.828-9.8c.145-1.276,1.044-2.552,2.059-2.552,1.769,0,2.465,2.436,2.465,5.336,0,2.842-.58,5.394-2.436,5.394C5.307-1.624,4.292-2,3.857-4a4.721,4.721,0,0,1-.087-1.16Zm13.456-5.539c-2.407,0-4.7,2.146-4.7,7.279,0,4.93,2.03,7.221,4.553,7.221,2.146,0,4.669-1.827,4.669-7.25C21.75-11.919,19.72-14.268,17.226-14.268Zm-.087,1.8c1.972,0,2.349,3.306,2.349,5.452,0,2.175-.377,5.481-2.291,5.481-2.03,0-2.436-3.161-2.436-5.481C14.761-9.164,15.138-12.47,17.139-12.47ZM24.244,0h2.233V-20.068H24.244Zm7.772,0V-14.036H29.783V0Zm0-19.778-2.233,3.915h1.479l3.045-3.915Zm3.6,2.668v3.074H33.9v1.711h1.711V-4.2c0,1.943.29,2.9.841,3.538a2.843,2.843,0,0,0,2.2.841A4.891,4.891,0,0,0,40.31-.058l-.087-1.711a4.107,4.107,0,0,1-.9.087c-.812,0-1.479-.493-1.479-2.32v-8.323h2.7v-1.711h-2.7v-3.712ZM44.747,0V-14.036H42.514V0Zm-1.16-19.111a1.339,1.339,0,0,0-1.305,1.45,1.318,1.318,0,0,0,1.276,1.45,1.3,1.3,0,0,0,1.363-1.45A1.312,1.312,0,0,0,43.587-19.111ZM54.4-2.059a3.817,3.817,0,0,1-1.624.377c-2.059,0-3.306-1.972-3.306-5.249,0-2.755,1.015-5.423,3.248-5.423a3.643,3.643,0,0,1,1.6.377l.435-1.827a4.514,4.514,0,0,0-1.972-.435c-3.509,0-5.539,3.277-5.539,7.308,0,4.64,2.059,7.1,5.133,7.1a4.811,4.811,0,0,0,2.32-.522ZM64.264,0a22.247,22.247,0,0,1-.145-3.19V-9.251c0-3.161-1.218-5.017-4.031-5.017a6.04,6.04,0,0,0-3.277.928l.493,1.566a4.227,4.227,0,0,1,2.32-.725c1.769,0,2.233,1.3,2.233,3.19v.435c-3.161.029-5.974,1.595-5.974,5.1,0,2.407,1.45,4,3.335,4A3.15,3.15,0,0,0,62-1.479h.087L62.234,0ZM61.915-4.408a3.7,3.7,0,0,1-.058.783c-.261,1.392-1.1,2.117-2.088,2.117-.783,0-1.711-.667-1.711-2.494,0-3.045,2.7-3.248,3.857-3.248Z" transform="translate(41.624 271.766)" fill="#fff"/>
  <path id="Trazado_914324" data-name="Trazado 914324" d="M1.74-.087a12.753,12.753,0,0,0,2.494.2A6.851,6.851,0,0,0,9.628-2c1.247-1.334,2.349-3.77,2.349-8.236,0-4.089-1.131-6.612-2.639-7.917a6.535,6.535,0,0,0-4.582-1.479,10.591,10.591,0,0,0-3.016.377Zm2.233-17.6a3.973,3.973,0,0,1,1.044-.116c3.132,0,4.64,2.7,4.64,7.627,0,6.641-2.378,8.41-4.843,8.41a4.7,4.7,0,0,1-.841-.058ZM16.878,0V-14.036H14.645V0Zm-1.16-19.111a1.339,1.339,0,0,0-1.305,1.45,1.318,1.318,0,0,0,1.276,1.45,1.3,1.3,0,0,0,1.363-1.45A1.312,1.312,0,0,0,15.718-19.111ZM19.981,0h2.2V-8.9a8.021,8.021,0,0,1,.087-1.218c.261-1.479,1.189-2.262,2.088-2.262,1.653,0,1.943,1.624,1.943,3.19V0h2.2V-9.019a8.54,8.54,0,0,1,.087-1.276c.319-1.305,1.131-2.088,2.059-2.088,1.711,0,1.972,1.769,1.972,3.6V0h2.2V-9.309c0-3.567-1.479-4.959-3.364-4.959a3.39,3.39,0,0,0-1.943.551,4.467,4.467,0,0,0-1.392,1.595h-.058a2.926,2.926,0,0,0-2.929-2.146A3.522,3.522,0,0,0,21.982-12.3h-.058l-.116-1.74H19.865c.029,1.131.116,1.972.116,3.625ZM46.052-6.815c.029-.348.029-.725.029-1.247,0-3.19-1.131-6.206-4-6.206-2.813,0-4.727,2.842-4.727,7.4,0,4.292,1.74,7.047,5.1,7.047A6.768,6.768,0,0,0,45.53-.493l-.348-1.653a4.719,4.719,0,0,1-2.32.551c-1.624,0-3.306-.928-3.335-5.22Zm-6.5-1.653c.087-1.914.841-4.06,2.291-4.06,1.073,0,2.146,1.247,2.088,4.06ZM48.488,0h2.233V-8.845a7.877,7.877,0,0,1,.087-1.247C51.1-11.6,52-12.383,52.925-12.383c1.624,0,1.943,1.682,1.943,3.335V0H57.1V-9.425c0-3.393-1.45-4.843-3.393-4.843a3.562,3.562,0,0,0-3.219,1.914h-.058l-.116-1.682H48.372c.029,1.131.116,1.972.116,3.625ZM59.305-.638a4.8,4.8,0,0,0,2.784.812A3.915,3.915,0,0,0,66.294-4c0-1.943-1.276-3.219-2.9-4.263C62-9.222,61.654-9.744,61.654-10.7a1.718,1.718,0,0,1,1.827-1.769,3.3,3.3,0,0,1,1.856.609l.609-1.682a4.827,4.827,0,0,0-2.523-.725,3.773,3.773,0,0,0-3.857,3.886c0,1.624.986,2.813,2.813,4,1.421.957,1.8,1.682,1.8,2.755A1.9,1.9,0,0,1,62.118-1.6a4.442,4.442,0,0,1-2.262-.725ZM70.847,0V-14.036H68.614V0Zm-1.16-19.111a1.339,1.339,0,0,0-1.305,1.45,1.318,1.318,0,0,0,1.276,1.45,1.3,1.3,0,0,0,1.363-1.45A1.312,1.312,0,0,0,69.687-19.111Zm8.352,4.843c-2.407,0-4.7,2.146-4.7,7.279,0,4.93,2.03,7.221,4.553,7.221,2.146,0,4.669-1.827,4.669-7.25C82.563-11.919,80.533-14.268,78.039-14.268Zm-.087,1.8c1.972,0,2.349,3.306,2.349,5.452,0,2.175-.377,5.481-2.291,5.481-2.03,0-2.436-3.161-2.436-5.481C75.574-9.164,75.951-12.47,77.952-12.47Zm1.131-7.308L76.85-15.863h1.479l3.045-3.915ZM85.057,0H87.29V-8.845a7.877,7.877,0,0,1,.087-1.247c.29-1.508,1.189-2.291,2.117-2.291,1.624,0,1.943,1.682,1.943,3.335V0H93.67V-9.425c0-3.393-1.45-4.843-3.393-4.843a3.562,3.562,0,0,0-3.219,1.914H87l-.116-1.682H84.941c.029,1.131.116,1.972.116,3.625Z" transform="translate(44.92 514.428)" fill="#fff"/>
  <path id="Trazado_914325" data-name="Trazado 914325" d="M9.657-6.815c.029-.348.029-.725.029-1.247,0-3.19-1.131-6.206-4-6.206-2.813,0-4.727,2.842-4.727,7.4C.957-2.581,2.7.174,6.061.174A6.768,6.768,0,0,0,9.135-.493L8.787-2.146a4.719,4.719,0,0,1-2.32.551c-1.624,0-3.306-.928-3.335-5.22Zm-6.5-1.653c.087-1.914.841-4.06,2.291-4.06,1.073,0,2.146,1.247,2.088,4.06ZM18.647-2.059a3.817,3.817,0,0,1-1.624.377c-2.059,0-3.306-1.972-3.306-5.249,0-2.755,1.015-5.423,3.248-5.423a3.643,3.643,0,0,1,1.6.377l.435-1.827a4.514,4.514,0,0,0-1.972-.435c-3.509,0-5.539,3.277-5.539,7.308,0,4.64,2.059,7.1,5.133,7.1a4.811,4.811,0,0,0,2.32-.522Zm6.119-12.209c-2.407,0-4.7,2.146-4.7,7.279,0,4.93,2.03,7.221,4.553,7.221,2.146,0,4.669-1.827,4.669-7.25C29.29-11.919,27.26-14.268,24.766-14.268Zm-.087,1.8c1.972,0,2.349,3.306,2.349,5.452,0,2.175-.377,5.481-2.291,5.481-2.03,0-2.436-3.161-2.436-5.481C22.3-9.164,22.678-12.47,24.679-12.47ZM31.784,0h2.233V-8.845a7.877,7.877,0,0,1,.087-1.247c.29-1.508,1.189-2.291,2.117-2.291,1.624,0,1.943,1.682,1.943,3.335V0H40.4V-9.425c0-3.393-1.45-4.843-3.393-4.843a3.562,3.562,0,0,0-3.219,1.914h-.058l-.116-1.682H31.668c.029,1.131.116,1.972.116,3.625ZM47.618-14.268c-2.407,0-4.7,2.146-4.7,7.279,0,4.93,2.03,7.221,4.553,7.221,2.146,0,4.669-1.827,4.669-7.25C52.142-11.919,50.112-14.268,47.618-14.268Zm-.087,1.8c1.972,0,2.349,3.306,2.349,5.452,0,2.175-.377,5.481-2.291,5.481-2.03,0-2.436-3.161-2.436-5.481C45.153-9.164,45.53-12.47,47.531-12.47Zm1.131-7.308-2.233,3.915h1.479l3.045-3.915ZM54.636,0h2.2V-8.9a8.022,8.022,0,0,1,.087-1.218c.261-1.479,1.189-2.262,2.088-2.262,1.653,0,1.943,1.624,1.943,3.19V0h2.2V-9.019a8.54,8.54,0,0,1,.087-1.276c.319-1.305,1.131-2.088,2.059-2.088,1.711,0,1.972,1.769,1.972,3.6V0h2.2V-9.309c0-3.567-1.479-4.959-3.364-4.959a3.39,3.39,0,0,0-1.943.551,4.467,4.467,0,0,0-1.392,1.595h-.058A2.926,2.926,0,0,0,59.8-14.268,3.522,3.522,0,0,0,56.637-12.3h-.058l-.116-1.74H54.52c.029,1.131.116,1.972.116,3.625ZM74.849,0V-14.036H72.616V0Zm-1.16-19.111a1.339,1.339,0,0,0-1.305,1.45,1.318,1.318,0,0,0,1.276,1.45,1.3,1.3,0,0,0,1.363-1.45A1.312,1.312,0,0,0,73.689-19.111ZM84.506-2.059a3.817,3.817,0,0,1-1.624.377c-2.059,0-3.306-1.972-3.306-5.249,0-2.755,1.015-5.423,3.248-5.423a3.642,3.642,0,0,1,1.595.377l.435-1.827a4.514,4.514,0,0,0-1.972-.435c-3.509,0-5.539,3.277-5.539,7.308,0,4.64,2.059,7.1,5.133,7.1A4.811,4.811,0,0,0,84.8-.348ZM94.366,0a22.246,22.246,0,0,1-.145-3.19V-9.251c0-3.161-1.218-5.017-4.031-5.017a6.04,6.04,0,0,0-3.277.928l.493,1.566a4.227,4.227,0,0,1,2.32-.725c1.769,0,2.233,1.3,2.233,3.19v.435c-3.161.029-5.974,1.595-5.974,5.1,0,2.407,1.45,4,3.335,4A3.15,3.15,0,0,0,92.1-1.479h.087L92.336,0ZM92.017-4.408a3.7,3.7,0,0,1-.058.783c-.261,1.392-1.1,2.117-2.088,2.117-.783,0-1.711-.667-1.711-2.494,0-3.045,2.7-3.248,3.857-3.248Z" transform="translate(44.638 541.341)" fill="#fff"/>
  <path id="Trazado_914331" data-name="Trazado 914331" d="M1.682,0h3.8V-7.279h.754a6.85,6.85,0,0,0,4.756-1.856,6.579,6.579,0,0,0,1.653-4.7,5.638,5.638,0,0,0-1.682-4.292c-1.276-1.189-3.045-1.508-5.307-1.508a19.878,19.878,0,0,0-3.973.377Zm3.8-16.414a2.833,2.833,0,0,1,.928-.145c1.769,0,2.465,1.334,2.465,3.045,0,1.827-.87,3.19-2.784,3.19a1.977,1.977,0,0,1-.609-.058ZM14.935,0h3.8V-7.8h.551c1.276,0,1.885.7,2.233,3.132A27.033,27.033,0,0,0,22.475,0h3.973A31.465,31.465,0,0,1,25.2-5.307c-.377-2.088-1.044-3.335-2.378-3.857v-.058a5.208,5.208,0,0,0,3.016-4.9,4.978,4.978,0,0,0-1.537-4.06c-1.276-1.16-3.132-1.45-5.22-1.45a22.7,22.7,0,0,0-4.147.377Zm3.8-16.559a2.707,2.707,0,0,1,.9-.116c1.711.058,2.378,1.247,2.378,2.9,0,1.711-.957,3.045-2.61,3.045h-.667Zm15.312-3.219c-4.321,0-6.438,4.611-6.438,9.947,0,5.365,1.74,10.063,6.177,10.063,3.712,0,6.322-2.987,6.322-10.353C40.107-14.587,38.773-19.778,34.046-19.778ZM33.9-16.472c1.711,0,2.233,3.1,2.233,6.525,0,3.973-.609,6.873-2.2,6.873-1.537,0-2.378-2.262-2.378-6.7C31.552-13.978,32.393-16.472,33.9-16.472ZM42.514-.058a28.287,28.287,0,0,0,3.132.2c2.726,0,4.669-.609,5.974-1.885,1.711-1.508,2.726-4.321,2.726-8.265,0-3.8-.87-6.38-2.552-7.888a7.523,7.523,0,0,0-5.423-1.74,17.469,17.469,0,0,0-3.857.377Zm3.8-16.443a2.156,2.156,0,0,1,.754-.087c2.291,0,3.335,2.436,3.335,6.438,0,5.394-1.6,7.192-3.422,7.192a2.488,2.488,0,0,1-.667-.058Zm10.324-3.045V-7.482c0,4.9,1.595,7.714,5.684,7.714,3.77,0,5.655-2.726,5.655-7.743V-19.546h-3.8v12.7c0,2.958-.783,3.741-1.885,3.741-.986,0-1.856-.87-1.856-3.741v-12.7ZM80.243-3.48a6.7,6.7,0,0,1-1.827.29c-2.32,0-4.089-1.827-4.089-6.5,0-4.843,1.943-6.7,4.089-6.7a3.823,3.823,0,0,1,1.769.377l.638-3.19a5.219,5.219,0,0,0-2.639-.522c-3.8,0-7.888,2.871-7.888,10.237,0,5.539,2.378,9.657,7.366,9.657A7.691,7.691,0,0,0,80.62-.29ZM85.521,0h3.8V-16.037H92.8v-3.509H82.07v3.509h3.451ZM99.9-19.778c-4.321,0-6.438,4.611-6.438,9.947,0,5.365,1.74,10.063,6.177,10.063,3.712,0,6.322-2.987,6.322-10.353C105.966-14.587,104.632-19.778,99.9-19.778Zm-.145,3.306c1.711,0,2.233,3.1,2.233,6.525,0,3.973-.609,6.873-2.2,6.873-1.537,0-2.378-2.262-2.378-6.7C97.411-13.978,98.252-16.472,99.76-16.472Z" transform="translate(290.096 359.5)" fill="#fff"/>
  <path id="Trazado_914332" data-name="Trazado 914332" d="M3.8,0H7.6V-16.037h3.48v-3.509H.348v3.509H3.8Zm9.164-19.546V-7.482c0,4.9,1.6,7.714,5.684,7.714,3.77,0,5.655-2.726,5.655-7.743V-19.546H20.5v12.7c0,2.958-.783,3.741-1.885,3.741-.986,0-1.856-.87-1.856-3.741v-12.7ZM27.579,0h3.8V-7.8h.551c1.276,0,1.885.7,2.233,3.132A27.034,27.034,0,0,0,35.119,0h3.973a31.465,31.465,0,0,1-1.247-5.307c-.377-2.088-1.044-3.335-2.378-3.857v-.058a5.208,5.208,0,0,0,3.016-4.9,4.978,4.978,0,0,0-1.537-4.06c-1.276-1.16-3.132-1.45-5.22-1.45a22.7,22.7,0,0,0-4.147.377Zm3.8-16.559a2.708,2.708,0,0,1,.9-.116c1.711.058,2.378,1.247,2.378,2.9,0,1.711-.957,3.045-2.61,3.045h-.667Zm9.831-2.987V0h3.8V-19.546Zm2.465-4.321L41.267-20.59h2.7L47.5-23.867ZM47.415-.609a8.588,8.588,0,0,0,3.741.783c3.828,0,6.467-2.349,6.467-5.916,0-2.059-.957-4.031-3.538-5.6-2.117-1.276-2.7-1.885-2.7-3.045a2.115,2.115,0,0,1,2.407-2.03,4.659,4.659,0,0,1,2.494.667l.609-3.277a6.674,6.674,0,0,0-3.074-.7c-4.089,0-6.177,2.61-6.177,5.742,0,1.769,1.015,3.828,3.683,5.452,1.653,1.073,2.523,1.769,2.523,3.19,0,1.276-.87,2.2-2.668,2.2a7.418,7.418,0,0,1-3.219-.754ZM61.944,0h3.8V-16.037h3.48v-3.509H58.493v3.509h3.451Zm9.28-19.546V0h3.8V-19.546ZM87.406-3.48a6.7,6.7,0,0,1-1.827.29c-2.32,0-4.089-1.827-4.089-6.5,0-4.843,1.943-6.7,4.089-6.7a3.823,3.823,0,0,1,1.769.377l.638-3.19a5.219,5.219,0,0,0-2.639-.522c-3.8,0-7.888,2.871-7.888,10.237,0,5.539,2.378,9.657,7.366,9.657A7.691,7.691,0,0,0,87.783-.29Zm7.6-16.3c-4.321,0-6.438,4.611-6.438,9.947,0,5.365,1.74,10.063,6.177,10.063,3.712,0,6.322-2.987,6.322-10.353C101.065-14.587,99.731-19.778,95-19.778Zm-.145,3.306c1.711,0,2.233,3.1,2.233,6.525,0,3.973-.609,6.873-2.2,6.873-1.537,0-2.378-2.262-2.378-6.7C92.51-13.978,93.351-16.472,94.859-16.472Z" transform="translate(292.765 385.713)" fill="#fff"/>
</svg>
